<?xml version="1.0" standalone="no"?>
<!DOCTYPE svg PUBLIC "-//W3C//DTD SVG 20010904//EN"
 "http://www.w3.org/TR/2001/REC-SVG-20010904/DTD/svg10.dtd">
<svg version="1.0" xmlns="http://www.w3.org/2000/svg"
 width="399.000000pt" height="265.000000pt" viewBox="0 0 399.000000 265.000000"
 preserveAspectRatio="xMidYMid meet">

<g transform="translate(0.000000,265.000000) scale(0.100000,-0.100000)"
fill="#000000" stroke="none">
<path d="M1857 2610 c-258 -54 -484 -260 -562 -510 -9 -30 -19 -61 -21 -69 -3
-9 -25 6 -67 47 -83 82 -119 108 -202 147 -304 142 -663 46 -856 -228 -154
-219 -166 -496 -32 -736 45 -81 167 -206 246 -250 31 -18 57 -34 57 -35 0 -1
-9 -20 -19 -42 -32 -67 -44 -126 -45 -219 0 -112 27 -204 84 -292 104 -157
266 -243 460 -243 128 0 221 32 328 112 l53 39 68 -69 c334 -337 883 -307
1147 64 40 56 50 64 78 64 94 0 248 64 347 146 l67 55 52 -31 c78 -46 191 -80
283 -87 268 -17 527 155 617 410 78 223 21 470 -149 637 -57 56 -185 140 -196
128 -2 -2 22 -17 53 -33 79 -40 191 -154 231 -234 40 -79 71 -197 71 -270 -1
-285 -222 -537 -500 -570 -137 -17 -278 16 -393 93 -30 20 -60 36 -68 36 -9 0
-10 3 -3 8 22 15 22 40 0 61 -22 20 -56 29 -56 14 0 -5 9 -22 19 -39 l19 -31
-51 -51 c-65 -64 -153 -117 -236 -142 -103 -32 -102 -33 -76 58 13 42 26 107
30 145 7 62 9 67 31 67 31 0 36 21 38 174 1 114 -1 126 -19 140 -31 24 -40 20
-100 -38 l-55 -54 0 39 c0 60 -23 48 -46 -23 -11 -33 -26 -65 -34 -69 -8 -4
-52 -26 -97 -47 l-82 -39 -16 23 c-8 13 -15 25 -15 27 0 3 41 19 90 37 50 18
90 34 90 37 0 16 -25 45 -52 59 -35 18 -129 15 -167 -6 -20 -10 -22 -17 -16
-60 4 -30 3 -50 -4 -55 -17 -10 -13 -25 7 -25 9 0 27 -17 40 -40 30 -53 66
-63 96 -27 11 15 45 37 74 51 50 22 56 23 88 10 33 -14 36 -13 60 13 13 14 34
42 45 60 12 19 23 32 26 30 2 -3 0 -31 -6 -63 -16 -82 -14 -112 8 -130 18 -16
18 -18 0 -100 -46 -210 -159 -381 -322 -488 -392 -256 -925 -70 -1116 389 -17
40 -31 81 -31 89 0 9 -5 16 -11 16 -23 0 12 -123 67 -232 l34 -67 -43 -36
c-268 -232 -692 -95 -782 252 -29 112 -13 256 39 350 l24 41 -43 17 c-68 26
-180 109 -236 178 -60 71 -111 173 -135 267 -22 87 -15 259 15 350 62 195 216
348 420 417 63 22 95 26 186 26 129 1 205 -17 310 -71 89 -46 217 -171 267
-262 40 -72 39 -73 61 45 27 149 91 275 192 380 199 207 512 277 773 173 l53
-21 -62 -61 c-53 -53 -139 -177 -139 -200 0 -5 18 19 41 53 86 130 242 238
399 277 95 24 251 15 348 -19 138 -48 282 -168 359 -298 92 -154 123 -379 77
-547 -5 -18 -3 -21 10 -16 9 3 14 10 11 14 -2 4 3 41 11 81 24 113 15 260 -24
372 -40 116 -83 187 -167 272 -79 81 -163 134 -274 173 -65 22 -93 26 -191 26
-126 0 -191 -14 -288 -63 l-55 -28 -76 33 c-150 64 -300 79 -464 44z m501
-1606 c3 -21 -3 -24 -115 -71 -14 -6 -33 35 -26 55 6 14 89 42 118 39 12 -1
21 -11 23 -23z"/>
<path d="M1088 2041 c-4 -14 -12 -77 -19 -140 -6 -64 -13 -121 -14 -127 -3
-11 -244 -144 -261 -144 -8 0 3 379 12 404 3 9 2 16 -4 16 -14 0 -40 -154 -52
-309 -6 -88 -14 -137 -22 -143 -8 -5 -9 -8 -2 -8 8 0 10 -36 7 -117 -5 -129 3
-161 33 -131 14 13 18 42 22 142 l5 125 125 61 c68 33 127 60 131 60 3 0 5
-64 3 -142 -4 -164 3 -228 23 -228 8 0 17 10 20 23 8 33 1 686 -7 658z"/>
<path d="M2026 1963 c-17 -76 -56 -361 -56 -417 0 -29 4 -36 20 -36 11 0 21 1
21 3 1 1 4 49 8 106 l6 103 90 32 c50 18 100 38 113 45 12 6 22 9 22 6 0 -3
-16 -62 -36 -130 -40 -139 -41 -168 -6 -173 51 -7 61 25 92 288 11 91 20 175
20 188 0 34 -18 17 -30 -28 -5 -22 -15 -58 -20 -79 -7 -27 -17 -42 -33 -46
-12 -4 -61 -25 -110 -46 -48 -21 -89 -39 -92 -39 -8 0 -6 99 5 194 6 49 9 91
6 93 -2 2 -11 -27 -20 -64z"/>
<path d="M2957 1790 c5 -25 2 -30 -14 -30 -11 0 -28 -9 -38 -20 -25 -27 -38
-25 -31 5 5 18 2 25 -8 25 -10 0 -21 -26 -34 -82 -17 -74 -17 -84 -4 -95 24
-19 27 -17 39 30 7 24 29 63 52 88 l39 44 7 -30 c3 -16 10 -39 14 -50 9 -21
-22 -73 -121 -204 -55 -73 -60 -98 -22 -107 30 -8 31 -7 118 146 71 125 150
289 143 296 -2 2 -24 -23 -48 -56 -49 -67 -44 -69 -69 28 -12 47 -33 58 -23
12z"/>
<path d="M2710 1748 c-48 -79 -52 -141 -9 -146 l26 -3 -14 -52 c-7 -29 -16
-77 -20 -109 -8 -76 -10 -78 -63 -68 -51 10 -96 13 -88 5 11 -11 180 -37 187
-29 4 5 15 70 25 144 9 74 23 160 31 189 13 50 13 56 -3 68 -45 35 -51 35 -72
1z m46 -45 c-7 -16 -23 -37 -35 -47 l-21 -19 14 41 c8 22 20 51 27 63 10 20
12 20 21 6 6 -11 4 -26 -6 -44z"/>
<path d="M2417 1679 l-69 -74 7 56 c8 67 -9 90 -24 32 -33 -126 -34 -135 -20
-144 29 -18 47 -7 98 64 49 66 53 69 46 37 -19 -101 -19 -100 4 -100 12 0 21
6 21 15 0 13 4 14 21 5 11 -7 21 -10 22 -8 34 67 102 157 112 146 2 -2 -3 -34
-10 -73 -14 -73 -13 -85 11 -85 11 0 14 17 16 70 1 39 2 80 2 92 1 36 -21 32
-69 -13 l-46 -43 6 30 c4 16 9 35 11 42 2 8 -2 12 -8 10 -7 -3 -22 -29 -33
-59 l-20 -54 -5 64 -5 65 -68 -75z"/>
<path d="M1613 1693 c-9 -36 -8 -50 0 -55 17 -10 24 1 31 55 6 37 4 47 -7 47
-8 0 -18 -19 -24 -47z"/>
<path d="M1759 1723 c-32 -37 -79 -112 -79 -126 0 -22 27 -29 79 -21 l46 7
-28 -37 c-15 -20 -38 -51 -52 -69 -30 -40 -31 -47 -6 -47 18 0 67 65 105 139
l18 34 -56 -5 c-31 -3 -56 -1 -56 2 0 4 11 33 25 65 28 62 29 88 4 58z"/>
<path d="M3443 1683 c9 -2 23 -2 30 0 6 3 -1 5 -18 5 -16 0 -22 -2 -12 -5z"/>
<path d="M1267 1638 c-3 -24 -9 -67 -13 -96 -5 -48 -9 -55 -38 -67 -46 -20
-53 -3 -19 52 33 54 54 108 46 117 -34 34 -133 -61 -133 -127 0 -38 34 -60
103 -68 35 -4 70 -9 78 -11 9 -2 13 5 12 22 -4 43 17 114 44 149 21 27 23 35
12 42 -20 13 -26 11 -42 -11 -14 -20 -15 -20 -20 10 -9 43 -24 37 -30 -12z
m-57 -33 c-15 -41 -50 -105 -56 -105 -12 0 6 63 27 96 24 40 43 45 29 9z"/>
<path d="M3498 1673 c7 -3 16 -2 19 1 4 3 -2 6 -13 5 -11 0 -14 -3 -6 -6z"/>
<path d="M1417 1638 c-38 -42 -67 -88 -67 -110 0 -20 49 -50 116 -71 70 -22
94 -26 94 -17 0 4 -17 11 -37 15 -51 9 -126 42 -121 54 1 5 23 26 48 46 51 43
92 94 84 106 -3 5 -23 9 -46 9 -32 0 -46 -6 -71 -32z m64 5 c-5 -10 -24 -31
-42 -48 -34 -32 -31 -21 8 33 26 34 51 45 34 15z"/>
<path d="M3545 1660 c27 -12 43 -12 25 0 -8 5 -22 9 -30 9 -10 0 -8 -3 5 -9z"/>
<path d="M3197 1252 c-11 -19 -98 -297 -103 -331 -5 -33 -3 -41 15 -51 47 -25
54 -11 89 172 17 95 32 180 32 189 0 17 -26 34 -33 21z"/>
<path d="M2912 1199 c-33 -91 -71 -212 -82 -263 -9 -40 -8 -53 5 -72 8 -13 22
-24 30 -24 16 0 16 2 40 142 9 53 25 129 35 170 16 61 17 75 6 87 -12 11 -17
5 -34 -40z"/>
<path d="M1506 1229 c-3 -8 -14 -63 -26 -124 -21 -117 -65 -304 -71 -308 -63
-36 -175 -80 -215 -84 -47 -5 -53 -3 -64 17 -39 73 85 290 224 392 33 24 36
28 17 28 -41 0 -98 -39 -169 -115 -114 -122 -165 -253 -118 -304 45 -49 171
-53 264 -9 l51 25 3 -36 c3 -30 7 -36 29 -39 23 -3 27 2 42 55 14 52 62 141
110 205 16 22 17 20 10 -62 -4 -47 -8 -110 -8 -140 0 -49 2 -55 23 -58 20 -3
22 1 22 46 0 27 3 104 7 170 l6 122 -25 0 c-26 0 -56 -28 -107 -99 -33 -47
-36 -42 -22 35 13 68 33 286 27 292 -3 3 -8 -1 -10 -9z"/>
<path d="M3041 1208 c-29 -73 -91 -275 -91 -299 0 -14 11 -36 26 -49 21 -21
27 -22 34 -10 5 8 10 26 10 39 0 13 14 84 30 158 17 73 30 147 30 163 0 40
-22 38 -39 -2z"/>
<path d="M1996 1178 c-11 -66 -28 -342 -23 -391 3 -33 11 -55 23 -64 33 -24
37 -15 31 62 -3 41 -4 75 -1 75 2 0 26 -14 54 -31 27 -17 56 -29 62 -27 8 3 3
10 -12 18 -43 22 -112 82 -103 90 4 4 28 12 53 19 50 14 107 50 78 51 -9 0
-40 -11 -69 -24 -29 -14 -56 -23 -61 -20 -4 3 -8 66 -8 140 0 127 -11 173 -24
102z"/>
<path d="M1835 1047 c-23 -36 -65 -165 -71 -223 -6 -46 -4 -53 14 -63 37 -20
60 -13 78 22 9 17 34 55 55 84 44 59 46 63 21 63 -9 0 -37 -25 -61 -55 -24
-30 -46 -55 -48 -55 -8 0 8 81 29 148 16 54 22 62 39 57 30 -10 24 24 -7 35
-33 13 -31 14 -49 -13z"/>
<path d="M1701 950 c-6 -28 -14 -81 -17 -118 -5 -54 -3 -70 9 -80 26 -22 38
17 44 139 5 95 4 109 -10 109 -10 0 -19 -16 -26 -50z"/>
<path d="M3104 759 c-10 -17 12 -32 35 -24 29 9 27 35 -3 35 -14 0 -28 -5 -32
-11z"/>
<path d="M2784 708 c-8 -12 21 -38 43 -38 18 0 16 14 -5 33 -22 20 -28 21 -38
5z"/>
</g>
</svg>
