<?xml version="1.0" standalone="yes"?>
<svg xmlns="http://www.w3.org/2000/svg" width="649" height="499">
<path style="fill:#010101; stroke:none;" d="M0 0L0 499L649 499L649 0L0 0z"/>
<path style="fill:#2c2c2c; stroke:none;" d="M639 8L640 9L639 8z"/>
<path style="fill:#7e7e7e; stroke:none;" d="M640.667 8.33334L641.333 8.66666L640.667 8.33334z"/>
<path style="fill:#bdbdbd; stroke:none;" d="M642 8L588 21.8734L484 47.8734L173 126.127L51 156.627L19 164.627L7.02778 168.728L6 191L6 253L6 493L643 493L643 150L643 51C643 38.7942 646.707 19.2178 642 8z"/>
<path style="fill:#2c2c2c; stroke:none;" d="M635 9L636 10L635 9z"/>
<path style="fill:#7e7e7e; stroke:none;" d="M636.667 9.33334L637.333 9.66666L636.667 9.33334z"/>
<path style="fill:#2c2c2c; stroke:none;" d="M631 10L632 11L631 10z"/>
<path style="fill:#7e7e7e; stroke:none;" d="M632.667 10.3333L633.333 10.6667L632.667 10.3333z"/>
<path style="fill:#2c2c2c; stroke:none;" d="M627 11L628 12L627 11z"/>
<path style="fill:#4f4f4f; stroke:none;" d="M628 11L629 12L628 11z"/>
<path style="fill:#7e7e7e; stroke:none;" d="M629 11L630 12L629 11z"/>
<path style="fill:#2c2c2c; stroke:none;" d="M623 12L624 13L623 12z"/>
<path style="fill:#4f4f4f; stroke:none;" d="M624 12L625 13L624 12z"/>
<path style="fill:#7e7e7e; stroke:none;" d="M625 12L626 13L625 12z"/>
<path style="fill:#2c2c2c; stroke:none;" d="M619 13L620 14L619 13z"/>
<path style="fill:#4f4f4f; stroke:none;" d="M620 13L621 14L620 13z"/>
<path style="fill:#7e7e7e; stroke:none;" d="M621 13L622 14L621 13z"/>
<path style="fill:#2c2c2c; stroke:none;" d="M615 14L616 15L615 14z"/>
<path style="fill:#4f4f4f; stroke:none;" d="M616 14L617 15L616 14z"/>
<path style="fill:#7e7e7e; stroke:none;" d="M617 14L618 15L617 14z"/>
<path style="fill:#2c2c2c; stroke:none;" d="M611 15L612 16L611 15z"/>
<path style="fill:#4f4f4f; stroke:none;" d="M612 15L613 16L612 15z"/>
<path style="fill:#7e7e7e; stroke:none;" d="M613 15L614 16L613 15z"/>
<path style="fill:#2c2c2c; stroke:none;" d="M607 16L608 17L607 16z"/>
<path style="fill:#4f4f4f; stroke:none;" d="M608 16L609 17L608 16z"/>
<path style="fill:#7e7e7e; stroke:none;" d="M609 16L610 17L609 16z"/>
<path style="fill:#2c2c2c; stroke:none;" d="M603 17L604 18L603 17z"/>
<path style="fill:#4f4f4f; stroke:none;" d="M604 17L605 18L604 17z"/>
<path style="fill:#7e7e7e; stroke:none;" d="M605 17L606 18L605 17z"/>
<path style="fill:#2c2c2c; stroke:none;" d="M599 18L600 19L599 18z"/>
<path style="fill:#4f4f4f; stroke:none;" d="M600 18L601 19L600 18z"/>
<path style="fill:#7e7e7e; stroke:none;" d="M601 18L602 19L601 18z"/>
<path style="fill:#2c2c2c; stroke:none;" d="M595 19L596 20L595 19z"/>
<path style="fill:#4f4f4f; stroke:none;" d="M596 19L597 20L596 19z"/>
<path style="fill:#7e7e7e; stroke:none;" d="M597 19L598 20L597 19z"/>
<path style="fill:#2c2c2c; stroke:none;" d="M591 20L592 21L591 20z"/>
<path style="fill:#4f4f4f; stroke:none;" d="M592 20L593 21L592 20z"/>
<path style="fill:#7e7e7e; stroke:none;" d="M593 20L594 21L593 20z"/>
<path style="fill:#2c2c2c; stroke:none;" d="M587 21L588 22L587 21z"/>
<path style="fill:#4f4f4f; stroke:none;" d="M588 21L589 22L588 21z"/>
<path style="fill:#7e7e7e; stroke:none;" d="M589 21L590 22L589 21z"/>
<path style="fill:#2c2c2c; stroke:none;" d="M583 22L584 23L583 22z"/>
<path style="fill:#4f4f4f; stroke:none;" d="M584 22L585 23L584 22z"/>
<path style="fill:#7e7e7e; stroke:none;" d="M585 22L586 23L585 22z"/>
<path style="fill:#2c2c2c; stroke:none;" d="M579 23L580 24L579 23z"/>
<path style="fill:#4f4f4f; stroke:none;" d="M580 23L581 24L580 23z"/>
<path style="fill:#7e7e7e; stroke:none;" d="M581 23L582 24L581 23z"/>
<path style="fill:#2c2c2c; stroke:none;" d="M575 24L576 25L575 24z"/>
<path style="fill:#4f4f4f; stroke:none;" d="M576 24L577 25L576 24z"/>
<path style="fill:#7e7e7e; stroke:none;" d="M577 24L578 25L577 24z"/>
<path style="fill:#2c2c2c; stroke:none;" d="M571 25L572 26L571 25z"/>
<path style="fill:#4f4f4f; stroke:none;" d="M572 25L573 26L572 25z"/>
<path style="fill:#7e7e7e; stroke:none;" d="M573 25L574 26L573 25z"/>
<path style="fill:#2c2c2c; stroke:none;" d="M567 26L568 27L567 26z"/>
<path style="fill:#4f4f4f; stroke:none;" d="M568 26L569 27L568 26z"/>
<path style="fill:#7e7e7e; stroke:none;" d="M569 26L570 27L569 26z"/>
<path style="fill:#2c2c2c; stroke:none;" d="M563 27L564 28L563 27z"/>
<path style="fill:#4f4f4f; stroke:none;" d="M564 27L565 28L564 27z"/>
<path style="fill:#7e7e7e; stroke:none;" d="M565 27L566 28L565 27z"/>
<path style="fill:#2c2c2c; stroke:none;" d="M559 28L560 29L559 28z"/>
<path style="fill:#4f4f4f; stroke:none;" d="M560 28L561 29L560 28z"/>
<path style="fill:#7e7e7e; stroke:none;" d="M561 28L562 29L561 28z"/>
<path style="fill:#2c2c2c; stroke:none;" d="M555 29L556 30L555 29z"/>
<path style="fill:#4f4f4f; stroke:none;" d="M556 29L557 30L556 29z"/>
<path style="fill:#7e7e7e; stroke:none;" d="M557 29L558 30L557 29z"/>
<path style="fill:#2c2c2c; stroke:none;" d="M551 30L552 31L551 30z"/>
<path style="fill:#4f4f4f; stroke:none;" d="M552 30L553 31L552 30z"/>
<path style="fill:#7e7e7e; stroke:none;" d="M553 30L554 31L553 30z"/>
<path style="fill:#2c2c2c; stroke:none;" d="M547 31L548 32L547 31z"/>
<path style="fill:#4f4f4f; stroke:none;" d="M548 31L549 32L548 31z"/>
<path style="fill:#7e7e7e; stroke:none;" d="M549 31L550 32L549 31z"/>
<path style="fill:#2c2c2c; stroke:none;" d="M543 32L544 33L543 32z"/>
<path style="fill:#4f4f4f; stroke:none;" d="M544 32L545 33L544 32z"/>
<path style="fill:#7e7e7e; stroke:none;" d="M545 32L546 33L545 32z"/>
<path style="fill:#2c2c2c; stroke:none;" d="M539 33L540 34L539 33z"/>
<path style="fill:#4f4f4f; stroke:none;" d="M540 33L541 34L540 33z"/>
<path style="fill:#7e7e7e; stroke:none;" d="M541 33L542 34L541 33z"/>
<path style="fill:#2c2c2c; stroke:none;" d="M535 34L536 35L535 34z"/>
<path style="fill:#4f4f4f; stroke:none;" d="M536 34L537 35L536 34z"/>
<path style="fill:#7e7e7e; stroke:none;" d="M537 34L538 35L537 34z"/>
<path style="fill:#2c2c2c; stroke:none;" d="M531 35L532 36L531 35z"/>
<path style="fill:#4f4f4f; stroke:none;" d="M532 35L533 36L532 35z"/>
<path style="fill:#7e7e7e; stroke:none;" d="M533 35L534 36L533 35z"/>
<path style="fill:#2c2c2c; stroke:none;" d="M527 36L528 37L527 36z"/>
<path style="fill:#4f4f4f; stroke:none;" d="M528 36L529 37L528 36z"/>
<path style="fill:#7e7e7e; stroke:none;" d="M529 36L530 37L529 36z"/>
<path style="fill:#2c2c2c; stroke:none;" d="M523 37L524 38L523 37z"/>
<path style="fill:#4f4f4f; stroke:none;" d="M524 37L525 38L524 37z"/>
<path style="fill:#7e7e7e; stroke:none;" d="M525 37L526 38L525 37z"/>
<path style="fill:#2c2c2c; stroke:none;" d="M519 38L520 39L519 38z"/>
<path style="fill:#4f4f4f; stroke:none;" d="M520 38L521 39L520 38z"/>
<path style="fill:#7e7e7e; stroke:none;" d="M521 38L522 39L521 38z"/>
<path style="fill:#2c2c2c; stroke:none;" d="M515 39L516 40L515 39z"/>
<path style="fill:#4f4f4f; stroke:none;" d="M516 39L517 40L516 39z"/>
<path style="fill:#7e7e7e; stroke:none;" d="M517 39L518 40L517 39z"/>
<path style="fill:#2c2c2c; stroke:none;" d="M511 40L512 41L511 40z"/>
<path style="fill:#4f4f4f; stroke:none;" d="M512 40L513 41L512 40z"/>
<path style="fill:#7e7e7e; stroke:none;" d="M513 40L514 41L513 40z"/>
<path style="fill:#2c2c2c; stroke:none;" d="M507 41L508 42L507 41z"/>
<path style="fill:#4f4f4f; stroke:none;" d="M508 41L509 42L508 41z"/>
<path style="fill:#7e7e7e; stroke:none;" d="M509 41L510 42L509 41z"/>
<path style="fill:#2c2c2c; stroke:none;" d="M503 42L504 43L503 42z"/>
<path style="fill:#4f4f4f; stroke:none;" d="M504 42L505 43L504 42z"/>
<path style="fill:#7e7e7e; stroke:none;" d="M505 42L506 43L505 42z"/>
<path style="fill:#2c2c2c; stroke:none;" d="M499 43L500 44L499 43z"/>
<path style="fill:#4f4f4f; stroke:none;" d="M500 43L501 44L500 43z"/>
<path style="fill:#7e7e7e; stroke:none;" d="M501 43L502 44L501 43z"/>
<path style="fill:#2c2c2c; stroke:none;" d="M495 44L496 45L495 44z"/>
<path style="fill:#4f4f4f; stroke:none;" d="M496 44L497 45L496 44z"/>
<path style="fill:#7e7e7e; stroke:none;" d="M497 44L498 45L497 44z"/>
<path style="fill:#2c2c2c; stroke:none;" d="M491 45L492 46L491 45z"/>
<path style="fill:#4f4f4f; stroke:none;" d="M492 45L493 46L492 45z"/>
<path style="fill:#7e7e7e; stroke:none;" d="M493 45L494 46L493 45z"/>
<path style="fill:#2c2c2c; stroke:none;" d="M487 46L488 47L487 46z"/>
<path style="fill:#4f4f4f; stroke:none;" d="M488 46L489 47L488 46z"/>
<path style="fill:#7e7e7e; stroke:none;" d="M489 46L490 47L489 46z"/>
<path style="fill:#4f4f4f; stroke:none;" d="M484 47L485 48L484 47z"/>
<path style="fill:#7e7e7e; stroke:none;" d="M485 47L486 48L485 47z"/>
<path style="fill:#4f4f4f; stroke:none;" d="M480 48L481 49L480 48z"/>
<path style="fill:#7e7e7e; stroke:none;" d="M481 48L482 49L481 48z"/>
<path style="fill:#4f4f4f; stroke:none;" d="M476 49L477 50L476 49z"/>
<path style="fill:#7e7e7e; stroke:none;" d="M477 49L478 50L477 49z"/>
<path style="fill:#4f4f4f; stroke:none;" d="M472 50L473 51L472 50z"/>
<path style="fill:#7e7e7e; stroke:none;" d="M473 50L474 51L473 50z"/>
<path style="fill:#4f4f4f; stroke:none;" d="M468 51L469 52L468 51z"/>
<path style="fill:#7e7e7e; stroke:none;" d="M469 51L470 52L469 51z"/>
<path style="fill:#4f4f4f; stroke:none;" d="M464 52L465 53L464 52z"/>
<path style="fill:#7e7e7e; stroke:none;" d="M465 52L466 53L465 52z"/>
<path style="fill:#4f4f4f; stroke:none;" d="M460 53L461 54L460 53z"/>
<path style="fill:#7e7e7e; stroke:none;" d="M461 53L462 54L461 53z"/>
<path style="fill:#4f4f4f; stroke:none;" d="M456 54L457 55L456 54z"/>
<path style="fill:#7e7e7e; stroke:none;" d="M457 54L458 55L457 54z"/>
<path style="fill:#2c2c2c; stroke:none;" d="M452 55L453 56L452 55z"/>
<path style="fill:#7e7e7e; stroke:none;" d="M453.667 55.3333L454.333 55.6667L453.667 55.3333z"/>
<path style="fill:#2c2c2c; stroke:none;" d="M448 56L449 57L448 56z"/>
<path style="fill:#7e7e7e; stroke:none;" d="M449.667 56.3333L450.333 56.6667L449.667 56.3333z"/>
<path style="fill:#2c2c2c; stroke:none;" d="M444 57L445 58L444 57z"/>
<path style="fill:#7e7e7e; stroke:none;" d="M445.667 57.3333L446.333 57.6667L445.667 57.3333z"/>
<path style="fill:#2c2c2c; stroke:none;" d="M440 58L441 59L440 58z"/>
<path style="fill:#7e7e7e; stroke:none;" d="M441.667 58.3333L442.333 58.6667L441.667 58.3333z"/>
<path style="fill:#2c2c2c; stroke:none;" d="M436 59L437 60L436 59z"/>
<path style="fill:#7e7e7e; stroke:none;" d="M437.667 59.3333L438.333 59.6667L437.667 59.3333z"/>
<path style="fill:#2c2c2c; stroke:none;" d="M432 60L433 61L432 60z"/>
<path style="fill:#7e7e7e; stroke:none;" d="M433.667 60.3333L434.333 60.6667L433.667 60.3333z"/>
<path style="fill:#2c2c2c; stroke:none;" d="M428 61L429 62L428 61z"/>
<path style="fill:#7e7e7e; stroke:none;" d="M429.667 61.3333L430.333 61.6667L429.667 61.3333z"/>
<path style="fill:#2c2c2c; stroke:none;" d="M424 62L425 63L424 62z"/>
<path style="fill:#7e7e7e; stroke:none;" d="M425.667 62.3333L426.333 62.6667L425.667 62.3333z"/>
<path style="fill:#2c2c2c; stroke:none;" d="M420 63L421 64L420 63z"/>
<path style="fill:#7e7e7e; stroke:none;" d="M421.667 63.3333L422.333 63.6667L421.667 63.3333z"/>
<path style="fill:#2c2c2c; stroke:none;" d="M416 64L417 65L416 64z"/>
<path style="fill:#7e7e7e; stroke:none;" d="M417.667 64.3333L418.333 64.6667L417.667 64.3333z"/>
<path style="fill:#2c2c2c; stroke:none;" d="M412 65L413 66L412 65z"/>
<path style="fill:#7e7e7e; stroke:none;" d="M413.667 65.3333L414.333 65.6667L413.667 65.3333z"/>
<path style="fill:#2c2c2c; stroke:none;" d="M408 66L409 67L408 66z"/>
<path style="fill:#7e7e7e; stroke:none;" d="M409.667 66.3333L410.333 66.6667L409.667 66.3333z"/>
<path style="fill:#2c2c2c; stroke:none;" d="M404 67L405 68L404 67z"/>
<path style="fill:#7e7e7e; stroke:none;" d="M405.667 67.3333L406.333 67.6667L405.667 67.3333z"/>
<path style="fill:#2c2c2c; stroke:none;" d="M400 68L401 69L400 68z"/>
<path style="fill:#7e7e7e; stroke:none;" d="M401.667 68.3333L402.333 68.6667L401.667 68.3333z"/>
<path style="fill:#2c2c2c; stroke:none;" d="M396 69L397 70L396 69z"/>
<path style="fill:#4f4f4f; stroke:none;" d="M397 69L398 70L397 69z"/>
<path style="fill:#7e7e7e; stroke:none;" d="M398 69L399 70L398 69z"/>
<path style="fill:#2c2c2c; stroke:none;" d="M392 70L393 71L392 70z"/>
<path style="fill:#4f4f4f; stroke:none;" d="M393 70L394 71L393 70z"/>
<path style="fill:#7e7e7e; stroke:none;" d="M394 70L395 71L394 70z"/>
<path style="fill:#2c2c2c; stroke:none;" d="M388 71L389 72L388 71z"/>
<path style="fill:#4f4f4f; stroke:none;" d="M389 71L390 72L389 71z"/>
<path style="fill:#7e7e7e; stroke:none;" d="M390 71L391 72L390 71z"/>
<path style="fill:#2c2c2c; stroke:none;" d="M384 72L385 73L384 72z"/>
<path style="fill:#4f4f4f; stroke:none;" d="M385 72L386 73L385 72z"/>
<path style="fill:#7e7e7e; stroke:none;" d="M386 72L387 73L386 72z"/>
<path style="fill:#2c2c2c; stroke:none;" d="M380 73L381 74L380 73z"/>
<path style="fill:#4f4f4f; stroke:none;" d="M381 73L382 74L381 73z"/>
<path style="fill:#7e7e7e; stroke:none;" d="M382 73L383 74L382 73z"/>
<path style="fill:#2c2c2c; stroke:none;" d="M376 74L377 75L376 74z"/>
<path style="fill:#4f4f4f; stroke:none;" d="M377 74L378 75L377 74z"/>
<path style="fill:#7e7e7e; stroke:none;" d="M378 74L379 75L378 74z"/>
<path style="fill:#2c2c2c; stroke:none;" d="M372 75L373 76L372 75z"/>
<path style="fill:#4f4f4f; stroke:none;" d="M373 75L374 76L373 75z"/>
<path style="fill:#7e7e7e; stroke:none;" d="M374 75L375 76L374 75z"/>
<path style="fill:#2c2c2c; stroke:none;" d="M368 76L369 77L368 76z"/>
<path style="fill:#4f4f4f; stroke:none;" d="M369 76L370 77L369 76z"/>
<path style="fill:#7e7e7e; stroke:none;" d="M370 76L371 77L370 76z"/>
<path style="fill:#2c2c2c; stroke:none;" d="M364 77L365 78L364 77z"/>
<path style="fill:#4f4f4f; stroke:none;" d="M365 77L366 78L365 77z"/>
<path style="fill:#7e7e7e; stroke:none;" d="M366 77L367 78L366 77z"/>
<path style="fill:#2c2c2c; stroke:none;" d="M360 78L361 79L360 78z"/>
<path style="fill:#4f4f4f; stroke:none;" d="M361 78L362 79L361 78z"/>
<path style="fill:#7e7e7e; stroke:none;" d="M362 78L363 79L362 78z"/>
<path style="fill:#2c2c2c; stroke:none;" d="M356 79L357 80L356 79z"/>
<path style="fill:#4f4f4f; stroke:none;" d="M357 79L358 80L357 79z"/>
<path style="fill:#7e7e7e; stroke:none;" d="M358 79L359 80L358 79z"/>
<path style="fill:#2c2c2c; stroke:none;" d="M352 80L353 81L352 80z"/>
<path style="fill:#4f4f4f; stroke:none;" d="M353 80L354 81L353 80z"/>
<path style="fill:#7e7e7e; stroke:none;" d="M354 80L355 81L354 80z"/>
<path style="fill:#2c2c2c; stroke:none;" d="M348 81L349 82L348 81z"/>
<path style="fill:#4f4f4f; stroke:none;" d="M349 81L350 82L349 81z"/>
<path style="fill:#7e7e7e; stroke:none;" d="M350 81L351 82L350 81z"/>
<path style="fill:#2c2c2c; stroke:none;" d="M344 82L345 83L344 82z"/>
<path style="fill:#4f4f4f; stroke:none;" d="M345 82L346 83L345 82z"/>
<path style="fill:#7e7e7e; stroke:none;" d="M346 82L347 83L346 82z"/>
<path style="fill:#2c2c2c; stroke:none;" d="M340 83L341 84L340 83z"/>
<path style="fill:#4f4f4f; stroke:none;" d="M341 83L342 84L341 83z"/>
<path style="fill:#7e7e7e; stroke:none;" d="M342 83L343 84L342 83z"/>
<path style="fill:#2c2c2c; stroke:none;" d="M336 84L337 85L336 84z"/>
<path style="fill:#4f4f4f; stroke:none;" d="M337 84L338 85L337 84z"/>
<path style="fill:#7e7e7e; stroke:none;" d="M338 84L339 85L338 84z"/>
<path style="fill:#2c2c2c; stroke:none;" d="M332 85L333 86L332 85z"/>
<path style="fill:#4f4f4f; stroke:none;" d="M333 85L334 86L333 85z"/>
<path style="fill:#7e7e7e; stroke:none;" d="M334 85L335 86L334 85z"/>
<path style="fill:#2c2c2c; stroke:none;" d="M328 86L329 87L328 86z"/>
<path style="fill:#4f4f4f; stroke:none;" d="M329 86L330 87L329 86z"/>
<path style="fill:#7e7e7e; stroke:none;" d="M330 86L331 87L330 86z"/>
<path style="fill:#2c2c2c; stroke:none;" d="M324 87L325 88L324 87z"/>
<path style="fill:#4f4f4f; stroke:none;" d="M325 87L326 88L325 87z"/>
<path style="fill:#7e7e7e; stroke:none;" d="M326 87L327 88L326 87z"/>
<path style="fill:#2c2c2c; stroke:none;" d="M320 88L321 89L320 88z"/>
<path style="fill:#4f4f4f; stroke:none;" d="M321 88L322 89L321 88z"/>
<path style="fill:#7e7e7e; stroke:none;" d="M322 88L323 89L322 88z"/>
<path style="fill:#2c2c2c; stroke:none;" d="M316 89L317 90L316 89z"/>
<path style="fill:#4f4f4f; stroke:none;" d="M317 89L318 90L317 89z"/>
<path style="fill:#7e7e7e; stroke:none;" d="M318 89L319 90L318 89z"/>
<path style="fill:#2c2c2c; stroke:none;" d="M312 90L313 91L312 90z"/>
<path style="fill:#4f4f4f; stroke:none;" d="M313 90L314 91L313 90z"/>
<path style="fill:#7e7e7e; stroke:none;" d="M314 90L315 91L314 90z"/>
<path style="fill:#2c2c2c; stroke:none;" d="M308 91L309 92L308 91z"/>
<path style="fill:#4f4f4f; stroke:none;" d="M309 91L310 92L309 91z"/>
<path style="fill:#7e7e7e; stroke:none;" d="M310 91L311 92L310 91z"/>
<path style="fill:#2c2c2c; stroke:none;" d="M304 92L305 93L304 92z"/>
<path style="fill:#4f4f4f; stroke:none;" d="M305 92L306 93L305 92z"/>
<path style="fill:#7e7e7e; stroke:none;" d="M306 92L307 93L306 92z"/>
<path style="fill:#2c2c2c; stroke:none;" d="M300 93L301 94L300 93z"/>
<path style="fill:#4f4f4f; stroke:none;" d="M301 93L302 94L301 93z"/>
<path style="fill:#7e7e7e; stroke:none;" d="M302 93L303 94L302 93z"/>
<path style="fill:#2c2c2c; stroke:none;" d="M296 94L297 95L296 94z"/>
<path style="fill:#4f4f4f; stroke:none;" d="M297 94L298 95L297 94z"/>
<path style="fill:#7e7e7e; stroke:none;" d="M298 94L299 95L298 94z"/>
<path style="fill:#2c2c2c; stroke:none;" d="M292 95L293 96L292 95z"/>
<path style="fill:#4f4f4f; stroke:none;" d="M293 95L294 96L293 95z"/>
<path style="fill:#7e7e7e; stroke:none;" d="M294 95L295 96L294 95z"/>
<path style="fill:#2c2c2c; stroke:none;" d="M288 96L289 97L288 96z"/>
<path style="fill:#4f4f4f; stroke:none;" d="M289 96L290 97L289 96z"/>
<path style="fill:#7e7e7e; stroke:none;" d="M290 96L291 97L290 96z"/>
<path style="fill:#2c2c2c; stroke:none;" d="M284 97L285 98L284 97z"/>
<path style="fill:#4f4f4f; stroke:none;" d="M285 97L286 98L285 97z"/>
<path style="fill:#7e7e7e; stroke:none;" d="M286 97L287 98L286 97z"/>
<path style="fill:#2c2c2c; stroke:none;" d="M280 98L281 99L280 98z"/>
<path style="fill:#4f4f4f; stroke:none;" d="M281 98L282 99L281 98z"/>
<path style="fill:#7e7e7e; stroke:none;" d="M282 98L283 99L282 98z"/>
<path style="fill:#2c2c2c; stroke:none;" d="M276 99L277 100L276 99z"/>
<path style="fill:#4f4f4f; stroke:none;" d="M277 99L278 100L277 99z"/>
<path style="fill:#7e7e7e; stroke:none;" d="M278 99L279 100L278 99z"/>
<path style="fill:#2c2c2c; stroke:none;" d="M272 100L273 101L272 100z"/>
<path style="fill:#4f4f4f; stroke:none;" d="M273 100L274 101L273 100z"/>
<path style="fill:#7e7e7e; stroke:none;" d="M274 100L275 101L274 100z"/>
<path style="fill:#2c2c2c; stroke:none;" d="M268 101L269 102L268 101z"/>
<path style="fill:#4f4f4f; stroke:none;" d="M269 101L270 102L269 101z"/>
<path style="fill:#7e7e7e; stroke:none;" d="M270 101L271 102L270 101z"/>
<path style="fill:#2c2c2c; stroke:none;" d="M264 102L265 103L264 102z"/>
<path style="fill:#4f4f4f; stroke:none;" d="M265 102L266 103L265 102z"/>
<path style="fill:#7e7e7e; stroke:none;" d="M266 102L267 103L266 102z"/>
<path style="fill:#2c2c2c; stroke:none;" d="M260 103L261 104L260 103z"/>
<path style="fill:#4f4f4f; stroke:none;" d="M261 103L262 104L261 103z"/>
<path style="fill:#7e7e7e; stroke:none;" d="M262 103L263 104L262 103z"/>
<path style="fill:#2c2c2c; stroke:none;" d="M256 104L257 105L256 104z"/>
<path style="fill:#4f4f4f; stroke:none;" d="M257 104L258 105L257 104z"/>
<path style="fill:#7e7e7e; stroke:none;" d="M258 104L259 105L258 104z"/>
<path style="fill:#2c2c2c; stroke:none;" d="M252 105L253 106L252 105z"/>
<path style="fill:#4f4f4f; stroke:none;" d="M253 105L254 106L253 105z"/>
<path style="fill:#7e7e7e; stroke:none;" d="M254 105L255 106L254 105z"/>
<path style="fill:#4f4f4f; stroke:none;" d="M249 106L250 107L249 106z"/>
<path style="fill:#7e7e7e; stroke:none;" d="M250 106L251 107L250 106z"/>
<path style="fill:#4f4f4f; stroke:none;" d="M245 107L246 108L245 107z"/>
<path style="fill:#7e7e7e; stroke:none;" d="M246 107L247 108L246 107z"/>
<path style="fill:#4f4f4f; stroke:none;" d="M241 108L242 109L241 108z"/>
<path style="fill:#7e7e7e; stroke:none;" d="M242 108L243 109L242 108z"/>
<path style="fill:#4f4f4f; stroke:none;" d="M237 109L238 110L237 109z"/>
<path style="fill:#7e7e7e; stroke:none;" d="M238 109L239 110L238 109z"/>
<path style="fill:#4f4f4f; stroke:none;" d="M233 110L234 111L233 110z"/>
<path style="fill:#7e7e7e; stroke:none;" d="M234 110L235 111L234 110z"/>
<path style="fill:#4f4f4f; stroke:none;" d="M229 111L230 112L229 111z"/>
<path style="fill:#7e7e7e; stroke:none;" d="M230 111L231 112L230 111z"/>
<path style="fill:#4f4f4f; stroke:none;" d="M225 112L226 113L225 112z"/>
<path style="fill:#7e7e7e; stroke:none;" d="M226 112L227 113L226 112z"/>
<path style="fill:#2c2c2c; stroke:none;" d="M221 113L222 114L221 113z"/>
<path style="fill:#7e7e7e; stroke:none;" d="M222 113L223 114L222 113z"/>
<path style="fill:#2c2c2c; stroke:none;" d="M217 114L218 115L217 114z"/>
<path style="fill:#7e7e7e; stroke:none;" d="M218.667 114.333L219.333 114.667L218.667 114.333z"/>
<path style="fill:#2c2c2c; stroke:none;" d="M213 115L214 116L213 115z"/>
<path style="fill:#7e7e7e; stroke:none;" d="M214.667 115.333L215.333 115.667L214.667 115.333z"/>
<path style="fill:#2c2c2c; stroke:none;" d="M209 116L210 117L209 116z"/>
<path style="fill:#7e7e7e; stroke:none;" d="M210.667 116.333L211.333 116.667L210.667 116.333z"/>
<path style="fill:#2c2c2c; stroke:none;" d="M205 117L206 118L205 117z"/>
<path style="fill:#7e7e7e; stroke:none;" d="M206.667 117.333L207.333 117.667L206.667 117.333z"/>
<path style="fill:#2c2c2c; stroke:none;" d="M201 118L202 119L201 118z"/>
<path style="fill:#7e7e7e; stroke:none;" d="M202.667 118.333L203.333 118.667L202.667 118.333z"/>
<path style="fill:#2c2c2c; stroke:none;" d="M197 119L198 120L197 119z"/>
<path style="fill:#7e7e7e; stroke:none;" d="M198.667 119.333L199.333 119.667L198.667 119.333z"/>
<path style="fill:#2c2c2c; stroke:none;" d="M193 120L194 121L193 120z"/>
<path style="fill:#7e7e7e; stroke:none;" d="M194.667 120.333L195.333 120.667L194.667 120.333z"/>
<path style="fill:#2c2c2c; stroke:none;" d="M189 121L190 122L189 121z"/>
<path style="fill:#7e7e7e; stroke:none;" d="M190.667 121.333L191.333 121.667L190.667 121.333z"/>
<path style="fill:#2c2c2c; stroke:none;" d="M185 122L186 123L185 122z"/>
<path style="fill:#7e7e7e; stroke:none;" d="M186.667 122.333L187.333 122.667L186.667 122.333z"/>
<path style="fill:#2c2c2c; stroke:none;" d="M181 123L182 124L181 123z"/>
<path style="fill:#7e7e7e; stroke:none;" d="M182.667 123.333L183.333 123.667L182.667 123.333z"/>
<path style="fill:#2c2c2c; stroke:none;" d="M177 124L178 125L177 124z"/>
<path style="fill:#7e7e7e; stroke:none;" d="M178.667 124.333L179.333 124.667L178.667 124.333z"/>
<path style="fill:#2c2c2c; stroke:none;" d="M173 125L174 126L173 125z"/>
<path style="fill:#7e7e7e; stroke:none;" d="M174.667 125.333L175.333 125.667L174.667 125.333z"/>
<path style="fill:#2c2c2c; stroke:none;" d="M169 126L170 127L169 126z"/>
<path style="fill:#7e7e7e; stroke:none;" d="M170.667 126.333L171.333 126.667L170.667 126.333z"/>
<path style="fill:#2c2c2c; stroke:none;" d="M165 127L166 128L165 127z"/>
<path style="fill:#7e7e7e; stroke:none;" d="M166.667 127.333L167.333 127.667L166.667 127.333z"/>
<path style="fill:#2c2c2c; stroke:none;" d="M161 128L162 129L161 128z"/>
<path style="fill:#4f4f4f; stroke:none;" d="M162 128L163 129L162 128z"/>
<path style="fill:#7e7e7e; stroke:none;" d="M163 128L164 129L163 128z"/>
<path style="fill:#2c2c2c; stroke:none;" d="M157 129L158 130L157 129z"/>
<path style="fill:#4f4f4f; stroke:none;" d="M158 129L159 130L158 129z"/>
<path style="fill:#7e7e7e; stroke:none;" d="M159 129L160 130L159 129z"/>
<path style="fill:#2c2c2c; stroke:none;" d="M153 130L154 131L153 130z"/>
<path style="fill:#4f4f4f; stroke:none;" d="M154 130L155 131L154 130z"/>
<path style="fill:#7e7e7e; stroke:none;" d="M155 130L156 131L155 130z"/>
<path style="fill:#2c2c2c; stroke:none;" d="M149 131L150 132L149 131z"/>
<path style="fill:#4f4f4f; stroke:none;" d="M150 131L151 132L150 131z"/>
<path style="fill:#7e7e7e; stroke:none;" d="M151 131L152 132L151 131z"/>
<path style="fill:#2c2c2c; stroke:none;" d="M145 132L146 133L145 132z"/>
<path style="fill:#4f4f4f; stroke:none;" d="M146 132L147 133L146 132z"/>
<path style="fill:#7e7e7e; stroke:none;" d="M147 132L148 133L147 132z"/>
<path style="fill:#2c2c2c; stroke:none;" d="M141 133L142 134L141 133z"/>
<path style="fill:#4f4f4f; stroke:none;" d="M142 133L143 134L142 133z"/>
<path style="fill:#7e7e7e; stroke:none;" d="M143 133L144 134L143 133z"/>
<path style="fill:#2c2c2c; stroke:none;" d="M137 134L138 135L137 134z"/>
<path style="fill:#4f4f4f; stroke:none;" d="M138 134L139 135L138 134z"/>
<path style="fill:#7e7e7e; stroke:none;" d="M139 134L140 135L139 134z"/>
<path style="fill:#2c2c2c; stroke:none;" d="M133 135L134 136L133 135z"/>
<path style="fill:#4f4f4f; stroke:none;" d="M134 135L135 136L134 135z"/>
<path style="fill:#7e7e7e; stroke:none;" d="M135 135L136 136L135 135z"/>
<path style="fill:#2c2c2c; stroke:none;" d="M129 136L130 137L129 136z"/>
<path style="fill:#4f4f4f; stroke:none;" d="M130 136L131 137L130 136z"/>
<path style="fill:#7e7e7e; stroke:none;" d="M131 136L132 137L131 136z"/>
<path style="fill:#2c2c2c; stroke:none;" d="M125 137L126 138L125 137z"/>
<path style="fill:#4f4f4f; stroke:none;" d="M126 137L127 138L126 137z"/>
<path style="fill:#7e7e7e; stroke:none;" d="M127 137L128 138L127 137z"/>
<path style="fill:#2c2c2c; stroke:none;" d="M121 138L122 139L121 138z"/>
<path style="fill:#4f4f4f; stroke:none;" d="M122 138L123 139L122 138z"/>
<path style="fill:#7e7e7e; stroke:none;" d="M123 138L124 139L123 138z"/>
<path style="fill:#2c2c2c; stroke:none;" d="M117 139L118 140L117 139z"/>
<path style="fill:#4f4f4f; stroke:none;" d="M118 139L119 140L118 139z"/>
<path style="fill:#7e7e7e; stroke:none;" d="M119 139L120 140L119 139z"/>
<path style="fill:#2c2c2c; stroke:none;" d="M113 140L114 141L113 140z"/>
<path style="fill:#4f4f4f; stroke:none;" d="M114 140L115 141L114 140z"/>
<path style="fill:#7e7e7e; stroke:none;" d="M115 140L116 141L115 140z"/>
<path style="fill:#2c2c2c; stroke:none;" d="M109 141L110 142L109 141z"/>
<path style="fill:#4f4f4f; stroke:none;" d="M110 141L111 142L110 141z"/>
<path style="fill:#7e7e7e; stroke:none;" d="M111 141L112 142L111 141z"/>
<path style="fill:#2c2c2c; stroke:none;" d="M105 142L106 143L105 142z"/>
<path style="fill:#4f4f4f; stroke:none;" d="M106 142L107 143L106 142z"/>
<path style="fill:#7e7e7e; stroke:none;" d="M107 142L108 143L107 142z"/>
<path style="fill:#2c2c2c; stroke:none;" d="M101 143L102 144L101 143z"/>
<path style="fill:#4f4f4f; stroke:none;" d="M102 143L103 144L102 143z"/>
<path style="fill:#7e7e7e; stroke:none;" d="M103 143L104 144L103 143z"/>
<path style="fill:#2c2c2c; stroke:none;" d="M97 144L98 145L97 144z"/>
<path style="fill:#4f4f4f; stroke:none;" d="M98 144L99 145L98 144z"/>
<path style="fill:#7e7e7e; stroke:none;" d="M99 144L100 145L99 144z"/>
<path style="fill:#2c2c2c; stroke:none;" d="M93 145L94 146L93 145z"/>
<path style="fill:#4f4f4f; stroke:none;" d="M94 145L95 146L94 145z"/>
<path style="fill:#7e7e7e; stroke:none;" d="M95 145L96 146L95 145z"/>
<path style="fill:#2c2c2c; stroke:none;" d="M89 146L90 147L89 146z"/>
<path style="fill:#4f4f4f; stroke:none;" d="M90 146L91 147L90 146z"/>
<path style="fill:#7e7e7e; stroke:none;" d="M91 146L92 147L91 146z"/>
<path style="fill:#2c2c2c; stroke:none;" d="M85 147L86 148L85 147z"/>
<path style="fill:#4f4f4f; stroke:none;" d="M86 147L87 148L86 147z"/>
<path style="fill:#7e7e7e; stroke:none;" d="M87 147L88 148L87 147z"/>
<path style="fill:#2c2c2c; stroke:none;" d="M81 148L82 149L81 148z"/>
<path style="fill:#4f4f4f; stroke:none;" d="M82 148L83 149L82 148z"/>
<path style="fill:#7e7e7e; stroke:none;" d="M83 148L84 149L83 148z"/>
<path style="fill:#2c2c2c; stroke:none;" d="M77 149L78 150L77 149z"/>
<path style="fill:#4f4f4f; stroke:none;" d="M78 149L79 150L78 149z"/>
<path style="fill:#7e7e7e; stroke:none;" d="M79 149L80 150L79 149z"/>
<path style="fill:#2c2c2c; stroke:none;" d="M73 150L74 151L73 150z"/>
<path style="fill:#4f4f4f; stroke:none;" d="M74 150L75 151L74 150z"/>
<path style="fill:#7e7e7e; stroke:none;" d="M75 150L76 151L75 150z"/>
<path style="fill:#2c2c2c; stroke:none;" d="M69 151L70 152L69 151z"/>
<path style="fill:#4f4f4f; stroke:none;" d="M70 151L71 152L70 151z"/>
<path style="fill:#7e7e7e; stroke:none;" d="M71 151L72 152L71 151z"/>
<path style="fill:#2c2c2c; stroke:none;" d="M65 152L66 153L65 152z"/>
<path style="fill:#4f4f4f; stroke:none;" d="M66 152L67 153L66 152z"/>
<path style="fill:#7e7e7e; stroke:none;" d="M67 152L68 153L67 152z"/>
<path style="fill:#2c2c2c; stroke:none;" d="M61 153L62 154L61 153z"/>
<path style="fill:#4f4f4f; stroke:none;" d="M62 153L63 154L62 153z"/>
<path style="fill:#7e7e7e; stroke:none;" d="M63 153L64 154L63 153z"/>
<path style="fill:#2c2c2c; stroke:none;" d="M57 154L58 155L57 154z"/>
<path style="fill:#4f4f4f; stroke:none;" d="M58 154L59 155L58 154z"/>
<path style="fill:#7e7e7e; stroke:none;" d="M59 154L60 155L59 154z"/>
<path style="fill:#2c2c2c; stroke:none;" d="M53 155L54 156L53 155z"/>
<path style="fill:#4f4f4f; stroke:none;" d="M54 155L55 156L54 155z"/>
<path style="fill:#7e7e7e; stroke:none;" d="M55 155L56 156L55 155z"/>
<path style="fill:#2c2c2c; stroke:none;" d="M49 156L50 157L49 156z"/>
<path style="fill:#4f4f4f; stroke:none;" d="M50 156L51 157L50 156z"/>
<path style="fill:#7e7e7e; stroke:none;" d="M51 156L52 157L51 156z"/>
<path style="fill:#2c2c2c; stroke:none;" d="M45 157L46 158L45 157z"/>
<path style="fill:#4f4f4f; stroke:none;" d="M46 157L47 158L46 157z"/>
<path style="fill:#7e7e7e; stroke:none;" d="M47 157L48 158L47 157z"/>
<path style="fill:#2c2c2c; stroke:none;" d="M41 158L42 159L41 158z"/>
<path style="fill:#4f4f4f; stroke:none;" d="M42 158L43 159L42 158z"/>
<path style="fill:#7e7e7e; stroke:none;" d="M43 158L44 159L43 158z"/>
<path style="fill:#2c2c2c; stroke:none;" d="M37 159L38 160L37 159z"/>
<path style="fill:#4f4f4f; stroke:none;" d="M38 159L39 160L38 159z"/>
<path style="fill:#7e7e7e; stroke:none;" d="M39 159L40 160L39 159z"/>
<path style="fill:#2c2c2c; stroke:none;" d="M33 160L34 161L33 160z"/>
<path style="fill:#4f4f4f; stroke:none;" d="M34 160L35 161L34 160z"/>
<path style="fill:#7e7e7e; stroke:none;" d="M35 160L36 161L35 160z"/>
<path style="fill:#2c2c2c; stroke:none;" d="M29 161L30 162L29 161z"/>
<path style="fill:#4f4f4f; stroke:none;" d="M30 161L31 162L30 161z"/>
<path style="fill:#7e7e7e; stroke:none;" d="M31 161L32 162L31 161z"/>
<path style="fill:#2c2c2c; stroke:none;" d="M25 162L26 163L25 162z"/>
<path style="fill:#4f4f4f; stroke:none;" d="M26 162L27 163L26 162z"/>
<path style="fill:#7e7e7e; stroke:none;" d="M27 162L28 163L27 162z"/>
<path style="fill:#2c2c2c; stroke:none;" d="M21 163L22 164L21 163z"/>
<path style="fill:#4f4f4f; stroke:none;" d="M22 163L23 164L22 163z"/>
<path style="fill:#7e7e7e; stroke:none;" d="M23 163L24 164L23 163z"/>
<path style="fill:#4f4f4f; stroke:none;" d="M18 164L19 165L18 164z"/>
<path style="fill:#7e7e7e; stroke:none;" d="M19 164L20 165L19 164z"/>
<path style="fill:#4f4f4f; stroke:none;" d="M14 165L15 166L14 165z"/>
<path style="fill:#7e7e7e; stroke:none;" d="M15 165L16 166L15 165z"/>
<path style="fill:#4f4f4f; stroke:none;" d="M10 166L11 167L10 166z"/>
<path style="fill:#7e7e7e; stroke:none;" d="M11 166L12 167L11 166z"/>
<path style="fill:#4f4f4f; stroke:none;" d="M6 167L7 168L6 167z"/>
<path style="fill:#7e7e7e; stroke:none;" d="M7 167L8 168L7 167z"/>
</svg>
