<?xml version="1.0" standalone="yes"?>
<svg xmlns="http://www.w3.org/2000/svg" width="550" height="451">
<path style="fill:#010101; stroke:none;" d="M0 0L0 32C9.81689 29.5135 9.65368 41.5723 0 38L0 83C9.81689 80.5135 9.65368 92.5723 0 89L0 134C9.81689 131.514 9.65368 143.572 0 140L0 185C9.43866 182.609 9.43867 193.391 0 191L0 236C9.65363 232.428 9.81694 244.486 0 242L0 287C9.65363 283.428 9.81694 295.486 0 293L0 338C9.65367 334.428 9.8169 346.486 0 344L0 389C10.9178 384.96 8.03214 399.009 1 394L0 394L0 440C10.941 435.707 8.0739 450.039 1 445L0 445L0 451L550 451L550 0L0 0z"/>
<path style="fill:#241a16; stroke:none;" d="M27.4336 6.04706C23.0487 8.85434 27.1539 15.762 31.6821 12.9529C36.0702 10.2308 31.8409 3.22552 27.4336 6.04706M78.3179 6.04706C73.8658 8.80887 78.2008 15.7328 82.6821 12.9529C87.1343 10.1911 82.7991 3.26721 78.3179 6.04706M129.318 6.04706C124.866 8.80887 129.201 15.7328 133.682 12.9529C138.134 10.1911 133.799 3.26718 129.318 6.04706M180.318 6.04706C175.866 8.80893 180.201 15.7328 184.682 12.9529C189.134 10.1911 184.799 3.26718 180.318 6.04706M231.318 6.04706C226.866 8.8089 231.201 15.7328 235.682 12.9529C240.134 10.1911 235.799 3.26718 231.318 6.04706M282.318 6.04706C277.919 8.7756 282.102 15.6597 286.566 12.8017C290.95 9.99542 286.772 3.28412 282.318 6.04706M333.318 6.04706C328.919 8.7756 333.102 15.6597 337.566 12.8017C341.95 9.99545 337.772 3.28409 333.318 6.04706M384.318 6.04706C379.919 8.7756 384.102 15.6597 388.566 12.8017C392.95 9.99542 388.772 3.28409 384.318 6.04706M435.318 6.04706C430.919 8.7756 435.102 15.6597 439.566 12.8017C443.95 9.99542 439.772 3.28409 435.318 6.04706M486.239 6.07175C481.191 8.90186 485.899 16.0418 490.563 12.9568C494.832 10.1334 490.687 3.57788 486.239 6.07175M537.239 6.07175C532.191 8.90189 536.899 16.0417 541.563 12.9568C545.832 10.1334 541.687 3.57788 537.239 6.07175z"/>
<path style="fill:#3b3834; stroke:none;" d="M25 7L26 8L25 7z"/>
<path style="fill:#818181; stroke:none;" d="M483 10L484 11L483 10M534 10L535 11L534 10z"/>
<path style="fill:#3b3834; stroke:none;" d="M288 11L289 12L288 11M339 11L340 12L339 11M390 11L391 12L390 11M441 11L442 12L441 11M286 13L287 14L286 13M337 13L338 14L337 13M388 13L389 14L388 13M439 13L440 14L439 13z"/>
<path style="fill:#241a16; stroke:none;" d="M3.14352 30.9707C-1.57235 32.1121 0.0386577 40.2257 4.96065 39.1682C10.3991 37.9998 8.45737 29.6846 3.14352 30.9707M54.1327 30.9707C49.4609 32.1194 51.0292 40.2516 55.9097 39.1682C61.0791 38.0207 59.302 29.6997 54.1327 30.9707M105.094 30.9707C99.8827 32.1939 101.776 40.5327 106.906 39.2485C112.047 37.9614 110.338 29.74 105.094 30.9707M156.094 30.9707C150.883 32.1939 152.776 40.5327 157.906 39.2485C163.047 37.9615 161.338 29.74 156.094 30.9707M207.094 30.9707C201.883 32.1939 203.776 40.5327 208.906 39.2485C214.047 37.9615 212.338 29.74 207.094 30.9707M258.09 30.9707C252.92 32.2008 254.749 40.5361 259.867 39.1096C264.465 37.8279 263.045 29.7919 258.09 30.9707M309.039 30.9707C303.6 32.2232 305.596 40.5529 310.857 39.1096C315.502 37.8349 314.034 29.8205 309.039 30.9707M360.039 30.9707C354.6 32.2232 356.596 40.5529 361.857 39.1096C366.502 37.8349 365.034 29.8205 360.039 30.9707M411.039 30.9707C405.6 32.2232 407.596 40.5529 412.857 39.1096C417.502 37.8349 416.034 29.8205 411.039 30.9707M462.039 30.9707C456.6 32.2232 458.596 40.5529 463.857 39.1096C468.502 37.8349 467.034 29.8205 462.039 30.9707z"/>
<path style="fill:#3b3834; stroke:none;" d="M512 30L513 31L512 30z"/>
<path style="fill:#241a16; stroke:none;" d="M513.039 30.9707C507.528 32.2387 509.315 40.7325 514.867 39.0687C519.472 37.6888 518.025 29.8236 513.039 30.9707z"/>
<path style="fill:#3b3834; stroke:none;" d="M510 31L511 32L510 31M7 38L8 39L7 38M2 39L3 40L2 39M53 39L54 40L53 39M260 39L261 40L260 39M311 39L312 40L311 39M362 39L363 40L362 39M413 39L414 40L413 39M512 39L513 40L512 39z"/>
<path style="fill:#241a16; stroke:none;" d="M27.4336 57.0471C23.0487 59.8543 27.1539 66.762 31.6821 63.9529C36.0702 61.2308 31.8409 54.2255 27.4336 57.0471M78.3179 57.0471C73.8658 59.8089 78.2008 66.7328 82.6821 63.9529C87.1343 61.1911 82.7991 54.2672 78.3179 57.0471M129.318 57.0471C124.866 59.8089 129.201 66.7328 133.682 63.9529C138.134 61.1911 133.799 54.2672 129.318 57.0471M180.318 57.0471C175.866 59.8089 180.201 66.7328 184.682 63.9529C189.134 61.1911 184.799 54.2672 180.318 57.0471M231.318 57.0471C226.866 59.8089 231.201 66.7328 235.682 63.9529C240.134 61.1911 235.799 54.2672 231.318 57.0471M282.318 57.0471C277.919 59.7756 282.102 66.6597 286.566 63.8017C290.95 60.9955 286.772 54.2841 282.318 57.0471M333.318 57.0471C328.919 59.7756 333.102 66.6597 337.566 63.8017C341.95 60.9955 337.772 54.2841 333.318 57.0471M384.318 57.0471C379.919 59.7756 384.102 66.6597 388.566 63.8017C392.95 60.9955 388.772 54.2841 384.318 57.0471M435.318 57.0471C430.919 59.7756 435.102 66.6597 439.566 63.8017C443.95 60.9955 439.772 54.2841 435.318 57.0471M486.239 57.0717C481.191 59.9019 485.899 67.0417 490.563 63.9568C494.832 61.1334 490.687 54.5779 486.239 57.0717M537.239 57.0717C532.191 59.9019 536.899 67.0417 541.563 63.9568C545.832 61.1334 541.688 54.5779 537.239 57.0717z"/>
<path style="fill:#3b3834; stroke:none;" d="M25 58L26 59L25 58z"/>
<path style="fill:#818181; stroke:none;" d="M483 61L484 62L483 61M534 61L535 62L534 61z"/>
<path style="fill:#3b3834; stroke:none;" d="M288 62L289 63L288 62M339 62L340 63L339 62M390 62L391 63L390 62M441 62L442 63L441 62M286 64L287 65L286 64M337 64L338 65L337 64M388 64L389 65L388 64M439 64L440 65L439 64z"/>
<path style="fill:#241a16; stroke:none;" d="M3.14352 81.9707C-1.57235 83.1121 0.038661 91.2257 4.96065 90.1682C10.3991 88.9998 8.45736 80.6846 3.14352 81.9707M54.1327 81.9707C49.4609 83.1194 51.0292 91.2516 55.9097 90.1682C61.0791 89.0206 59.3019 80.6997 54.1327 81.9707M105.094 81.9707C99.8826 83.1939 101.776 91.5327 106.906 90.2485C112.047 88.9614 110.338 80.74 105.094 81.9707M156.094 81.9707C150.883 83.1939 152.776 91.5327 157.906 90.2485C163.047 88.9615 161.338 80.74 156.094 81.9707M207.094 81.9707C201.883 83.1939 203.776 91.5327 208.906 90.2485C214.047 88.9615 212.338 80.74 207.094 81.9707M258.09 81.9707C252.92 83.2008 254.749 91.5361 259.867 90.1096C264.465 88.8279 263.045 80.7919 258.09 81.9707M309.039 81.9707C303.6 83.2232 305.596 91.5529 310.857 90.1096C315.502 88.8349 314.034 80.8205 309.039 81.9707M360.039 81.9707C354.6 83.2232 356.596 91.5529 361.857 90.1096C366.502 88.8349 365.034 80.8205 360.039 81.9707M411.039 81.9707C405.6 83.2232 407.596 91.5529 412.857 90.1096C417.502 88.8349 416.034 80.8205 411.039 81.9707M462.039 81.9707C456.6 83.2232 458.596 91.5529 463.857 90.1096C468.502 88.8349 467.034 80.8205 462.039 81.9707z"/>
<path style="fill:#3b3834; stroke:none;" d="M512 81L513 82L512 81z"/>
<path style="fill:#241a16; stroke:none;" d="M513.039 81.9707C507.528 83.2387 509.315 91.7325 514.867 90.0687C519.472 88.6888 518.025 80.8236 513.039 81.9707z"/>
<path style="fill:#3b3834; stroke:none;" d="M510 82L511 83L510 82M7 89L8 90L7 89M2 90L3 91L2 90M53 90L54 91L53 90M260 90L261 91L260 90M311 90L312 91L311 90M362 90L363 91L362 90M413 90L414 91L413 90M512 90L513 91L512 90z"/>
<path style="fill:#241a16; stroke:none;" d="M27.4336 108.047C23.0487 110.854 27.1539 117.762 31.6821 114.953C36.0703 112.231 31.8409 105.226 27.4336 108.047M78.3179 108.047C73.8658 110.809 78.2009 117.733 82.6821 114.953C87.1343 112.191 82.7991 105.267 78.3179 108.047M129.318 108.047C124.866 110.809 129.201 117.733 133.682 114.953C138.134 112.191 133.799 105.267 129.318 108.047M180.318 108.047C175.866 110.809 180.201 117.733 184.682 114.953C189.134 112.191 184.799 105.267 180.318 108.047M231.318 108.047C226.866 110.809 231.201 117.733 235.682 114.953C240.134 112.191 235.799 105.267 231.318 108.047M282.318 108.047C277.919 110.776 282.102 117.66 286.566 114.802C290.95 111.995 286.772 105.284 282.318 108.047M333.318 108.047C328.919 110.776 333.102 117.66 337.566 114.802C341.95 111.995 337.772 105.284 333.318 108.047M384.318 108.047C379.919 110.776 384.102 117.66 388.566 114.802C392.95 111.995 388.772 105.284 384.318 108.047M435.318 108.047C430.919 110.776 435.102 117.66 439.566 114.802C443.95 111.995 439.772 105.284 435.318 108.047M485.667 108.032C481.299 111.232 486.056 117.946 490.563 114.957C495.15 111.915 490.062 104.813 485.667 108.032M536.667 108.032C532.299 111.232 537.056 117.946 541.563 114.957C546.15 111.915 541.062 104.813 536.667 108.032z"/>
<path style="fill:#3b3834; stroke:none;" d="M25 109L26 110L25 109z"/>
<path style="fill:#818181; stroke:none;" d="M483 112L484 113L483 112M534 112L535 113L534 112z"/>
<path style="fill:#3b3834; stroke:none;" d="M288 113L289 114L288 113M339 113L340 114L339 113M390 113L391 114L390 113M441 113L442 114L441 113M286 115L287 116L286 115M337 115L338 116L337 115M388 115L389 116L388 115M439 115L440 116L439 115z"/>
<path style="fill:#241a16; stroke:none;" d="M3.14352 132.971C-1.57234 134.112 0.0386539 142.226 4.96065 141.168C10.3991 140 8.45736 131.685 3.14352 132.971M54.1327 132.971C49.4609 134.119 51.0292 142.252 55.9097 141.168C61.0791 140.021 59.302 131.7 54.1327 132.971M105.094 132.971C99.8827 134.194 101.776 142.533 106.906 141.248C112.047 139.961 110.338 131.74 105.094 132.971M156.094 132.971C150.883 134.194 152.776 142.533 157.906 141.248C163.047 139.961 161.338 131.74 156.094 132.971M207.094 132.971C201.883 134.194 203.776 142.533 208.906 141.248C214.047 139.961 212.338 131.74 207.094 132.971M258.09 132.971C252.92 134.201 254.749 142.536 259.867 141.11C264.465 139.828 263.045 131.792 258.09 132.971M309.039 132.971C303.6 134.223 305.596 142.553 310.857 141.11C315.502 139.835 314.034 131.821 309.039 132.971M360.039 132.971C354.6 134.223 356.596 142.553 361.857 141.11C366.502 139.835 365.034 131.821 360.039 132.971M411.039 132.971C405.6 134.223 407.596 142.553 412.857 141.11C417.502 139.835 416.034 131.821 411.039 132.971M462.039 132.971C456.6 134.223 458.596 142.553 463.857 141.11C468.502 139.835 467.034 131.821 462.039 132.971z"/>
<path style="fill:#3b3834; stroke:none;" d="M512 132L513 133L512 132z"/>
<path style="fill:#241a16; stroke:none;" d="M513.039 132.971C507.528 134.239 509.315 142.732 514.867 141.069C519.472 139.689 518.025 131.824 513.039 132.971z"/>
<path style="fill:#3b3834; stroke:none;" d="M510 133L511 134L510 133M7 140L8 141L7 140M2 141L3 142L2 141M53 141L54 142L53 141M260 141L261 142L260 141M311 141L312 142L311 141M362 141L363 142L362 141M413 141L414 142L413 141M512 141L513 142L512 141z"/>
<path style="fill:#241a16; stroke:none;" d="M27.4336 159.047C23.0487 161.854 27.1539 168.762 31.6821 165.953C36.0703 163.231 31.8409 156.226 27.4336 159.047M78.3179 159.047C73.8658 161.809 78.2008 168.733 82.6821 165.953C87.1343 163.191 82.7991 156.267 78.3179 159.047M129.318 159.047C124.866 161.809 129.201 168.733 133.682 165.953C138.134 163.191 133.799 156.267 129.318 159.047M180.318 159.047C175.866 161.809 180.201 168.733 184.682 165.953C189.134 163.191 184.799 156.267 180.318 159.047M231.318 159.047C226.866 161.809 231.201 168.733 235.682 165.953C240.134 163.191 235.799 156.267 231.318 159.047M282.318 159.047C277.919 161.776 282.102 168.66 286.566 165.802C290.95 162.995 286.772 156.284 282.318 159.047M333.318 159.047C328.919 161.776 333.102 168.66 337.566 165.802C341.95 162.995 337.772 156.284 333.318 159.047M384.318 159.047C379.919 161.776 384.102 168.66 388.566 165.802C392.95 162.995 388.772 156.284 384.318 159.047M435.318 159.047C430.919 161.776 435.102 168.66 439.566 165.802C443.95 162.995 439.772 156.284 435.318 159.047M485.667 159.032C481.299 162.232 486.056 168.946 490.563 165.957C495.15 162.915 490.062 155.813 485.667 159.032M536.667 159.032C532.299 162.232 537.056 168.946 541.563 165.957C546.15 162.915 541.062 155.813 536.667 159.032z"/>
<path style="fill:#3b3834; stroke:none;" d="M25 160L26 161L25 160z"/>
<path style="fill:#818181; stroke:none;" d="M483 163L484 164L483 163M534 163L535 164L534 163z"/>
<path style="fill:#3b3834; stroke:none;" d="M288 164L289 165L288 164M339 164L340 165L339 164M390 164L391 165L390 164M441 164L442 165L441 164M286 166L287 167L286 166M337 166L338 167L337 166M388 166L389 167L388 166M439 166L440 167L439 166z"/>
<path style="fill:#241a16; stroke:none;" d="M3.14352 183.971C-1.55069 185.107 -0.00283098 193.172 4.96065 192.029C10.3898 190.78 8.40322 182.698 3.14352 183.971M54.1327 183.971C49.4996 185.11 50.9432 193.059 55.9097 191.878C61.09 190.646 59.188 182.728 54.1327 183.971M105.094 183.971C99.9238 185.184 101.703 193.099 106.906 191.878C112.115 190.656 110.188 182.776 105.094 183.971M156.094 183.971C150.924 185.184 152.703 193.099 157.906 191.878C163.115 190.656 161.188 182.776 156.094 183.971M207.094 183.971C201.924 185.184 203.703 193.099 208.906 191.878C214.115 190.656 212.188 182.776 207.094 183.971M258.09 183.971C252.929 185.198 254.751 193.287 259.867 192.029C264.518 190.886 263.011 182.8 258.09 183.971M309.039 183.971C303.621 185.218 305.574 193.046 310.857 191.914C315.591 190.899 313.964 182.837 309.039 183.971M360.039 183.971C354.621 185.218 356.574 193.046 361.857 191.914C366.591 190.899 364.964 182.837 360.039 183.971M411.039 183.971C405.621 185.218 407.574 193.046 412.857 191.914C417.591 190.899 415.964 182.837 411.039 183.971M462.039 183.971C456.641 185.213 458.501 192.685 463.857 191.623C468.648 190.674 466.852 182.863 462.039 183.971z"/>
<path style="fill:#3b3834; stroke:none;" d="M512 183L513 184L512 183z"/>
<path style="fill:#241a16; stroke:none;" d="M513.039 183.971C507.632 185.215 509.546 193.163 514.857 191.878C519.57 190.737 517.944 182.842 513.039 183.971z"/>
<path style="fill:#3b3834; stroke:none;" d="M510 184L511 185L510 184M55 192L56 193L55 192M106 192L107 193L106 192M157 192L158 193L157 192M208 192L209 193L208 192M309 192L310 193L309 192M360 192L361 193L360 192M411 192L412 193L411 192M462.667 192.333L463.333 192.667L462.667 192.333M514 192L515 193L514 192z"/>
<path style="fill:#241a16; stroke:none;" d="M27.321 210.047C23.0044 212.744 27.377 219.513 31.6852 216.928C36.17 214.238 31.7834 207.26 27.321 210.047M78.3179 210.047C73.8657 212.809 78.2009 219.733 82.6821 216.953C87.1343 214.191 82.7991 207.267 78.3179 210.047M129.318 210.047C124.866 212.809 129.201 219.733 133.682 216.953C138.134 214.191 133.799 207.267 129.318 210.047M180.318 210.047C175.866 212.809 180.201 219.733 184.682 216.953C189.134 214.191 184.799 207.267 180.318 210.047M231.318 210.047C226.866 212.809 231.201 219.733 235.682 216.953C240.134 214.191 235.799 207.267 231.318 210.047M282.318 210.047C277.92 212.776 282.102 219.66 286.566 216.802C290.95 213.995 286.772 207.284 282.318 210.047M333.318 210.047C328.92 212.776 333.102 219.66 337.566 216.802C341.95 213.995 337.772 207.284 333.318 210.047M384.318 210.047C379.919 212.776 384.102 219.66 388.566 216.802C392.95 213.995 388.772 207.284 384.318 210.047M434.743 210.032C430.933 213.04 435.281 219.545 439.566 216.802C444.331 213.751 438.956 206.707 434.743 210.032M485.529 210.032C481.416 213.014 486.304 219.604 490.483 216.802C495.043 213.744 489.931 206.84 485.529 210.032M536.529 210.032C532.416 213.014 537.304 219.604 541.483 216.802C546.043 213.744 540.931 206.84 536.529 210.032z"/>
<path style="fill:#3b3834; stroke:none;" d="M483 212L484 213L483 212M534 212L535 213L534 212M492 214L493 215L492 214M543 214L544 215L543 214M25 215L26 216L25 215M27 217L28 218L27 217M286 217L287 218L286 217M337 217L338 218L337 217M388 217L389 218L388 217M439 217L440 218L439 217z"/>
<path style="fill:#241a16; stroke:none;" d="M2.31404 235.072C-1.8408 237.548 0.993234 245.011 5.85571 242.712C11.036 240.263 7.22112 232.147 2.31404 235.072M53.3133 235.072C49.206 237.531 51.9292 244.879 56.7724 242.573C61.698 240.228 58.1327 232.187 53.3133 235.072M104.228 235.072C99.584 237.652 102.844 244.905 107.772 242.573C112.719 240.232 109.204 232.307 104.228 235.072M155.228 235.072C150.584 237.652 153.844 244.905 158.772 242.573C163.719 240.232 160.204 232.307 155.228 235.072M206.228 235.072C201.584 237.652 204.844 244.905 209.772 242.573C214.719 240.232 211.204 232.307 206.228 235.072M257.228 235.086C252.564 237.537 255.959 245.215 260.686 242.712C264.896 240.483 261.91 232.626 257.228 235.086M308.144 235.086C303.193 237.581 306.874 244.98 311.683 242.632C316.01 240.519 312.877 232.702 308.144 235.086M359.144 235.086C354.193 237.581 357.874 244.98 362.683 242.632C367.01 240.519 363.877 232.702 359.144 235.086M410.144 235.086C405.193 237.581 408.874 244.98 413.683 242.632C418.01 240.519 414.877 232.702 410.144 235.086M461.144 235.137C456.101 237.525 459.804 244.519 464.683 242.377C469.1 240.438 465.714 232.973 461.144 235.137z"/>
<path style="fill:#818181; stroke:none;" d="M464 234L465 235L464 234z"/>
<path style="fill:#241a16; stroke:none;" d="M512.224 234.851C507.294 236.523 509.94 244.068 514.857 242.878C520.06 241.619 517.41 233.093 512.224 234.851z"/>
<path style="fill:#818181; stroke:none;" d="M515 234L516 235L515 234z"/>
<path style="fill:#3b3834; stroke:none;" d="M306 235L307 236L306 235M357 235L358 236L357 235M408 235L409 236L408 235M459 235L460 236L459 235M101 237L102 238L101 237M152 237L153 238L152 237M203 237L204 238L203 237M254 237L255 238L254 237M55 243L56 244L55 243M106 243L107 244L106 243M157 243L158 244L157 243M208 243L209 244L208 243M309 243L310 244L309 243M360 243L361 244L360 243M411 243L412 244L411 243M462.667 243.333L463.333 243.667L462.667 243.333M514 243L515 244L514 243z"/>
<path style="fill:#241a16; stroke:none;" d="M27.321 261.047C23.0044 263.744 27.377 270.513 31.6852 267.928C36.17 265.238 31.7834 258.26 27.321 261.047M78.3179 261.047C73.8657 263.809 78.2009 270.733 82.6821 267.953C87.1342 265.191 82.7991 258.267 78.3179 261.047M129.318 261.047C124.866 263.809 129.201 270.733 133.682 267.953C138.134 265.191 133.799 258.267 129.318 261.047M180.318 261.047C175.866 263.809 180.201 270.733 184.682 267.953C189.134 265.191 184.799 258.267 180.318 261.047M231.318 261.047C226.866 263.809 231.201 270.733 235.682 267.953C240.134 265.191 235.799 258.267 231.318 261.047M282.318 261.047C277.92 263.776 282.102 270.66 286.566 267.802C290.95 264.995 286.772 258.284 282.318 261.047M333.318 261.047C328.92 263.776 333.102 270.66 337.566 267.802C341.95 264.995 337.772 258.284 333.318 261.047M384.318 261.047C379.919 263.776 384.102 270.66 388.566 267.802C392.95 264.995 388.772 258.284 384.318 261.047M434.743 261.032C430.933 264.04 435.281 270.545 439.566 267.802C444.331 264.751 438.956 257.707 434.743 261.032M485.529 261.032C481.363 264.052 486.464 270.85 490.552 267.377C494.626 263.916 489.697 258.01 485.529 261.032M536.529 261.032C532.363 264.052 537.464 270.85 541.552 267.377C545.626 263.916 540.697 258.01 536.529 261.032z"/>
<path style="fill:#3b3834; stroke:none;" d="M483 263L484 264L483 263M534 263L535 264L534 263M492 265L493 266L492 265M543 265L544 266L543 265M25 266L26 267L25 266M27 268L28 269L27 268M286 268L287 269L286 268M337 268L338 269L337 268M388 268L389 269L388 268M439 268L440 269L439 268z"/>
<path style="fill:#241a16; stroke:none;" d="M2.31404 286.072C-1.84079 288.548 0.99323 296.011 5.85571 293.712C11.036 291.263 7.22111 283.147 2.31404 286.072M53.3133 286.072C49.206 288.531 51.9292 295.879 56.7724 293.573C61.698 291.228 58.1326 283.187 53.3133 286.072M104.228 286.072C99.584 288.652 102.844 295.905 107.772 293.573C112.719 291.232 109.204 283.307 104.228 286.072M155.228 286.072C150.584 288.652 153.844 295.905 158.772 293.573C163.719 291.232 160.204 283.307 155.228 286.072M206.228 286.072C201.584 288.652 204.844 295.905 209.772 293.573C214.719 291.232 211.204 283.307 206.228 286.072M257.228 286.086C252.564 288.537 255.959 296.215 260.686 293.712C264.896 291.483 261.91 283.626 257.228 286.086M308.144 286.086C303.193 288.581 306.874 295.98 311.683 293.632C316.01 291.519 312.877 283.702 308.144 286.086M359.144 286.086C354.193 288.581 357.874 295.98 362.683 293.632C367.01 291.519 363.877 283.702 359.144 286.086M410.144 286.086C405.193 288.581 408.874 295.98 413.683 293.632C418.01 291.519 414.877 283.702 410.144 286.086M461.144 286.137C456.101 288.525 459.804 295.519 464.683 293.377C469.1 291.438 465.714 283.973 461.144 286.137z"/>
<path style="fill:#818181; stroke:none;" d="M464 285L465 286L464 285z"/>
<path style="fill:#241a16; stroke:none;" d="M512.224 285.851C507.294 287.523 509.94 295.068 514.857 293.878C520.06 292.619 517.41 284.093 512.224 285.851z"/>
<path style="fill:#818181; stroke:none;" d="M515 285L516 286L515 285z"/>
<path style="fill:#3b3834; stroke:none;" d="M306 286L307 287L306 286M357 286L358 287L357 286M408 286L409 287L408 286M459 286L460 287L459 286M101 288L102 289L101 288M152 288L153 289L152 288M203 288L204 289L203 288M254 288L255 289L254 288M55 294L56 295L55 294M106 294L107 295L106 294M157 294L158 295L157 294M208 294L209 295L208 294M309 294L310 295L309 294M360 294L361 295L360 294M411 294L412 295L411 294M462.667 294.333L463.333 294.667L462.667 294.333M514 294L515 295L514 294z"/>
<path style="fill:#241a16; stroke:none;" d="M27.321 312.047C23.0044 314.744 27.377 321.513 31.6852 318.928C36.17 316.238 31.7834 309.26 27.321 312.047M78.3179 312.047C73.8657 314.809 78.2009 321.733 82.6821 318.953C87.1343 316.191 82.7991 309.267 78.3179 312.047M129.318 312.047C124.866 314.809 129.201 321.733 133.682 318.953C138.134 316.191 133.799 309.267 129.318 312.047M180.318 312.047C175.866 314.809 180.201 321.733 184.682 318.953C189.134 316.191 184.799 309.267 180.318 312.047M231.318 312.047C226.866 314.809 231.201 321.733 235.682 318.953C240.134 316.191 235.799 309.267 231.318 312.047M282.318 312.047C277.92 314.776 282.102 321.66 286.566 318.802C290.95 315.995 286.772 309.284 282.318 312.047M333.318 312.047C328.92 314.776 333.102 321.66 337.566 318.802C341.95 315.995 337.772 309.284 333.318 312.047M384.318 312.047C379.919 314.776 384.102 321.66 388.566 318.802C392.95 315.995 388.772 309.284 384.318 312.047M434.743 312.032C430.933 315.04 435.281 321.545 439.566 318.802C444.331 315.751 438.956 308.707 434.743 312.032M485.529 312.032C481.363 315.052 486.464 321.85 490.552 318.377C494.626 314.916 489.697 309.01 485.529 312.032M536.529 312.032C532.363 315.052 537.464 321.85 541.552 318.377C545.626 314.916 540.697 309.01 536.529 312.032z"/>
<path style="fill:#3b3834; stroke:none;" d="M483 314L484 315L483 314M534 314L535 315L534 314M492 316L493 317L492 316M543 316L544 317L543 316M25 317L26 318L25 317M27 319L28 320L27 319M286 319L287 320L286 319M337 319L338 320L337 319M388 319L389 320L388 319M439 319L440 320L439 319z"/>
<path style="fill:#241a16; stroke:none;" d="M2.31404 337.072C-1.84077 339.548 0.993225 347.011 5.85571 344.712C11.036 342.263 7.2211 334.147 2.31404 337.072M53.3133 337.072C49.206 339.531 51.9292 346.879 56.7724 344.573C61.698 342.228 58.1326 334.187 53.3133 337.072M104.228 337.072C99.584 339.652 102.844 346.905 107.772 344.573C112.719 342.232 109.204 334.307 104.228 337.072M155.228 337.072C150.584 339.652 153.844 346.905 158.772 344.573C163.719 342.232 160.204 334.307 155.228 337.072M206.228 337.072C201.584 339.652 204.844 346.905 209.772 344.573C214.719 342.232 211.204 334.307 206.228 337.072M257.228 337.086C252.564 339.537 255.959 347.215 260.686 344.712C264.896 342.483 261.91 334.626 257.228 337.086M308.144 337.086C303.193 339.581 306.874 346.98 311.683 344.632C316.01 342.519 312.877 334.702 308.144 337.086M359.144 337.086C354.193 339.581 357.874 346.98 362.683 344.632C367.01 342.519 363.877 334.702 359.144 337.086M410.144 337.086C405.193 339.581 408.874 346.98 413.683 344.632C418.01 342.519 414.877 334.702 410.144 337.086M461.144 337.137C456.101 339.525 459.804 346.519 464.683 344.377C469.1 342.438 465.714 334.972 461.144 337.137z"/>
<path style="fill:#818181; stroke:none;" d="M464 336L465 337L464 336z"/>
<path style="fill:#241a16; stroke:none;" d="M512.224 336.851C507.294 338.523 509.94 346.068 514.857 344.878C520.06 343.619 517.41 335.093 512.224 336.851z"/>
<path style="fill:#818181; stroke:none;" d="M515 336L516 337L515 336z"/>
<path style="fill:#3b3834; stroke:none;" d="M306 337L307 338L306 337M357 337L358 338L357 337M408 337L409 338L408 337M459 337L460 338L459 337M101 339L102 340L101 339M152 339L153 340L152 339M203 339L204 340L203 339M254 339L255 340L254 339M55 345L56 346L55 345M106 345L107 346L106 345M157 345L158 346L157 345M208 345L209 346L208 345M309 345L310 346L309 345M360 345L361 346L360 345M411 345L412 346L411 345M462.667 345.333L463.333 345.667L462.667 345.333M514 345L515 346L514 345z"/>
<path style="fill:#241a16; stroke:none;" d="M27.321 363.047C23.0043 365.744 27.377 372.513 31.6852 369.928C36.17 367.238 31.7834 360.259 27.321 363.047M78.3179 363.047C73.8658 365.809 78.2009 372.733 82.6821 369.953C87.1343 367.191 82.7991 360.267 78.3179 363.047M129.318 363.047C124.866 365.809 129.201 372.733 133.682 369.953C138.134 367.191 133.799 360.267 129.318 363.047M180.318 363.047C175.866 365.809 180.201 372.733 184.682 369.953C189.134 367.191 184.799 360.267 180.318 363.047M231.318 363.047C226.866 365.809 231.201 372.733 235.682 369.953C240.134 367.191 235.799 360.267 231.318 363.047M282.318 363.047C277.919 365.776 282.102 372.66 286.566 369.802C290.95 366.995 286.772 360.284 282.318 363.047M333.318 363.047C328.919 365.776 333.102 372.66 337.566 369.802C341.95 366.995 337.772 360.284 333.318 363.047M384.318 363.047C379.92 365.776 384.102 372.66 388.566 369.802C392.95 366.995 388.772 360.284 384.318 363.047M434.743 363.032C430.933 366.04 435.281 372.545 439.566 369.802C444.331 366.751 438.956 359.707 434.743 363.032M485.529 363.032C481.363 366.052 486.464 372.85 490.552 369.377C494.626 365.916 489.697 360.01 485.529 363.032M536.529 363.032C532.363 366.052 537.464 372.85 541.552 369.377C545.626 365.916 540.697 360.01 536.529 363.032z"/>
<path style="fill:#3b3834; stroke:none;" d="M483 365L484 366L483 365M534 365L535 366L534 365M492 367L493 368L492 367M543 367L544 368L543 367M25 368L26 369L25 368M27 370L28 371L27 370M286 370L287 371L286 370M337 370L338 371L337 370M388 370L389 371L388 370M439 370L440 371L439 370z"/>
<path style="fill:#241a16; stroke:none;" d="M2.31481 388.072C-2.17003 390.762 2.21662 397.741 6.67901 394.953C10.9957 392.256 6.62301 385.487 2.31481 388.072M53.314 388.072C48.9001 390.731 53.1953 397.814 57.5525 394.953C61.6193 392.283 57.6195 385.478 53.314 388.072M104.228 388.072C98.9955 390.978 103.79 398.255 108.552 394.968C112.623 392.158 108.643 385.619 104.228 388.072M155.228 388.072C149.995 390.978 154.79 398.255 159.552 394.968C163.623 392.158 159.643 385.619 155.228 388.072M206.228 388.072C200.996 390.978 205.79 398.255 210.552 394.968C214.623 392.158 210.643 385.619 206.228 388.072M257.228 388.086C252.536 390.551 255.84 397.528 260.686 395.377C265.031 393.449 261.785 385.692 257.228 388.086M308.147 388.086C303.321 390.539 306.879 397.51 311.686 395.377C316.07 393.432 312.775 385.735 308.147 388.086M359.147 388.086C354.321 390.539 357.879 397.51 362.686 395.377C367.07 393.432 363.775 385.735 359.147 388.086M410.147 388.086C405.321 390.539 408.879 397.51 413.686 395.377C418.07 393.432 414.775 385.735 410.147 388.086M461.147 388.137C456.225 390.488 460.06 397.842 464.685 394.953C468.648 392.477 465.518 386.049 461.147 388.137z"/>
<path style="fill:#818181; stroke:none;" d="M464 387L465 388L464 387z"/>
<path style="fill:#241a16; stroke:none;" d="M512.224 387.851C507.35 389.503 509.903 397.03 514.857 395.338C519.768 393.661 517.142 386.184 512.224 387.851z"/>
<path style="fill:#818181; stroke:none;" d="M515 387L516 388L515 387z"/>
<path style="fill:#3b3834; stroke:none;" d="M306 388L307 389L306 388M357 388L358 389L357 388M408 388L409 389L408 388M459 388L460 389L459 388M101 390L102 391L101 390M152 390L153 391L152 390M203 390L204 391L203 390M254 390L255 391L254 390M305 393L306 394L305 393M356 393L357 394L356 393M407 393L408 394L407 393M458 393L459 394L458 393M1 395L2 396L1 395M52 395L53 396L52 395z"/>
<path style="fill:#241a16; stroke:none;" d="M27.321 414.032C23.0523 416.843 27.3112 423.384 31.686 420.777C36.4082 417.963 32.1188 410.874 27.321 414.032M78.321 414.047C74.0567 416.711 78.2765 423.436 82.5694 420.777C86.9903 418.039 82.7524 411.279 78.321 414.047z"/>
<path style="fill:#3b3834; stroke:none;" d="M83 413L84 414L83 413z"/>
<path style="fill:#241a16; stroke:none;" d="M129.321 414.047C125.057 416.711 129.277 423.436 133.569 420.777C137.99 418.039 133.752 411.279 129.321 414.047z"/>
<path style="fill:#3b3834; stroke:none;" d="M134 413L135 414L134 413z"/>
<path style="fill:#241a16; stroke:none;" d="M180.321 414.047C176.057 416.711 180.277 423.436 184.569 420.777C188.99 418.039 184.752 411.279 180.321 414.047z"/>
<path style="fill:#3b3834; stroke:none;" d="M185 413L186 414L185 413z"/>
<path style="fill:#241a16; stroke:none;" d="M231.321 414.047C227.057 416.711 231.277 423.436 235.569 420.777C239.99 418.039 235.752 411.279 231.321 414.047z"/>
<path style="fill:#3b3834; stroke:none;" d="M236 413L237 414L236 413z"/>
<path style="fill:#241a16; stroke:none;" d="M281.604 414.032C277.777 416.981 282.425 423.316 286.566 420.777C291.44 417.789 285.9 410.723 281.604 414.032M332.604 414.032C328.732 417.016 333.564 423.575 337.678 420.353C342.036 416.94 336.637 410.925 332.604 414.032M383.604 414.032C379.732 417.016 384.564 423.575 388.678 420.353C393.036 416.94 387.637 410.925 383.604 414.032M434.604 414.032C430.732 417.016 435.564 423.575 439.678 420.353C444.036 416.94 438.637 410.925 434.604 414.032M485.529 414.032C481.311 417.09 486.496 423.807 490.667 420.377C494.837 416.949 489.648 411.046 485.529 414.032M536.529 414.032C532.31 417.091 537.496 423.807 541.667 420.377C545.837 416.948 540.648 411.046 536.529 414.032z"/>
<path style="fill:#3b3834; stroke:none;" d="M492 415L493 416L492 415M543 415L544 416L543 415M483 416L484 417L483 416M534 416L535 417L534 416M76 419L77 420L76 419M84 419L85 420L84 419M127 419L128 420L127 419M135 419L136 420L135 419M178 419L179 420L178 419M186 419L187 420L186 419M229 419L230 420L229 419M237 419L238 420L237 419z"/>
<path style="fill:#241a16; stroke:none;" d="M2.31481 439.072C-2.17003 441.762 2.21662 448.741 6.67901 445.953C10.9957 443.256 6.62301 436.487 2.31481 439.072z"/>
<path style="fill:#3b3834; stroke:none;" d="M6 438L7 439L6 438z"/>
<path style="fill:#241a16; stroke:none;" d="M53.314 439.072C48.9001 441.731 53.1953 448.814 57.5525 445.953C61.6193 443.283 57.6195 436.478 53.314 439.072M104.147 439.072C98.7898 441.95 103.822 449.233 108.552 445.968C112.684 443.115 108.604 436.678 104.147 439.072M155.147 439.072C149.79 441.95 154.822 449.233 159.552 445.968C163.684 443.115 159.604 436.678 155.147 439.072M206.147 439.072C200.79 441.95 205.822 449.233 210.552 445.968C214.684 443.115 210.604 436.678 206.147 439.072M257.147 439.072C252.398 441.628 255.851 448.516 260.686 446.377C265.189 444.386 262.157 436.375 257.147 439.072z"/>
<path style="fill:#ffffff; stroke:none;" d="M307 438L308 439L307 438z"/>
<path style="fill:#241a16; stroke:none;" d="M308.225 438.786C303.039 440.873 306.692 448.586 311.686 446.377C316.214 444.375 313.217 436.777 308.225 438.786z"/>
<path style="fill:#ffffff; stroke:none;" d="M358 438L359 439L358 438z"/>
<path style="fill:#241a16; stroke:none;" d="M359.225 438.786C354.039 440.873 357.692 448.586 362.686 446.377C367.214 444.375 364.217 436.777 359.225 438.786z"/>
<path style="fill:#ffffff; stroke:none;" d="M409 438L410 439L409 438z"/>
<path style="fill:#241a16; stroke:none;" d="M410.225 438.786C405.039 440.873 408.692 448.586 413.686 446.377C418.214 444.375 415.217 436.777 410.225 438.786z"/>
<path style="fill:#ffffff; stroke:none;" d="M460 438L461 439L460 438z"/>
<path style="fill:#241a16; stroke:none;" d="M461.225 438.801C456.51 440.552 459.032 448.017 463.867 446.338C468.744 444.645 466.193 436.955 461.225 438.801M511.318 439.047C506.866 441.809 511.201 448.733 515.682 445.953C520.134 443.191 515.799 436.267 511.318 439.047z"/>
<path style="fill:#3b3834; stroke:none;" d="M102 439L103 440L102 439M153 439L154 440L153 439M204 439L205 440L204 439M255 439L256 440L255 439M59 441L60 442L59 441M110 441L111 442L110 441M161 441L162 442L161 441M212 441L213 442L212 441M305 444L306 445L305 444M356 444L357 445L356 444M407 444L408 445L407 444M458 444L459 445L458 444M1 446L2 447L1 446M52 446L53 447L52 446z"/>
</svg>
