<?xml version="1.0" standalone="yes"?>
<svg xmlns="http://www.w3.org/2000/svg" width="210" height="199">
<path style="fill:#211d1e; stroke:none;" d="M0 0L0 199L210 199L210 0L0 0z"/>
<path style="fill:#7a7474; stroke:none;" d="M4 3L4 4L205 4L186 3L145 3L4 3z"/>
<path style="fill:#fcfbfb; stroke:none;" d="M4 4L5 179L6 179C8.44195 175.684 15.347 172.092 15.7623 167.91C16.2756 162.743 9.0027 159.309 11.9167 154.093C16.2282 146.374 27.0684 146.77 33.6968 142.581C36.6335 140.725 36.7464 136.757 38.7029 134.105C43.408 127.728 50.4977 128.594 57 131L57 132L50 130L50 131L53 131L51 134L44 131C43.326 134.813 38.3953 138.721 42 142L41 145L48 144L47 141L50 135L51 135L51 141L56 141L56 142L54 147C58.4566 143.465 59.1482 140.203 57 135L54 137C57.4993 131.601 60.0099 134.916 61 140L70 134L68 131L78 131L77 75C59.825 73.8473 70.9981 62.4769 73.3218 54C75.0664 47.6354 71.7843 43.3432 79.0039 39.0887C84.5611 35.8138 90.0305 30.3949 96 28.1296C111.024 22.4283 129.376 25.9327 145 25.5046C150.475 25.3546 167.288 17.108 168.839 28.044C169.419 32.1347 164.697 36.3169 161.985 38.6998C154.036 45.6866 144.377 50.5613 136 57L136 58C138.391 66.7446 122.125 72.2603 125.773 83.7909C127.09 87.9544 133.896 90.9009 136.826 94.0394C143.405 101.085 147.58 110.366 148 120C140.741 113.727 135.111 107.888 125 107C125.023 115.364 124.813 134.999 130.854 141.4C134.538 145.304 144.973 145.902 150 148.373C168.076 157.261 189.25 173.478 194 194L206 194L205 4L4 4z"/>
<path style="fill:#988c8b; stroke:none;" d="M156 22L156 23L162 23L156 22M152 23L153 24L152 23z"/>
<path style="fill:#7a7474; stroke:none;" d="M153 23L155 25L153 23z"/>
<path style="fill:#211d1e; stroke:none;" d="M154 23L154 24L165 24L154 23z"/>
<path style="fill:#7a7474; stroke:none;" d="M165 23L166 24L165 23z"/>
<path style="fill:#988c8b; stroke:none;" d="M116 24L117 25L116 24z"/>
<path style="fill:#7a7474; stroke:none;" d="M117 24L117 25L121 25L117 24z"/>
<path style="fill:#988c8b; stroke:none;" d="M121.667 24.3333L122.333 24.6667L121.667 24.3333M149 24L150 25L149 24z"/>
<path style="fill:#211d1e; stroke:none;" d="M131 29L130 29C124.189 23.2007 118.06 25.5046 111 26.9151C99.2513 29.2623 95.215 29.2857 84.9105 36.1582C81.0823 38.7113 76.3876 39.4046 74.2184 44.0154C72.6797 47.2858 74.6311 50.6949 73.537 54C71.6981 59.5554 64.3019 64.1969 68.0285 70.8912C71.3587 76.8732 78.537 75.6132 79.875 84C80.8355 90.0206 78.7429 96.9771 78.1698 103C77.2942 112.2 78 121.76 78 131L69 131L71 134L68 138L60 139L59 139L56 147L70 136L75 136L73 134L73 133L81 133L80 129L82 130L82 129C77.6544 111.369 78.4112 84.2615 88.0895 68.0193C91.1846 62.825 109.014 56.902 114.985 58.3225C118.224 59.093 120.489 62.0094 123 64L121 68L125 69L123 65L127 66L123 84L102 79L101 79L102 84C121.082 80.4574 139.562 92.1241 145 111L146 111C144.702 103.717 140.322 97.1246 134.985 92.0934C132.144 89.4143 126.231 87.024 125.407 82.8958C123.039 71.024 137.873 66.7795 136 56C145.407 51.6028 155.443 45.0659 162.985 37.9066C167.299 33.8108 170.956 28.8729 166 24C167.34 29.2735 162.736 32.2575 159 35.4097C150.664 42.4426 141.537 48.7102 132 54C126.155 36.8192 103.435 38.1223 89 36C95.7039 26.9977 103.796 28.7315 113 32C116.274 20.7144 125.35 30.9465 132 32C135.55 24.9623 141.045 27.8861 147 30L153 25C147.729 23.5744 135.108 25.1348 131 29z"/>
<path style="fill:#9b3c2e; stroke:none;" d="M153 24L154 25L153 24z"/>
<path style="fill:#988c8b; stroke:none;" d="M132 33C125.491 29.6821 115.068 20.6808 113 33C106.892 28.7065 96.6717 27.0015 94 36L112 38.49L126 43L132 53C142.195 50.6042 156.693 39.2222 163 31L149 40L160 24C154.325 24.2474 150.896 27.509 145.83 28.5216C140.102 29.6668 133.499 23.8149 132 33z"/>
<path style="fill:#fcfbfb; stroke:none;" d="M149 40C152.43 38.1742 167.333 31.4438 164.824 26.3079C160.99 18.4584 150.144 36.9835 149 40z"/>
<path style="fill:#988c8b; stroke:none;" d="M164 24L166 28L167 28L164 24z"/>
<path style="fill:#9b3c2e; stroke:none;" d="M165 24L166 25L165 24z"/>
<path style="fill:#988c8b; stroke:none;" d="M167 24L168 25L167 24z"/>
<path style="fill:#7a7474; stroke:none;" d="M114 25L115 26L114 25z"/>
<path style="fill:#988c8b; stroke:none;" d="M125 25L126 26L125 25M136 25L137 26L136 25z"/>
<path style="fill:#7a7474; stroke:none;" d="M137.667 25.3333L138.333 25.6667L137.667 25.3333M141.667 25.3333L142.333 25.6667L141.667 25.3333z"/>
<path style="fill:#988c8b; stroke:none;" d="M143 25L144 26L143 25M147 25L148 26L147 25z"/>
<path style="fill:#9b3c2e; stroke:none;" d="M150 25L151 26L150 25z"/>
<path style="fill:#988c8b; stroke:none;" d="M168 25L169 26L168 25M102 26L102 27L107 27L102 26z"/>
<path style="fill:#7a7474; stroke:none;" d="M115 26L116 27L115 26M120 26L121 27L120 26M127 26L128 27L127 26z"/>
<path style="fill:#988c8b; stroke:none;" d="M133 26L134 27L133 26M145 26L146 27L145 26z"/>
<path style="fill:#7a7474; stroke:none;" d="M146 26L147 27L146 26z"/>
<path style="fill:#9b3c2e; stroke:none;" d="M167 26L168 27L167 26z"/>
<path style="fill:#988c8b; stroke:none;" d="M97 27L98 28L97 27z"/>
<path style="fill:#7a7474; stroke:none;" d="M98 27L99 28L98 27M109 27L110 28L109 27z"/>
<path style="fill:#988c8b; stroke:none;" d="M110 27L111 28L110 27z"/>
<path style="fill:#9b3c2e; stroke:none;" d="M123 27L124 28L123 27z"/>
<path style="fill:#988c8b; stroke:none;" d="M129 27L130 28L129 27M131 27L132 28L131 27z"/>
<path style="fill:#9b3c2e; stroke:none;" d="M134 27L135 28L134 27z"/>
<path style="fill:#7a7474; stroke:none;" d="M141 27L142 28L141 27z"/>
<path style="fill:#988c8b; stroke:none;" d="M169 27L169 30L170 30L169 27M94 28L95 29L94 28z"/>
<path style="fill:#7a7474; stroke:none;" d="M95 28L96 29L95 28z"/>
<path style="fill:#9b3c2e; stroke:none;" d="M102 28L103 29L102 28z"/>
<path style="fill:#7a7474; stroke:none;" d="M113 28L114 29L113 28M130 28L131 29L130 28z"/>
<path style="fill:#9b3c2e; stroke:none;" d="M143 28L144 29L143 28M147 28L148 29L147 28M166 28L167 29L166 28z"/>
<path style="fill:#988c8b; stroke:none;" d="M92 29L93 30L92 29z"/>
<path style="fill:#9b3c2e; stroke:none;" d="M89 36L97 38L97 37L94 36L101 30C95.911 28.1955 91.2202 31.4965 89 36z"/>
<path style="fill:#7a7474; stroke:none;" d="M101 29L102 30L101 29M107 29L108 30L107 29M126 29L127 30L126 29z"/>
<path style="fill:#9b3c2e; stroke:none;" d="M144 29L145 30L144 29z"/>
<path style="fill:#7a7474; stroke:none;" d="M165 29L166 30L165 29M109 30L110 31L109 30M113.333 30.6667L113.667 31.3333L113.333 30.6667M127 30L128 31L127 30M164 30L165 31L164 30z"/>
<path style="fill:#988c8b; stroke:none;" d="M89 31L90 32L89 31z"/>
<path style="fill:#7a7474; stroke:none;" d="M144.333 31.6667L144.667 32.3333L144.333 31.6667M163 31L164 32L163 31M168 31L169 32L168 31z"/>
<path style="fill:#988c8b; stroke:none;" d="M88 32L89 33L88 32z"/>
<path style="fill:#7a7474; stroke:none;" d="M112 32L113 33L112 32z"/>
<path style="fill:#9b3c2e; stroke:none;" d="M130 32L131 33L130 32z"/>
<path style="fill:#7a7474; stroke:none;" d="M131 32L132 33L131 32M162 32L163 33L162 32z"/>
<path style="fill:#988c8b; stroke:none;" d="M4 33L4 76L5 76C5 63.7811 8.71046 44.2256 4 33z"/>
<path style="fill:#7a7474; stroke:none;" d="M128 33L131 36L131 35L128 33z"/>
<path style="fill:#9b3c2e; stroke:none;" d="M129 33L130 34L129 33z"/>
<path style="fill:#7a7474; stroke:none;" d="M161 33L162 34L161 33M87 34L88 35L87 34z"/>
<path style="fill:#211d1e; stroke:none;" d="M129.667 34.3333L130.333 34.6667L129.667 34.3333z"/>
<path style="fill:#9b3c2e; stroke:none;" d="M160 34L161 35L160 34z"/>
<path style="fill:#988c8b; stroke:none;" d="M166 34L167 35L166 34M86 35L87 36L86 35z"/>
<path style="fill:#7a7474; stroke:none;" d="M158 35L159 36L158 35z"/>
<path style="fill:#9b3c2e; stroke:none;" d="M162 35L163 36L162 35z"/>
<path style="fill:#988c8b; stroke:none;" d="M165 35L166 36L165 35z"/>
<path style="fill:#9b3c2e; stroke:none;" d="M157 36L158 37L157 36z"/>
<path style="fill:#988c8b; stroke:none;" d="M164 36L165 37L164 36z"/>
<path style="fill:#7a7474; stroke:none;" d="M82 37L83 38L82 37M99.6667 37.3333L100.333 37.6667L99.6667 37.3333z"/>
<path style="fill:#9b3c2e; stroke:none;" d="M101 37L101 38L107 38L101 37z"/>
<path style="fill:#7a7474; stroke:none;" d="M107 37L108 38L107 37z"/>
<path style="fill:#9b3c2e; stroke:none;" d="M156 37L157 38L156 37M160 37L155 42L161 38L160 37z"/>
<path style="fill:#988c8b; stroke:none;" d="M163 37L164 38L163 37M79 38L80 39L79 38z"/>
<path style="fill:#9b3c2e; stroke:none;" d="M76 52L79 52L91 38C81.7569 38.0776 72.859 41.2987 76 52z"/>
<path style="fill:#7a7474; stroke:none;" d="M112 38L113 39L112 38M154 38L155 39L154 38z"/>
<path style="fill:#9b3c2e; stroke:none;" d="M155 38L156 39L155 38z"/>
<path style="fill:#988c8b; stroke:none;" d="M162 38L163 39L162 38M77 39L78 40L77 39z"/>
<path style="fill:#9b3c2e; stroke:none;" d="M115 39L116 40L115 39M153.667 39.3333L154.333 39.6667L153.667 39.3333z"/>
<path style="fill:#988c8b; stroke:none;" d="M161 39L162 40L161 39M76 40L77 41L76 40z"/>
<path style="fill:#9b3c2e; stroke:none;" d="M117 40L118 41L117 40M152 40L153 41L152 40z"/>
<path style="fill:#7a7474; stroke:none;" d="M75 41L76 42L75 41z"/>
<path style="fill:#9b3c2e; stroke:none;" d="M89 45C93.9053 51.9437 98.7237 54.8819 107 51.9097C109.883 50.8742 113.712 47.8717 116.896 48.6775C123.051 50.2353 124.395 58.1531 132 59C131.084 54.2664 128.993 49.8934 124 49C117.851 37.8715 98.3853 39.7366 89 45M119 41L120 42L119 41z"/>
<path style="fill:#7a7474; stroke:none;" d="M150 41L151 42L150 41z"/>
<path style="fill:#9b3c2e; stroke:none;" d="M151 41L152 42L151 41z"/>
<path style="fill:#7a7474; stroke:none;" d="M158 41L159 42L158 41M74 42L75 43L74 42z"/>
<path style="fill:#9b3c2e; stroke:none;" d="M121 42L122 43L121 42M149 42L150 43L149 42M153 42L152 44L153 42z"/>
<path style="fill:#988c8b; stroke:none;" d="M157 42L158 43L157 42z"/>
<path style="fill:#7a7474; stroke:none;" d="M205 42L205 86L206 86C206 73.5196 209.81 53.4634 205 42z"/>
<path style="fill:#988c8b; stroke:none;" d="M73 43L74 44L73 43z"/>
<path style="fill:#7a7474; stroke:none;" d="M125.333 43.6667L125.667 44.3333L125.333 43.6667z"/>
<path style="fill:#fcfbfb; stroke:none;" d="M143.667 43.3333L144.333 43.6667L143.667 43.3333z"/>
<path style="fill:#9b3c2e; stroke:none;" d="M148 43L149 44L148 43z"/>
<path style="fill:#7a7474; stroke:none;" d="M155 43L156 44L155 43M73 44L74 45L73 44z"/>
<path style="fill:#9b3c2e; stroke:none;" d="M124 44L125 45L124 44M146.667 44.3333L147.333 44.6667L146.667 44.3333z"/>
<path style="fill:#988c8b; stroke:none;" d="M154 44L155 45L154 44z"/>
<path style="fill:#9b3c2e; stroke:none;" d="M145 45L146 46L145 45M149 45L150 46L149 45z"/>
<path style="fill:#fcfbfb; stroke:none;" d="M140 46L141 47L140 46z"/>
<path style="fill:#9b3c2e; stroke:none;" d="M144 46L145 47L144 46z"/>
<path style="fill:#7a7474; stroke:none;" d="M151 46L152 47L151 46z"/>
<path style="fill:#9b3c2e; stroke:none;" d="M142 47L143 48L142 47z"/>
<path style="fill:#7a7474; stroke:none;" d="M73 48L74 49L73 48M111 48L112 49L111 48z"/>
<path style="fill:#988c8b; stroke:none;" d="M124 48L125 49L124 48z"/>
<path style="fill:#9b3c2e; stroke:none;" d="M141 48L142 49L141 48z"/>
<path style="fill:#7a7474; stroke:none;" d="M148 48L149 49L148 48z"/>
<path style="fill:#988c8b; stroke:none;" d="M73.3333 49.6667L73.6667 50.3333L73.3333 49.6667z"/>
<path style="fill:#7a7474; stroke:none;" d="M139 49L140 50L139 49M145 50L146 51L145 50M131 51L132 52L131 51M136 51L137 52L136 51M142 52L143 53L142 52M74.3333 53.6667L74.6667 54.3333L74.3333 53.6667M132 53L133 54L132 53z"/>
<path style="fill:#9b3c2e; stroke:none;" d="M133 53L134 54L133 53M140 53L141 54L140 53M68 70L77 67L75 65L80 55L79 54C72.1693 56.7024 68.3756 62.7755 68 70M113 54L113 55L117 56L113 54z"/>
<path style="fill:#988c8b; stroke:none;" d="M139 54L140 55L139 54z"/>
<path style="fill:#7a7474; stroke:none;" d="M73 55L74 56L73 55M137 55L138 56L137 55M72 56L73 57L72 56z"/>
<path style="fill:#988c8b; stroke:none;" d="M136 56L137 57L136 56z"/>
<path style="fill:#7a7474; stroke:none;" d="M71 57L72 58L71 57z"/>
<path style="fill:#988c8b; stroke:none;" d="M70 58L71 59L70 58z"/>
<path style="fill:#7a7474; stroke:none;" d="M108 58L107 60L108 58z"/>
<path style="fill:#988c8b; stroke:none;" d="M109 58L91 65L93 67L91 70L89 70C90.2207 84.4588 76.3251 110.227 86 123L86 124L85 141L92 143L92 140L93 145L99 147L97 150L97 151L97 152L100 151L101 155L104 154L102 158L105 154L108 155L108 158L111 157L115 164L114 166L117 167L117 170L118 170L117 168L118 168L123 171L123 167L126 169L127 169L141 171L144 168L145 171L146 171L143 165L151 166L146 164L139 154L134 156L130 153L130 148L127 147C127.931 144.208 128.877 143.575 126 143L125 138L124 133L123 106L117 105L121 111C117.403 117.753 106.962 133.547 100 122C105.164 118.874 105.565 112.396 104 107L101 108L102 106L101 106L97 110L96 110L93 97C95.7869 95.8646 96.6647 92.4442 93 92L93 91L96 91C95.4217 87.5302 92.3493 84.6448 95 81C98.2719 76.5012 104.866 78.5358 104 82L122 83L123 78C119.456 78.9777 117.934 78.6792 117 75C111.298 79.1557 100.818 81.5621 101 71C104.193 71.1228 112.627 66.0574 106 65C110.805 61.5076 116.931 60.1007 119 67L110 65L117 74L118 74L123 70L124 74L125 74L126 69L120 69L123 65C120.574 60.1478 112.007 54.9673 111 60L109 58z"/>
<path style="fill:#7a7474; stroke:none;" d="M110.333 58.6667L110.667 59.3333L110.333 58.6667M112 58L113 59L112 58M115 58L115 59L118 59L115 58z"/>
<path style="fill:#9b3c2e; stroke:none;" d="M134 58L134 61L136 58L134 58z"/>
<path style="fill:#7a7474; stroke:none;" d="M81 59L79 80L80 80L87 63L81 59M118 59L119 60L118 59z"/>
<path style="fill:#988c8b; stroke:none;" d="M137 59L138 60L137 59z"/>
<path style="fill:#7a7474; stroke:none;" d="M104 60L104 62L106 60L104 60M109 60L110 61L109 60M111 60L112 61L111 60M115 60L116 61L115 60M117 60L118 61L117 60M119 60L120 61L119 60z"/>
<path style="fill:#988c8b; stroke:none;" d="M68 61L69 62L68 61z"/>
<path style="fill:#7a7474; stroke:none;" d="M102 61L103 62L102 61M113 61L114 62L113 61z"/>
<path style="fill:#988c8b; stroke:none;" d="M136 61L137 62L136 61z"/>
<path style="fill:#7a7474; stroke:none;" d="M98.6667 62.3333L99.3333 62.6667L98.6667 62.3333M103 62L104 63L103 62M108 62L109 63L108 62z"/>
<path style="fill:#211d1e; stroke:none;" d="M107 65L118 67C117.011 61.3047 110.218 60.445 107 65z"/>
<path style="fill:#7a7474; stroke:none;" d="M116.667 62.3333L117.333 62.6667L116.667 62.3333M119 62L120 63L119 62M135 62L136 63L135 62z"/>
<path style="fill:#988c8b; stroke:none;" d="M67 63L68 64L67 63z"/>
<path style="fill:#7a7474; stroke:none;" d="M84 89C74.7523 94.9724 79.8041 121.091 82 130L80 129L80 130L81 133L73 133L73 134L75 136L70 136L54.3333 148.694L53 160C56.4521 158.787 58.0625 157.741 58 154L61 155L59 153L59 152L75 141L76 144L81 143L80 148L81 148L83 145L87 152L91 156L95 155L92 157L89 188L87 188L85 195L88 193L89 193C92.702 197.236 104.627 195 110 195L170 195L170 194L118 194L100 192L97 194L98 191L98 190L93 192L93 185L94 185L94 187L95 187C94.8546 182.453 94.5608 179.324 98 176L97 185L98 185L100 172L100 171L98 170L98 169L100 167L98 167L100 161L110 165C110.171 169.355 112.819 171.335 117 172C117.435 175.463 121.041 175.68 123 173L139 174L138 176L142 174L142 173L134 169L136 172L126 171L123 167L123 171L124 171L125 168C124.513 171.543 122.291 171.774 119 172L117 168L118 171L117 171L117 167L115 164L113 166L112 166L113 161L112 161L112 163L111 163L111 157L110 157L111 160L103 160L105 156L104 156L101 159L100 155L101 155C102.335 156.971 103.071 155.937 104 154L101 153L100 153L99 155L99 152L97 150L99 147L93 145L92 140L92 143L85 141L86 124L86 123C77.4878 106.967 92.0025 86.3043 89 70L91 70L90 68L93 67L91 65L95 64C85.7274 61.0896 82.3383 82.954 84 89M101 63L102 64L101 63M118 63L118 67L119 67L118 63M97.6667 64.3333L98.3333 64.6667L97.6667 64.3333M106 64L107 65L106 64z"/>
<path style="fill:#988c8b; stroke:none;" d="M66 65L67 66L66 65z"/>
<path style="fill:#7a7474; stroke:none;" d="M100 65L101 66L100 65M109 65C109.37 67.9826 111.084 67.8629 114 68L114 67L109 65M111 65L112 66L111 65M123 65L127 69L127 66L123 65M134 65L135 66L134 65M66 66L66 69L67 69L66 66M106 66L106 69L107 69L106 66M115.667 66.3333L116.333 66.6667L115.667 66.3333M120 66L124 69L124 68L120 66z"/>
<path style="fill:#988c8b; stroke:none;" d="M125 66L126 67L125 66z"/>
<path style="fill:#7a7474; stroke:none;" d="M132 66L133 67L132 66z"/>
<path style="fill:#988c8b; stroke:none;" d="M133 66L134 67L133 66M126 67L127 68L126 67z"/>
<path style="fill:#7a7474; stroke:none;" d="M92 68L93 69L92 68M97 68L99 70L97 68M102 68L104 70L102 68z"/>
<path style="fill:#211d1e; stroke:none;" d="M106 72C103.174 72 103.209 73.1416 103 76L102 76L102 73L101 73L101 77L104 76C107.268 80.5621 117.092 78.6705 116.625 72.0231C116.174 65.6069 107.859 68.0993 106 72z"/>
<path style="fill:#7a7474; stroke:none;" d="M115 68L116 69L115 68M118 68L119 69L118 68z"/>
<path style="fill:#988c8b; stroke:none;" d="M129 68L130 69L129 68M66 69L67 70L66 69z"/>
<path style="fill:#7a7474; stroke:none;" d="M85.3333 69.6667L85.6667 70.3333L85.3333 69.6667M105 69L106 72L105 69M110 69L109 71L110 69z"/>
<path style="fill:#988c8b; stroke:none;" d="M111 69L111 70L114 70L111 69z"/>
<path style="fill:#7a7474; stroke:none;" d="M128 69L129 70L128 69M91 70L92 71L91 70M93 70L94 71L93 70M95 70L96 71L95 70M121 70L121 71L123 82L124 82L123 75L125 76L125 75L121 70M125.333 70.6667L125.667 71.3333L125.333 70.6667z"/>
<path style="fill:#988c8b; stroke:none;" d="M67 71L68 72L67 71M87 71L88 72L87 71z"/>
<path style="fill:#7a7474; stroke:none;" d="M97 71L98 75L99 75L100 73L97 71M101 71L102 76L103 76L101 71M103 71L104 72L103 71M117.333 71.6667L117.667 72.3333L117.333 71.6667M119 71L120 72L119 71z"/>
<path style="fill:#211d1e; stroke:none;" d="M123 71C112.851 74.0138 121.844 85.0045 123 71z"/>
<path style="fill:#988c8b; stroke:none;" d="M127 71L128 72L127 71M68 72L69 73L68 72M111 72L111 73L115 74L115 73L111 72z"/>
<path style="fill:#7a7474; stroke:none;" d="M84 73L85 74L84 73M109 73L110 74L109 73z"/>
<path style="fill:#fcfbfb; stroke:none;" d="M108 77L114 73L108 77z"/>
<path style="fill:#988c8b; stroke:none;" d="M120 73L121 74L120 73z"/>
<path style="fill:#7a7474; stroke:none;" d="M121 73L122 74L121 73z"/>
<path style="fill:#988c8b; stroke:none;" d="M71 74L72 75L71 74M87 74L88 75L87 74z"/>
<path style="fill:#7a7474; stroke:none;" d="M100 74L101 75L100 74M104 74L105 75L104 74z"/>
<path style="fill:#988c8b; stroke:none;" d="M108 74L109 75L108 74z"/>
<path style="fill:#7a7474; stroke:none;" d="M114 74L115 75L114 74M116.667 74.3333L117.333 74.6667L116.667 74.3333z"/>
<path style="fill:#988c8b; stroke:none;" d="M126.333 74.6667L126.667 75.3333L126.333 74.6667z"/>
<path style="fill:#7a7474; stroke:none;" d="M94 75L95 76L94 75M107 75L108 76L107 75M119 75L118 77L119 75z"/>
<path style="fill:#988c8b; stroke:none;" d="M123.333 75.6667L123.667 76.3333L123.333 75.6667z"/>
<path style="fill:#7a7474; stroke:none;" d="M4 76L4 120L5 120C5 107.52 8.81024 87.4634 4 76M91 76L92 77L91 76M99 76L100 77L99 76M103 76L102 78L104 78L103 76M105 76L106 77L105 76z"/>
<path style="fill:#988c8b; stroke:none;" d="M107 76L108 77L107 76M112 76L113 77L112 76z"/>
<path style="fill:#7a7474; stroke:none;" d="M116.333 76.6667L116.667 77.3333L116.333 76.6667z"/>
<path style="fill:#988c8b; stroke:none;" d="M118 78L121 77L118 78z"/>
<path style="fill:#7a7474; stroke:none;" d="M77 77L78 78L77 77z"/>
<path style="fill:#988c8b; stroke:none;" d="M86 77L87 78L86 77z"/>
<path style="fill:#7a7474; stroke:none;" d="M94 77L95 78L94 77M97 77L98 78L97 77M106 77L107 78L106 77M109.667 77.3333L110.333 77.6667L109.667 77.3333z"/>
<path style="fill:#fcfbfb; stroke:none;" d="M119 77L120 78L119 77z"/>
<path style="fill:#7a7474; stroke:none;" d="M120 77L121 78L120 77z"/>
<path style="fill:#988c8b; stroke:none;" d="M77 78L78 79L77 78z"/>
<path style="fill:#7a7474; stroke:none;" d="M83 78L84 79L83 78z"/>
<path style="fill:#211d1e; stroke:none;" d="M116 105C127.018 105.841 125.994 132.858 128.377 142C130.184 148.931 131.825 154.855 140 153C139.915 158.672 145.136 161.216 150 163L150 162C145.136 158.523 144.369 155.497 143 150L135 152L131 145C153.47 145.98 167.237 164.192 184 176C177.833 162.777 159.805 153.079 147 147.312C142.467 145.27 133.079 144.798 130.14 140.686C126.382 135.429 121.66 110.2 127 106L127 105C120.229 104.466 103.761 107.024 98.3179 103.883C92.7354 100.661 97.5883 81.9528 100 78C94.4991 80.6513 91.5652 100.067 96.0278 105.358C98.5447 108.342 103.418 105.336 105.218 110.11C106.723 114.103 99.434 124.271 103.568 126.593C105.668 127.772 108.727 124.827 110.424 123.846C118.629 119.107 119.547 113.064 116 105z"/>
<path style="fill:#7a7474; stroke:none;" d="M100.667 78.3333L101.333 78.6667L100.667 78.3333M104.667 78.3333L105.333 78.6667L104.667 78.3333M107 78L109 80L109 78L107 78M112.667 78.3333L113.333 78.6667L112.667 78.3333M119 78L120 79L119 78z"/>
<path style="fill:#988c8b; stroke:none;" d="M86 79L87 80L86 79z"/>
<path style="fill:#7a7474; stroke:none;" d="M96 79L97 80L96 79z"/>
<path style="fill:#9b3c2e; stroke:none;" d="M100 79L101 80L100 79z"/>
<path style="fill:#7a7474; stroke:none;" d="M102 79L103 80L102 79M110 79L111 80L110 79M125 79L126 80L125 79M78 80L79 81L78 80M91 80L92 81L91 80M93 80L94 81L93 80M95 80L96 81L95 80M97 80L98 81L97 80z"/>
<path style="fill:#988c8b; stroke:none;" d="M99 88L96 103L97 105C110.557 103.205 121.934 103.13 135 108L135 107L114 101L114 100L118 100L118 99C110.764 95.8167 104.17 85.88 116 84L116 83L102 85C101.241 74.6019 91.4406 86.3801 99 88z"/>
<path style="fill:#7a7474; stroke:none;" d="M101 80L102 81L101 80M103 80L103 82L105 80L103 80M106 81L106 82L115 82L106 81z"/>
<path style="fill:#988c8b; stroke:none;" d="M125.333 80.6667L125.667 81.3333L125.333 80.6667z"/>
<path style="fill:#7a7474; stroke:none;" d="M79 81L80 82L79 81z"/>
<path style="fill:#fcfbfb; stroke:none;" d="M100 81L101 82L100 81z"/>
<path style="fill:#7a7474; stroke:none;" d="M80.3333 82.6667L80.6667 83.3333L80.3333 82.6667M89 82L88 84L89 82M118.667 82.3333L119.333 82.6667L118.667 82.3333M122 82L121 84L123 84L122 82z"/>
<path style="fill:#9b3c2e; stroke:none;" d="M95 83L96 84L95 83M99 83L100 84L99 83z"/>
<path style="fill:#211d1e; stroke:none;" d="M100 83L101 84L100 83z"/>
<path style="fill:#9b3c2e; stroke:none;" d="M104 83L105 84L104 83z"/>
<path style="fill:#7a7474; stroke:none;" d="M105 83L106 84L105 83M116 83L117 84L116 83M95.3333 84.6667L95.6667 85.3333L95.3333 84.6667z"/>
<path style="fill:#211d1e; stroke:none;" d="M98.3333 84.6667L98.6667 85.3333L98.3333 84.6667z"/>
<path style="fill:#7a7474; stroke:none;" d="M102 84L103 85L102 84z"/>
<path style="fill:#fcfbfb; stroke:none;" d="M145 112C143.446 103.281 135.909 89.9967 126 90L121 85L122 90L118 89C119.133 81.5857 109.267 83.7659 108.623 90.0039C108.213 93.9679 111.888 96.5595 115.001 98.1644C124.93 103.283 135.082 106.35 145 112z"/>
<path style="fill:#988c8b; stroke:none;" d="M118 84L121 89L118 88L118 89L122 90L118 84z"/>
<path style="fill:#9b3c2e; stroke:none;" d="M120 84L121 85L120 84z"/>
<path style="fill:#7a7474; stroke:none;" d="M90 85L91 86L90 85M105 85L105 87L107 87L105 85M122 85L123 86L122 85M125 85L126 86L125 85z"/>
<path style="fill:#9b3c2e; stroke:none;" d="M95 86L96 87L95 86z"/>
<path style="fill:#7a7474; stroke:none;" d="M98 86L99 87L98 86M103 86L102 89L103 86z"/>
<path style="fill:#211d1e; stroke:none;" d="M119 86L120 87L119 86z"/>
<path style="fill:#988c8b; stroke:none;" d="M124 86L125 87L124 86z"/>
<path style="fill:#7a7474; stroke:none;" d="M127 86L128 87L127 86z"/>
<path style="fill:#988c8b; stroke:none;" d="M205 86L205 129L206 129C206 116.781 209.71 97.2256 205 86M79 87L79 90L80 90L79 87z"/>
<path style="fill:#7a7474; stroke:none;" d="M87 87L88 88L87 87M91 87L92 88L91 87M94 87L95 88L94 87z"/>
<path style="fill:#211d1e; stroke:none;" d="M103 88L104 92L105 92L108 88L103 88z"/>
<path style="fill:#7a7474; stroke:none;" d="M108 87L109 88L108 87z"/>
<path style="fill:#9b3c2e; stroke:none;" d="M119 87L120 88L119 87z"/>
<path style="fill:#7a7474; stroke:none;" d="M126 87L127 88L126 87z"/>
<path style="fill:#988c8b; stroke:none;" d="M129 87L130 88L129 87M83 88L84 89L83 88z"/>
<path style="fill:#7a7474; stroke:none;" d="M93 88L95 90L93 88M95 88L96 89L95 88M98.3333 88.6667L98.6667 89.3333L98.3333 88.6667M105 88L106 89L105 88M119.667 88.3333L120.333 88.6667L119.667 88.3333z"/>
<path style="fill:#988c8b; stroke:none;" d="M126 88L128 90L128 88L126 88z"/>
<path style="fill:#7a7474; stroke:none;" d="M130 88L131 89L130 88M91 89L91 95L92 95L91 89M96 89L93 91L93 92C95.348 91.7058 96.951 91.5066 96 89z"/>
<path style="fill:#211d1e; stroke:none;" d="M102 89L101 93L102 93L102 89z"/>
<path style="fill:#7a7474; stroke:none;" d="M126 89L127 90L126 89z"/>
<path style="fill:#988c8b; stroke:none;" d="M129 89L130 90L129 89z"/>
<path style="fill:#7a7474; stroke:none;" d="M79.3333 90.6667L79.6667 91.3333L79.3333 90.6667M102 90L103 91L102 90z"/>
<path style="fill:#988c8b; stroke:none;" d="M130 90L131 91L130 90M133 90L134 91L133 90z"/>
<path style="fill:#7a7474; stroke:none;" d="M132 91L133 92L132 91z"/>
<path style="fill:#988c8b; stroke:none;" d="M134 91L135 92L134 91z"/>
<path style="fill:#7a7474; stroke:none;" d="M88 92L87 95L88 95L88 92M97 92L98 93L97 92z"/>
<path style="fill:#9b3c2e; stroke:none;" d="M104.667 92.3333L105.333 92.6667L104.667 92.3333z"/>
<path style="fill:#7a7474; stroke:none;" d="M133 92L134 93L133 92M135 92L136 93L135 92M95 93L96 94L95 93M101 93L102 94L101 93z"/>
<path style="fill:#211d1e; stroke:none;" d="M105 93L107 96L105 93z"/>
<path style="fill:#7a7474; stroke:none;" d="M134 93L135 94L134 93M136 93L137 94L136 93M106 94L107 95L106 94M135 94L136 95L135 94M137 94L138 95L137 94M136 95L137 96L136 95z"/>
<path style="fill:#988c8b; stroke:none;" d="M138 95L139 96L138 95M78 96L78 99L79 99L78 96z"/>
<path style="fill:#7a7474; stroke:none;" d="M87 96L90 104L91 104L90 96L87 96z"/>
<path style="fill:#9b3c2e; stroke:none;" d="M96 96L97 97L96 96z"/>
<path style="fill:#211d1e; stroke:none;" d="M107 96L108 97L107 96z"/>
<path style="fill:#7a7474; stroke:none;" d="M137 96L138 97L137 96M93 97L94 103L95 103L93 97M96 97L97 98L96 97z"/>
<path style="fill:#211d1e; stroke:none;" d="M108 97L109 98L108 97z"/>
<path style="fill:#7a7474; stroke:none;" d="M109.333 97.6667L109.667 98.3333L109.333 97.6667z"/>
<path style="fill:#211d1e; stroke:none;" d="M110 98L111 99L110 98z"/>
<path style="fill:#7a7474; stroke:none;" d="M111.333 98.6667L111.667 99.3333L111.333 98.6667M140 98L141 99L140 98M78.3333 99.6667L78.6667 100.333L78.3333 99.6667z"/>
<path style="fill:#988c8b; stroke:none;" d="M83 99L84 100L83 99z"/>
<path style="fill:#7a7474; stroke:none;" d="M86 99L87 100L86 99z"/>
<path style="fill:#211d1e; stroke:none;" d="M112.667 99.3333L113.333 99.6667L112.667 99.3333z"/>
<path style="fill:#988c8b; stroke:none;" d="M139 99L140 100L139 99M141 99L142 100L141 99z"/>
<path style="fill:#7a7474; stroke:none;" d="M96 100L97 101L96 100z"/>
<path style="fill:#9b3c2e; stroke:none;" d="M114 100L115 101L114 100z"/>
<path style="fill:#211d1e; stroke:none;" d="M115 100L115 101L118 101L115 100z"/>
<path style="fill:#7a7474; stroke:none;" d="M117 102L120 101L117 102z"/>
<path style="fill:#988c8b; stroke:none;" d="M120.667 100.333L121.333 100.667L120.667 100.333z"/>
<path style="fill:#7a7474; stroke:none;" d="M140 100L141 101L140 100z"/>
<path style="fill:#9b3c2e; stroke:none;" d="M118 101L119 102L118 101z"/>
<path style="fill:#211d1e; stroke:none;" d="M119 101L119 102L124 102L119 101z"/>
<path style="fill:#7a7474; stroke:none;" d="M124 101L123 103L124 101z"/>
<path style="fill:#988c8b; stroke:none;" d="M125 101L126 102L125 101z"/>
<path style="fill:#7a7474; stroke:none;" d="M142 101L143 102L142 101z"/>
<path style="fill:#9b3c2e; stroke:none;" d="M124 102L125 103L124 102z"/>
<path style="fill:#211d1e; stroke:none;" d="M125.667 102.333L126.333 102.667L125.667 102.333z"/>
<path style="fill:#9b3c2e; stroke:none;" d="M127 102L129 104L127 102z"/>
<path style="fill:#988c8b; stroke:none;" d="M128 102L129 103L128 102M141 102L142 103L141 102z"/>
<path style="fill:#7a7474; stroke:none;" d="M88 103L89 104L88 103M96.6667 103.333L97.3333 103.667L96.6667 103.333M102 103L103 104L102 103M108 103L108 104L117 104L108 103M127 103L128 104L127 103z"/>
<path style="fill:#211d1e; stroke:none;" d="M129 103L130 104L129 103z"/>
<path style="fill:#7a7474; stroke:none;" d="M130.333 103.667L130.667 104.333L130.333 103.667z"/>
<path style="fill:#988c8b; stroke:none;" d="M131 103L132 104L131 103z"/>
<path style="fill:#7a7474; stroke:none;" d="M143 103L144 104L143 103M99 104L100 105L99 104z"/>
<path style="fill:#9b3c2e; stroke:none;" d="M101 104L102 105L101 104M122 104L123 105L122 104z"/>
<path style="fill:#7a7474; stroke:none;" d="M123 104L124 105L123 104z"/>
<path style="fill:#211d1e; stroke:none;" d="M131 104L132 105L131 104z"/>
<path style="fill:#9b3c2e; stroke:none;" d="M132 104L133 105L132 104z"/>
<path style="fill:#988c8b; stroke:none;" d="M133 104L134 105L133 104M142 104L143 105L142 104z"/>
<path style="fill:#7a7474; stroke:none;" d="M90 105L91 106L90 105M93 105L92 107L93 105z"/>
<path style="fill:#9b3c2e; stroke:none;" d="M105 105L108 113L115 106L105 105z"/>
<path style="fill:#7a7474; stroke:none;" d="M116 105L117 106L116 105M120.667 105.333L121.333 105.667L120.667 105.333M127.333 105.667L127.667 106.333L127.333 105.667M132 105L133 106L132 105z"/>
<path style="fill:#211d1e; stroke:none;" d="M133 105L134 106L133 105z"/>
<path style="fill:#9b3c2e; stroke:none;" d="M134.333 105.667L134.667 106.333L134.333 105.667z"/>
<path style="fill:#988c8b; stroke:none;" d="M135 105L136 106L135 105z"/>
<path style="fill:#7a7474; stroke:none;" d="M144 105L145 106L144 105M88.3333 106.667L88.6667 107.333L88.3333 106.667M94 106L96 110L97 110L94 106M99 106L100 107L99 106M102 106L101 108L103 108L102 106M113 106L114 107L113 106M124.333 106.667L124.667 107.333L124.333 106.667z"/>
<path style="fill:#988c8b; stroke:none;" d="M125.667 106.333L126.333 106.667L125.667 106.333z"/>
<path style="fill:#211d1e; stroke:none;" d="M128.667 106.333L129.333 106.667L128.667 106.333z"/>
<path style="fill:#9b3c2e; stroke:none;" d="M130 106L131 107L130 106z"/>
<path style="fill:#7a7474; stroke:none;" d="M131 106L130 108L131 106z"/>
<path style="fill:#211d1e; stroke:none;" d="M135 106L131 107L131 108L146 119L147 119C144.59 113.309 140.485 108.847 135 106z"/>
<path style="fill:#7a7474; stroke:none;" d="M136 106L137 107L136 106z"/>
<path style="fill:#988c8b; stroke:none;" d="M143 106L144 107L143 106M77 107L77 124L78 124L77 107z"/>
<path style="fill:#7a7474; stroke:none;" d="M85 107L86 108L85 107M104 107L105 108L104 107z"/>
<path style="fill:#988c8b; stroke:none;" d="M107 120L110 119L112 122L113 117C118.463 115.034 116.703 110.782 114 107C108.889 109.57 107.79 114.63 107 120z"/>
<path style="fill:#7a7474; stroke:none;" d="M116 107L117 108L116 107z"/>
<path style="fill:#988c8b; stroke:none;" d="M129 107L130 108L129 107z"/>
<path style="fill:#9b3c2e; stroke:none;" d="M133 107L134 108L133 107z"/>
<path style="fill:#7a7474; stroke:none;" d="M135 107L136 108L135 107z"/>
<path style="fill:#988c8b; stroke:none;" d="M138 107L139 108L138 107M145 107L146 108L145 107z"/>
<path style="fill:#7a7474; stroke:none;" d="M114 108L115 109L114 108M117 108L118 109L117 108z"/>
<path style="fill:#988c8b; stroke:none;" d="M132 108L133 109L132 108M139 108L140 109L139 108z"/>
<path style="fill:#7a7474; stroke:none;" d="M144 108L145 109L144 108M85 109L86 110L85 109M89.3333 109.667L89.6667 110.333L89.3333 109.667M101 109L102 110L101 109M104 109L105 115L106 115L104 109M116 109L117 110L116 109M118 109L119 110L118 109z"/>
<path style="fill:#988c8b; stroke:none;" d="M134 109L135 110L134 109z"/>
<path style="fill:#7a7474; stroke:none;" d="M135 109L136 110L135 109z"/>
<path style="fill:#988c8b; stroke:none;" d="M140 109L141 110L140 109z"/>
<path style="fill:#7a7474; stroke:none;" d="M94 110L91 112L91 113L94 114L95 114L94 110M99 110L98 112L100 112L99 110z"/>
<path style="fill:#9b3c2e; stroke:none;" d="M117 110L118 111L117 110z"/>
<path style="fill:#988c8b; stroke:none;" d="M141 110L145 116L146 116L141 110M146 110L147 111L146 110z"/>
<path style="fill:#7a7474; stroke:none;" d="M87 111L88 112L87 111M103 111L104 112L103 111z"/>
<path style="fill:#fcfbfb; stroke:none;" d="M115 111L116 112L115 111z"/>
<path style="fill:#7a7474; stroke:none;" d="M117 111L118 112L117 111M119 111L119 115L120 115L121 111L119 111z"/>
<path style="fill:#988c8b; stroke:none;" d="M138 111L139 112L138 111z"/>
<path style="fill:#7a7474; stroke:none;" d="M145.667 111.333L146.333 111.667L145.667 111.333z"/>
<path style="fill:#988c8b; stroke:none;" d="M82.3333 112.667L82.6667 113.333L82.3333 112.667z"/>
<path style="fill:#7a7474; stroke:none;" d="M122 112L123 117L124 117L122 112M140 112L141 113L140 112z"/>
<path style="fill:#211d1e; stroke:none;" d="M146 112L146 115L147 115L146 112z"/>
<path style="fill:#7a7474; stroke:none;" d="M100 113L101 114L100 113M108 113L109 114L108 113M117 113L118 114L117 113M141 113L142 114L141 113M85 114L85 115L88 116L85 114M92 114L89 115L89 116L91 117L92 114M98 114L97 116L98 114M116 114L117 115L116 114z"/>
<path style="fill:#988c8b; stroke:none;" d="M142 114L143 115L142 114z"/>
<path style="fill:#7a7474; stroke:none;" d="M144 114L145 115L144 114z"/>
<path style="fill:#988c8b; stroke:none;" d="M147 114L147 120L148 120L147 114z"/>
<path style="fill:#9b3c2e; stroke:none;" d="M107 115L108 116L107 115z"/>
<path style="fill:#7a7474; stroke:none;" d="M118 115L119 116L118 115z"/>
<path style="fill:#988c8b; stroke:none;" d="M125.333 115.667L125.667 116.333L125.333 115.667M143 115L144 116L143 115z"/>
<path style="fill:#9b3c2e; stroke:none;" d="M146.333 115.667L146.667 116.333L146.333 115.667z"/>
<path style="fill:#7a7474; stroke:none;" d="M95 116L96 117L95 116M104.333 116.667L104.667 117.333L104.333 116.667M107 116L108 117L107 116z"/>
<path style="fill:#988c8b; stroke:none;" d="M144 116L145 117L144 116z"/>
<path style="fill:#7a7474; stroke:none;" d="M88 117L87 119L88 117M99 117L100 118L99 117M102 117L103 118L102 117M113 117L114 118L113 117z"/>
<path style="fill:#9b3c2e; stroke:none;" d="M114 117L115 118L114 117z"/>
<path style="fill:#7a7474; stroke:none;" d="M115 117L116 118L115 117M117 117L118 118L117 117M125.333 117.667L125.667 118.333L125.333 117.667M145 117L146 118L145 117M103.333 118.667L103.667 119.333L103.333 118.667z"/>
<path style="fill:#9b3c2e; stroke:none;" d="M106 118L104 126L110 119L106 118M113 118L114 119L113 118z"/>
<path style="fill:#7a7474; stroke:none;" d="M120 118L121 119L120 118M89 119L90 120L89 119M115 119L116 120L115 119M146 119L147 120L146 119M94 120L95 121L94 120M106 120L107 121L106 120z"/>
<path style="fill:#9b3c2e; stroke:none;" d="M110 120L111 121L110 120M114 120L115 121L114 120z"/>
<path style="fill:#7a7474; stroke:none;" d="M89.3333 121.667L89.6667 122.333L89.3333 121.667M102 121L103 122L102 121M114 121L115 122L114 121M93.3333 122.667L93.6667 123.333L93.3333 122.667M95 122L96 123L95 122M100 122L101 126L102 126L100 122M113 122L112 124L114 124L113 122M117 122L118 123L117 122M124 122L124 126L125 126L124 122M97 123L98 124L97 123M109 123L110 124L109 123z"/>
<path style="fill:#988c8b; stroke:none;" d="M126.333 123.667L126.667 124.333L126.333 123.667z"/>
<path style="fill:#7a7474; stroke:none;" d="M108 124L109 125L108 124M114 124L115 125L114 124M87 125L88 126L87 125M95 125L94 127L95 125M107 125L108 126L107 125M111 125L112 126L111 125M126 125L127 126L126 125M92 126L93 127L92 126M99.6667 126.333L100.333 126.667L99.6667 126.333M115 126L116 127L115 126M96 127L97 128L96 127M103 127L104 128L103 127M105 127L106 128L105 127z"/>
<path style="fill:#988c8b; stroke:none;" d="M48.6667 128.333L49.3333 128.667L48.6667 128.333z"/>
<path style="fill:#7a7474; stroke:none;" d="M102 128L103 129L102 128M107 128L108 129L107 128M124 128L125 131L126 131L126 128L124 128M44 129L45 130L44 129z"/>
<path style="fill:#211d1e; stroke:none;" d="M48 146L48 147L39 151L39 152C43.855 150.599 48.5067 148.545 51 144L54 146L54 142L50 143L50 142L52 142L52 141L48 142L49 146C42.9202 145.034 40.2295 145.061 40 138L39 138L39 142L38 142C38.46 133.599 44.043 130.187 52 130C36.5858 123.595 31.3279 151.88 48 146z"/>
<path style="fill:#7a7474; stroke:none;" d="M52 129L53 130L52 129z"/>
<path style="fill:#988c8b; stroke:none;" d="M53.3333 129.667L53.6667 130.333L53.3333 129.667z"/>
<path style="fill:#7a7474; stroke:none;" d="M85 129L88 131L88 130L85 129M90 129L86 132L86 133L89 134L90 129M92 129L94 131L92 129M42 130L43 131L42 130z"/>
<path style="fill:#988c8b; stroke:none;" d="M45 130L45 131L45 132L50 130L45 130z"/>
<path style="fill:#fcfbfb; stroke:none;" d="M47 130L48 131L47 130z"/>
<path style="fill:#7a7474; stroke:none;" d="M54 130L55 131L54 130z"/>
<path style="fill:#988c8b; stroke:none;" d="M55 130L55 132L57 132L55 130z"/>
<path style="fill:#7a7474; stroke:none;" d="M98 130L99 131L98 130M102 130L103 131L102 130M115 130L116 131L115 130z"/>
<path style="fill:#988c8b; stroke:none;" d="M127 130L128 131L127 130M40 131L41 132L40 131M43 131L41 133L42 136L43 136L43 131z"/>
<path style="fill:#7a7474; stroke:none;" d="M46 131L47 132L46 131z"/>
<path style="fill:#211d1e; stroke:none;" d="M50.3333 131.667L50.6667 132.333L50.3333 131.667z"/>
<path style="fill:#988c8b; stroke:none;" d="M51.3333 131.667L51.6667 132.333L51.3333 131.667z"/>
<path style="fill:#7a7474; stroke:none;" d="M52 131L53 132L52 131M68 131L69 132L68 131M127 131L128 132L127 131z"/>
<path style="fill:#988c8b; stroke:none;" d="M39 132L40 133L39 132z"/>
<path style="fill:#7a7474; stroke:none;" d="M41 132L43 134L41 132z"/>
<path style="fill:#fcfbfb; stroke:none;" d="M42 132L43 133L42 132z"/>
<path style="fill:#7a7474; stroke:none;" d="M44 132L45 133L44 132z"/>
<path style="fill:#988c8b; stroke:none;" d="M53.6667 132.333L54.3333 132.667L53.6667 132.333z"/>
<path style="fill:#7a7474; stroke:none;" d="M57 132L58 135L55 135L55 136L62 141L58 136L57 132M69 132L70 133L69 132M93 132L94 133L93 132M98 132L99 133L98 132M104 132L105 133L104 132M107 132L108 133L107 132M120.667 132.333L121.333 132.667L120.667 132.333M125 132L124 134L126 134L125 132z"/>
<path style="fill:#988c8b; stroke:none;" d="M38 133L39 134L38 133z"/>
<path style="fill:#7a7474; stroke:none;" d="M40 133L41 134L40 133z"/>
<path style="fill:#988c8b; stroke:none;" d="M50 133L51 134L50 133M55 135L58 135L56 133L55 135z"/>
<path style="fill:#7a7474; stroke:none;" d="M70 133L71 134L70 133M101 133L102 134L101 133z"/>
<path style="fill:#9b3c2e; stroke:none;" d="M39 134L40 135L39 134z"/>
<path style="fill:#fcfbfb; stroke:none;" d="M40 134L41 135L40 134z"/>
<path style="fill:#211d1e; stroke:none;" d="M41 134L42 135L41 134z"/>
<path style="fill:#988c8b; stroke:none;" d="M59 134L58 136L59 134M68 134L69 135L68 134z"/>
<path style="fill:#7a7474; stroke:none;" d="M69 134L70 135L69 134M93 134L94 135L93 134M96.3333 134.667L96.6667 135.333L96.3333 134.667M123 134L124 135L123 134M126 134L125 138L126 134z"/>
<path style="fill:#988c8b; stroke:none;" d="M37 135L38 136L37 135M39 135L38 138L41 138L39 135z"/>
<path style="fill:#7a7474; stroke:none;" d="M40 135L40 137L42 135L40 135z"/>
<path style="fill:#988c8b; stroke:none;" d="M50 135L47 143C50.167 140.836 51.5182 138.724 50 135z"/>
<path style="fill:#211d1e; stroke:none;" d="M59 135L60 136L59 135z"/>
<path style="fill:#7a7474; stroke:none;" d="M67 135L68 136L67 135M91 135L92 136L91 135z"/>
<path style="fill:#988c8b; stroke:none;" d="M128 135L129 136L128 135z"/>
<path style="fill:#7a7474; stroke:none;" d="M38 136L39 137L38 136z"/>
<path style="fill:#988c8b; stroke:none;" d="M54.6667 136.333L55.3333 136.667L54.6667 136.333M60 136L61 137L60 136M75 136L76 137L75 136z"/>
<path style="fill:#7a7474; stroke:none;" d="M87 136L88 137L87 136M115 136L116 137L115 136M123 136L124 137L123 136M128 136L129 137L128 136M39 137L40 138L39 137M67 137L68 138L67 137z"/>
<path style="fill:#988c8b; stroke:none;" d="M73.3333 137.667L73.6667 138.333L73.3333 137.667z"/>
<path style="fill:#7a7474; stroke:none;" d="M92 137L93 138L92 137M94 137L95 138L94 137M118.333 137.667L118.667 138.333L118.333 137.667z"/>
<path style="fill:#988c8b; stroke:none;" d="M36 138L35 143L36 143L36 138z"/>
<path style="fill:#fcfbfb; stroke:none;" d="M38 138L39 139L38 138z"/>
<path style="fill:#988c8b; stroke:none;" d="M58 138L59 139L58 138z"/>
<path style="fill:#7a7474; stroke:none;" d="M65 138L66 139L65 138z"/>
<path style="fill:#988c8b; stroke:none;" d="M75 139L75 140L79 139L75 139z"/>
<path style="fill:#7a7474; stroke:none;" d="M121 138L122 139L121 138M124 138L122 141L124 138z"/>
<path style="fill:#9b3c2e; stroke:none;" d="M127 138L128 139L127 138z"/>
<path style="fill:#988c8b; stroke:none;" d="M38.3333 139.667L38.6667 140.333L38.3333 139.667M45 139L46 140L45 139z"/>
<path style="fill:#7a7474; stroke:none;" d="M63 139L64 140L63 139M127 139L126 143L130 148L127 139z"/>
<path style="fill:#988c8b; stroke:none;" d="M129 139L130 140L129 139z"/>
<path style="fill:#7a7474; stroke:none;" d="M46 140L47 141L46 140M89 140L90 141L89 140M129 140L130 141L129 140M38 141L39 142L38 141M47 141L48 142L47 141M49 141L50 142L49 141M52 141L53 142L52 141z"/>
<path style="fill:#988c8b; stroke:none;" d="M53 141L54 142L53 141z"/>
<path style="fill:#7a7474; stroke:none;" d="M54 141L55 142L54 141z"/>
<path style="fill:#988c8b; stroke:none;" d="M55 141L56 142L55 141M74 141L59 152L59 153L61 155L58 154L55 159L55 160L76 164C79.2525 171.102 84.4888 174.632 82 183L83 183L86 177C89.3565 176.584 89.3784 174.118 89 171C92.9984 167.487 91.0633 156.859 87 154L83 146L82 146L80 148C79.8651 144.808 79.1922 144.135 76 144L74 141z"/>
<path style="fill:#7a7474; stroke:none;" d="M118 141L120 143L118 141M125 141L126 142L125 141M36 142L37 146L38 146L36 142z"/>
<path style="fill:#988c8b; stroke:none;" d="M40 142L42 144L42 142L40 142M50 142L50 143L53 143L50 142M58 142L59 143L58 142z"/>
<path style="fill:#7a7474; stroke:none;" d="M96 142L97 143L96 142M112 142L113 143L112 142z"/>
<path style="fill:#988c8b; stroke:none;" d="M130 142L131 143L130 142M31 143L32 144L31 143z"/>
<path style="fill:#7a7474; stroke:none;" d="M32 143L33 144L32 143z"/>
<path style="fill:#211d1e; stroke:none;" d="M30 144L30 145L36 144L30 144z"/>
<path style="fill:#7a7474; stroke:none;" d="M40.3333 143.667L40.6667 144.333L40.3333 143.667M48 143L48 146L49 146L48 143M58 143L59 144L58 143z"/>
<path style="fill:#988c8b; stroke:none;" d="M62 143L63 144L62 143M64 143L65 144L64 143z"/>
<path style="fill:#211d1e; stroke:none;" d="M79.6667 143.333L80.3333 143.667L79.6667 143.333z"/>
<path style="fill:#988c8b; stroke:none;" d="M89 143L90 144L89 143z"/>
<path style="fill:#7a7474; stroke:none;" d="M107 143L108 144L107 143M123 143L124 146L125 146L125 143L123 143M135 143L136 144L135 143z"/>
<path style="fill:#988c8b; stroke:none;" d="M136 143L137 144L136 143M28 144L29 145L28 144z"/>
<path style="fill:#7a7474; stroke:none;" d="M29 144L32 148L32 147L29 144z"/>
<path style="fill:#988c8b; stroke:none;" d="M32 146L35 145L32 146z"/>
<path style="fill:#fcfbfb; stroke:none;" d="M35 144L36 145L35 144z"/>
<path style="fill:#988c8b; stroke:none;" d="M36 144L37 145L36 144M46.6667 144.333L47.3333 144.667L46.6667 144.333M51 144L53 146L51 144z"/>
<path style="fill:#7a7474; stroke:none;" d="M53 144L54 145L53 144z"/>
<path style="fill:#988c8b; stroke:none;" d="M57 144L58 145L57 144M83 144L84 145L83 144z"/>
<path style="fill:#7a7474; stroke:none;" d="M139 144L140 145L139 144z"/>
<path style="fill:#988c8b; stroke:none;" d="M140 144L141 145L140 144M25 145L26 146L25 145z"/>
<path style="fill:#211d1e; stroke:none;" d="M22 147L24 149L16 152L16 151L21 149L21 148C10.4902 151.356 11.2903 156.45 15 165L16 165C18.1626 161.252 20.9686 161.635 25 162L30 160L30 159C23.2739 159.289 15.6922 162.321 12 155L15 157C18.0221 151.491 24.3273 149.849 30 148L30 147L24 148L24 147L29 146L22 147z"/>
<path style="fill:#988c8b; stroke:none;" d="M30 145L31 146L30 145z"/>
<path style="fill:#fcfbfb; stroke:none;" d="M31 145L32 146L31 145z"/>
<path style="fill:#7a7474; stroke:none;" d="M33 145L35 147L33 145z"/>
<path style="fill:#211d1e; stroke:none;" d="M34 145L34 146L37 146L34 145z"/>
<path style="fill:#988c8b; stroke:none;" d="M38 145L41 148L38 145M41 145L42 146L41 145z"/>
<path style="fill:#7a7474; stroke:none;" d="M45 145L46 146L45 145z"/>
<path style="fill:#fcfbfb; stroke:none;" d="M51 145L37 153L37 154C42.055 153.758 51.1505 151.317 51 145z"/>
<path style="fill:#988c8b; stroke:none;" d="M56 145L57 146L56 145z"/>
<path style="fill:#7a7474; stroke:none;" d="M70 145L71 146L70 145M78.3333 145.667L78.6667 146.333L78.3333 145.667z"/>
<path style="fill:#211d1e; stroke:none;" d="M82 145L83 146L82 145z"/>
<path style="fill:#988c8b; stroke:none;" d="M91 145L92 146L91 145z"/>
<path style="fill:#7a7474; stroke:none;" d="M106 145L107 146L106 145M119 145L120 146L119 145M131 145L132 146L131 145z"/>
<path style="fill:#988c8b; stroke:none;" d="M132 145C134.809 152.144 138.732 149.824 145 151C142.479 157.813 148.046 163.257 155 163L156 167L161 168L159 169L159 170L180 190L180 191L178 192C182.088 193.062 184.648 192.653 187 189L189 191C189.522 177.601 166.493 153.982 153 154L152 151L132 145z"/>
<path style="fill:#7a7474; stroke:none;" d="M135.667 145.333L136.333 145.667L135.667 145.333M142 145L143 146L142 145M23 146L24 147L23 146M26.3333 146.667L26.6667 147.333L26.3333 146.667z"/>
<path style="fill:#988c8b; stroke:none;" d="M27.6667 146.333L28.3333 146.667L27.6667 146.333z"/>
<path style="fill:#211d1e; stroke:none;" d="M30 146L30 147L34 147L30 146z"/>
<path style="fill:#988c8b; stroke:none;" d="M35 146L36 147L35 146z"/>
<path style="fill:#fcfbfb; stroke:none;" d="M15 155L15 156L44 149C34.8674 143.597 23.0287 149.754 15 155z"/>
<path style="fill:#988c8b; stroke:none;" d="M42 146L43 147L42 146z"/>
<path style="fill:#7a7474; stroke:none;" d="M43 146L44 147L43 146M46.3333 146.667L46.6667 147.333L46.3333 146.667z"/>
<path style="fill:#988c8b; stroke:none;" d="M47 146L48 147L47 146z"/>
<path style="fill:#7a7474; stroke:none;" d="M52 146L54 148L54 146L52 146M55 146L56 147L55 146M66 146L65 148L66 146z"/>
<path style="fill:#211d1e; stroke:none;" d="M83 146L84 147L83 146z"/>
<path style="fill:#988c8b; stroke:none;" d="M88 146L89 147L88 146z"/>
<path style="fill:#7a7474; stroke:none;" d="M115 146L116 147L115 146M139 146L141 148L141 146L139 146z"/>
<path style="fill:#988c8b; stroke:none;" d="M145 146L146 147L145 146M20 147L21 148L20 147z"/>
<path style="fill:#7a7474; stroke:none;" d="M21 147L21 150L22 150L21 147z"/>
<path style="fill:#988c8b; stroke:none;" d="M24.6667 147.333L25.3333 147.667L24.6667 147.333z"/>
<path style="fill:#7a7474; stroke:none;" d="M44.3333 147.667L44.6667 148.333L44.3333 147.667z"/>
<path style="fill:#988c8b; stroke:none;" d="M45 147L46 148L45 147z"/>
<path style="fill:#7a7474; stroke:none;" d="M48 147L49 148L48 147z"/>
<path style="fill:#988c8b; stroke:none;" d="M60 147L61 148L60 147z"/>
<path style="fill:#7a7474; stroke:none;" d="M74.6667 147.333L75.3333 147.667L74.6667 147.333z"/>
<path style="fill:#988c8b; stroke:none;" d="M89 149L89 150L94 150L94 147L89 149z"/>
<path style="fill:#7a7474; stroke:none;" d="M105 147L106 148L105 147M107 147L108 148L107 147M110 147L111 148L110 147M123.667 147.333L124.333 147.667L123.667 147.333M142 147L143 148L142 147M147 147L148 148L147 147z"/>
<path style="fill:#988c8b; stroke:none;" d="M148 147L149 148L148 147M18 148L19 149L18 148M22.6667 148.333L23.3333 148.667L22.6667 148.333M28 148L29 149L28 148M47 148L48 149L47 148M49 148L50 149L49 148z"/>
<path style="fill:#7a7474; stroke:none;" d="M67 148L68 149L67 148M69 148L70 149L69 148M77 148L78 149L77 148M102 148L103 149L102 148M121 148L120 150L121 148M127 148L128 149L127 148M130 148L131 151L130 148M133 148L134 149L133 148M135 148L136 149L135 148M145 148L146 149L145 148M149 148L150 149L149 148z"/>
<path style="fill:#988c8b; stroke:none;" d="M150 148L151 149L150 148M16 149L17 150L16 149z"/>
<path style="fill:#7a7474; stroke:none;" d="M19.3333 149.667L19.6667 150.333L19.3333 149.667z"/>
<path style="fill:#988c8b; stroke:none;" d="M20 149L21 150L20 149z"/>
<path style="fill:#7a7474; stroke:none;" d="M25 149L26 150L25 149z"/>
<path style="fill:#988c8b; stroke:none;" d="M42 149L43 150L42 149M45 149L46 150L45 149M48 149L49 150L48 149M58 149L59 150L58 149z"/>
<path style="fill:#7a7474; stroke:none;" d="M64 149L63 151L64 149M71 149L72 150L71 149M82 149L83 150L82 149z"/>
<path style="fill:#211d1e; stroke:none;" d="M86 149L87 150L86 149z"/>
<path style="fill:#7a7474; stroke:none;" d="M104 149L105 150L104 149M147 149L148 150L147 149M151 149L152 150L151 149z"/>
<path style="fill:#988c8b; stroke:none;" d="M152 149L153 150L152 149z"/>
<path style="fill:#7a7474; stroke:none;" d="M15 150L16 151L15 150M17.3333 150.667L17.6667 151.333L17.3333 150.667z"/>
<path style="fill:#988c8b; stroke:none;" d="M18 150L19 151L18 150z"/>
<path style="fill:#7a7474; stroke:none;" d="M22 150L23 151L22 150z"/>
<path style="fill:#988c8b; stroke:none;" d="M23 150L24 151L23 150z"/>
<path style="fill:#7a7474; stroke:none;" d="M40 150L41 151L40 150M43 150L44 151L43 150M47 150L48 151L47 150M50 150L47 153L48 158L44 160L45 153L44 153L26 158L26 159L34 161L38 159L36 157L42 155L40 159C58.9108 167.591 27.3304 184.014 31 164L26 165L28 160L22 161L23 164L20 163L24 168C16.0503 172.639 6.82219 175.941 5 186L6 186C9.46825 178.116 16.4789 172.52 25 171L25 172L23 173C25.7503 177.041 25.739 183.065 28.7415 186.566C33.7747 192.437 49.7223 189.068 52.2176 181.96C54.3241 175.959 48.0533 169.665 52 164L52 163C48.262 163 46.6348 160.159 50 161L50 150z"/>
<path style="fill:#988c8b; stroke:none;" d="M55 150L56 151L55 150z"/>
<path style="fill:#7a7474; stroke:none;" d="M69 150L68 153L69 153L69 150M73 150L73 151L74 153L77 150L73 150z"/>
<path style="fill:#211d1e; stroke:none;" d="M87 150L88 151L87 150z"/>
<path style="fill:#7a7474; stroke:none;" d="M106 150L107 153L110 152L106 150M112 150L113 151L112 150M118 150L119 151L118 150M122 150L123 151L122 150M124.667 150.333L125.333 150.667L124.667 150.333M139 150L139 151L142 151L139 150M143 150L144 151L143 150M149 150L150 151L149 150M153 150L154 151L153 150z"/>
<path style="fill:#988c8b; stroke:none;" d="M13 151L14 152L13 151M16 151L17 152L16 151z"/>
<path style="fill:#7a7474; stroke:none;" d="M20 151L21 152L20 151z"/>
<path style="fill:#988c8b; stroke:none;" d="M37 151L38 152L37 151z"/>
<path style="fill:#7a7474; stroke:none;" d="M38.3333 151.667L38.6667 152.333L38.3333 151.667z"/>
<path style="fill:#988c8b; stroke:none;" d="M41 151L42 152L41 151z"/>
<path style="fill:#7a7474; stroke:none;" d="M46 151L47 152L46 151M65 151L63 156L66 156L64 154L65 151z"/>
<path style="fill:#211d1e; stroke:none;" d="M99 151L99 155L100 155L99 151z"/>
<path style="fill:#7a7474; stroke:none;" d="M114 151L112 154L114 151M127 151L128 152L127 151M131 151L130 153L132 153L131 151M135 151L136 152L135 151M137 151L138 152L137 151M144.333 151.667L144.667 152.333L144.333 151.667M150 151L151 152L150 151M152 151L153 152L152 151M155 151L156 152L155 151z"/>
<path style="fill:#988c8b; stroke:none;" d="M12 152L13 153L12 152M13 154L16 153L13 154z"/>
<path style="fill:#7a7474; stroke:none;" d="M18 152L19 153L18 152z"/>
<path style="fill:#988c8b; stroke:none;" d="M34 152L35 153L34 152z"/>
<path style="fill:#7a7474; stroke:none;" d="M35 152L36 153L35 152z"/>
<path style="fill:#211d1e; stroke:none;" d="M19 156L19 157L38 153L19 156z"/>
<path style="fill:#988c8b; stroke:none;" d="M39 152L40 153L39 152z"/>
<path style="fill:#7a7474; stroke:none;" d="M45 152L46 153L45 152M81 152L82 153L81 152z"/>
<path style="fill:#211d1e; stroke:none;" d="M97 152L98 153L97 152z"/>
<path style="fill:#7a7474; stroke:none;" d="M122 154L125 153L122 154M153.333 152.667L153.667 153.333L153.333 152.667z"/>
<path style="fill:#988c8b; stroke:none;" d="M157 152L158 153L157 152M11 153L12 154L11 153z"/>
<path style="fill:#7a7474; stroke:none;" d="M14 153L15 154L14 153z"/>
<path style="fill:#988c8b; stroke:none;" d="M17 153L18 154L17 153M31 153L32 154L31 153z"/>
<path style="fill:#7a7474; stroke:none;" d="M32 153L33 154L32 153z"/>
<path style="fill:#988c8b; stroke:none;" d="M36 153L35 155L37 155L36 153M41.6667 153.333L42.3333 153.667L41.6667 153.333M53 153L54 154L53 153z"/>
<path style="fill:#7a7474; stroke:none;" d="M71 153L67 154L67 155L72 157L71 153M77 153L76 155L78 155L77 153M84 153L85 154L84 153M87.6667 153.333L88.3333 153.667L87.6667 153.333M104 153L105 154L104 153M120 153L119 155L120 153M132 153L133 154L132 153M138.667 153.333L139.333 153.667L138.667 153.333M145 153L146 154L145 153M155 153L156 154L155 153z"/>
<path style="fill:#988c8b; stroke:none;" d="M159 153L160 154L159 153z"/>
<path style="fill:#7a7474; stroke:none;" d="M13 154L14 155L13 154M15 154L16 155L15 154z"/>
<path style="fill:#988c8b; stroke:none;" d="M27 154L28 155L27 154z"/>
<path style="fill:#7a7474; stroke:none;" d="M28 154L29 155L28 154z"/>
<path style="fill:#988c8b; stroke:none;" d="M33 154L32 156L34 156L33 154z"/>
<path style="fill:#fcfbfb; stroke:none;" d="M34 154L35 155L34 154z"/>
<path style="fill:#9b3c2e; stroke:none;" d="M43 154L44 155L43 154z"/>
<path style="fill:#988c8b; stroke:none;" d="M55.3333 154.667L55.6667 155.333L55.3333 154.667z"/>
<path style="fill:#7a7474; stroke:none;" d="M105 154L106 155L105 154M126 154L127 155L126 154M128 154L130 156L128 154M133 154L135 156L135 154L133 154M157 154L158 155L157 154M160 154L161 155L160 154z"/>
<path style="fill:#988c8b; stroke:none;" d="M12 155L12 158L13 158L12 155M22.6667 155.333L23.3333 155.667L22.6667 155.333z"/>
<path style="fill:#7a7474; stroke:none;" d="M24 155L25 156L24 155M29 155L30 156L29 155z"/>
<path style="fill:#988c8b; stroke:none;" d="M30.3333 155.667L30.6667 156.333L30.3333 155.667z"/>
<path style="fill:#fcfbfb; stroke:none;" d="M31 155L32 156L31 155z"/>
<path style="fill:#988c8b; stroke:none;" d="M37 156L37 158L38 159L42 155L37 156M45 155L44 159L45 159L45 155z"/>
<path style="fill:#9b3c2e; stroke:none;" d="M46 155L47 158L48 158L48 155L46 155z"/>
<path style="fill:#988c8b; stroke:none;" d="M50 155L49 160L50 155z"/>
<path style="fill:#7a7474; stroke:none;" d="M74 155L74 158L77 158L74 155M89 155L90 156L89 155z"/>
<path style="fill:#988c8b; stroke:none;" d="M92 157L95 155L92 157z"/>
<path style="fill:#211d1e; stroke:none;" d="M100 155L101 159L102 159L100 155M105 155L103 160L111 160L105 155z"/>
<path style="fill:#7a7474; stroke:none;" d="M107 155L108 156L107 155M112 155L115 162L121 160L119 157L115 158L115 155L112 155M117 155L118 156L117 155M123 155L123 158L125 157L125 158L120 161L121 165L122 165L127 162L123 155M138 155L139 156L138 155M145 155L147 157L145 155M156 155L157 156L156 155z"/>
<path style="fill:#988c8b; stroke:none;" d="M162 155L163 156L162 155z"/>
<path style="fill:#7a7474; stroke:none;" d="M10.3333 156.667L10.6667 157.333L10.3333 156.667M13 156L14 157L13 156M15 158L20 158L15 158M25 156L26 157L25 156z"/>
<path style="fill:#988c8b; stroke:none;" d="M26 156L28 158L26 156z"/>
<path style="fill:#fcfbfb; stroke:none;" d="M27 156L27 157L30 157L27 156z"/>
<path style="fill:#211d1e; stroke:none;" d="M44 156L45 157L44 156z"/>
<path style="fill:#7a7474; stroke:none;" d="M46 156L47 157L46 156z"/>
<path style="fill:#988c8b; stroke:none;" d="M96 156L97 157L96 156z"/>
<path style="fill:#7a7474; stroke:none;" d="M120.667 156.333L121.333 156.667L120.667 156.333M139 156L140 157L139 156M143 156L144 157L143 156M153 156L154 157L153 156M160 156L161 157L160 156M163 156L164 157L163 156z"/>
<path style="fill:#fcfbfb; stroke:none;" d="M13 157C16.1416 161.409 22.5204 159.492 27 158L27 157L13 157z"/>
<path style="fill:#988c8b; stroke:none;" d="M14 157L15 158L14 157z"/>
<path style="fill:#211d1e; stroke:none;" d="M16.6667 157.333L17.3333 157.667L16.6667 157.333z"/>
<path style="fill:#988c8b; stroke:none;" d="M20 157L20 158L23 158L20 157z"/>
<path style="fill:#211d1e; stroke:none;" d="M34 157L35 158L34 157M36 157L37 158L36 157M46 157L47 158L46 157z"/>
<path style="fill:#988c8b; stroke:none;" d="M53 157L54 158L53 157z"/>
<path style="fill:#7a7474; stroke:none;" d="M66 157L67 158L66 157M68 157L69 158L68 157M83 157L84 158L83 157z"/>
<path style="fill:#988c8b; stroke:none;" d="M98 157L99 158L98 157z"/>
<path style="fill:#7a7474; stroke:none;" d="M107 157L108 158L107 157M132 157L133 158L132 157M140 157L141 158L140 157M148.333 157.667L148.667 158.333L148.333 157.667M150 157L151 158L150 157M162 157L163 158L162 157z"/>
<path style="fill:#988c8b; stroke:none;" d="M10 158L11 159L10 158z"/>
<path style="fill:#9b3c2e; stroke:none;" d="M45 158L46 159L45 158z"/>
<path style="fill:#7a7474; stroke:none;" d="M51.3333 158.667L51.6667 159.333L51.3333 158.667M90 158L90 161L91 161L90 158z"/>
<path style="fill:#988c8b; stroke:none;" d="M95 158L96 159L95 158M106 158L106 160L108 160L106 158z"/>
<path style="fill:#7a7474; stroke:none;" d="M130 158L128 161L130 158M141 158L142 159L141 158M153 158L154 159L153 158M163 158L164 159L163 158z"/>
<path style="fill:#988c8b; stroke:none;" d="M166 158L167 159L166 158M11 159L12 160L11 159M14 159L15 160L14 159M18.6667 159.333L19.3333 159.667L18.6667 159.333M21 159L21 160L24 160L21 159z"/>
<path style="fill:#7a7474; stroke:none;" d="M24 159L25 160L24 159z"/>
<path style="fill:#9b3c2e; stroke:none;" d="M30 159L31 160L30 159z"/>
<path style="fill:#988c8b; stroke:none;" d="M34 159L35 160L34 159z"/>
<path style="fill:#211d1e; stroke:none;" d="M36.0401 159.746C27.1658 163.187 30.5593 177.615 39.9954 174.242C49.7466 170.757 46.2882 155.773 36.0401 159.746z"/>
<path style="fill:#9b3c2e; stroke:none;" d="M44 159L45 160L44 159z"/>
<path style="fill:#7a7474; stroke:none;" d="M64 159L65 160L64 159M68.3333 159.667L68.6667 160.333L68.3333 159.667M79 161L82 160L79 161M140 159L138 162L143 162L140 159M146 159L147 160L146 159M160 159L161 160L160 159M162 159L163 160L162 159M164.667 159.333L165.333 159.667L164.667 159.333M167 159L168 160L167 159z"/>
<path style="fill:#988c8b; stroke:none;" d="M12 160L13 161L12 160M26 165L33 161C29.0653 160.057 27.1135 161.061 26 165z"/>
<path style="fill:#9b3c2e; stroke:none;" d="M48 160L49 161L48 160M50 160L51 161L50 160z"/>
<path style="fill:#7a7474; stroke:none;" d="M58.6667 160.333L59.3333 160.667L58.6667 160.333z"/>
<path style="fill:#211d1e; stroke:none;" d="M111 160L111 163L112 163L111 160z"/>
<path style="fill:#988c8b; stroke:none;" d="M140 160L141 161L140 160z"/>
<path style="fill:#7a7474; stroke:none;" d="M143.667 160.333L144.333 160.667L143.667 160.333M147 160L148 161L147 160M158.333 160.667L158.667 161.333L158.333 160.667M166 160L167 161L166 160M17 161L18 162L17 161z"/>
<path style="fill:#988c8b; stroke:none;" d="M18 161L18 162L19 164L20 164L18 161z"/>
<path style="fill:#9b3c2e; stroke:none;" d="M21.3333 161.667L21.6667 162.333L21.3333 161.667z"/>
<path style="fill:#988c8b; stroke:none;" d="M36 161C30.8968 167.399 34.9627 174.745 40 167L36 161z"/>
<path style="fill:#9b3c2e; stroke:none;" d="M39 167C42.4242 167 40.0126 169.862 39 172C50.6608 170.057 41.181 157.228 38 162C36.5501 164.175 39.3655 165.538 39 167M45 161L46 162L45 161z"/>
<path style="fill:#7a7474; stroke:none;" d="M64 161L65 162L64 161M66 161L67 162L66 161M77 161L78 162L77 161M82 161L83 162L82 161M89 161L90 162L89 161z"/>
<path style="fill:#988c8b; stroke:none;" d="M100 161L98 167L100 167L98 169L98 170L100 171L100 172L100 178L107 174L107 178L111 176L112 176L119 179L119 189L94 189L94 185L93 185L93 192L98 190L98 191L97 194L100 192L116.06 193.958L170 194L170 193L167 189L166 181L164 182C161.83 175.781 158.012 172.484 152 170L151 175L138 176L139 174L138 174L123 173C120.879 175.107 117.533 175.64 117 172C113.333 170.962 110.515 168.95 110 165L100 161M106 161L105 163L106 161z"/>
<path style="fill:#7a7474; stroke:none;" d="M129 163L132 162L129 163M135 161L136 162L135 161M145.667 161.333L146.333 161.667L145.667 161.333M148 161L149 162L148 161M156 161L157 162L156 161M164 161L165 162L164 161M167 161L168 162L167 161z"/>
<path style="fill:#988c8b; stroke:none;" d="M170 161L171 162L170 161z"/>
<path style="fill:#7a7474; stroke:none;" d="M14 162L15 163L14 162z"/>
<path style="fill:#988c8b; stroke:none;" d="M16 162L17 163L16 162z"/>
<path style="fill:#fcfbfb; stroke:none;" d="M16 163L21 167L20 162L16 163z"/>
<path style="fill:#988c8b; stroke:none;" d="M22.3333 162.667L22.6667 163.333L22.3333 162.667z"/>
<path style="fill:#7a7474; stroke:none;" d="M34 162L35 163L34 162z"/>
<path style="fill:#9b3c2e; stroke:none;" d="M48 162L49 163L48 162z"/>
<path style="fill:#7a7474; stroke:none;" d="M68 162L69 163L68 162M79 162L80 163L79 162z"/>
<path style="fill:#988c8b; stroke:none;" d="M109 162L110 163L109 162z"/>
<path style="fill:#7a7474; stroke:none;" d="M147 162L146 164L148 164L147 162M171 162L172 163L171 162z"/>
<path style="fill:#988c8b; stroke:none;" d="M14 163L15 164L14 163z"/>
<path style="fill:#9b3c2e; stroke:none;" d="M31 163L32 164L31 163M33 163L34 164L33 163z"/>
<path style="fill:#7a7474; stroke:none;" d="M54 163L53 175L65 176L66 173C66.6982 174.396 66.3018 174.396 67 173L68 173L68 178L67 178L66 176L65 177C66.4968 181.053 63.6022 181.727 60 182L60 181L64 181L64 177L59 176L59 177L62 177L62 178L60 181L55 181L55 182L60 182L58 188L34 192.906L16 187L17 184L14 185C15.2809 180.916 17.27 180.963 20 184L25 181L22 173C12.807 175.724 8.03239 181.535 8 191L7 191L6 189C5.21574 196.729 18.7548 194 24 194C39.044 194 81.1524 197.85 75 171L76 171C77.8418 178.83 74.2296 182.788 70 189C77.4998 185.426 82.8544 174.106 74.7863 167.97C69.2852 163.786 60.6631 163.055 54 163M71.6667 163.333L72.3333 163.667L71.6667 163.333z"/>
<path style="fill:#211d1e; stroke:none;" d="M112 163L112 166L113 166L112 163z"/>
<path style="fill:#7a7474; stroke:none;" d="M131 163L132 164L131 163M149 163L154 168L148 168L143 175L151 175L152 170L154 172L161 172L160 176L161 176L161 173L165 174L165 180L162 178L164 182L166 180L166 183L168 182L167 185L171 185L172 187L172 195L192 195L188 186L189 191L187 189L180 191L180 190L159 170L159 169L161 168L156 167L155 163L149 163M156 163L159 165L159 164L156 163M160 163L162 165L160 163M170 163L170 165L172 165L170 163M172 163L173 164L172 163z"/>
<path style="fill:#988c8b; stroke:none;" d="M16 164L15 166L16 164M23.6667 164.333L24.3333 164.667L23.6667 164.333z"/>
<path style="fill:#7a7474; stroke:none;" d="M36 164L37 165L36 164z"/>
<path style="fill:#988c8b; stroke:none;" d="M50.3333 164.667L50.6667 165.333L50.3333 164.667z"/>
<path style="fill:#7a7474; stroke:none;" d="M73 164L74 165L73 164M75.3333 164.667L75.6667 165.333L75.3333 164.667M86 166L89 164L86 166M91 164L92 165L91 164z"/>
<path style="fill:#988c8b; stroke:none;" d="M107 164L108 165L107 164z"/>
<path style="fill:#7a7474; stroke:none;" d="M116 164L117 165L116 164M124 164L125 165L124 164M137 164L138 165L137 164M142 164L143 165L142 164M143 165L146 168L146 165L143 165z"/>
<path style="fill:#211d1e; stroke:none;" d="M151 164L152 165L151 164z"/>
<path style="fill:#7a7474; stroke:none;" d="M163 164L165 166L163 164M16 165L17 166L16 165z"/>
<path style="fill:#988c8b; stroke:none;" d="M20 165L21 166L20 165z"/>
<path style="fill:#9b3c2e; stroke:none;" d="M25 165L26 166L25 165z"/>
<path style="fill:#7a7474; stroke:none;" d="M32 165L33 166L32 165M37 165L38 166L37 165z"/>
<path style="fill:#211d1e; stroke:none;" d="M38.6667 165.333L39.3333 165.667L38.6667 165.333z"/>
<path style="fill:#9b3c2e; stroke:none;" d="M46 165L47 166L46 165z"/>
<path style="fill:#988c8b; stroke:none;" d="M60 165L61 166L60 165M62.6667 165.333L63.3333 165.667L62.6667 165.333z"/>
<path style="fill:#7a7474; stroke:none;" d="M77 165L78 166L77 165M82 165L83 166L82 165M102.667 165.333L103.333 165.667L102.667 165.333M129.333 165.667L129.667 166.333L129.333 165.667M131 165L132 166L131 165z"/>
<path style="fill:#211d1e; stroke:none;" d="M144 165L147 171L141 169L141 171L138 170C140.892 174.301 149.007 174.45 148 168L154 168L153 165L144 165z"/>
<path style="fill:#7a7474; stroke:none;" d="M147.667 165.333L148.333 165.667L147.667 165.333M169 165L166 168L166 169L171 169L169 165M172 165L173 166L172 165z"/>
<path style="fill:#211d1e; stroke:none;" d="M16 166L17 167L16 166z"/>
<path style="fill:#9b3c2e; stroke:none;" d="M24 166L25 167L24 166z"/>
<path style="fill:#7a7474; stroke:none;" d="M76 166L77 167L76 166M90 166L91 167L90 166z"/>
<path style="fill:#211d1e; stroke:none;" d="M113 166L115 168L113 166z"/>
<path style="fill:#7a7474; stroke:none;" d="M121 166L122 167L121 166M139 166L140 167L139 166M173 166L174 167L173 166M16.6667 167.333L17.3333 167.667L16.6667 167.333z"/>
<path style="fill:#988c8b; stroke:none;" d="M20 167L21 168L20 167z"/>
<path style="fill:#9b3c2e; stroke:none;" d="M23.3333 167.667L23.6667 168.333L23.3333 167.667z"/>
<path style="fill:#988c8b; stroke:none;" d="M25.3333 167.667L25.6667 168.333L25.3333 167.667z"/>
<path style="fill:#9b3c2e; stroke:none;" d="M46 167L47 168L46 167z"/>
<path style="fill:#7a7474; stroke:none;" d="M77 167L78 168L77 167M87 167L86 170L87 167M101 167L101 171L102 171L101 167M106 167L107 168L106 167M128 167L129 168L128 167M130 169L133 167L130 169M164 167L163 170L164 167M174 167L175 168L174 167z"/>
<path style="fill:#988c8b; stroke:none;" d="M177 167L178 168L177 167M18 168L19 169L18 168z"/>
<path style="fill:#7a7474; stroke:none;" d="M39 168L40 169L39 168M84 168L85 169L84 168z"/>
<path style="fill:#211d1e; stroke:none;" d="M124 168L119 171L119 172C122.024 171.9 125.966 171.727 124 168z"/>
<path style="fill:#9b3c2e; stroke:none;" d="M127 168L128 169L127 168z"/>
<path style="fill:#211d1e; stroke:none;" d="M126 171L135 171L134 168L126 171z"/>
<path style="fill:#7a7474; stroke:none;" d="M141 168L141 169L144 170L141 168z"/>
<path style="fill:#988c8b; stroke:none;" d="M178 168L179 169L178 168M16 169L17 170L16 169M27 169L27 171L29 171L29 169L27 169z"/>
<path style="fill:#9b3c2e; stroke:none;" d="M30 169L31 170L30 169z"/>
<path style="fill:#7a7474; stroke:none;" d="M79 169L80 170L79 169M81 169L82 170L81 169M104 169L103 174L104 169M121 169L122 170L121 169M146.333 169.667L146.667 170.333L146.333 169.667z"/>
<path style="fill:#211d1e; stroke:none;" d="M154 169L156 171L154 169z"/>
<path style="fill:#988c8b; stroke:none;" d="M179 169L180 170L179 169z"/>
<path style="fill:#7a7474; stroke:none;" d="M15 170L16 171L15 170M32 170L33 171L32 170M37 170L38 171L37 170z"/>
<path style="fill:#211d1e; stroke:none;" d="M57 171L57 172L62 171L57 171M66 170L66 173L67 173L66 170z"/>
<path style="fill:#7a7474; stroke:none;" d="M80 170L81 171L80 170z"/>
<path style="fill:#211d1e; stroke:none;" d="M117 170L118 171L117 170z"/>
<path style="fill:#988c8b; stroke:none;" d="M135.333 170.667L135.667 171.333L135.333 170.667z"/>
<path style="fill:#7a7474; stroke:none;" d="M144 170L145 171L144 170M165.333 170.667L165.667 171.333L165.333 170.667z"/>
<path style="fill:#988c8b; stroke:none;" d="M180 170L181 171L180 170M13 171L14 172L13 171z"/>
<path style="fill:#211d1e; stroke:none;" d="M21 171L22 172L21 171z"/>
<path style="fill:#988c8b; stroke:none;" d="M22.6667 171.333L23.3333 171.667L22.6667 171.333z"/>
<path style="fill:#211d1e; stroke:none;" d="M24 171L25 172L24 171z"/>
<path style="fill:#9b3c2e; stroke:none;" d="M31 171L32 172L31 171M44 171L45 172L44 171z"/>
<path style="fill:#988c8b; stroke:none;" d="M59 173L62 172L59 173M65 171L66 172L65 171z"/>
<path style="fill:#211d1e; stroke:none;" d="M75.3333 171.667L75.6667 172.333L75.3333 171.667z"/>
<path style="fill:#7a7474; stroke:none;" d="M83 171L84 172L83 171M89 171L91 173L91 171L89 171M107 171L107 173L109 173L107 171z"/>
<path style="fill:#211d1e; stroke:none;" d="M156 171L156 172L161 173L161 172L156 171z"/>
<path style="fill:#7a7474; stroke:none;" d="M170 171L170 172L173 172L170 171z"/>
<path style="fill:#988c8b; stroke:none;" d="M181 171L182 172L181 171z"/>
<path style="fill:#7a7474; stroke:none;" d="M12 172L13 173L12 172z"/>
<path style="fill:#988c8b; stroke:none;" d="M7 191L8 191C8.10386 181.684 13.7571 176.603 22 173C12.4894 170.4 5.1662 182.997 7 191z"/>
<path style="fill:#211d1e; stroke:none;" d="M25 172L27 178L28 178L30 176L29 173L25 172z"/>
<path style="fill:#9b3c2e; stroke:none;" d="M26 172L27 173L26 172M43 172L44 173L43 172z"/>
<path style="fill:#211d1e; stroke:none;" d="M61.6667 172.333L62.3333 172.667L61.6667 172.333z"/>
<path style="fill:#9b3c2e; stroke:none;" d="M76 172L77 173L76 172z"/>
<path style="fill:#7a7474; stroke:none;" d="M157 172L158 173L157 172M167 172L168 173L167 172z"/>
<path style="fill:#988c8b; stroke:none;" d="M61 173L62 174L61 173M63 173L64 174L63 173z"/>
<path style="fill:#211d1e; stroke:none;" d="M65 173L63 176L63 177L64 179L65 179L65 173M67 173L67 178L68 178L67 173z"/>
<path style="fill:#7a7474; stroke:none;" d="M82.3333 173.667L82.6667 174.333L82.3333 173.667M89 173L89 177L90 177L89 173M110 173L111 174L110 173z"/>
<path style="fill:#988c8b; stroke:none;" d="M140 173L141 174L140 173z"/>
<path style="fill:#7a7474; stroke:none;" d="M152.333 173.667L152.667 174.333L152.333 173.667z"/>
<path style="fill:#211d1e; stroke:none;" d="M161 173L163 176L165 180L165 174L161 173z"/>
<path style="fill:#7a7474; stroke:none;" d="M180 173L181 174L180 173M9 174L10 175L9 174z"/>
<path style="fill:#9b3c2e; stroke:none;" d="M29 174L30 175L29 174z"/>
<path style="fill:#988c8b; stroke:none;" d="M58 177L64 176L64 175L59 174L58 177M66.3333 174.667L66.6667 175.333L66.3333 174.667z"/>
<path style="fill:#7a7474; stroke:none;" d="M101 174L102 175L101 174M106 174L103 175L99 182L99 183L103 183L104 178L114 179L114 178L112 176L111 176L105 178L106 174M112 174L113 175L112 174M181 174L182 175L181 174M8 175L9 176L8 175M55 175L55 180L58 180L57 175L55 175M182 175L183 176L182 175M184 175L185 176L184 175M7 176L8 177L7 176z"/>
<path style="fill:#988c8b; stroke:none;" d="M45.3333 176.667L45.6667 177.333L45.3333 176.667z"/>
<path style="fill:#7a7474; stroke:none;" d="M84 176L85 177L84 176z"/>
<path style="fill:#211d1e; stroke:none;" d="M96 176L94 189L118 189L118 179L103 179L103 180L117 180L116 188L96 188L98 176L96 176M99 176L99 181L104 176L99 176M105 176L105 178L107 176L105 176z"/>
<path style="fill:#7a7474; stroke:none;" d="M114.333 176.667L114.667 177.333L114.333 176.667M125 176L124 179L125 176M133 176L134 177L133 176M146 176L147 177L146 176M162 176L163 177L162 176M179 176L180 177L179 176M183 176L184 177L183 176z"/>
<path style="fill:#988c8b; stroke:none;" d="M185 176L186 177L185 176M6 177L7 178L6 177z"/>
<path style="fill:#7a7474; stroke:none;" d="M86 177L80 195C85.1461 191.626 87.6221 182.801 89 177L86 177z"/>
<path style="fill:#988c8b; stroke:none;" d="M98.3333 177.667L98.6667 178.333L98.3333 177.667M103 177L104 178L103 177z"/>
<path style="fill:#7a7474; stroke:none;" d="M148 177L149 178L148 177M174 177L173 179L174 177M177 177L180 182L181 182L181 178L177 177z"/>
<path style="fill:#988c8b; stroke:none;" d="M186 177L187 178L186 177M33.6667 178.333L34.3333 178.667L33.6667 178.333M36.6667 178.333L37.3333 178.667L36.6667 178.333z"/>
<path style="fill:#211d1e; stroke:none;" d="M30 187C36.1191 179.77 42.5494 177.944 51 182C46.9163 174.594 29.096 177.811 30 187z"/>
<path style="fill:#988c8b; stroke:none;" d="M59 178L60 179L59 178M65 178L63 179L63 180L65 178z"/>
<path style="fill:#211d1e; stroke:none;" d="M66 178L60 181L60 182C63.0606 181.9 66.8669 181.86 66 178z"/>
<path style="fill:#7a7474; stroke:none;" d="M83 178L84 179L83 178z"/>
<path style="fill:#988c8b; stroke:none;" d="M102 178L103 179L102 178z"/>
<path style="fill:#7a7474; stroke:none;" d="M116 178L117 179L116 178M128 178L129 179L128 178M132 178L133 179L132 178M138 178L139 179L138 178M140 178L141 179L140 178M143 178L142 180L143 178M152 178L153 179L152 178M157 178L158 179L157 178z"/>
<path style="fill:#988c8b; stroke:none;" d="M167 178L168 179L167 178M43 179C44.8191 181.39 46.1506 181.296 48 179L43 179z"/>
<path style="fill:#7a7474; stroke:none;" d="M45.6667 179.333L46.3333 179.667L45.6667 179.333z"/>
<path style="fill:#988c8b; stroke:none;" d="M56 179L57 180L56 179z"/>
<path style="fill:#7a7474; stroke:none;" d="M65 179L66 180L65 179M82 179L82 182L83 182L82 179z"/>
<path style="fill:#fcfbfb; stroke:none;" d="M98 179L98 184L99 184L98 179z"/>
<path style="fill:#988c8b; stroke:none;" d="M101 179L100 181L101 179z"/>
<path style="fill:#7a7474; stroke:none;" d="M118 179L119 180L118 179M126 179L127 180L126 179M130 179L131 180L130 179M133 182L134 182L136 180L133 182M150 179L151 180L150 179M154 179L153 181L154 179M159 179L160 180L159 179M175 179L178 182L175 179M185 179L186 180L185 179M187 179L188 180L187 179M37 180L38 181L37 180z"/>
<path style="fill:#988c8b; stroke:none;" d="M38 180L39 184L38 180M91 180L92 181L91 180z"/>
<path style="fill:#fcfbfb; stroke:none;" d="M101 180L102 181L101 180z"/>
<path style="fill:#9b3c2e; stroke:none;" d="M103 180L107 185L107 186L101 182L97 186L97 182L96 182L96 188L116 188L117 180L103 180z"/>
<path style="fill:#7a7474; stroke:none;" d="M137 180L138 181L137 180M146 180L145 182L146 180M148.333 180.667L148.667 181.333L148.333 180.667z"/>
<path style="fill:#211d1e; stroke:none;" d="M165 180L166 181L165 180z"/>
<path style="fill:#988c8b; stroke:none;" d="M188 180L189 181L188 180z"/>
<path style="fill:#7a7474; stroke:none;" d="M16 181L15 183L16 181z"/>
<path style="fill:#9b3c2e; stroke:none;" d="M31 181L32 182L31 181z"/>
<path style="fill:#988c8b; stroke:none;" d="M102 181L103 184L104 184L102 181z"/>
<path style="fill:#211d1e; stroke:none;" d="M103 181L104 182L103 181z"/>
<path style="fill:#7a7474; stroke:none;" d="M128 181L129 182L128 181M131 181L132 182L131 181M139 181L140 185L141 185L143 183L143 182L139 181M150 182L150 183L153 183L150 182M155 181L156 182L155 181M157 181L157 184L160 183L160 182L157 181z"/>
<path style="fill:#211d1e; stroke:none;" d="M166 181L167 182L166 181z"/>
<path style="fill:#988c8b; stroke:none;" d="M16 182L17 183L16 182z"/>
<path style="fill:#211d1e; stroke:none;" d="M100 182L101 183L100 182M104 182L105 183L104 182M108 182L108 186C109.813 184.444 109.813 183.556 108 182M111 182L111 186C112.813 184.444 112.813 183.556 111 182M114 182L116 184L116 182L114 182z"/>
<path style="fill:#7a7474; stroke:none;" d="M118 182L118 185L119 185L118 182M126 182L127 183L126 182z"/>
<path style="fill:#211d1e; stroke:none;" d="M167.333 182.667L167.667 183.333L167.333 182.667z"/>
<path style="fill:#7a7474; stroke:none;" d="M175 182L176 183L175 182M183 182L184 183L183 182M187 182L188 183L187 182M189 182L190 183L189 182M55 184L55 185L58 185L58 184L55 184z"/>
<path style="fill:#211d1e; stroke:none;" d="M99 183L97 185L97 186C99.2508 185.527 100.118 185.14 99 183M102 183L103 184L102 183z"/>
<path style="fill:#7a7474; stroke:none;" d="M104 183L105 184L104 183M155 183L156 184L155 183M162.667 183.333L163.333 183.667L162.667 183.333z"/>
<path style="fill:#988c8b; stroke:none;" d="M190 183L191 184L190 183z"/>
<path style="fill:#7a7474; stroke:none;" d="M18 184L19 185L18 184z"/>
<path style="fill:#988c8b; stroke:none;" d="M36 184L37 185L36 184M56 184L57 185L56 184M98 184L99 185L98 184z"/>
<path style="fill:#211d1e; stroke:none;" d="M103 184L103 185L107 186L107 185L103 184z"/>
<path style="fill:#fcfbfb; stroke:none;" d="M104 184L105 185L104 184z"/>
<path style="fill:#7a7474; stroke:none;" d="M134 184L135 185L134 184M150 184L151 185L150 184M153 184L152 186L153 184M159.333 184.667L159.667 185.333L159.333 184.667M188 184L189 185L188 184z"/>
<path style="fill:#211d1e; stroke:none;" d="M15 185L16 186L15 185M114 185L115 186L114 185z"/>
<path style="fill:#7a7474; stroke:none;" d="M130 185L131 190L128 191L128 192L134 189L131 189L130 185M136 185L137 186L136 185M145 186L145 187L148 187L145 186M179 185L178 187L179 185M185 185L186 186L185 185z"/>
<path style="fill:#988c8b; stroke:none;" d="M191 185L192 186L191 185z"/>
<path style="fill:#211d1e; stroke:none;" d="M33 186L34 187L33 186M35.3333 186.667L35.6667 187.333L35.3333 186.667z"/>
<path style="fill:#988c8b; stroke:none;" d="M81 186L82 187L81 186z"/>
<path style="fill:#211d1e; stroke:none;" d="M89 186L91 188L89 186z"/>
<path style="fill:#7a7474; stroke:none;" d="M118 186L118 189L119 189L118 186M123 186L124 187L123 186M125.667 186.333L126.333 186.667L125.667 186.333M134 186L135 187L134 186M139.333 186.667L139.667 187.333L139.333 186.667M153 187L153 188L159 189L153 187M162 186L163 187L162 186M168 186L167 189L168 186M137 187L138 188L137 187M149 187L150 188L149 187M186 187L187 188L186 187z"/>
<path style="fill:#988c8b; stroke:none;" d="M82 188L81 190L82 188z"/>
<path style="fill:#7a7474; stroke:none;" d="M120 188L121 189L120 188M125 188L127 190L125 188M128 188L129 189L128 188M143 188L144 189L143 188M151 188L152 189L151 188M165 188L166 189L165 188z"/>
<path style="fill:#211d1e; stroke:none;" d="M173 188L172 191L173 188z"/>
<path style="fill:#7a7474; stroke:none;" d="M179 188L180 189L179 188M181.333 188.667L181.667 189.333L181.333 188.667M192 188L193 189L192 188M69 189L70 190L69 189M99 189L100 190L99 189M115.667 189.333L116.333 189.667L115.667 189.333M123 189L122 193L124 191L125 191L127 193L123 189M137 189L139 191L137 189M148 189L149 190L148 189M169 189L168 193L169 189M68 190L69 191L68 190M101 190L102 191L101 190M105 190L106 191L105 190M108 190L109 191L108 190M111 190L111 191L115 191L115 190L111 190M135 190L136 191L135 190M144 190L145 191L144 190M150 190L152 192L150 190M163 190L164 191L163 190z"/>
<path style="fill:#211d1e; stroke:none;" d="M175 190L176 191L175 190z"/>
<path style="fill:#988c8b; stroke:none;" d="M8 191L9 192L8 191z"/>
<path style="fill:#7a7474; stroke:none;" d="M66 191L65 193L66 191z"/>
<path style="fill:#211d1e; stroke:none;" d="M88 191L87 193L88 191z"/>
<path style="fill:#7a7474; stroke:none;" d="M161 191L162 192L161 191z"/>
<path style="fill:#988c8b; stroke:none;" d="M193 191L194 192L193 191z"/>
<path style="fill:#7a7474; stroke:none;" d="M77 192L76 194L78 194L77 192M107 192L108 193L107 192M109 192L110 193L109 192M115 192L116 193L115 192M119 192L120 193L119 192M132.667 192.333L133.333 192.667L132.667 192.333M135 192L136 193L135 192M142 192L143 193L142 192M145 192L146 193L145 192M148 192L149 193L148 192M153 192L154 193L153 192M164 192L165 193L164 192z"/>
<path style="fill:#211d1e; stroke:none;" d="M175.667 192.333L176.333 192.667L175.667 192.333z"/>
<path style="fill:#7a7474; stroke:none;" d="M193 192L194 193L193 192M63 193L64 194L63 193z"/>
<path style="fill:#988c8b; stroke:none;" d="M191 193L192 194L191 193M194 194L194 195L206 195L194 194z"/>
</svg>
