<?xml version="1.0" standalone="yes"?>
<svg xmlns="http://www.w3.org/2000/svg" width="211" height="199">
<path style="fill:#1d1918; stroke:none;" d="M0 0L0 199L211 199L211 0L0 0z"/>
<path style="fill:#817370; stroke:none;" d="M4 3L4 4L206 4L187 3L146 3L4 3z"/>
<path style="fill:#c09e6b; stroke:none;" d="M4 4L4 21L5 21L4 4z"/>
<path style="fill:#f6f5f5; stroke:none;" d="M5 4L5 134L14 129C12.8009 126.837 10.2387 123.805 11.1667 121.174C13.11 115.662 20.066 114.268 23 119L35 110C40.5044 111.311 49.8432 109.942 48 118L55 120L56 116C64.1017 118.642 67.7999 122.068 68 131L69 131L77.3974 122.701L78.0039 107L80 83L74 79L79 78C76.6636 70.7034 70.4372 59.7086 77 54L75 45C66.9446 42.2384 57.7625 31.3936 68 26L68 27C57.8705 32.6978 73.3877 48.5987 79 39C74.2111 38.8975 69.2584 38.6586 69 33L73 33L73 32L70 28L73 29L75 23L76 23C82.5914 33.3609 97.791 22.259 86 18C94.6227 10.7136 100.911 17.9203 110 20C112.867 15.745 115.399 19.2298 116 23C122.031 21.9905 121.345 13.4307 115.786 11.7878C112.761 10.8937 109.226 12.8183 106 12.2909C95.8788 10.6366 88.5554 6.66718 78 8L78 7C87.7337 5.1929 94.7093 7.89755 104 10.24C107.947 11.235 112.271 9.51234 115.957 10.6343C127.003 13.9968 121.306 26.5682 117 32L137 27.9375L156 37L125 58L131 65C129.909 67.2979 128.715 69.5815 127.911 72.0015C122.782 87.4557 139.888 87.2403 148.999 93.6489C155.306 98.0855 157.99 104.252 161 111L125 104C125.455 112.865 130.358 121.364 136 128L128 126C128.142 141.673 145.553 144.752 157 150.781C174.62 160.061 193.181 174.711 198 195L206 195L205 4L5 4z"/>
<path style="fill:#c09e6b; stroke:none;" d="M205 4L205 27L206 27L205 4M80 6L80 8L82 8L80 6z"/>
<path style="fill:#817370; stroke:none;" d="M81.6667 6.33333L82.3333 6.66667L81.6667 6.33333z"/>
<path style="fill:#1d1918; stroke:none;" d="M83 6L83 7L89 7L83 6z"/>
<path style="fill:#817370; stroke:none;" d="M89 6L91 8L91 6L89 6z"/>
<path style="fill:#c09e6b; stroke:none;" d="M91 6L92 7L91 6z"/>
<path style="fill:#817370; stroke:none;" d="M78.6667 7.33333L79.3333 7.66667L78.6667 7.33333z"/>
<path style="fill:#c09e6b; stroke:none;" d="M88.6667 7.33333L89.3333 7.66667L88.6667 7.33333z"/>
<path style="fill:#1d1918; stroke:none;" d="M91 7L91 8L94 8L91 7z"/>
<path style="fill:#817370; stroke:none;" d="M94.3333 7.66667L94.6667 8.33333L94.3333 7.66667z"/>
<path style="fill:#c09e6b; stroke:none;" d="M95 7L96 8L95 7M76 8L75 12L76 12L76 8z"/>
<path style="fill:#817370; stroke:none;" d="M77 8L78 9L77 8z"/>
<path style="fill:#c09e6b; stroke:none;" d="M93 8L94 9L93 8z"/>
<path style="fill:#1d1918; stroke:none;" d="M95.6667 8.33333L96.3333 8.66667L95.6667 8.33333z"/>
<path style="fill:#817370; stroke:none;" d="M97.3333 8.66667L97.6667 9.33333L97.3333 8.66667z"/>
<path style="fill:#c09e6b; stroke:none;" d="M98 8L99 9L98 8z"/>
<path style="fill:#817370; stroke:none;" d="M76 9L77 10L76 9z"/>
<path style="fill:#c09e6b; stroke:none;" d="M96 9L97 10L96 9z"/>
<path style="fill:#1d1918; stroke:none;" d="M98.6667 9.33333L99.3333 9.66667L98.6667 9.33333z"/>
<path style="fill:#817370; stroke:none;" d="M100.333 9.66667L100.667 10.3333L100.333 9.66667z"/>
<path style="fill:#c09e6b; stroke:none;" d="M101 9L102 10L101 9M114 9L116 11L114 9z"/>
<path style="fill:#817370; stroke:none;" d="M115 9L116 10L115 9M75 10L76 11L75 10z"/>
<path style="fill:#c09e6b; stroke:none;" d="M99 10L100 11L99 10z"/>
<path style="fill:#1d1918; stroke:none;" d="M101.667 10.3333L102.333 10.6667L101.667 10.3333z"/>
<path style="fill:#817370; stroke:none;" d="M103.333 10.6667L103.667 11.3333L103.333 10.6667z"/>
<path style="fill:#c09e6b; stroke:none;" d="M104 10L105 11L104 10z"/>
<path style="fill:#817370; stroke:none;" d="M113 10L113 12L115 10L113 10M116 10L117 11L116 10z"/>
<path style="fill:#c09e6b; stroke:none;" d="M117 10L118 14L119 14L120 12L117 10z"/>
<path style="fill:#1d1918; stroke:none;" d="M74 11L75 12L74 11z"/>
<path style="fill:#c09e6b; stroke:none;" d="M102 11L103 12L102 11z"/>
<path style="fill:#1d1918; stroke:none;" d="M104 11L104 12L107 12L104 11z"/>
<path style="fill:#817370; stroke:none;" d="M107 11L107 12L111 12L107 11z"/>
<path style="fill:#1d1918; stroke:none;" d="M111.667 11.3333L112.333 11.6667L111.667 11.3333M117 11L118 12L117 11z"/>
<path style="fill:#817370; stroke:none;" d="M73.6667 12.3333L74.3333 12.6667L73.6667 12.3333z"/>
<path style="fill:#c09e6b; stroke:none;" d="M106 12L106 13L111 13L106 12z"/>
<path style="fill:#1d1918; stroke:none;" d="M118 12L119 13L118 12M73 13L74 14L73 13M119 13L120 14L119 13z"/>
<path style="fill:#817370; stroke:none;" d="M72.6667 14.3333L73.3333 14.6667L72.6667 14.3333z"/>
<path style="fill:#c09e6b; stroke:none;" d="M89.6667 14.3333L90.3333 14.6667L89.6667 14.3333z"/>
<path style="fill:#817370; stroke:none;" d="M91 14L94 16L91 14z"/>
<path style="fill:#c09e6b; stroke:none;" d="M94.6667 14.3333L95.3333 14.6667L94.6667 14.3333z"/>
<path style="fill:#817370; stroke:none;" d="M119 14L120 15L119 14z"/>
<path style="fill:#c09e6b; stroke:none;" d="M120 14L119 16L120 14z"/>
<path style="fill:#1d1918; stroke:none;" d="M72 15L68 26C71.2638 23.1494 73.5358 19.3311 72 15z"/>
<path style="fill:#c09e6b; stroke:none;" d="M73.3333 15.6667L73.6667 16.3333L73.3333 15.6667z"/>
<path style="fill:#817370; stroke:none;" d="M88 15L87 19L88 15z"/>
<path style="fill:#1d1918; stroke:none;" d="M89 15L89 16L92 16L89 15M94 15L94 16L97 16L94 15z"/>
<path style="fill:#817370; stroke:none;" d="M97 15L97 17L99 17L97 15z"/>
<path style="fill:#c09e6b; stroke:none;" d="M98.6667 15.3333L99.3333 15.6667L98.6667 15.3333z"/>
<path style="fill:#1d1918; stroke:none;" d="M120.333 15.6667L120.667 16.3333L120.333 15.6667M87 16L87 18L89 16L87 16z"/>
<path style="fill:#c09e6b; stroke:none;" d="M88 19L91 25L107 23L105 20C108.95 22.473 111.312 23.3872 114 19L112 20L112 19L116 19L116 18C112.941 16.8901 110.765 16.431 110 20L103 17L104 19C98.4434 16.8602 92.7383 14.1622 88 19z"/>
<path style="fill:#1d1918; stroke:none;" d="M99 16L100 17L99 16z"/>
<path style="fill:#817370; stroke:none;" d="M100 16L104 19L104 18L100 16z"/>
<path style="fill:#c09e6b; stroke:none;" d="M101 16L102 17L101 16M121 16L122 17L121 16M71 17L72 18L71 17M86 17L87 18L86 17z"/>
<path style="fill:#817370; stroke:none;" d="M120.667 17.3333L121.333 17.6667L120.667 17.3333M71 18L72 19L71 18M112.333 18.6667L112.667 19.3333L112.333 18.6667z"/>
<path style="fill:#1d1918; stroke:none;" d="M113 18C112.649 21.3457 111.449 23.9325 108 22L107 22L95 24L95 25L119 26L119 25L113 24L113 18z"/>
<path style="fill:#c09e6b; stroke:none;" d="M120 18L121 19L120 18z"/>
<path style="fill:#1d1918; stroke:none;" d="M121 18L121 21L122 21L121 18z"/>
<path style="fill:#817370; stroke:none;" d="M72 19L73 20L72 19M104 19L105 20L104 19M115 19L116 20L115 19z"/>
<path style="fill:#c09e6b; stroke:none;" d="M70 20L71 21L70 20M72 20L73 21L72 20z"/>
<path style="fill:#817370; stroke:none;" d="M105 20L108 22L105 20M113 20L114 21L113 20z"/>
<path style="fill:#c09e6b; stroke:none;" d="M115 20L114 24L120 27L123 27L121 22L115 20M122 20L123 21L122 20z"/>
<path style="fill:#817370; stroke:none;" d="M4 21L4 65L5 65C5 52.5196 8.81025 32.4634 4 21M70 21L71 22L70 21M121 21L121 24L123 24L123 21L121 21M71 22L72 23L71 22M112 22L113 23L112 22M114 22L115 23L114 22M69 23L70 24L69 23z"/>
<path style="fill:#c09e6b; stroke:none;" d="M75 23L72 30C75.1152 29.3358 76.6854 25.8358 75 23z"/>
<path style="fill:#817370; stroke:none;" d="M99 23L99 24L107 24L99 23M108 23L108 24L112 24L108 23M113 23L114 24L113 23z"/>
<path style="fill:#c09e6b; stroke:none;" d="M68 24L69 25L68 24z"/>
<path style="fill:#817370; stroke:none;" d="M75 24L76 30L77 30L75 24M92 26L95 24L92 26M118 24L119 25L118 24z"/>
<path style="fill:#1d1918; stroke:none;" d="M122 24L123 25L122 24z"/>
<path style="fill:#c09e6b; stroke:none;" d="M69 25L70 26L69 25M77 25L79 34L89 27L85 32L90 25C84.7612 27.1597 81.9393 28.3844 77 25z"/>
<path style="fill:#817370; stroke:none;" d="M90.3333 25.6667L90.6667 26.3333L90.3333 25.6667z"/>
<path style="fill:#1d1918; stroke:none;" d="M91 25L92 26L91 25z"/>
<path style="fill:#c09e6b; stroke:none;" d="M95 25L95 26L98 26L95 25z"/>
<path style="fill:#f6f5f5; stroke:none;" d="M85 39C89.3927 38.2078 92.9208 35.9408 97 34.2323C102.048 32.1179 111.737 33.6223 115.338 29.3665C117.241 27.117 115.161 25.5253 112.941 25.1481C101.407 23.1894 85.1692 24.676 85 39z"/>
<path style="fill:#c09e6b; stroke:none;" d="M116 25L116 32C118.371 29.3593 118.259 27.725 116 25z"/>
<path style="fill:#817370; stroke:none;" d="M117 25L118 26L117 25M122 25L123 26L122 25M66.6667 26.3333L67.3333 26.6667L66.6667 26.3333z"/>
<path style="fill:#1d1918; stroke:none;" d="M75 26L72 30L72 31L76 31L79 36L75 36L75 37L80 36C80.2206 41.9273 76.2121 42.8739 71 43L71 44L75 44L78 54C72.8792 56.583 71.8301 61.737 77 65L78 75L82 74L79 79L74 79L79.8032 84.2986L79.1698 97L78 125L68 131L67 124L66 124L61 138L66 132L70 134L74 128L80 144L73 141L73 142L97.706 161.498L116 177L117 177L116 174L120 174C109.206 158.804 78.848 148.517 79 127L118 150C114.046 142.091 97.7398 133.87 90 130C87.2106 128.605 81.8754 128.126 80 125C79.04 123.4 80.4618 119.847 80 118C78.3072 111.229 80.3744 100.508 81 93C81.3127 89.2481 81.5644 83.3911 84 84C82.9086 78.3883 84.1934 71.3576 88 67C90.1255 55.5683 112.84 55.5993 120.985 59.5725C124.084 61.0839 126.341 63.8832 129 66L129 67C125.503 70.9679 124.139 76.8259 125 82L126 82C126.467 71.2815 130.624 67.5725 124 58L155 38L155 37L151 35C151 38.6156 143.089 40.6224 140 42.1667C129.418 47.4576 118.957 54.056 107 55L108 48L107 48C104.536 53.8582 102.362 56.6281 96 54C91.5545 60.6559 88.1311 55.2355 82 55C80.5153 52.1282 75.5313 39.5682 84.8272 43.1759C88.4008 44.5629 91.0801 49.9171 93 53L94 53C92.9386 49.6472 88.7053 44.6318 90.1026 41.1049C93.23 33.211 105.569 34.3169 112 34.625C120.548 35.0345 128.549 29.9306 137 30.0556C141.558 30.123 145.892 33.2898 150 35L150 34C138.774 26.5161 132.097 28.9757 120 32C116.739 32.8154 116.609 31.5634 117 30L114 34C106.773 31.5736 99.7024 32.8393 93 36.3194C90.8086 37.4573 85.738 41.5092 83.287 39.0725C79.9178 35.7231 87.218 29.5349 89 27L81 35L80 35L75 26M89 26L90 27L89 26z"/>
<path style="fill:#817370; stroke:none;" d="M118 26L120 29L120 26L118 26M121.333 26.6667L121.667 27.3333L121.333 26.6667M64 27L65 28L64 27z"/>
<path style="fill:#1d1918; stroke:none;" d="M65 27L66 28L65 27z"/>
<path style="fill:#c09e6b; stroke:none;" d="M66 27L67 28L66 27z"/>
<path style="fill:#817370; stroke:none;" d="M87 27L88 28L87 27z"/>
<path style="fill:#1d1918; stroke:none;" d="M120 27L121 28L120 27z"/>
<path style="fill:#c09e6b; stroke:none;" d="M135 27L136 28L135 27z"/>
<path style="fill:#817370; stroke:none;" d="M136.667 27.3333L137.333 27.6667L136.667 27.3333z"/>
<path style="fill:#1d1918; stroke:none;" d="M63.6667 28.3333L64.3333 28.6667L63.6667 28.3333z"/>
<path style="fill:#c09e6b; stroke:none;" d="M70 28L71 29L70 28z"/>
<path style="fill:#817370; stroke:none;" d="M86 28L87 29L86 28z"/>
<path style="fill:#1d1918; stroke:none;" d="M118 28L119 29L118 28z"/>
<path style="fill:#c09e6b; stroke:none;" d="M120 28L121 29L120 28M131 28L132 29L131 28z"/>
<path style="fill:#817370; stroke:none;" d="M132 28L133 29L132 28M139 28L140 29L139 28M62.6667 29.3333L63.3333 29.6667L62.6667 29.3333M70 29L72 31L72 29L70 29M85 29L86 30L85 29M117 29L118 30L117 29z"/>
<path style="fill:#c09e6b; stroke:none;" d="M127 29L128 30L127 29z"/>
<path style="fill:#817370; stroke:none;" d="M128 29L129 30L128 29z"/>
<path style="fill:#ab3a2c; stroke:none;" d="M94 53L93 53C91.5144 49.4857 88.7937 43.9206 84.8272 42.662C75.0561 39.5617 79.3239 51.5174 82 55C87.806 55.6081 92.4458 61.8462 96 54C102.303 57.3508 105.188 54.2516 107 48L108 48L107 55C120.941 54.4663 141.237 44.9178 152 36C147.936 33.6281 142.796 30.0436 138 29.6906C128.966 29.0255 120.216 34.899 111 34.3349C104.89 33.9608 91.8801 33.4932 89.3025 41.1049C88.0634 44.7639 92.5128 49.8185 94 53z"/>
<path style="fill:#817370; stroke:none;" d="M141 29L142 30L141 29z"/>
<path style="fill:#c09e6b; stroke:none;" d="M61 30L62 31L61 30z"/>
<path style="fill:#1d1918; stroke:none;" d="M62 30L63 31L62 30z"/>
<path style="fill:#c09e6b; stroke:none;" d="M70 30L71 31L70 30z"/>
<path style="fill:#817370; stroke:none;" d="M84 30L85 31L84 30z"/>
<path style="fill:#c09e6b; stroke:none;" d="M114 30L115 31L114 30z"/>
<path style="fill:#817370; stroke:none;" d="M115 30L116 31L115 30z"/>
<path style="fill:#c09e6b; stroke:none;" d="M123 30L124 31L123 30z"/>
<path style="fill:#817370; stroke:none;" d="M124 30L125 31L124 30M143 30L144 31L143 30M61.6667 31.3333L62.3333 31.6667L61.6667 31.3333z"/>
<path style="fill:#c09e6b; stroke:none;" d="M72 31L72 34L75 33L72 31z"/>
<path style="fill:#817370; stroke:none;" d="M73 31L73 32L76 32L73 31M77 31L78 32L77 31M83 31L84 32L83 31z"/>
<path style="fill:#c09e6b; stroke:none;" d="M111 33L114 31L111 33M118 31L119 32L118 31z"/>
<path style="fill:#817370; stroke:none;" d="M119.667 31.3333L120.333 31.6667L119.667 31.3333M145 31L146 32L145 31z"/>
<path style="fill:#c09e6b; stroke:none;" d="M61 32L62 33L61 32z"/>
<path style="fill:#1d1918; stroke:none;" d="M62 32L68 39L62 32z"/>
<path style="fill:#817370; stroke:none;" d="M82 32L83 33L82 32M84 32L81 37L82 37L84 32z"/>
<path style="fill:#c09e6b; stroke:none;" d="M101 32L102 33L101 32z"/>
<path style="fill:#817370; stroke:none;" d="M102 32L102 33L106 33L102 32M108 32L108 33L111 33L108 32z"/>
<path style="fill:#c09e6b; stroke:none;" d="M147 32L148 33L147 32z"/>
<path style="fill:#817370; stroke:none;" d="M62 33L63 34L62 33z"/>
<path style="fill:#c09e6b; stroke:none;" d="M69 33L70 34L69 33z"/>
<path style="fill:#817370; stroke:none;" d="M74 33L74 35L69 37L75 37L76 33L74 33z"/>
<path style="fill:#c09e6b; stroke:none;" d="M76 33L74 36L79 36L76 33z"/>
<path style="fill:#817370; stroke:none;" d="M81 33L82 34L81 33z"/>
<path style="fill:#c09e6b; stroke:none;" d="M84 33C81.9879 36.9671 82.3687 39.2264 87 40L87 39L84 33M98 33L99 34L98 33z"/>
<path style="fill:#817370; stroke:none;" d="M99 33L100 34L99 33M113 33L114 34L113 33z"/>
<path style="fill:#c09e6b; stroke:none;" d="M142 33L143 37L143 38L148 36L148 35L144 35L145 33L142 33z"/>
<path style="fill:#f6f5f5; stroke:none;" d="M143 33L144 34L143 33z"/>
<path style="fill:#c09e6b; stroke:none;" d="M149 33L150 34L149 33z"/>
<path style="fill:#817370; stroke:none;" d="M63 34L64 35L63 34z"/>
<path style="fill:#c09e6b; stroke:none;" d="M65 34L66 35L65 34z"/>
<path style="fill:#817370; stroke:none;" d="M68 34L69 35L68 34z"/>
<path style="fill:#1d1918; stroke:none;" d="M68 36L71 35L68 36M73 34L74 35L73 34z"/>
<path style="fill:#817370; stroke:none;" d="M80 34L81 35L80 34z"/>
<path style="fill:#c09e6b; stroke:none;" d="M96 34L97 35L96 34M140 34L141 35L140 34z"/>
<path style="fill:#f6f5f5; stroke:none;" d="M139 35L139 37L145 36L139 35M144.667 34.3333L145.333 34.6667L144.667 34.3333z"/>
<path style="fill:#817370; stroke:none;" d="M150 34L151 35L150 34z"/>
<path style="fill:#c09e6b; stroke:none;" d="M151 34L152 35L151 34z"/>
<path style="fill:#817370; stroke:none;" d="M64 35L65 36L64 35z"/>
<path style="fill:#c09e6b; stroke:none;" d="M69 35L70 36L69 35M93 35L94 36L93 35z"/>
<path style="fill:#817370; stroke:none;" d="M94 35L95 36L94 35z"/>
<path style="fill:#c09e6b; stroke:none;" d="M138 35L136 39L140 39L138 35z"/>
<path style="fill:#f6f5f5; stroke:none;" d="M146 35L147 36L146 35z"/>
<path style="fill:#817370; stroke:none;" d="M152 35L153 36L152 35M66 36L67 37L66 36z"/>
<path style="fill:#c09e6b; stroke:none;" d="M68 36L69 37L68 36M69 37L79 39L78 42L81 38L80 37L69 37z"/>
<path style="fill:#817370; stroke:none;" d="M79 36L80 37L79 36M92 36L93 37L92 36M154 36L155 37L154 36z"/>
<path style="fill:#c09e6b; stroke:none;" d="M67 37L68 38L67 37z"/>
<path style="fill:#817370; stroke:none;" d="M76.6667 37.3333L77.3333 37.6667L76.6667 37.3333M80 37L81 38L80 37z"/>
<path style="fill:#c09e6b; stroke:none;" d="M90 37L91 38L90 37M155 37L156 38L155 37M66 38L67 39L66 38M88 38L89 39L88 38z"/>
<path style="fill:#817370; stroke:none;" d="M89 38L90 39L89 38z"/>
<path style="fill:#1d1918; stroke:none;" d="M110 38L111 39L110 38z"/>
<path style="fill:#817370; stroke:none;" d="M67.6667 39.3333L68.3333 39.6667L67.6667 39.3333M82 39L83 40L82 39M87 39L88 40L87 39M152 39L153 40L152 39z"/>
<path style="fill:#1d1918; stroke:none;" d="M68 40L69 41L68 40z"/>
<path style="fill:#c09e6b; stroke:none;" d="M69 40L68 42L69 40z"/>
<path style="fill:#817370; stroke:none;" d="M84 40L85 41L84 40z"/>
<path style="fill:#c09e6b; stroke:none;" d="M151 40L152 41L151 40z"/>
<path style="fill:#817370; stroke:none;" d="M69 41L69 43L71 43L69 41M79 41L80 42L79 41M149 41L150 42L149 41z"/>
<path style="fill:#c09e6b; stroke:none;" d="M71 42L72 43L71 42M76 42L77 43L76 42z"/>
<path style="fill:#817370; stroke:none;" d="M77 42L78 43L77 42z"/>
<path style="fill:#c09e6b; stroke:none;" d="M70 43L71 44L70 43z"/>
<path style="fill:#817370; stroke:none;" d="M146 43L147 44L146 43z"/>
<path style="fill:#c09e6b; stroke:none;" d="M72 44L73 45L72 44z"/>
<path style="fill:#817370; stroke:none;" d="M73.6667 44.3333L74.3333 44.6667L73.6667 44.3333z"/>
<path style="fill:#c09e6b; stroke:none;" d="M145 44L146 45L145 44z"/>
<path style="fill:#817370; stroke:none;" d="M143 45L144 46L143 45z"/>
<path style="fill:#c09e6b; stroke:none;" d="M74 46L75 47L74 46M142 46L143 47L142 46z"/>
<path style="fill:#817370; stroke:none;" d="M74 47L75 48L74 47M140 47L141 48L140 47z"/>
<path style="fill:#c09e6b; stroke:none;" d="M74 48L75 49L74 48M139 48L140 49L139 48z"/>
<path style="fill:#817370; stroke:none;" d="M137 49L138 50L137 49M75 50L76 51L75 50z"/>
<path style="fill:#c09e6b; stroke:none;" d="M136 50L137 51L136 50z"/>
<path style="fill:#817370; stroke:none;" d="M134 51L135 52L134 51z"/>
<path style="fill:#c09e6b; stroke:none;" d="M133 52L134 53L133 52z"/>
<path style="fill:#817370; stroke:none;" d="M77 53L78 54L77 53M131 53L132 54L131 53z"/>
<path style="fill:#c09e6b; stroke:none;" d="M75 54L76 55L75 54z"/>
<path style="fill:#ab3a2c; stroke:none;" d="M125 54L122 56L122 57L126 55L125 54z"/>
<path style="fill:#c09e6b; stroke:none;" d="M130 54L131 55L130 54M74 55L75 56L74 55z"/>
<path style="fill:#ab3a2c; stroke:none;" d="M96 55L97 56L96 55z"/>
<path style="fill:#817370; stroke:none;" d="M128 55L129 56L128 55z"/>
<path style="fill:#ab3a2c; stroke:none;" d="M82 64L80 58L83 59C76.6458 52.7038 71.7308 64.8236 82 64z"/>
<path style="fill:#c09e6b; stroke:none;" d="M127 56L128 57L127 56z"/>
<path style="fill:#817370; stroke:none;" d="M105 57L105 58L112 58L105 57M125 57L126 58L125 57M98.6667 58.3333L99.3333 58.6667L98.6667 58.3333z"/>
<path style="fill:#c09e6b; stroke:none;" d="M100 58L101 59L100 58z"/>
<path style="fill:#f6f5f5; stroke:none;" d="M131 158C132.036 151.385 127.717 127.664 122 124C121.25 131.161 108.545 133.448 105.028 126.952C102.919 123.057 103.976 117.318 102.844 113C100.437 103.819 97.5815 95.1345 95.4159 86C94.8257 83.5107 92.3171 80.8505 92.8812 78.1883C93.8068 73.8194 98.5114 77.4124 100 79C108.708 75.4523 115.123 76.1802 124 79C125.008 75.1131 127.966 68.9044 126.472 65.0185C122.963 55.8886 101.069 55.4901 94.419 60.8542C88.2613 65.8212 87.73 79.7594 86.5903 87C85.0143 97.0121 80.4287 116.177 84.6034 125.787C86.5264 130.214 94.0826 132.679 98 135.014C109.27 141.731 119.146 152.717 131 158z"/>
<path style="fill:#c09e6b; stroke:none;" d="M116 58L117 59L116 58z"/>
<path style="fill:#817370; stroke:none;" d="M117.667 58.3333L118.333 58.6667L117.667 58.3333z"/>
<path style="fill:#c09e6b; stroke:none;" d="M124 58L125 59L124 58M72.3333 59.6667L72.6667 60.3333L72.3333 59.6667z"/>
<path style="fill:#817370; stroke:none;" d="M95 59L96 60L95 59z"/>
<path style="fill:#c09e6b; stroke:none;" d="M96 59L97 60L96 59M120 59L121 60L120 59z"/>
<path style="fill:#817370; stroke:none;" d="M121 59L122 60L121 59M124 59L125 60L124 59z"/>
<path style="fill:#c09e6b; stroke:none;" d="M93 60L94 61L93 60M105.667 60.3333L106.333 60.6667L105.667 60.3333z"/>
<path style="fill:#817370; stroke:none;" d="M123 60L124 61L123 60M125 60L126 61L125 60M88 67C83.7727 70.2036 83.2196 77.9634 83 83L90 68L89 65L93 61C89.5569 62.0625 88.3369 63.416 88 67z"/>
<path style="fill:#c09e6b; stroke:none;" d="M102 61L103 62L102 61z"/>
<path style="fill:#817370; stroke:none;" d="M103 65L107 62C104.063 61.0299 102.935 62.0077 103 65z"/>
<path style="fill:#1d1918; stroke:none;" d="M104 63L104 64L114 67C110.998 63.5917 108.512 61.5123 104 63z"/>
<path style="fill:#817370; stroke:none;" d="M108 61L109 62L108 61M124 61L125 62L124 61z"/>
<path style="fill:#c09e6b; stroke:none;" d="M126 61L127 62L126 61z"/>
<path style="fill:#817370; stroke:none;" d="M73 62L74 63L73 62z"/>
<path style="fill:#c09e6b; stroke:none;" d="M92 62L93 63L92 62z"/>
<path style="fill:#817370; stroke:none;" d="M109 62L110 63L109 62M125 62L126 63L125 62M74 63L75 64L74 63M110 63L111 64L110 63z"/>
<path style="fill:#c09e6b; stroke:none;" d="M91.3333 64.6667L91.6667 65.3333L91.3333 64.6667M102 64L103 65L102 64M104 64L105 65L104 64z"/>
<path style="fill:#817370; stroke:none;" d="M108.333 64.6667L108.667 65.3333L108.333 64.6667M111 64L112 65L111 64z"/>
<path style="fill:#c09e6b; stroke:none;" d="M118 64L119 65L118 64z"/>
<path style="fill:#817370; stroke:none;" d="M119 64L119 65L125 68L125 67L124 65L119 64z"/>
<path style="fill:#1d1918; stroke:none;" d="M120 64L120 65L123 66L120 64z"/>
<path style="fill:#c09e6b; stroke:none;" d="M126 64L127 65L126 64z"/>
<path style="fill:#817370; stroke:none;" d="M76 65L77 66L76 65z"/>
<path style="fill:#c09e6b; stroke:none;" d="M89 65L90 68C86.0916 70.9357 86.1302 76.5165 84.9969 81C82.2452 91.8864 73.6745 119.932 85 128C81.7638 114.407 84.9808 97.6019 87.2469 84C88.1439 78.6159 92.2054 69.6272 89 65M109 65L112 68L109 65z"/>
<path style="fill:#817370; stroke:none;" d="M110 65L111 66L110 65M113 65L114 66L113 65z"/>
<path style="fill:#c09e6b; stroke:none;" d="M114 65L113 68L116 68L114 65z"/>
<path style="fill:#817370; stroke:none;" d="M116 65L117 66L116 65z"/>
<path style="fill:#1d1918; stroke:none;" d="M116 66L116 67L120 66L116 66z"/>
<path style="fill:#c09e6b; stroke:none;" d="M127 65L128 66L127 65M130.333 65.6667L130.667 66.3333L130.333 65.6667z"/>
<path style="fill:#1d1918; stroke:none;" d="M107 66L110 69L110 70L105 70L105 72L115 72L107 66z"/>
<path style="fill:#817370; stroke:none;" d="M118 66L116 67L116 68L118 66z"/>
<path style="fill:#c09e6b; stroke:none;" d="M119 66L121 68L119 66z"/>
<path style="fill:#1d1918; stroke:none;" d="M123 66L124 67L123 66z"/>
<path style="fill:#c09e6b; stroke:none;" d="M124 66L125 67L124 66z"/>
<path style="fill:#817370; stroke:none;" d="M128 66L129 67L128 66z"/>
<path style="fill:#ab3a2c; stroke:none;" d="M78 70L84 69C81.3021 67.4793 79.7813 67.4071 78 70z"/>
<path style="fill:#817370; stroke:none;" d="M106 67L107 68L106 67z"/>
<path style="fill:#f6f5f5; stroke:none;" d="M112 67L116 71L117 68L112 67z"/>
<path style="fill:#c09e6b; stroke:none;" d="M117 67L118 68L117 67z"/>
<path style="fill:#1d1918; stroke:none;" d="M119 67L118 75L120 75L119 67z"/>
<path style="fill:#c09e6b; stroke:none;" d="M125 67L126 68L125 67M127 67L128 68L127 67z"/>
<path style="fill:#817370; stroke:none;" d="M129 67L130 68L129 67M107 68L108 69L107 68M112 68L113 69L112 68z"/>
<path style="fill:#c09e6b; stroke:none;" d="M124 68L125 69L124 68M105 69L105 70L109 70L105 69z"/>
<path style="fill:#817370; stroke:none;" d="M109 69L110 70L109 69M113 69L114 70L113 69z"/>
<path style="fill:#c09e6b; stroke:none;" d="M121 69L121 72L122 72L121 69M126 69L127 70L126 69z"/>
<path style="fill:#817370; stroke:none;" d="M128 69L129 70L128 69M76 70L77 71L76 70M104 70L105 71L104 70M114 70L115 71L114 70z"/>
<path style="fill:#c09e6b; stroke:none;" d="M116 70L116 73L117 73L116 70z"/>
<path style="fill:#817370; stroke:none;" d="M126 70L127 71L126 70z"/>
<path style="fill:#c09e6b; stroke:none;" d="M128 70L129 71L128 70z"/>
<path style="fill:#817370; stroke:none;" d="M115 71L116 72L115 71z"/>
<path style="fill:#c09e6b; stroke:none;" d="M77 72L77 75L78 75L77 72M105 72L105 73L108 73L105 72M125 72L126 73L125 72z"/>
<path style="fill:#817370; stroke:none;" d="M127 72L128 73L127 72M120 73L121 74L120 73M125 73L126 74L125 73z"/>
<path style="fill:#ab3a2c; stroke:none;" d="M81 74L79 75L79 76L81 74z"/>
<path style="fill:#817370; stroke:none;" d="M96.6667 74.3333L97.3333 74.6667L96.6667 74.3333z"/>
<path style="fill:#c09e6b; stroke:none;" d="M98 74L99 75L98 74M117 74L118 75L117 74z"/>
<path style="fill:#817370; stroke:none;" d="M78 75L79 76L78 75z"/>
<path style="fill:#c09e6b; stroke:none;" d="M93 75L93 77L95 75L93 75z"/>
<path style="fill:#817370; stroke:none;" d="M95 75L92 76L93 79L94 79L95 75z"/>
<path style="fill:#c09e6b; stroke:none;" d="M118 75L119 76L118 75z"/>
<path style="fill:#1d1918; stroke:none;" d="M95 76C92.8795 82.3154 95.9655 93.5819 98 100L99 100L96 78L100 82C108.172 77.1536 114.028 78.1491 123 80L95 76z"/>
<path style="fill:#817370; stroke:none;" d="M98 76L99 77L98 76z"/>
<path style="fill:#c09e6b; stroke:none;" d="M105.667 76.3333L106.333 76.6667L105.667 76.3333z"/>
<path style="fill:#817370; stroke:none;" d="M107 76L107 77L112 77L107 76z"/>
<path style="fill:#c09e6b; stroke:none;" d="M112 76L112 77L115 77L112 76z"/>
<path style="fill:#817370; stroke:none;" d="M126 76L127 77L126 76z"/>
<path style="fill:#c09e6b; stroke:none;" d="M99 77L100 78L99 77z"/>
<path style="fill:#817370; stroke:none;" d="M103 77L104 78L103 77M118 77L119 78L118 77z"/>
<path style="fill:#c09e6b; stroke:none;" d="M119 77L120 78L119 77M124 77L125 78L124 77M126.333 77.6667L126.667 78.3333L126.333 77.6667z"/>
<path style="fill:#817370; stroke:none;" d="M78 78L79 79L78 78M96 78L97 79L96 78z"/>
<path style="fill:#c09e6b; stroke:none;" d="M97 78L96 81L99 82L97 84L100 85C92.5548 99.3123 107.961 115.273 120 121C113.045 111.631 102.928 104.074 105 91C104.368 89.5142 104.536 87.6565 106.867 88.9167C110.134 90.6826 112.034 95.1277 115.015 97.4676C121.808 102.799 139.492 107.688 147 102L157 106C154.907 99.4442 150.621 94.9669 144 93L144 94L148 98L138 90L135 91L130 84C118.585 81.1378 111.074 75.9312 99 82L97 78z"/>
<path style="fill:#817370; stroke:none;" d="M98 78L98 81L99 81L98 78M101 78L102 79L101 78z"/>
<path style="fill:#ab3a2c; stroke:none;" d="M105 78L106 79L105 78z"/>
<path style="fill:#817370; stroke:none;" d="M106 78L106 79L115 79L106 78z"/>
<path style="fill:#ab3a2c; stroke:none;" d="M115.667 78.3333L116.333 78.6667L115.667 78.3333z"/>
<path style="fill:#817370; stroke:none;" d="M121 78L122 79L121 78z"/>
<path style="fill:#c09e6b; stroke:none;" d="M122 78L123 79L122 78z"/>
<path style="fill:#817370; stroke:none;" d="M124 78L125 79L124 78z"/>
<path style="fill:#c09e6b; stroke:none;" d="M92 79L94 82L92 79z"/>
<path style="fill:#817370; stroke:none;" d="M103 79L104 80L103 79M120 79L121 80L120 79M123 79L124 80L123 79z"/>
<path style="fill:#c09e6b; stroke:none;" d="M74 80L75 81L74 80z"/>
<path style="fill:#817370; stroke:none;" d="M93 80L94 81L93 80z"/>
<path style="fill:#ab3a2c; stroke:none;" d="M123 80L124 81L123 80z"/>
<path style="fill:#c09e6b; stroke:none;" d="M75 81L76 82L75 81z"/>
<path style="fill:#817370; stroke:none;" d="M96.3333 81.6667L96.6667 82.3333L96.3333 81.6667z"/>
<path style="fill:#1d1918; stroke:none;" d="M97.3333 81.6667L97.6667 82.3333L97.3333 81.6667z"/>
<path style="fill:#817370; stroke:none;" d="M99 81L100 82L99 81M118 81L120 83L118 81M126 81L129 85L126 81z"/>
<path style="fill:#c09e6b; stroke:none;" d="M77 82L78 83L77 82z"/>
<path style="fill:#817370; stroke:none;" d="M78.6667 82.3333L79.3333 82.6667L78.6667 82.3333z"/>
<path style="fill:#ab3a2c; stroke:none;" d="M98 82L99 83L98 82M117 82L118 83L117 82z"/>
<path style="fill:#1d1918; stroke:none;" d="M118 82L119 83L118 82M127 82L128 83L127 82z"/>
<path style="fill:#c09e6b; stroke:none;" d="M80.3333 83.6667L80.6667 84.3333L80.3333 83.6667z"/>
<path style="fill:#817370; stroke:none;" d="M82 83L81 95L82 95L82 83z"/>
<path style="fill:#c09e6b; stroke:none;" d="M94 83L95 84L94 83z"/>
<path style="fill:#ab3a2c; stroke:none;" d="M96 83L97 84L96 83z"/>
<path style="fill:#817370; stroke:none;" d="M117 83L118 84L117 83z"/>
<path style="fill:#ab3a2c; stroke:none;" d="M119 83L121 85L119 83z"/>
<path style="fill:#1d1918; stroke:none;" d="M128 83L129 84L128 83z"/>
<path style="fill:#817370; stroke:none;" d="M97 84L98 85L97 84M104 84L105 85L104 84z"/>
<path style="fill:#ab3a2c; stroke:none;" d="M105 84L105 85L109 86L109 85L105 84z"/>
<path style="fill:#1d1918; stroke:none;" d="M106 84L107 85L106 84z"/>
<path style="fill:#817370; stroke:none;" d="M108 84L109 85L108 84M119.333 84.6667L119.667 85.3333L119.333 84.6667M80.3333 85.6667L80.6667 86.3333L80.3333 85.6667M98 85L98 87L100 87L100 85L98 85z"/>
<path style="fill:#ab3a2c; stroke:none;" d="M102 85L103 86L102 85z"/>
<path style="fill:#1d1918; stroke:none;" d="M101 88L106 86L101 88M120 85L121 86L120 85M129 85L129 86L153 97L153 96L129 85z"/>
<path style="fill:#817370; stroke:none;" d="M130 85L131 86L130 85M96 86L97 87L96 86M103 86L104 87L103 86z"/>
<path style="fill:#c09e6b; stroke:none;" d="M132 86L133 87L132 86z"/>
<path style="fill:#ab3a2c; stroke:none;" d="M100.333 87.6667L100.667 88.3333L100.333 87.6667z"/>
<path style="fill:#817370; stroke:none;" d="M104 87L105 88L104 87z"/>
<path style="fill:#ab3a2c; stroke:none;" d="M105 87L106 88L105 87z"/>
<path style="fill:#817370; stroke:none;" d="M106 87L107 88L106 87z"/>
<path style="fill:#ab3a2c; stroke:none;" d="M131 87L132 88L131 87z"/>
<path style="fill:#817370; stroke:none;" d="M134 87L135 88L134 87M103 88L104 89L103 88z"/>
<path style="fill:#ab3a2c; stroke:none;" d="M133 88L134 89L133 88z"/>
<path style="fill:#c09e6b; stroke:none;" d="M137 88L138 89L137 88M95 89L95 92L96 92L95 89z"/>
<path style="fill:#817370; stroke:none;" d="M108 89L109 90L108 89M135 89L136 90L135 89M139 89L140 90L139 89z"/>
<path style="fill:#c09e6b; stroke:none;" d="M140 89L141 90L140 89z"/>
<path style="fill:#ab3a2c; stroke:none;" d="M103 90L104 91L103 90z"/>
<path style="fill:#817370; stroke:none;" d="M104 90L105 91L104 90z"/>
<path style="fill:#f6f5f5; stroke:none;" d="M135 90L136 91L135 90z"/>
<path style="fill:#817370; stroke:none;" d="M138 90L139 91L138 90M142 90L143 91L142 90z"/>
<path style="fill:#c09e6b; stroke:none;" d="M79.3333 91.6667L79.6667 92.3333L79.3333 91.6667z"/>
<path style="fill:#ab3a2c; stroke:none;" d="M97 91L98 92L97 91M109 91L110 92L109 91z"/>
<path style="fill:#f6f5f5; stroke:none;" d="M138 91L148 98L138 91z"/>
<path style="fill:#c09e6b; stroke:none;" d="M139.667 91.3333L140.333 91.6667L139.667 91.3333z"/>
<path style="fill:#817370; stroke:none;" d="M141 91L142 92L141 91M144 91L145 92L144 91z"/>
<path style="fill:#c09e6b; stroke:none;" d="M145 91L146 92L145 91z"/>
<path style="fill:#817370; stroke:none;" d="M104 92L104 96L105 96L104 92z"/>
<path style="fill:#c09e6b; stroke:none;" d="M142 92L143 93L142 92z"/>
<path style="fill:#817370; stroke:none;" d="M143 92L144 93L143 92z"/>
<path style="fill:#c09e6b; stroke:none;" d="M147 92L148 93L147 92z"/>
<path style="fill:#817370; stroke:none;" d="M79.3333 93.6667L79.6667 94.3333L79.3333 93.6667M110 93L111 94L110 93z"/>
<path style="fill:#c09e6b; stroke:none;" d="M149 93L150 94L149 93z"/>
<path style="fill:#817370; stroke:none;" d="M98 94L99 95L98 94M111 94L114 97L111 94z"/>
<path style="fill:#ab3a2c; stroke:none;" d="M148 94L149 95L148 94z"/>
<path style="fill:#817370; stroke:none;" d="M150 94L151 95L150 94M96 95L97 96L96 95z"/>
<path style="fill:#ab3a2c; stroke:none;" d="M110 95L109 96L111 97C107.724 105.331 116.758 115.613 124 119L117 101L117 105L110 95z"/>
<path style="fill:#1d1918; stroke:none;" d="M111 95L111 97L113 97L111 95z"/>
<path style="fill:#c09e6b; stroke:none;" d="M96 96L97 97L96 96z"/>
<path style="fill:#817370; stroke:none;" d="M151 96L152 97L151 96M80 97L80 109L81 109L80 97M98 97L99 98L98 97z"/>
<path style="fill:#ab3a2c; stroke:none;" d="M152 97L153 98L152 97z"/>
<path style="fill:#817370; stroke:none;" d="M153 97L154 101L155 101L156 99L153 97M97 98L98 99L97 98M116 98L117 99L116 98z"/>
<path style="fill:#1d1918; stroke:none;" d="M153 98L154 99L153 98M154 99L155 100L154 99z"/>
<path style="fill:#c09e6b; stroke:none;" d="M78.3333 100.667L78.6667 101.333L78.3333 100.667z"/>
<path style="fill:#817370; stroke:none;" d="M98 100L99 101L98 100z"/>
<path style="fill:#ab3a2c; stroke:none;" d="M99 100L100 101L99 100z"/>
<path style="fill:#817370; stroke:none;" d="M105 100L106 101L105 100z"/>
<path style="fill:#ab3a2c; stroke:none;" d="M119 100L120 101L119 100z"/>
<path style="fill:#1d1918; stroke:none;" d="M155 100L158 107L129 104L129 105L160 110L155 100z"/>
<path style="fill:#c09e6b; stroke:none;" d="M98 101L99 102L98 101z"/>
<path style="fill:#1d1918; stroke:none;" d="M99 101L100 102L99 101z"/>
<path style="fill:#c09e6b; stroke:none;" d="M114 101L116 104L114 101z"/>
<path style="fill:#817370; stroke:none;" d="M122 101L123 102L122 101M156 101L157 102L156 101M78 102L78 106L79 106L78 102M99.6667 102.333L100.333 102.667L99.6667 102.333M115 102L116 103L115 102z"/>
<path style="fill:#ab3a2c; stroke:none;" d="M125 102L126 103L125 102z"/>
<path style="fill:#817370; stroke:none;" d="M126 102L127 103L126 102M147 102L146 104L147 102z"/>
<path style="fill:#c09e6b; stroke:none;" d="M157 102L158 103L157 102M99 103L100 104L99 103z"/>
<path style="fill:#1d1918; stroke:none;" d="M100 103C101.751 109.415 102.702 123.55 106.179 128.566C111.093 135.654 121.471 128.269 122 122L100 103z"/>
<path style="fill:#817370; stroke:none;" d="M106 103L107 104L106 103M114 103L115 104L114 103z"/>
<path style="fill:#ab3a2c; stroke:none;" d="M129 103L130 104L129 103z"/>
<path style="fill:#817370; stroke:none;" d="M130.667 103.333L131.333 103.667L130.667 103.333z"/>
<path style="fill:#ab3a2c; stroke:none;" d="M147 103L148 104L147 103M101 104L102 105L101 104z"/>
<path style="fill:#817370; stroke:none;" d="M115 104L116 105L115 104z"/>
<path style="fill:#c09e6b; stroke:none;" d="M126 104L127 105L126 104z"/>
<path style="fill:#817370; stroke:none;" d="M127.667 104.333L128.333 104.667L127.667 104.333z"/>
<path style="fill:#ab3a2c; stroke:none;" d="M135 104L135 105L140 105L135 104M150 104L151 105L150 104z"/>
<path style="fill:#817370; stroke:none;" d="M151 104L152 105L151 104z"/>
<path style="fill:#c09e6b; stroke:none;" d="M158 104L159 105L158 104z"/>
<path style="fill:#817370; stroke:none;" d="M100 105L101 106L100 105M102 105L103 106L102 105M107 105L108 106L107 105z"/>
<path style="fill:#c09e6b; stroke:none;" d="M132 105L133 106L132 105z"/>
<path style="fill:#817370; stroke:none;" d="M133.667 105.333L134.333 105.667L133.667 105.333M142 105L142 106L147 106L142 105M154 105L155 106L154 105M158 105L159 106L158 105z"/>
<path style="fill:#c09e6b; stroke:none;" d="M151 106L152 107L151 106z"/>
<path style="fill:#817370; stroke:none;" d="M152 106L153 107L152 106M156.667 106.333L157.333 106.667L156.667 106.333M101 107L102 108L101 107z"/>
<path style="fill:#ab3a2c; stroke:none;" d="M103 107L104 108L103 107z"/>
<path style="fill:#817370; stroke:none;" d="M108 107L109 108L108 107z"/>
<path style="fill:#c09e6b; stroke:none;" d="M154 107L155 108L154 107z"/>
<path style="fill:#817370; stroke:none;" d="M159 107L160 108L159 107z"/>
<path style="fill:#c09e6b; stroke:none;" d="M101 108L102 109L101 108z"/>
<path style="fill:#817370; stroke:none;" d="M104 108L105 109L104 108z"/>
<path style="fill:#ab3a2c; stroke:none;" d="M109 108L110 109L109 108z"/>
<path style="fill:#c09e6b; stroke:none;" d="M156 108L157 109L156 108z"/>
<path style="fill:#817370; stroke:none;" d="M105 109L106 110L105 109M125 109L126 110L125 109M158 109L159 110L158 109z"/>
<path style="fill:#c09e6b; stroke:none;" d="M35.6667 110.333L36.3333 110.667L35.6667 110.333z"/>
<path style="fill:#817370; stroke:none;" d="M102 110L103 111L102 110M106 110L107 111L106 110M110 110L111 111L110 110z"/>
<path style="fill:#c09e6b; stroke:none;" d="M159.667 110.333L160.333 110.667L159.667 110.333z"/>
<path style="fill:#817370; stroke:none;" d="M35 111L35 113L37 113L35 111z"/>
<path style="fill:#1d1918; stroke:none;" d="M36 111L36 112L39 112L36 111z"/>
<path style="fill:#817370; stroke:none;" d="M39.6667 111.333L40.3333 111.667L39.6667 111.333z"/>
<path style="fill:#1d1918; stroke:none;" d="M41 111L42 112L41 111z"/>
<path style="fill:#817370; stroke:none;" d="M42 111L42 112L48 114L42 111z"/>
<path style="fill:#c09e6b; stroke:none;" d="M45 111L46 112L45 111M102 111L103 112L102 111z"/>
<path style="fill:#ab3a2c; stroke:none;" d="M111 111L112 112L111 111z"/>
<path style="fill:#c09e6b; stroke:none;" d="M126 111L127 112L126 111M36 113L41 117L42 117L41 113L45 113L36 113z"/>
<path style="fill:#f6f5f5; stroke:none;" d="M39 112L40 113L39 112z"/>
<path style="fill:#c09e6b; stroke:none;" d="M48 112L49 113L48 112z"/>
<path style="fill:#817370; stroke:none;" d="M126 112L127 113L126 112z"/>
<path style="fill:#c09e6b; stroke:none;" d="M30 113L30 114L35 114L30 113z"/>
<path style="fill:#1d1918; stroke:none;" d="M35 113L22 118L25 125L26 125C25.7694 122.807 25.7729 116.696 29 118L30 118L35 113z"/>
<path style="fill:#f6f5f5; stroke:none;" d="M41 113L42 118L47 118L47 113L41 113z"/>
<path style="fill:#1d1918; stroke:none;" d="M48 113L47 117L48 117L48 113z"/>
<path style="fill:#817370; stroke:none;" d="M79 113L79 118L80 118L79 113M103 113L104 114L103 113z"/>
<path style="fill:#ab3a2c; stroke:none;" d="M105 113L107 129C110.864 128.7 112.348 127.911 113 124L115 124L115 128L120 128L118 126C120.889 120.266 109.41 115.095 105 113z"/>
<path style="fill:#817370; stroke:none;" d="M206 113L206 157L207 157C207 144.52 210.81 124.463 206 113z"/>
<path style="fill:#c09e6b; stroke:none;" d="M27 114L28 115L27 114z"/>
<path style="fill:#817370; stroke:none;" d="M36.6667 114.333L37.3333 114.667L36.6667 114.333z"/>
<path style="fill:#1d1918; stroke:none;" d="M40 114L39 145L41 144L41 145L37 147L37 148L53 144L59 130L56 131C55.9429 125.869 54.9402 122.441 51 119L50 123L51 123L52 121C53.2982 125.819 53.6216 129.096 48 130L50 124L49 124L47 130L40 114z"/>
<path style="fill:#817370; stroke:none;" d="M49.3333 114.667L49.6667 115.333L49.3333 114.667z"/>
<path style="fill:#c09e6b; stroke:none;" d="M103.333 114.667L103.667 115.333L103.333 114.667z"/>
<path style="fill:#817370; stroke:none;" d="M110 114L111 115L110 114M127 114L128 115L127 114z"/>
<path style="fill:#c09e6b; stroke:none;" d="M17 115L18 116L17 115z"/>
<path style="fill:#817370; stroke:none;" d="M18 115L19 116L18 115z"/>
<path style="fill:#1d1918; stroke:none;" d="M14 130L10 130L10 131C18.88 130.895 17.5727 126.391 14 120L22 117C12.2236 110.843 11.504 124.158 14 130z"/>
<path style="fill:#817370; stroke:none;" d="M21 115L22 116L21 115M30 115L31 116L30 115z"/>
<path style="fill:#c09e6b; stroke:none;" d="M30 119L31 119L34 116L30 119z"/>
<path style="fill:#f6f5f5; stroke:none;" d="M31 116L35 138L36 138C41.3238 131.108 40 123.352 40 115L31 116z"/>
<path style="fill:#817370; stroke:none;" d="M111 115L112 116L111 115M15 116L16 117L15 116z"/>
<path style="fill:#c09e6b; stroke:none;" d="M19.6667 116.333L20.3333 116.667L19.6667 116.333z"/>
<path style="fill:#817370; stroke:none;" d="M28 116L25 123L26 123L27 119L31 121L28 116M48 116L49 117L48 116z"/>
<path style="fill:#c09e6b; stroke:none;" d="M50 116L51 117L50 116M56 116L57 117L56 116z"/>
<path style="fill:#817370; stroke:none;" d="M57 116L56 119L57 116z"/>
<path style="fill:#ab3a2c; stroke:none;" d="M112 116L113 117L112 116z"/>
<path style="fill:#817370; stroke:none;" d="M115 116L116 117L115 116M128 116L129 117L128 116M14 117L15 118L14 117M18.3333 117.667L18.6667 118.333L18.3333 117.667z"/>
<path style="fill:#f6f5f5; stroke:none;" d="M19 117L16 120L16 121L25 131L29 137C27.106 130.328 25.4543 120.566 19 117z"/>
<path style="fill:#817370; stroke:none;" d="M21.6667 117.333L22.3333 117.667L21.6667 117.333z"/>
<path style="fill:#c09e6b; stroke:none;" d="M25 117L26 118L25 117z"/>
<path style="fill:#817370; stroke:none;" d="M41 117L42 127L43 127L42 120L49 120L49 119L41 117M47 117L48 118L47 117z"/>
<path style="fill:#1d1918; stroke:none;" d="M58 117L59 118L58 117z"/>
<path style="fill:#817370; stroke:none;" d="M59 117L61 119L59 117z"/>
<path style="fill:#c09e6b; stroke:none;" d="M60 117L61 118L60 117z"/>
<path style="fill:#817370; stroke:none;" d="M104.333 117.667L104.667 118.333L104.333 117.667z"/>
<path style="fill:#ab3a2c; stroke:none;" d="M126 117L129 124L130 124L126 117z"/>
<path style="fill:#c09e6b; stroke:none;" d="M17 118C14.9944 122.971 17.5467 127.344 22 130L16 122L17 118M19 118L20 119L19 118M24 118L25 119L24 118M33 118L34 119L33 118z"/>
<path style="fill:#817370; stroke:none;" d="M34 118L35 119L34 118z"/>
<path style="fill:#c09e6b; stroke:none;" d="M35 118L36 119L35 118M42 118L42 119L49 119L49 120L42 120C42.1069 124.417 42.4568 127.565 47 129L51 118L42 118z"/>
<path style="fill:#817370; stroke:none;" d="M51 118L52 119L51 118z"/>
<path style="fill:#f6f5f5; stroke:none;" d="M57 118L55 123L59 125L56 126L57 130L63 129L63 128L60 125L64 120L57 118z"/>
<path style="fill:#c09e6b; stroke:none;" d="M59 118L60 119L59 118z"/>
<path style="fill:#1d1918; stroke:none;" d="M61 118L62 119L61 118z"/>
<path style="fill:#817370; stroke:none;" d="M62 118L64 120L62 118z"/>
<path style="fill:#c09e6b; stroke:none;" d="M63 118L64 119L63 118z"/>
<path style="fill:#817370; stroke:none;" d="M115 118L116 119L115 118M129 118L130 119L129 118z"/>
<path style="fill:#c09e6b; stroke:none;" d="M11 119L12 120L11 119z"/>
<path style="fill:#817370; stroke:none;" d="M15 119L16 120L15 119z"/>
<path style="fill:#c09e6b; stroke:none;" d="M22 119L23 120L22 119M27 119L27 128L31 128L30 121L29 121L28 124L29 120L27 119z"/>
<path style="fill:#817370; stroke:none;" d="M50.3333 119.667L50.6667 120.333L50.3333 119.667M52 119L53 120L52 119z"/>
<path style="fill:#c09e6b; stroke:none;" d="M55 119L55 124L56 124L57 119L55 119M62 119L63 120L62 119z"/>
<path style="fill:#1d1918; stroke:none;" d="M64 119L64 123L64 119z"/>
<path style="fill:#817370; stroke:none;" d="M65 119L66 120L65 119z"/>
<path style="fill:#c09e6b; stroke:none;" d="M104 119L104 124L105 124L104 119M10 120L11 121L10 120z"/>
<path style="fill:#817370; stroke:none;" d="M14.3333 120.667L14.6667 121.333L14.3333 120.667M23 120L24 121L23 120z"/>
<path style="fill:#f6f5f5; stroke:none;" d="M27 120L28 124L29 124L29 120L27 120z"/>
<path style="fill:#c09e6b; stroke:none;" d="M34 120L35 121L34 120z"/>
<path style="fill:#f6f5f5; stroke:none;" d="M49 120L50 121L49 120z"/>
<path style="fill:#817370; stroke:none;" d="M53 120L54 121L53 120z"/>
<path style="fill:#c09e6b; stroke:none;" d="M64 120L65 121L64 120z"/>
<path style="fill:#817370; stroke:none;" d="M80 120L80 126L82 126L80 120z"/>
<path style="fill:#ab3a2c; stroke:none;" d="M118 120L119 121L118 120z"/>
<path style="fill:#817370; stroke:none;" d="M120 120L122 122L120 120M130 120L131 121L130 120z"/>
<path style="fill:#c09e6b; stroke:none;" d="M9.33333 121.667L9.66667 122.333L9.33333 121.667z"/>
<path style="fill:#817370; stroke:none;" d="M16 121L17 122L16 121z"/>
<path style="fill:#1d1918; stroke:none;" d="M30 121L30 124L31 124L30 121z"/>
<path style="fill:#f6f5f5; stroke:none;" d="M48 121L46 125L48 121z"/>
<path style="fill:#c09e6b; stroke:none;" d="M51 121L52 122L51 121z"/>
<path style="fill:#817370; stroke:none;" d="M64 121L65 122L64 121z"/>
<path style="fill:#ab3a2c; stroke:none;" d="M120 121L121 122L120 121z"/>
<path style="fill:#c09e6b; stroke:none;" d="M31.3333 122.667L31.6667 123.333L31.3333 122.667z"/>
<path style="fill:#f6f5f5; stroke:none;" d="M51 122L50 127L51 127L51 125L52 125L51 130C53.6189 127.676 52.6703 124.79 51 122z"/>
<path style="fill:#817370; stroke:none;" d="M52.3333 122.667L52.6667 123.333L52.3333 122.667z"/>
<path style="fill:#c09e6b; stroke:none;" d="M66 122L67 123L66 122z"/>
<path style="fill:#ab3a2c; stroke:none;" d="M122.667 122.333L123.333 122.667L122.667 122.333z"/>
<path style="fill:#817370; stroke:none;" d="M131 122L132 123L131 122z"/>
<path style="fill:#c09e6b; stroke:none;" d="M10 123L11 124L10 123z"/>
<path style="fill:#817370; stroke:none;" d="M15 123L17 125L17 123L15 123M24 123L25 124L24 123M49.6667 123.333L50.3333 123.667L49.6667 123.333M54 123L55 124L54 123M63 123L66 126L67 123L63 123M121.667 123.333L122.333 123.667L121.667 123.333z"/>
<path style="fill:#c09e6b; stroke:none;" d="M132 123L133 124L132 123z"/>
<path style="fill:#817370; stroke:none;" d="M11 124L12 125L11 124M26 124L25 126L27 126L26 124M30 124L30 127L32 124L30 124z"/>
<path style="fill:#c09e6b; stroke:none;" d="M50 124L51 125L50 124M52 124L53 125L52 124z"/>
<path style="fill:#817370; stroke:none;" d="M56 124L57 125L56 124z"/>
<path style="fill:#c09e6b; stroke:none;" d="M56 126L59 124L56 126z"/>
<path style="fill:#1d1918; stroke:none;" d="M63 124L61 126L61 127L63 124z"/>
<path style="fill:#817370; stroke:none;" d="M77 124L78 125L77 124M104 124L104 127L105 127L104 124M124 124L125 125L124 124M17.3333 125.667L17.6667 126.333L17.3333 125.667M48 125L49 126L48 125z"/>
<path style="fill:#c09e6b; stroke:none;" d="M51 125L49 127L49 130L51 125M60.3333 125.667L60.6667 126.333L60.3333 125.667z"/>
<path style="fill:#817370; stroke:none;" d="M62 125L63 126L62 125z"/>
<path style="fill:#c09e6b; stroke:none;" d="M64.3333 125.667L64.6667 126.333L64.3333 125.667M73 125L74 126L73 125M118 125L120 127L120 125L118 125M122.333 125.667L122.667 126.333L122.333 125.667z"/>
<path style="fill:#817370; stroke:none;" d="M125.333 125.667L125.667 126.333L125.333 125.667M133 125L134 126L133 125z"/>
<path style="fill:#c09e6b; stroke:none;" d="M12 126L13 127L12 126M25 126L26 127L25 126z"/>
<path style="fill:#1d1918; stroke:none;" d="M26.3333 126.667L26.6667 127.333L26.3333 126.667M31 126L29 142L35 139L31 126z"/>
<path style="fill:#817370; stroke:none;" d="M49 126L50 127L49 126M53 126L54 127L53 126M64 128L64 129L55 135C58.4554 132.675 64.077 130.431 64 126L64 128M67 126L68 127L67 126z"/>
<path style="fill:#c09e6b; stroke:none;" d="M72 126L73 127L72 126M127.333 126.667L127.667 127.333L127.333 126.667z"/>
<path style="fill:#817370; stroke:none;" d="M129 126L130 127L129 126z"/>
<path style="fill:#c09e6b; stroke:none;" d="M32.3333 127.667L32.6667 128.333L32.3333 127.667z"/>
<path style="fill:#817370; stroke:none;" d="M47.3333 127.667L47.6667 128.333L47.3333 127.667z"/>
<path style="fill:#c09e6b; stroke:none;" d="M53.3333 127.667L53.6667 128.333L53.3333 127.667z"/>
<path style="fill:#817370; stroke:none;" d="M68.3333 127.667L68.6667 128.333L68.3333 127.667z"/>
<path style="fill:#c09e6b; stroke:none;" d="M74 127L75 128L74 127z"/>
<path style="fill:#817370; stroke:none;" d="M79 127L80 128L79 127M83 127L84 128L83 127z"/>
<path style="fill:#c09e6b; stroke:none;" d="M104 127L105 128L104 127M125 127L125 130L126 130L125 127M131 127L132 128L131 127z"/>
<path style="fill:#817370; stroke:none;" d="M132.667 127.333L133.333 127.667L132.667 127.333M135 127L136 128L135 127M18 128L21 130L21 129L18 128M26 128L26 129L27 131L31 128L26 128z"/>
<path style="fill:#f6f5f5; stroke:none;" d="M49 128L50 129L49 128z"/>
<path style="fill:#c09e6b; stroke:none;" d="M63 128L64 129L63 128M70 128L71 129L70 128M73 128L70 137L80 143L73 128M79 128L81 139L92 151L96 152C91.7512 144.648 82.2254 139.164 86 130L79 128z"/>
<path style="fill:#817370; stroke:none;" d="M81 128L82 129L81 128M85 128L86 129L85 128z"/>
<path style="fill:#c09e6b; stroke:none;" d="M86 128L87 129L86 128z"/>
<path style="fill:#817370; stroke:none;" d="M105 128L106 129L105 128z"/>
<path style="fill:#c09e6b; stroke:none;" d="M121 128L122 129L121 128z"/>
<path style="fill:#817370; stroke:none;" d="M127.333 128.667L127.667 129.333L127.333 128.667z"/>
<path style="fill:#c09e6b; stroke:none;" d="M11 129L11 130L14 130L11 129z"/>
<path style="fill:#ab3a2c; stroke:none;" d="M18 129L19 130L18 129M27 129L28 130L27 129z"/>
<path style="fill:#817370; stroke:none;" d="M32 129L33 130L32 129M45.6667 129.333L46.3333 129.667L45.6667 129.333M48 129L49 130L48 129z"/>
<path style="fill:#c09e6b; stroke:none;" d="M56 129L57 130L56 129M58.6667 129.333L59.3333 129.667L58.6667 129.333z"/>
<path style="fill:#817370; stroke:none;" d="M71 129L72 130L71 129M73 129L73 132L74 132L73 129M75.3333 129.667L75.6667 130.333L75.3333 129.667z"/>
<path style="fill:#c09e6b; stroke:none;" d="M76.3333 129.667L76.6667 130.333L76.3333 129.667z"/>
<path style="fill:#817370; stroke:none;" d="M77.3333 129.667L77.6667 130.333L77.3333 129.667M84 129L85 130L84 129M87 129L88 130L87 129z"/>
<path style="fill:#c09e6b; stroke:none;" d="M88 129L89 130L88 129M115 129L116 130L115 129z"/>
<path style="fill:#817370; stroke:none;" d="M120 129L121 130L120 129M17 130L13 138L15 138L18 142L17 130M21 130L22 131L21 130z"/>
<path style="fill:#c09e6b; stroke:none;" d="M33 130L33 133L34 133L33 130z"/>
<path style="fill:#817370; stroke:none;" d="M40 130L41 131L40 130M56 130L57 131L56 130z"/>
<path style="fill:#ab3a2c; stroke:none;" d="M57 130L58 131L57 130z"/>
<path style="fill:#c09e6b; stroke:none;" d="M60 130L61 131L60 130z"/>
<path style="fill:#f6f5f5; stroke:none;" d="M52 142C59.0621 140.875 61.4181 136.2 64 130C57.5166 131.312 54.4932 136.223 52 142z"/>
<path style="fill:#817370; stroke:none;" d="M86 130L87 131L86 130z"/>
<path style="fill:#c09e6b; stroke:none;" d="M90 130L91 131L90 130z"/>
<path style="fill:#817370; stroke:none;" d="M107 130L108 131L107 130M112 130L113 131L112 130z"/>
<path style="fill:#c09e6b; stroke:none;" d="M117.667 130.333L118.333 130.667L117.667 130.333z"/>
<path style="fill:#817370; stroke:none;" d="M7 136L11 136L11 135L8 135L14 132C10.1873 130.557 8.30606 132.447 7 136z"/>
<path style="fill:#c09e6b; stroke:none;" d="M8 135C12.352 135.481 14.3443 134.456 17 131L8 135M22 131L27 141L29 141L30 140L25 131L22 131M27 131L28 132L27 131z"/>
<path style="fill:#ab3a2c; stroke:none;" d="M28 131L29 132L28 131z"/>
<path style="fill:#c09e6b; stroke:none;" d="M42 132L42 133L46 132L42 132z"/>
<path style="fill:#817370; stroke:none;" d="M46 131L46 132L52 132L46 131M63 131L64 132L63 131M70 131L71 132L70 131M78.3333 131.667L78.6667 132.333L78.3333 131.667z"/>
<path style="fill:#f6f5f5; stroke:none;" d="M85 131C82.9405 138.258 88.2468 142.831 92.7292 147.996C103.27 160.142 121.637 169.863 135 179C137.137 175.032 140.458 174.249 142 179L146 178C142.895 171.342 136.479 166.587 131 161.87C117.819 150.521 102.071 135.918 85 131z"/>
<path style="fill:#c09e6b; stroke:none;" d="M87 131L88 132L87 131z"/>
<path style="fill:#817370; stroke:none;" d="M88 131L89 132L88 131M91 131L92 132L91 131z"/>
<path style="fill:#c09e6b; stroke:none;" d="M109.667 131.333L110.333 131.667L109.667 131.333z"/>
<path style="fill:#817370; stroke:none;" d="M126 131L127 132L126 131M22 132L23 133L22 132M28 132L28 135L29 135L28 132M31.3333 132.667L31.6667 133.333L31.3333 132.667M40 132L41 133L40 132z"/>
<path style="fill:#f6f5f5; stroke:none;" d="M42 135L50 132L42 135z"/>
<path style="fill:#c09e6b; stroke:none;" d="M50 132L51 133L50 132M66 132L67 133L66 132z"/>
<path style="fill:#f6f5f5; stroke:none;" d="M67 132L64 137L69 135L67 132z"/>
<path style="fill:#817370; stroke:none;" d="M74 132L75 133L74 132z"/>
<path style="fill:#c09e6b; stroke:none;" d="M89 132L90 133L89 132z"/>
<path style="fill:#817370; stroke:none;" d="M90 132L91 133L90 132M93 132L94 133L93 132z"/>
<path style="fill:#c09e6b; stroke:none;" d="M126 132L126 135L127 135L126 132M6 133L7 134L6 133z"/>
<path style="fill:#1d1918; stroke:none;" d="M7 133L8 134L7 133M16 133L15 135L16 133z"/>
<path style="fill:#c09e6b; stroke:none;" d="M17 133L18 139L17 134L18 134C20.0985 139.438 21.6739 145.998 27 149L19 133L17 133z"/>
<path style="fill:#817370; stroke:none;" d="M33 133L34 134L33 133M41 133L42 134L41 133M49 133L50 134L49 133M62 133L63 134L62 133M65 133L66 134L65 133z"/>
<path style="fill:#c09e6b; stroke:none;" d="M68 133L69 134L68 133z"/>
<path style="fill:#817370; stroke:none;" d="M75 133L76 134L75 133M79 133L80 134L79 133z"/>
<path style="fill:#c09e6b; stroke:none;" d="M91 133L92 134L91 133z"/>
<path style="fill:#817370; stroke:none;" d="M92 133L93 134L92 133M95 133L96 134L95 133z"/>
<path style="fill:#c09e6b; stroke:none;" d="M128 133L129 134L128 133M5 134L6 135L5 134z"/>
<path style="fill:#f6f5f5; stroke:none;" d="M17 134L17 140L21 141L17 134z"/>
<path style="fill:#817370; stroke:none;" d="M23.3333 134.667L23.6667 135.333L23.3333 134.667z"/>
<path style="fill:#ab3a2c; stroke:none;" d="M40 134L41 135L40 134z"/>
<path style="fill:#c09e6b; stroke:none;" d="M40 135L40 136L45 136L40 135z"/>
<path style="fill:#817370; stroke:none;" d="M50 134L52 136L52 134L50 134M69.6667 134.333L70.3333 134.667L69.6667 134.333M80 134L81 135L80 134z"/>
<path style="fill:#c09e6b; stroke:none;" d="M93 134L94 135L93 134M97 134L98 135L97 134z"/>
<path style="fill:#817370; stroke:none;" d="M128 134L129 135L128 134z"/>
<path style="fill:#1d1918; stroke:none;" d="M14 135L15 136L14 135z"/>
<path style="fill:#817370; stroke:none;" d="M20.3333 135.667L20.6667 136.333L20.3333 135.667z"/>
<path style="fill:#c09e6b; stroke:none;" d="M28 135L29 136L28 135M34.3333 135.667L34.6667 136.333L34.3333 135.667M46 135L47 136L46 135M49 135L48 137L49 135z"/>
<path style="fill:#f6f5f5; stroke:none;" d="M50 135L48 142L49 142L50 135z"/>
<path style="fill:#c09e6b; stroke:none;" d="M55 135L56 136L55 135M61 135L62 136L61 135z"/>
<path style="fill:#817370; stroke:none;" d="M67 135L68 136L67 135M77 138L78 138L80 136L77 138M81 135L81 138L82 138L81 135M95 135L96 136L95 135M98 135L99 136L98 135M129 135L130 136L129 135M24 136L25 137L24 136M29.3333 136.667L29.6667 137.333L29.3333 136.667z"/>
<path style="fill:#c09e6b; stroke:none;" d="M36 136L35 140L36 140L36 136M54 136L55 137L54 136M63 136L59 140L63 136M65 136L66 137L65 136z"/>
<path style="fill:#817370; stroke:none;" d="M75.3333 136.667L75.6667 137.333L75.3333 136.667z"/>
<path style="fill:#c09e6b; stroke:none;" d="M78 136L78 138L80 138L80 136L78 136M96 136L97 137L96 136z"/>
<path style="fill:#817370; stroke:none;" d="M97 136L98 137L97 136M100 136L101 137L100 136M127.333 136.667L127.667 137.333L127.333 136.667z"/>
<path style="fill:#c09e6b; stroke:none;" d="M131 136L132 137L131 136z"/>
<path style="fill:#817370; stroke:none;" d="M21 137L22 138L21 137M34 137L35 138L34 137z"/>
<path style="fill:#c09e6b; stroke:none;" d="M50.3333 137.667L50.6667 138.333L50.3333 137.667z"/>
<path style="fill:#817370; stroke:none;" d="M71.3333 137.667L71.6667 138.333L71.3333 137.667z"/>
<path style="fill:#c09e6b; stroke:none;" d="M98 137L99 138L98 137M102 137L103 138L102 137z"/>
<path style="fill:#817370; stroke:none;" d="M132 137L133 138L132 137z"/>
<path style="fill:#c09e6b; stroke:none;" d="M14 138L15 139L14 138z"/>
<path style="fill:#817370; stroke:none;" d="M25 138L26 139L25 138M37 138L36 140L38 140L37 138M47.3333 138.667L47.6667 139.333L47.3333 138.667z"/>
<path style="fill:#c09e6b; stroke:none;" d="M53 138L54 139L53 138z"/>
<path style="fill:#817370; stroke:none;" d="M62 138L63 139L62 138M100 138L101 139L100 138M103 138L104 139L103 138z"/>
<path style="fill:#c09e6b; stroke:none;" d="M127.333 138.667L127.667 139.333L127.333 138.667z"/>
<path style="fill:#817370; stroke:none;" d="M130 138L132 141L130 138M133 138L134 139L133 138M5 139L6 140L5 139M22 139L23 140L22 139M26 139L27 140L26 139z"/>
<path style="fill:#f6f5f5; stroke:none;" d="M28 139L29 140L28 139M32 139L30 144C38.4033 148.611 41.5535 140.524 32 139z"/>
<path style="fill:#817370; stroke:none;" d="M50.3333 139.667L50.6667 140.333L50.3333 139.667M52 139L53 140L52 139M60 139L61 140L60 139M77 139L78 140L77 139z"/>
<path style="fill:#c09e6b; stroke:none;" d="M101 139L102 140L101 139z"/>
<path style="fill:#817370; stroke:none;" d="M134 139L133 140L134 144L135 144L134 139z"/>
<path style="fill:#f6f5f5; stroke:none;" d="M5 140L5 145L8 144L5 140z"/>
<path style="fill:#c09e6b; stroke:none;" d="M17 140L18 141L17 140z"/>
<path style="fill:#817370; stroke:none;" d="M23.3333 140.667L23.6667 141.333L23.3333 140.667M29 140L30 141L29 140z"/>
<path style="fill:#c09e6b; stroke:none;" d="M31 140L32 141L31 140M47 140L47 144L50 141L47 140M52 140L53 141L52 140z"/>
<path style="fill:#817370; stroke:none;" d="M58 140L59 141L58 140M73 140L74 141L73 140M84 140L85 141L84 140M103 140L104 141L103 140M106 140L107 141L106 140M128 140L129 141L128 140z"/>
<path style="fill:#1d1918; stroke:none;" d="M134 140L135 141L134 140z"/>
<path style="fill:#c09e6b; stroke:none;" d="M7 141L8 142L7 141M18 141L19 142L18 141z"/>
<path style="fill:#817370; stroke:none;" d="M19.6667 141.333L20.3333 141.667L19.6667 141.333M27.6667 141.333L28.3333 141.667L27.6667 141.333z"/>
<path style="fill:#c09e6b; stroke:none;" d="M30 141L31 142L30 141z"/>
<path style="fill:#817370; stroke:none;" d="M39 141L40 142L39 141z"/>
<path style="fill:#c09e6b; stroke:none;" d="M55 141L56 142L55 141z"/>
<path style="fill:#817370; stroke:none;" d="M56.3333 141.667L56.6667 142.333L56.3333 141.667z"/>
<path style="fill:#c09e6b; stroke:none;" d="M60 143L47 146L47 147C48.9601 147.653 49.554 148 47 148L47 149L62 145L62 144L60 144L60 143L65 144C63.277 142.035 61.7637 140.586 60 143z"/>
<path style="fill:#817370; stroke:none;" d="M63.6667 141.333L64.3333 141.667L63.6667 141.333M69 141L70 142L69 141M72 141L73 142L72 141M82 141L83 145L84 145L83 142L85 143L85 142L82 141z"/>
<path style="fill:#c09e6b; stroke:none;" d="M104 141L105 142L104 141M128 141L128 144L129 144L128 141M133 141L133 143L135 143L133 141z"/>
<path style="fill:#1d1918; stroke:none;" d="M135 141L139 148L140 148L139 144L158.362 155.105L165 180L166 180L160 155L178 166C168.267 152.814 149.221 147.677 135 141z"/>
<path style="fill:#c09e6b; stroke:none;" d="M136 141L137 142L136 141M8 142L9 143L8 142z"/>
<path style="fill:#817370; stroke:none;" d="M10 142L10 143L14 143L10 142z"/>
<path style="fill:#ab3a2c; stroke:none;" d="M14 142L15 143L14 142z"/>
<path style="fill:#817370; stroke:none;" d="M24 142L25 143L24 142M29 142L30 143L29 142M49.6667 142.333L50.3333 142.667L49.6667 142.333z"/>
<path style="fill:#c09e6b; stroke:none;" d="M52 142L53 143L52 142z"/>
<path style="fill:#817370; stroke:none;" d="M53.3333 142.667L53.6667 143.333L53.3333 142.667z"/>
<path style="fill:#1d1918; stroke:none;" d="M54.6667 142.333L55.3333 142.667L54.6667 142.333z"/>
<path style="fill:#f6f5f5; stroke:none;" d="M58.6667 142.333L59.3333 142.667L58.6667 142.333M63 142L63 143L65 143L65 144L60 143L60 144L62 144L62 145L47 149L47 148L49 147L33 150L33 151L36 151L36 152C33.9596 152.054 22.8599 154.2 27 156L26 162L39.6821 158.407L41.463 166L44 187C50.4932 185.207 50.0769 180.821 49 175L55.0046 177.575C56.3017 178.117 57.6342 178.729 58.9961 179.091C72.2798 182.623 54.8858 169.762 55.8819 166.957C58.9876 158.211 67.6809 152.631 70 143L63 142z"/>
<path style="fill:#c09e6b; stroke:none;" d="M67 142L67 143L70 143L67 142M72 142L72 144L74 142L72 142z"/>
<path style="fill:#817370; stroke:none;" d="M74 142L75 143L74 142M77 142L78 143L77 142z"/>
<path style="fill:#c09e6b; stroke:none;" d="M83 142L85 144L83 142z"/>
<path style="fill:#817370; stroke:none;" d="M86 142L86 145L87 145L86 142M106 142L107 143L106 142z"/>
<path style="fill:#c09e6b; stroke:none;" d="M109 142L110 143L109 142z"/>
<path style="fill:#817370; stroke:none;" d="M137 142L138 143L137 142z"/>
<path style="fill:#c09e6b; stroke:none;" d="M138 142L139 143L138 142z"/>
<path style="fill:#817370; stroke:none;" d="M8 143L7 149L8 149L8 143z"/>
<path style="fill:#c09e6b; stroke:none;" d="M7 150L17 150L15 143C10.1888 143.383 8.80855 145.737 7 150z"/>
<path style="fill:#817370; stroke:none;" d="M15 143L20 151C18.6213 148.243 16.727 146.182 20 147L15 143M20 143L21 144L20 143z"/>
<path style="fill:#1d1918; stroke:none;" d="M21 143L23 149L24 149L21 143z"/>
<path style="fill:#c09e6b; stroke:none;" d="M29 143L31 145L29 143M39 143L40 144L39 143z"/>
<path style="fill:#817370; stroke:none;" d="M48 143L49 144L48 143z"/>
<path style="fill:#f6f5f5; stroke:none;" d="M55 143L56 144L55 143M73 143C71.5292 147.345 68.3509 158.236 71.0424 162.367C74.0379 166.964 80.0907 168.324 82.2577 174C84.5696 180.056 81.0361 188.836 80 195C85.2868 191.999 87.26 184.675 88.5718 179C92.1349 163.586 90.7634 147.258 73 143z"/>
<path style="fill:#c09e6b; stroke:none;" d="M75 143L76 144L75 143z"/>
<path style="fill:#817370; stroke:none;" d="M76 143L77 144L76 143M79 143L80 144L79 143z"/>
<path style="fill:#f6f5f5; stroke:none;" d="M83 143L84 144L83 143z"/>
<path style="fill:#c09e6b; stroke:none;" d="M107 143L108 144L107 143z"/>
<path style="fill:#817370; stroke:none;" d="M110 143L111 144L110 143M129.333 143.667L129.667 144.333L129.333 143.667z"/>
<path style="fill:#f6f5f5; stroke:none;" d="M135 143L139 148L135 143z"/>
<path style="fill:#817370; stroke:none;" d="M140 143L141 144L140 143z"/>
<path style="fill:#c09e6b; stroke:none;" d="M7 144L8 145L7 144z"/>
<path style="fill:#1d1918; stroke:none;" d="M8 144L9 145L8 144z"/>
<path style="fill:#f6f5f5; stroke:none;" d="M20 144L19 150L23 151L20 144z"/>
<path style="fill:#817370; stroke:none;" d="M22 144L23 145L22 144M25 144L26 145L25 144M29 144L30 145L29 144M40 144L38 147L40 144M50 144L51 145L50 144z"/>
<path style="fill:#f6f5f5; stroke:none;" d="M52 144L53 145L52 144M57.6667 144.333L58.3333 144.667L57.6667 144.333z"/>
<path style="fill:#817370; stroke:none;" d="M78 144L79 145L78 144M109 144L110 145L109 144z"/>
<path style="fill:#c09e6b; stroke:none;" d="M112 144L113 145L112 144z"/>
<path style="fill:#817370; stroke:none;" d="M132 144L134 147L132 144z"/>
<path style="fill:#c09e6b; stroke:none;" d="M135 144L136 145L135 144z"/>
<path style="fill:#817370; stroke:none;" d="M137 144L138 145L137 144M139.333 144.667L139.667 145.333L139.333 144.667z"/>
<path style="fill:#c09e6b; stroke:none;" d="M143 144L144 145L143 144z"/>
<path style="fill:#817370; stroke:none;" d="M5 145L6 146L5 145M21 145L22 146L21 145M31 145L32 146L31 145z"/>
<path style="fill:#c09e6b; stroke:none;" d="M32 145L33 146L32 145M40 145L41 146L40 145z"/>
<path style="fill:#817370; stroke:none;" d="M47 145L48 146L47 145z"/>
<path style="fill:#f6f5f5; stroke:none;" d="M48.6667 145.333L49.3333 145.667L48.6667 145.333M50 146L50 147L56 146L50 146z"/>
<path style="fill:#817370; stroke:none;" d="M71.3333 145.667L71.6667 146.333L71.3333 145.667M80 145L81 146L80 145M87 145L88 146L87 145z"/>
<path style="fill:#c09e6b; stroke:none;" d="M110 145L111 146L110 145z"/>
<path style="fill:#817370; stroke:none;" d="M113 145L114 146L113 145z"/>
<path style="fill:#c09e6b; stroke:none;" d="M129 145L131 152L132 152L129 145z"/>
<path style="fill:#817370; stroke:none;" d="M135.333 145.667L135.667 146.333L135.333 145.667z"/>
<path style="fill:#c09e6b; stroke:none;" d="M140 145L142 153L143 153L157 154L157 153L140 145z"/>
<path style="fill:#817370; stroke:none;" d="M142 145L143 146L142 145M145 145L146 146L145 145z"/>
<path style="fill:#1d1918; stroke:none;" d="M18 146L18 149L19 149L18 146z"/>
<path style="fill:#817370; stroke:none;" d="M23 146L24 147L23 146M33 146L34 147L33 146z"/>
<path style="fill:#c09e6b; stroke:none;" d="M34 146L35 147L34 146M37 146L38 147L37 146z"/>
<path style="fill:#817370; stroke:none;" d="M44 146L45 147L44 146z"/>
<path style="fill:#c09e6b; stroke:none;" d="M45 146L46 147L45 146M69 146L70 147L69 146M81 146L82 147L81 146z"/>
<path style="fill:#817370; stroke:none;" d="M82 146L83 147L82 146M90 146L91 147L90 146z"/>
<path style="fill:#c09e6b; stroke:none;" d="M111 146L112 147L111 146z"/>
<path style="fill:#817370; stroke:none;" d="M114 146L115 147L114 146z"/>
<path style="fill:#c09e6b; stroke:none;" d="M138 146L139 147L138 146z"/>
<path style="fill:#817370; stroke:none;" d="M144 146L145 147L144 146M147 146L148 147L147 146M22 147L23 148L22 147M27 147L25 150L29 150L27 147z"/>
<path style="fill:#c09e6b; stroke:none;" d="M35 147L36 148L35 147z"/>
<path style="fill:#817370; stroke:none;" d="M36 147L37 148L36 147M40 147L41 148L40 147z"/>
<path style="fill:#c09e6b; stroke:none;" d="M41 147L42 148L41 147M71.3333 147.667L71.6667 148.333L71.3333 147.667M83 147L84 148L83 147z"/>
<path style="fill:#817370; stroke:none;" d="M87 147L90 151L87 147z"/>
<path style="fill:#c09e6b; stroke:none;" d="M88 147L88 149L90 149L88 147z"/>
<path style="fill:#817370; stroke:none;" d="M89 147L90 148L89 147M91 147L92 148L91 147M113 147L114 148L113 147z"/>
<path style="fill:#c09e6b; stroke:none;" d="M116 147L117 148L116 147z"/>
<path style="fill:#817370; stroke:none;" d="M130 147L131 148L130 147M136 147L137 148L136 147M140 147L141 148L140 147M146 147L147 148L146 147z"/>
<path style="fill:#c09e6b; stroke:none;" d="M150 147L151 148L150 147M22 148L23 149L22 148z"/>
<path style="fill:#ab3a2c; stroke:none;" d="M24 148L25 149L24 148z"/>
<path style="fill:#817370; stroke:none;" d="M37 148L38 149L37 148z"/>
<path style="fill:#c09e6b; stroke:none;" d="M38 148L39 149L38 148M67 148L68 149L67 148z"/>
<path style="fill:#817370; stroke:none;" d="M68 148L69 149L68 148M85 148L86 149L85 148z"/>
<path style="fill:#c09e6b; stroke:none;" d="M114 148L115 149L114 148z"/>
<path style="fill:#817370; stroke:none;" d="M117 148L118 149L117 148M137 148L137 149L140 149L137 148M148 148L149 149L148 148z"/>
<path style="fill:#c09e6b; stroke:none;" d="M152 148L153 149L152 148M23.3333 149.667L23.6667 150.333L23.3333 149.667z"/>
<path style="fill:#817370; stroke:none;" d="M34 149L35 150L34 149z"/>
<path style="fill:#c09e6b; stroke:none;" d="M35 149L36 150L35 149M44.6667 149.333L45.3333 149.667L44.6667 149.333M85 149L86 150L85 149M115 149L116 150L115 149z"/>
<path style="fill:#817370; stroke:none;" d="M118 149L119 150L118 149M131 149L132 150L131 149M141 149L142 150L141 149M150 149L151 150L150 149z"/>
<path style="fill:#c09e6b; stroke:none;" d="M154 149L155 150L154 149z"/>
<path style="fill:#817370; stroke:none;" d="M7 150L7 151L17 151L7 150z"/>
<path style="fill:#c09e6b; stroke:none;" d="M20 150L20 152L22 150L20 150z"/>
<path style="fill:#817370; stroke:none;" d="M31 150L32 151L31 150z"/>
<path style="fill:#c09e6b; stroke:none;" d="M31 153L36 152L31 153z"/>
<path style="fill:#817370; stroke:none;" d="M55 152L58 151L55 152z"/>
<path style="fill:#c09e6b; stroke:none;" d="M57 153L61 151L57 153M67 150L68 151L67 150z"/>
<path style="fill:#817370; stroke:none;" d="M117 150L118 151L117 150z"/>
<path style="fill:#c09e6b; stroke:none;" d="M120 150L121 151L120 150z"/>
<path style="fill:#817370; stroke:none;" d="M134.333 150.667L134.667 151.333L134.333 150.667z"/>
<path style="fill:#c09e6b; stroke:none;" d="M136 150L136 152L138 152L138 150L136 150z"/>
<path style="fill:#817370; stroke:none;" d="M138 150L136 152L136 153C138.251 152.527 139.118 152.14 138 150M152 150L153 151L152 150z"/>
<path style="fill:#c09e6b; stroke:none;" d="M156 150L157 151L156 150z"/>
<path style="fill:#817370; stroke:none;" d="M21 151L21 152L24 152L21 151M28 151L31 153L31 152L28 151z"/>
<path style="fill:#c09e6b; stroke:none;" d="M29 151L30 152L29 151z"/>
<path style="fill:#f6f5f5; stroke:none;" d="M30 151L31 152L30 151z"/>
<path style="fill:#1d1918; stroke:none;" d="M53 156L58 151L53 156z"/>
<path style="fill:#817370; stroke:none;" d="M67 151L68 152L67 151z"/>
<path style="fill:#ab3a2c; stroke:none;" d="M68 151L68 156L69 156L68 151z"/>
<path style="fill:#817370; stroke:none;" d="M87 151L88 152L87 151M93.6667 151.333L94.3333 151.667L93.6667 151.333M118 151L119 152L118 151M121 151L122 152L121 151z"/>
<path style="fill:#f6f5f5; stroke:none;" d="M143 151C143.545 163.651 151.592 174.005 158.561 184C161.719 188.529 163.05 194.032 169 195C168.979 187.536 165.459 183.507 163.732 176.715C159.914 161.693 161.715 152.489 143 151z"/>
<path style="fill:#817370; stroke:none;" d="M154 151L155 152L154 151z"/>
<path style="fill:#c09e6b; stroke:none;" d="M158 151L159 152L158 151M5 152L5 179L6 179L5 152z"/>
<path style="fill:#817370; stroke:none;" d="M25 152L25 155L28 154L28 153L25 152z"/>
<path style="fill:#f6f5f5; stroke:none;" d="M26.6667 152.333L27.3333 152.667L26.6667 152.333z"/>
<path style="fill:#c09e6b; stroke:none;" d="M28.3333 152.667L28.6667 153.333L28.3333 152.667M52 152L53 153L52 152z"/>
<path style="fill:#817370; stroke:none;" d="M53 152L54 153L53 152z"/>
<path style="fill:#c09e6b; stroke:none;" d="M65 153L65 154L67 156L68 156L68 152L65 153z"/>
<path style="fill:#817370; stroke:none;" d="M88 152L90 154L88 152z"/>
<path style="fill:#c09e6b; stroke:none;" d="M89 152L90 153L89 152z"/>
<path style="fill:#817370; stroke:none;" d="M96 152L97 153L96 152z"/>
<path style="fill:#c09e6b; stroke:none;" d="M119 152L120 153L119 152z"/>
<path style="fill:#817370; stroke:none;" d="M122 152L123 153L122 152z"/>
<path style="fill:#c09e6b; stroke:none;" d="M134 152L135 153L134 152z"/>
<path style="fill:#817370; stroke:none;" d="M156 152L157 153L156 152z"/>
<path style="fill:#c09e6b; stroke:none;" d="M160 152L161 153L160 152z"/>
<path style="fill:#817370; stroke:none;" d="M6 153L7 154L6 153z"/>
<path style="fill:#c09e6b; stroke:none;" d="M31 154L31 155L36 154L31 154M50 153L51 154L50 153z"/>
<path style="fill:#1d1918; stroke:none;" d="M51.6667 153.333L52.3333 153.667L51.6667 153.333z"/>
<path style="fill:#ab3a2c; stroke:none;" d="M53 153C48.7096 155.308 48.057 157.218 48 162C50.9843 159.656 53.6461 156.976 53 153z"/>
<path style="fill:#817370; stroke:none;" d="M56 153L57 154L56 153z"/>
<path style="fill:#ab3a2c; stroke:none;" d="M66 153L58 163C56.5477 170.769 58.0143 173.076 66 176L66 153z"/>
<path style="fill:#817370; stroke:none;" d="M70.3333 153.667L70.6667 154.333L70.3333 153.667z"/>
<path style="fill:#c09e6b; stroke:none;" d="M88 153L89 154L88 153M90.3333 153.667L90.6667 154.333L90.3333 153.667M93 153L94 156L95 156L95 153L93 153M97 153C100.749 157.858 106.821 163.051 113 164L116 167C119.026 173.484 128.926 180.569 136 182C129.191 168.91 109.819 159.349 97 153z"/>
<path style="fill:#f6f5f5; stroke:none;" d="M134 153L133 159L139 162L134 153z"/>
<path style="fill:#817370; stroke:none;" d="M135 153L136 154L135 153z"/>
<path style="fill:#c09e6b; stroke:none;" d="M140 153L141 154L140 153z"/>
<path style="fill:#817370; stroke:none;" d="M142 153L143 154L142 153M157 153L158 154L157 153M161 153L162 154L161 153z"/>
<path style="fill:#f6f5f5; stroke:none;" d="M6 154L6 178C15.3837 171.507 11.6474 162.504 6 154z"/>
<path style="fill:#c09e6b; stroke:none;" d="M47 154L46 157L47 157L47 154z"/>
<path style="fill:#817370; stroke:none;" d="M48 154L49 155L48 154z"/>
<path style="fill:#1d1918; stroke:none;" d="M49 154L50 155L49 154z"/>
<path style="fill:#817370; stroke:none;" d="M55 154L56 155L55 154z"/>
<path style="fill:#1d1918; stroke:none;" d="M89 154L90 155L89 154z"/>
<path style="fill:#817370; stroke:none;" d="M92 154L93 155L92 154z"/>
<path style="fill:#f6f5f5; stroke:none;" d="M94 154L95 155L94 154z"/>
<path style="fill:#817370; stroke:none;" d="M95.3333 154.667L95.6667 155.333L95.3333 154.667M97 154L98 155L97 154M122 154L123 155L122 154z"/>
<path style="fill:#c09e6b; stroke:none;" d="M125 154L126 155L125 154M136 154L138 156L136 154z"/>
<path style="fill:#817370; stroke:none;" d="M137 154L138 155L137 154M140 154L141 155L140 154M158 154L159 155L158 154z"/>
<path style="fill:#c09e6b; stroke:none;" d="M163 154L164 155L163 154z"/>
<path style="fill:#817370; stroke:none;" d="M7 155L8 156L7 155M9 155L10 156L9 155z"/>
<path style="fill:#c09e6b; stroke:none;" d="M28.6667 155.333L29.3333 155.667L28.6667 155.333z"/>
<path style="fill:#1d1918; stroke:none;" d="M47 155L47 163L48 163L47 155z"/>
<path style="fill:#817370; stroke:none;" d="M54 155L55 156L54 155M64 155L65 156L64 155z"/>
<path style="fill:#c09e6b; stroke:none;" d="M70 155L70 158L71 158L70 155z"/>
<path style="fill:#817370; stroke:none;" d="M89 155L89 156L92 156L89 155M93 155L94 156L93 155M98 155L99 156L98 155M123 155L124 156L123 155z"/>
<path style="fill:#c09e6b; stroke:none;" d="M126 155L127 156L126 155M131 155L132 156L131 155z"/>
<path style="fill:#817370; stroke:none;" d="M133 155L134 156L133 155M160 155L161 156L160 155z"/>
<path style="fill:#c09e6b; stroke:none;" d="M161 155L162 156L161 155M165 155L166 156L165 155M7 156L8 157L7 156z"/>
<path style="fill:#817370; stroke:none;" d="M10 156L13 158L10 156M17 156L18 157L17 156z"/>
<path style="fill:#c09e6b; stroke:none;" d="M25.6667 156.333L26.3333 156.667L25.6667 156.333z"/>
<path style="fill:#817370; stroke:none;" d="M53 156L54 157L53 156z"/>
<path style="fill:#c09e6b; stroke:none;" d="M63 156L64 157L63 156z"/>
<path style="fill:#817370; stroke:none;" d="M67 156L67 162L68 162L67 156z"/>
<path style="fill:#c09e6b; stroke:none;" d="M89 156L90 157L89 156M91 156C93.8064 170.895 89.8705 180.849 86 195L98 195L94 190C101.507 178.197 104.369 164.136 91 156M124 156L125 157L124 156z"/>
<path style="fill:#817370; stroke:none;" d="M127 156L128 157L127 156M131 156L132 157L131 156z"/>
<path style="fill:#c09e6b; stroke:none;" d="M133 156L134 157L133 156M143 156L144 157L143 156M159 156L160 157L159 156z"/>
<path style="fill:#f6f5f5; stroke:none;" d="M161 156L175 180L176 177L180 178L180 173L181 173C181.964 178.016 178.739 182.258 179.603 186.999C181.143 195.44 188.698 193.551 189.627 186C191.147 173.655 170.936 159.643 161 156z"/>
<path style="fill:#817370; stroke:none;" d="M163 156L164 157L163 156M166 156L167 157L166 156M18 157L16 161L23 163L24 160L24 159L23 157L18 157z"/>
<path style="fill:#c09e6b; stroke:none;" d="M38 157L39 158L38 157z"/>
<path style="fill:#1d1918; stroke:none;" d="M39 157L40 168L41 168L41 157L39 157z"/>
<path style="fill:#817370; stroke:none;" d="M46.3333 157.667L46.6667 158.333L46.3333 157.667M52 157L53 158L52 157z"/>
<path style="fill:#c09e6b; stroke:none;" d="M62 157L63 158L62 157M67 157L68 158L67 157z"/>
<path style="fill:#817370; stroke:none;" d="M93 157L94 158L93 157M101 157L102 158L101 157z"/>
<path style="fill:#c09e6b; stroke:none;" d="M125 157L126 158L125 157z"/>
<path style="fill:#817370; stroke:none;" d="M128 157L129 158L128 157M139 157L140 158L139 157z"/>
<path style="fill:#c09e6b; stroke:none;" d="M140 157L139 159L140 157z"/>
<path style="fill:#817370; stroke:none;" d="M141 157L140 160L141 157M143 157L144 158L143 157M161 157L162 158L161 157z"/>
<path style="fill:#c09e6b; stroke:none;" d="M164 157L165 158L164 157M168 157L169 158L168 157M206 157L206 195L207 195C207 184.089 210.211 167.036 206 157z"/>
<path style="fill:#817370; stroke:none;" d="M8 158L9 159L8 158M13.6667 158.333L14.3333 158.667L13.6667 158.333z"/>
<path style="fill:#1d1918; stroke:none;" d="M18 158L18 159L20 160C17.6663 161.015 19.0897 161.421 21 162L18 158z"/>
<path style="fill:#c09e6b; stroke:none;" d="M36 158L37 159L36 158z"/>
<path style="fill:#817370; stroke:none;" d="M37 158L38 159L37 158M41 158L42 159L41 158z"/>
<path style="fill:#c09e6b; stroke:none;" d="M66 158L66 169L67 169L66 158z"/>
<path style="fill:#817370; stroke:none;" d="M91.3333 158.667L91.6667 159.333L91.3333 158.667M95 158L96 159L95 158M130 158L131 159L130 158M132 158L133 159L132 158z"/>
<path style="fill:#c09e6b; stroke:none;" d="M137 158L138 159L137 158z"/>
<path style="fill:#f6f5f5; stroke:none;" d="M140 158L141 159L140 158z"/>
<path style="fill:#817370; stroke:none;" d="M160 158L161 159L160 158z"/>
<path style="fill:#c09e6b; stroke:none;" d="M162 158L163 159L162 158M166 158L167 159L166 158z"/>
<path style="fill:#817370; stroke:none;" d="M169 158L170 159L169 158M15 159L16 160L15 159z"/>
<path style="fill:#c09e6b; stroke:none;" d="M25 159L26 160L25 159M33 159L34 160L33 159z"/>
<path style="fill:#817370; stroke:none;" d="M34 159L35 160L34 159z"/>
<path style="fill:#ab3a2c; stroke:none;" d="M39 189L44 188L41 180L39 159C29.1009 164.081 36.6347 180.603 39 189z"/>
<path style="fill:#c09e6b; stroke:none;" d="M46 159L46 162L47 162L46 159z"/>
<path style="fill:#817370; stroke:none;" d="M96.3333 159.667L96.6667 160.333L96.3333 159.667M98 159L101 162L101 161L98 159z"/>
<path style="fill:#c09e6b; stroke:none;" d="M99 159L99 161L101 161L101 159L99 159z"/>
<path style="fill:#817370; stroke:none;" d="M104 159L105 160L104 159M128 159L129 160L128 159z"/>
<path style="fill:#c09e6b; stroke:none;" d="M132 159L142 168L140 161L132 159z"/>
<path style="fill:#817370; stroke:none;" d="M143 159L144 160L143 159M162 159L163 160L162 159M168 159L169 160L168 159z"/>
<path style="fill:#c09e6b; stroke:none;" d="M171 159L172 160L171 159z"/>
<path style="fill:#817370; stroke:none;" d="M9 160L10 161L9 160z"/>
<path style="fill:#1d1918; stroke:none;" d="M22 160L23 161L22 160z"/>
<path style="fill:#c09e6b; stroke:none;" d="M23 160L23 163L24 163L23 160z"/>
<path style="fill:#817370; stroke:none;" d="M25 160L26 161L25 160z"/>
<path style="fill:#c09e6b; stroke:none;" d="M31 160L32 161L31 160z"/>
<path style="fill:#817370; stroke:none;" d="M32 160L33 161L32 160M41 160L41 164L42 164L41 160z"/>
<path style="fill:#c09e6b; stroke:none;" d="M60 160L59 162L60 160z"/>
<path style="fill:#817370; stroke:none;" d="M105 160L106 161L105 160z"/>
<path style="fill:#c09e6b; stroke:none;" d="M129 160L130 161L129 160z"/>
<path style="fill:#817370; stroke:none;" d="M132 160L133 161L132 160z"/>
<path style="fill:#c09e6b; stroke:none;" d="M138 160L139 161L138 160z"/>
<path style="fill:#817370; stroke:none;" d="M161 160L162 161L161 160z"/>
<path style="fill:#c09e6b; stroke:none;" d="M163 160L171 188L172 188C174.093 178.813 169.114 167.38 163 160M169 160L170 161L169 160z"/>
<path style="fill:#817370; stroke:none;" d="M172 160L173 161L172 160z"/>
<path style="fill:#c09e6b; stroke:none;" d="M9 161L10 162L9 161z"/>
<path style="fill:#f6f5f5; stroke:none;" d="M23 161L24 162L23 161z"/>
<path style="fill:#817370; stroke:none;" d="M24.3333 161.667L24.6667 162.333L24.3333 161.667z"/>
<path style="fill:#c09e6b; stroke:none;" d="M29 161L30 162L29 161z"/>
<path style="fill:#817370; stroke:none;" d="M30 161L31 162L30 161z"/>
<path style="fill:#c09e6b; stroke:none;" d="M49 161L50 162L49 161z"/>
<path style="fill:#1d1918; stroke:none;" d="M60 161L61 162L60 161z"/>
<path style="fill:#817370; stroke:none;" d="M69.3333 161.667L69.6667 162.333L69.3333 161.667M90 161L90 165L91 165L90 161M106 161L107 162L106 161M130 161L131 162L130 161M133 161L134 162L133 161M140 161L141 162L140 161M144 161L145 162L144 161z"/>
<path style="fill:#c09e6b; stroke:none;" d="M161 161L162 162L161 161M170 161L171 162L170 161z"/>
<path style="fill:#817370; stroke:none;" d="M15 162L16 163L15 162z"/>
<path style="fill:#1d1918; stroke:none;" d="M21 162L22 163L21 162z"/>
<path style="fill:#817370; stroke:none;" d="M26 162L27 163L26 162M32 162L31 167L32 167L32 162M48 162L47 164L48 162z"/>
<path style="fill:#1d1918; stroke:none;" d="M59 162L60 163L59 162z"/>
<path style="fill:#ab3a2c; stroke:none;" d="M67 162L67 167L68 167L67 162z"/>
<path style="fill:#817370; stroke:none;" d="M97 162L98 163L97 162M107 162L108 163L107 162z"/>
<path style="fill:#c09e6b; stroke:none;" d="M131 162L132 163L131 162z"/>
<path style="fill:#817370; stroke:none;" d="M134 162L135 163L134 162M141 162L141 166L142 166L141 162z"/>
<path style="fill:#c09e6b; stroke:none;" d="M146 162L147 163L146 162z"/>
<path style="fill:#817370; stroke:none;" d="M163 162L164 163L163 162M172 162L173 163L172 162z"/>
<path style="fill:#c09e6b; stroke:none;" d="M175 162L176 163L175 162z"/>
<path style="fill:#817370; stroke:none;" d="M10 163L11 164L10 163z"/>
<path style="fill:#ab3a2c; stroke:none;" d="M15.6667 163.333L16.3333 163.667L15.6667 163.333z"/>
<path style="fill:#c09e6b; stroke:none;" d="M21 163L23 165L23 163L21 163M31 163L32 164L31 163M48 163L49 164L48 163z"/>
<path style="fill:#817370; stroke:none;" d="M70 163L71 164L70 163z"/>
<path style="fill:#c09e6b; stroke:none;" d="M71 163L72 164L71 163z"/>
<path style="fill:#817370; stroke:none;" d="M99 163L99 164L103 165L103 164L99 163M105 163L107 167L107 166L107 165L105 166L105 163z"/>
<path style="fill:#c09e6b; stroke:none;" d="M132 163L133 164L132 163z"/>
<path style="fill:#817370; stroke:none;" d="M135 163L136 164L135 163M143 163L143 164L144 167L145 167L143 163z"/>
<path style="fill:#c09e6b; stroke:none;" d="M147 163L148 164L147 163z"/>
<path style="fill:#817370; stroke:none;" d="M162.333 163.667L162.667 164.333L162.333 163.667z"/>
<path style="fill:#c09e6b; stroke:none;" d="M173 163L174 164L173 163z"/>
<path style="fill:#817370; stroke:none;" d="M176 163L177 164L176 163M16.3333 164.667L16.6667 165.333L16.3333 164.667z"/>
<path style="fill:#ab3a2c; stroke:none;" d="M18 164L19 165L18 164z"/>
<path style="fill:#f6f5f5; stroke:none;" d="M23 164L25 166L23 164z"/>
<path style="fill:#c09e6b; stroke:none;" d="M41.3333 164.667L41.6667 165.333L41.3333 164.667z"/>
<path style="fill:#817370; stroke:none;" d="M57 164L58 165L57 164z"/>
<path style="fill:#1d1918; stroke:none;" d="M58 164L59 165L58 164z"/>
<path style="fill:#c09e6b; stroke:none;" d="M73 164L74 165L73 164z"/>
<path style="fill:#817370; stroke:none;" d="M92 164L92 172L93 172L92 164z"/>
<path style="fill:#f6f5f5; stroke:none;" d="M101 164L94 190L98 195L137 195C130.646 182.735 112.231 179.779 108 168L101 164z"/>
<path style="fill:#c09e6b; stroke:none;" d="M105 164L105 166L107 164L105 164z"/>
<path style="fill:#817370; stroke:none;" d="M110 164L111 166L112 166L113 164L110 164z"/>
<path style="fill:#c09e6b; stroke:none;" d="M143 164L143 166L145 164L143 164z"/>
<path style="fill:#817370; stroke:none;" d="M147.333 164.667L147.667 165.333L147.333 164.667z"/>
<path style="fill:#c09e6b; stroke:none;" d="M174 164L175 165L174 164z"/>
<path style="fill:#817370; stroke:none;" d="M177 164L178 165L177 164M11 165L12 166L11 165M23 165L24 166L23 165M25 165L26 166L25 165z"/>
<path style="fill:#c09e6b; stroke:none;" d="M32 165C32.0227 170.41 33.1989 188.757 39 190L32 165M56 165L54 168L56 165z"/>
<path style="fill:#1d1918; stroke:none;" d="M57 165L58 166L57 165z"/>
<path style="fill:#c09e6b; stroke:none;" d="M75 165L76 166L75 165M90 165L90 169L91 169L90 165M102 165L103 166L102 165z"/>
<path style="fill:#817370; stroke:none;" d="M113 165L115 167L113 165z"/>
<path style="fill:#c09e6b; stroke:none;" d="M162 165L163 166L162 165z"/>
<path style="fill:#817370; stroke:none;" d="M164.333 165.667L164.667 166.333L164.333 165.667z"/>
<path style="fill:#c09e6b; stroke:none;" d="M175 165L176 166L175 165z"/>
<path style="fill:#817370; stroke:none;" d="M178 165L179 166L178 165z"/>
<path style="fill:#c09e6b; stroke:none;" d="M11 166L12 167L11 166z"/>
<path style="fill:#817370; stroke:none;" d="M17 166C18.1192 172.5 20.7448 179.848 26 184L21 169L20 169L19 171L17 166M19.3333 166.667L19.6667 167.333L19.3333 166.667M33 166L34 167L33 166z"/>
<path style="fill:#1d1918; stroke:none;" d="M56 166L57 167L56 166z"/>
<path style="fill:#817370; stroke:none;" d="M70 166C68.801 170.047 69.5221 175.177 67.0617 178.775C63.4871 184.003 42.2848 193.307 36 192.667C27.0761 191.759 17.8592 184.845 10 181L15 174C9.64086 176.694 6.62757 179.929 6 186L7 186L10 181L8 191L7 191L7 188L6 188C6.34511 198.51 20.1991 195 28 195C45.7018 195 75.7726 197.433 76 172L77 172C78.2954 179.887 74.2178 183.825 70 190C79.3639 183.385 83.6211 170.362 70 166M76 166L77 167L76 166M112 166L113 167L112 166M136 166L137 167L136 166M177 166L178 167L177 166z"/>
<path style="fill:#ab3a2c; stroke:none;" d="M30 167L34 190C38.2917 186.099 32.6994 172.416 32 167L30 167z"/>
<path style="fill:#1d1918; stroke:none;" d="M55 167L56 170L55 167z"/>
<path style="fill:#c09e6b; stroke:none;" d="M103 167L104 168L103 167z"/>
<path style="fill:#817370; stroke:none;" d="M115.333 167.667L115.667 168.333L115.333 167.667M137 167L138 168L137 167M178 167L179 168L178 167z"/>
<path style="fill:#c09e6b; stroke:none;" d="M12 168L13 169L12 168z"/>
<path style="fill:#ab3a2c; stroke:none;" d="M18.6667 168.333L19.3333 168.667L18.6667 168.333z"/>
<path style="fill:#c09e6b; stroke:none;" d="M105.667 168.333L106.333 168.667L105.667 168.333z"/>
<path style="fill:#817370; stroke:none;" d="M138 168L139 169L138 168M141 168L142 169L141 168M143 168L143 171L145 170L145 169L143 168z"/>
<path style="fill:#c09e6b; stroke:none;" d="M147 168L148 169L147 168z"/>
<path style="fill:#817370; stroke:none;" d="M163 168L163 171L164 171L163 168M179 168L180 169L179 168z"/>
<path style="fill:#c09e6b; stroke:none;" d="M182 168L183 169L182 168z"/>
<path style="fill:#1d1918; stroke:none;" d="M19.3333 169.667L19.6667 170.333L19.3333 169.667z"/>
<path style="fill:#817370; stroke:none;" d="M54 169L55 170L54 169z"/>
<path style="fill:#f6f5f5; stroke:none;" d="M66 169L66 172L67 172L66 169z"/>
<path style="fill:#817370; stroke:none;" d="M79 169L80 170L79 169M90 169L90 172L91 172L90 169z"/>
<path style="fill:#c09e6b; stroke:none;" d="M108.333 169.667L108.667 170.333L108.333 169.667z"/>
<path style="fill:#817370; stroke:none;" d="M110 169L113 172L113 171L110 169z"/>
<path style="fill:#c09e6b; stroke:none;" d="M111 169L111 171L113 171L113 169L111 169z"/>
<path style="fill:#817370; stroke:none;" d="M116 169L117 170L116 169M139 169L140 170L139 169z"/>
<path style="fill:#c09e6b; stroke:none;" d="M148 169L149 170L148 169z"/>
<path style="fill:#817370; stroke:none;" d="M180 169L181 170L180 169M13 170L14 171L13 170z"/>
<path style="fill:#c09e6b; stroke:none;" d="M41 170L41 173L42 173L41 170M55 170L56 171L55 170z"/>
<path style="fill:#817370; stroke:none;" d="M80 170L81 171L80 170M117 170L118 171L117 170z"/>
<path style="fill:#c09e6b; stroke:none;" d="M140 170L141 171L140 170z"/>
<path style="fill:#817370; stroke:none;" d="M146 170L146 174C147.813 172.444 147.813 171.556 146 170z"/>
<path style="fill:#c09e6b; stroke:none;" d="M149 170L150 171L149 170M176 170L177 171L176 170z"/>
<path style="fill:#817370; stroke:none;" d="M181 170L182 171L181 170z"/>
<path style="fill:#c09e6b; stroke:none;" d="M13 171L14 172L13 171M57 171L58 172L57 171z"/>
<path style="fill:#1d1918; stroke:none;" d="M75 171L76 172L75 171z"/>
<path style="fill:#c09e6b; stroke:none;" d="M81 171L82 172L81 171z"/>
<path style="fill:#817370; stroke:none;" d="M115 171L116 172L115 171M118 171L119 172L118 171z"/>
<path style="fill:#c09e6b; stroke:none;" d="M141 171L142 172L141 171M145 171L145 173L147 173L147 171L145 171z"/>
<path style="fill:#817370; stroke:none;" d="M149 171L150 172L149 171z"/>
<path style="fill:#c09e6b; stroke:none;" d="M163 171L163 176L164 176L163 171z"/>
<path style="fill:#817370; stroke:none;" d="M165 171L165 179L166 179L165 171M178 171L179 172L178 171z"/>
<path style="fill:#c09e6b; stroke:none;" d="M179 171L178 173L180 173L179 171z"/>
<path style="fill:#817370; stroke:none;" d="M182 171L183 172L182 171M13 172L14 173L13 172z"/>
<path style="fill:#ab3a2c; stroke:none;" d="M20 172L21 173L20 172z"/>
<path style="fill:#c09e6b; stroke:none;" d="M66 172L66 175L67 175L66 172M109 172L110 173L109 172z"/>
<path style="fill:#817370; stroke:none;" d="M119 172L120 173L119 172M142 172L143 173L142 172M183 172L184 173L183 172z"/>
<path style="fill:#c09e6b; stroke:none;" d="M11 173L12 174L11 173z"/>
<path style="fill:#817370; stroke:none;" d="M41 173L42 174L41 173z"/>
<path style="fill:#c09e6b; stroke:none;" d="M60 173L61 174L60 173M82 173L83 174L82 173M111 173L111 174L114 174L111 173z"/>
<path style="fill:#817370; stroke:none;" d="M116 174L117 177L119 177L120 176L120 174L119 173L116 174M120 173L121 174L120 173z"/>
<path style="fill:#c09e6b; stroke:none;" d="M143 173L144 174L143 173z"/>
<path style="fill:#817370; stroke:none;" d="M149 173L150 174L149 173z"/>
<path style="fill:#c09e6b; stroke:none;" d="M150 173C149.099 179.375 159.558 191.699 165 195C161.665 186.992 156.787 178.525 150 173z"/>
<path style="fill:#817370; stroke:none;" d="M180 173L181 178L182 178L180 173M184 173L185 174L184 173M10 174L11 175L10 174M35 174L36 175L35 174z"/>
<path style="fill:#c09e6b; stroke:none;" d="M62 174L63 175L62 174z"/>
<path style="fill:#817370; stroke:none;" d="M82 174L83 175L82 174z"/>
<path style="fill:#c09e6b; stroke:none;" d="M89.3333 174.667L89.6667 175.333L89.3333 174.667M114 174L115 175L114 174M117 174L119 176L119 174L117 174z"/>
<path style="fill:#817370; stroke:none;" d="M121 174L122 175L121 174z"/>
<path style="fill:#c09e6b; stroke:none;" d="M138.667 174.333L139.333 174.667L138.667 174.333M144 174L145 175L144 174M181 174L182 175L181 174z"/>
<path style="fill:#817370; stroke:none;" d="M187 174L188 175L187 174z"/>
<path style="fill:#c09e6b; stroke:none;" d="M49 175L49 178L50 178L51 175L49 175z"/>
<path style="fill:#817370; stroke:none;" d="M66 175L66 178L67 178L66 175M122 175L123 176L122 175z"/>
<path style="fill:#c09e6b; stroke:none;" d="M136 175L137 176L136 175z"/>
<path style="fill:#817370; stroke:none;" d="M137 175L137 176L137 177L141 176L141 179L142 179L141 175L137 175z"/>
<path style="fill:#1d1918; stroke:none;" d="M138 175L139 176L138 175z"/>
<path style="fill:#c09e6b; stroke:none;" d="M141 175L142 176L141 175z"/>
<path style="fill:#817370; stroke:none;" d="M145 175L146 176L145 175M148 175L149 176L148 175z"/>
<path style="fill:#c09e6b; stroke:none;" d="M180 175L181 176L180 175z"/>
<path style="fill:#817370; stroke:none;" d="M188 175L189 176L188 175z"/>
<path style="fill:#ab3a2c; stroke:none;" d="M20 176L21 177L20 176M50 176C50.1037 184.745 54.1047 183.327 61 181L50 176z"/>
<path style="fill:#c09e6b; stroke:none;" d="M52 176L53 177L52 176M65 176L66 177L65 176z"/>
<path style="fill:#817370; stroke:none;" d="M89.3333 176.667L89.6667 177.333L89.3333 176.667M115 176L116 177L115 176M127 176L128 177L127 176z"/>
<path style="fill:#c09e6b; stroke:none;" d="M135 176L136 177L135 176M186 176L187 177L186 176M189 176L190 177L189 176M42.3333 177.667L42.6667 178.333L42.3333 177.667z"/>
<path style="fill:#817370; stroke:none;" d="M54 177L55 178L54 177M91.3333 177.667L91.6667 178.333L91.3333 177.667M116 177L117 178L116 177M124.667 177.333L125.333 177.667L124.667 177.333z"/>
<path style="fill:#1d1918; stroke:none;" d="M141 177L142 178L141 177z"/>
<path style="fill:#c09e6b; stroke:none;" d="M175 178L173 190L174 190L180 178L175 178z"/>
<path style="fill:#1d1918; stroke:none;" d="M180 177L180 180L181 180L180 177z"/>
<path style="fill:#817370; stroke:none;" d="M187 177L188 178L187 177M6 178L7 179L6 178z"/>
<path style="fill:#c09e6b; stroke:none;" d="M57 178L58 179L57 178M65 178L66 179L65 178M120 178L121 179L120 178M124 178L124 179L127 179L127 178L124 178z"/>
<path style="fill:#f6f5f5; stroke:none;" d="M125 178L126 179L125 178z"/>
<path style="fill:#817370; stroke:none;" d="M128 178L129 179L128 178M135 178L136 179L135 178M145 178L146 179L145 178z"/>
<path style="fill:#c09e6b; stroke:none;" d="M163 178L164 179L163 178z"/>
<path style="fill:#817370; stroke:none;" d="M176 178L177 179L176 178z"/>
<path style="fill:#1d1918; stroke:none;" d="M177.333 178.667L177.667 179.333L177.333 178.667z"/>
<path style="fill:#c09e6b; stroke:none;" d="M181 178L182 179L181 178z"/>
<path style="fill:#817370; stroke:none;" d="M190 178L191 179L190 178z"/>
<path style="fill:#1d1918; stroke:none;" d="M41 179L42 180L41 179z"/>
<path style="fill:#817370; stroke:none;" d="M42 179L43 180L42 179z"/>
<path style="fill:#c09e6b; stroke:none;" d="M59 179L60 180L59 179z"/>
<path style="fill:#817370; stroke:none;" d="M65 179L66 180L65 179z"/>
<path style="fill:#c09e6b; stroke:none;" d="M88 179L89 180L88 179z"/>
<path style="fill:#817370; stroke:none;" d="M122 179L123 180L122 179M124 179L125 180L124 179M126 179L127 180L126 179M130 179L131 180L130 179M142 179L142 180L145 180L142 179M149 179L150 180L149 179z"/>
<path style="fill:#c09e6b; stroke:none;" d="M164 179L165 180L164 179z"/>
<path style="fill:#1d1918; stroke:none;" d="M175 179L173 186L174 186L175 179z"/>
<path style="fill:#817370; stroke:none;" d="M179 179L180 180L179 179z"/>
<path style="fill:#c09e6b; stroke:none;" d="M188 179L189 180L188 179M191 179L192 180L191 179M61.6667 180.333L62.3333 180.667L61.6667 180.333z"/>
<path style="fill:#817370; stroke:none;" d="M63 180L64 181L63 180M88 180L89 181L88 180M125 180L126 181L125 180M135 180L136 181L135 180M152 180L153 181L152 180M165 180L165 181L168 182L165 180M174 180L175 181L174 180M180 180L181 181L180 180M189 180L190 181L189 180z"/>
<path style="fill:#c09e6b; stroke:none;" d="M8 181L7 191L8 191L10 181L8 181z"/>
<path style="fill:#817370; stroke:none;" d="M90 181L91 182L90 181M124 181L125 182L124 181M132 181L133 182L132 181M136.667 181.333L137.333 181.667L136.667 181.333M139 182L139 183L142 183L140 187C143.569 186.235 143.11 184.059 142 181L139 182M148 181L149 182L148 181M153 181L154 182L153 181z"/>
<path style="fill:#1d1918; stroke:none;" d="M166 181L168 185L169 185L166 181z"/>
<path style="fill:#817370; stroke:none;" d="M175 181L176 182L175 181z"/>
<path style="fill:#c09e6b; stroke:none;" d="M180 181L181 182L180 181M189 181L190 182L189 181z"/>
<path style="fill:#817370; stroke:none;" d="M192 181L193 182L192 181z"/>
<path style="fill:#1d1918; stroke:none;" d="M42 182L42 186L43 186L42 182z"/>
<path style="fill:#817370; stroke:none;" d="M82 182L83 183L82 182M131 182L132 183L131 182M135 182L136 183L135 182M147 182L148 183L147 182M149.333 182.667L149.667 183.333L149.333 182.667z"/>
<path style="fill:#c09e6b; stroke:none;" d="M151 182L152 183L151 182z"/>
<path style="fill:#817370; stroke:none;" d="M154 182L155 183L154 182z"/>
<path style="fill:#c09e6b; stroke:none;" d="M166 182L167 183L166 182z"/>
<path style="fill:#817370; stroke:none;" d="M173 182L174 183L173 182z"/>
<path style="fill:#c09e6b; stroke:none;" d="M190 182L193 187L190 182z"/>
<path style="fill:#817370; stroke:none;" d="M37 183L38 184L37 183z"/>
<path style="fill:#c09e6b; stroke:none;" d="M43.3333 183.667L43.6667 184.333L43.3333 183.667M82 183L83 184L82 183M87 183L88 184L87 183M139 183L140 184L139 183z"/>
<path style="fill:#817370; stroke:none;" d="M144 183L144 185L146 183L144 183z"/>
<path style="fill:#f6f5f5; stroke:none;" d="M151 183C145.144 193.921 149.848 195 161 195L153 183L151 183z"/>
<path style="fill:#817370; stroke:none;" d="M167 183L168 184L167 183M174 183L175 184L174 183M179 183L180 184L179 183M191 183L192 184L191 183z"/>
<path style="fill:#c09e6b; stroke:none;" d="M49 184L50 185L49 184z"/>
<path style="fill:#817370; stroke:none;" d="M89.3333 184.667L89.6667 185.333L89.3333 184.667M131 184L132 185L131 184M136 184C134.878 186.66 134.606 187.334 137 189L136 184M139 184L140 185L139 184z"/>
<path style="fill:#c09e6b; stroke:none;" d="M145 184L146 185L145 184z"/>
<path style="fill:#817370; stroke:none;" d="M148 184L149 185L148 184M150 184L151 185L150 184z"/>
<path style="fill:#c09e6b; stroke:none;" d="M153 184L154 185L153 184z"/>
<path style="fill:#817370; stroke:none;" d="M169 184L170 185L169 184M35 185L36 186L35 185M43.3333 185.667L43.6667 186.333L43.3333 185.667M49 185L50 186L49 185M81 185L82 186L81 185z"/>
<path style="fill:#c09e6b; stroke:none;" d="M86 185L87 186L86 185M154 185L155 186L154 185z"/>
<path style="fill:#817370; stroke:none;" d="M168 185L169 186L168 185M172 185L173 186L172 185M176 185L177 186L176 185M178 185L179 186L178 185M192 185L193 186L192 185M194 185L195 186L194 185z"/>
<path style="fill:#c09e6b; stroke:none;" d="M46 186L47 187L46 186z"/>
<path style="fill:#817370; stroke:none;" d="M86 186L87 187L86 186z"/>
<path style="fill:#c09e6b; stroke:none;" d="M130 186L131 187L130 186z"/>
<path style="fill:#817370; stroke:none;" d="M137 186L138 187L137 186z"/>
<path style="fill:#c09e6b; stroke:none;" d="M149 186L150 187L149 186M155 186L156 187L155 186z"/>
<path style="fill:#817370; stroke:none;" d="M156 187L156 188L159 188L156 187z"/>
<path style="fill:#c09e6b; stroke:none;" d="M168 186L169 187L168 186z"/>
<path style="fill:#817370; stroke:none;" d="M170 186L171 187L170 186M173 186L174 187L173 186z"/>
<path style="fill:#c09e6b; stroke:none;" d="M178 186L175 195L193 195L189 187C185.928 195.902 182.262 190.527 178 186z"/>
<path style="fill:#817370; stroke:none;" d="M190 186L195 191L195 190L190 186M38 187L39 188L38 187M44 187L45 188L44 187M80 187L81 188L80 187M88 187L89 188L88 187z"/>
<path style="fill:#c09e6b; stroke:none;" d="M131 187L132 188L131 187z"/>
<path style="fill:#1d1918; stroke:none;" d="M157 187L161 194L162 194L157 187z"/>
<path style="fill:#817370; stroke:none;" d="M175 187L176 188L175 187M177 187L178 188L177 187M195 187L196 188L195 187M37 188L38 189L37 188z"/>
<path style="fill:#c09e6b; stroke:none;" d="M85 188L86 189L85 188z"/>
<path style="fill:#817370; stroke:none;" d="M132 188L133 189L132 188z"/>
<path style="fill:#c09e6b; stroke:none;" d="M146 189L147 190L146 189z"/>
<path style="fill:#817370; stroke:none;" d="M169 189L169 192L170 192L169 189M172 189L172 191L174 191L172 189M176 189L177 190L176 189z"/>
<path style="fill:#c09e6b; stroke:none;" d="M193 189L194 190L193 189z"/>
<path style="fill:#817370; stroke:none;" d="M196 189L197 190L196 189M68 190L66 193L68 190z"/>
<path style="fill:#c09e6b; stroke:none;" d="M80 190L80 194L81 194L80 190M84 190L85 191L84 190z"/>
<path style="fill:#817370; stroke:none;" d="M87 190L88 191L87 190M134 190L135 191L134 190M140.667 190.333L141.333 190.667L140.667 190.333M144 190L145 191L144 190z"/>
<path style="fill:#c09e6b; stroke:none;" d="M138 191C140.673 195.357 144.256 194.996 149 195L146 190L138 191M158 190L159 191L158 190z"/>
<path style="fill:#817370; stroke:none;" d="M160 190L161 191L160 190z"/>
<path style="fill:#c09e6b; stroke:none;" d="M8 191L9 192L8 191z"/>
<path style="fill:#817370; stroke:none;" d="M78 191L78 194L79 194L78 191M84 191L85 192L84 191M137 191L138 192L137 191M159 191L160 192L159 191z"/>
<path style="fill:#c09e6b; stroke:none;" d="M172 191L173 192L172 191z"/>
<path style="fill:#817370; stroke:none;" d="M175 191L174 195L175 195L175 191z"/>
<path style="fill:#c09e6b; stroke:none;" d="M194 191L195 195L196 195L194 191z"/>
<path style="fill:#f6f5f5; stroke:none;" d="M77 192L75 195C77.2508 194.527 78.1178 194.14 77 192z"/>
<path style="fill:#c09e6b; stroke:none;" d="M83 192L84 193L83 192z"/>
<path style="fill:#817370; stroke:none;" d="M86 192L87 193L86 192M138 192L139 193L138 192z"/>
<path style="fill:#c09e6b; stroke:none;" d="M169.333 192.667L169.667 193.333L169.333 192.667z"/>
<path style="fill:#817370; stroke:none;" d="M195.333 192.667L195.667 193.333L195.333 192.667M197 192L198 193L197 192M64 193L65 194L64 193z"/>
<path style="fill:#c09e6b; stroke:none;" d="M136 193L137 194L136 193M160 193L161 194L160 193z"/>
<path style="fill:#817370; stroke:none;" d="M162 193L163 194L162 193M62 194L63 195L62 194z"/>
<path style="fill:#c09e6b; stroke:none;" d="M82 194L83 195L82 194z"/>
<path style="fill:#817370; stroke:none;" d="M85 194L86 195L85 194z"/>
<path style="fill:#c09e6b; stroke:none;" d="M137 194L138 195L137 194z"/>
<path style="fill:#817370; stroke:none;" d="M161 194L162 195L161 194M169 194L170 195L169 194z"/>
<path style="fill:#c09e6b; stroke:none;" d="M173 194L174 195L173 194z"/>
<path style="fill:#817370; stroke:none;" d="M194 194L195 195L194 194z"/>
</svg>
