<?xml version="1.0" standalone="yes"?>
<svg xmlns="http://www.w3.org/2000/svg" width="211" height="199">
<path style="fill:#201d1d; stroke:none;" d="M0 0L0 199L211 199L211 0L0 0z"/>
<path style="fill:#7a7474; stroke:none;" d="M4 3L4 4L205 4L205 23C206.518 19.3831 207.879 6.78592 204.397 4.02779C201.779 1.95425 196.122 3 193 3L162 3L4 3z"/>
<path style="fill:#978b8a; stroke:none;" d="M4 4L4 13L5 13L4 4z"/>
<path style="fill:#faf9f9; stroke:none;" d="M5 4L6 178L7 178L17 170C16.221 165.632 10.4494 159.109 12.0563 155.015C15.3864 146.531 28.0952 146.391 34.6829 142.351C37.2658 140.767 37.1996 137.392 38.7415 135.015C43.0222 128.415 49.1744 128.648 56 130L56 131L51 134C42.8672 124.019 42.0234 143.538 41 145L49 144L46 140L50 141L50 137L51 137L51 141L56 141L54 147C58.6339 144.295 59.1529 141.033 58 136L56 137L55 137L56 133L60 134L61 140L70 134L69 131L78 131L81 82C77.691 78.8806 68.8383 73.0217 67.5077 68.9954C65.7565 63.6961 71.5611 59.3502 73.3997 55C74.9212 51.4 72.7548 47.5808 74.4074 44.0401C76.9496 38.5936 92.3389 29.5474 98 27.7747C103.659 26.0027 114.298 24.2052 120 24.294C124.206 24.3594 127.762 27.639 132 27.0378C139.683 25.9481 164.578 17.2854 168.712 27.0579C170.52 31.3311 165.734 35.3367 162.996 37.9097C155.507 44.948 145.962 51.0103 137 56C137.586 66.7107 123.46 70.9599 126.333 82.9568C127.5 87.8307 134.623 91.4423 137.907 95.0008C144.322 101.953 147.921 110.568 148 120C141.342 112.442 134.618 108.784 125 106C125.687 114.709 124.835 134.518 130.938 141.262C134.463 145.157 145.068 145.982 150 148.32C166.792 156.281 191.934 173.829 194 194L206 194L205 4L5 4z"/>
<path style="fill:#7a7474; stroke:none;" d="M4 13L4 57L5 57C5 44.5196 8.81025 24.4634 4 13z"/>
<path style="fill:#978b8a; stroke:none;" d="M157 22L157 23L163 23L157 22M152 23L153 24L152 23z"/>
<path style="fill:#7a7474; stroke:none;" d="M153 23L155 25L153 23z"/>
<path style="fill:#201d1d; stroke:none;" d="M154 23L154 24L165 24L154 23z"/>
<path style="fill:#7a7474; stroke:none;" d="M165.333 23.6667L165.667 24.3333L165.333 23.6667z"/>
<path style="fill:#978b8a; stroke:none;" d="M166 23L167 24L166 23M205 23L205 66L206 66C206 53.7811 209.71 34.2256 205 23M116.667 24.3333L117.333 24.6667L116.667 24.3333z"/>
<path style="fill:#7a7474; stroke:none;" d="M118 24L118 25L122 25L118 24z"/>
<path style="fill:#978b8a; stroke:none;" d="M122 24L123 25L122 24M149 24L150 25L149 24z"/>
<path style="fill:#7a7474; stroke:none;" d="M150 24L152 26L150 24z"/>
<path style="fill:#201d1d; stroke:none;" d="M151 24L151 25L154 25L151 24z"/>
<path style="fill:#978b8a; stroke:none;" d="M129 36L130 32C124.991 28.3003 115.574 22.1299 114 32C107.177 29.7303 96.924 26.6555 94 36L97 38C110.153 35.5582 125.52 40.5479 132 53C143.007 50.8703 160.53 36.9888 167 28L150 39L160 24L145.83 28.9174L135.169 28.1682L129 36z"/>
<path style="fill:#faf9f9; stroke:none;" d="M150 39L167 28C159.924 19.5386 152.55 32.3696 150 39z"/>
<path style="fill:#978b8a; stroke:none;" d="M164 24L165 25L164 24z"/>
<path style="fill:#201d1d; stroke:none;" d="M166 24C167.707 35.9324 141.548 48.2332 133 54C123.903 36.4661 106.108 39.682 90 36C95.053 26.2803 105.796 29.0878 114 32C115.12 20.602 126.445 30.4904 132 32C135.606 25.1293 141.108 27.9085 147 30L151 26L151 25C133.036 27.8671 114.627 22.7011 97 28.2207C90.663 30.205 83.5172 36.1356 78.0586 39.9699C72.4799 43.8887 75.5086 48.6496 73.7269 54C70.7539 62.9274 61.0526 74.1188 78 75L78.0008 112L77.8025 128.682L69 131L71 134L61 141L61 137L60 137L55 148L71 139L70 136L76 136L73 134L73 133L81 133C82.2678 126.167 80.0923 120.742 80.0039 114C79.8573 102.83 81.6107 91.6663 84.6127 80.9606C85.9878 76.0567 86.3137 69.06 90.2785 65.4336C93.5535 62.4383 98.9564 62.719 103 61.3009C113.409 57.6505 116.899 57.9272 125 66L121 68L126 69L125 66L128 67L124 84C117.095 82.0587 110.994 80.7928 104 83L101 79L102 84C122.109 81.4586 141.042 92.1249 146 113L147 113C145.84 105.26 141.468 97.7104 135.826 92.3002C132.975 89.5658 127.891 87.5113 126.198 83.8156C123.252 77.3883 128.905 67.7889 135 66L136 56C145.744 52.3121 156.291 44.562 163.826 37.4097C168.196 33.2613 171.064 28.5924 166 24z"/>
<path style="fill:#7a7474; stroke:none;" d="M167 24L168 25L167 24z"/>
<path style="fill:#978b8a; stroke:none;" d="M114 25L115 26L114 25z"/>
<path style="fill:#7a7474; stroke:none;" d="M125 25L126 26L125 25z"/>
<path style="fill:#978b8a; stroke:none;" d="M136 25L137 26L136 25z"/>
<path style="fill:#7a7474; stroke:none;" d="M137.667 25.3333L138.333 25.6667L137.667 25.3333M142 25L143 26L142 25z"/>
<path style="fill:#978b8a; stroke:none;" d="M143 25L144 26L143 25M165 25L168 27L165 25z"/>
<path style="fill:#7a7474; stroke:none;" d="M168 25L169 26L168 25z"/>
<path style="fill:#978b8a; stroke:none;" d="M103 26L103 27L108 27L103 26z"/>
<path style="fill:#7a7474; stroke:none;" d="M113 26L114 27L113 26z"/>
<path style="fill:#9b3c2e; stroke:none;" d="M115 26L116 27L115 26z"/>
<path style="fill:#7a7474; stroke:none;" d="M120 26L121 27L120 26z"/>
<path style="fill:#9b3c2e; stroke:none;" d="M121 26L122 27L121 26M127 26L128 27L127 26z"/>
<path style="fill:#978b8a; stroke:none;" d="M133 26L134 27L133 26z"/>
<path style="fill:#7a7474; stroke:none;" d="M134 26L135 27L134 26M145 26L146 27L145 26z"/>
<path style="fill:#978b8a; stroke:none;" d="M146 26L147 27L146 26z"/>
<path style="fill:#7a7474; stroke:none;" d="M149 26L150 27L149 26z"/>
<path style="fill:#978b8a; stroke:none;" d="M98 27L99 28L98 27z"/>
<path style="fill:#7a7474; stroke:none;" d="M99 27L100 28L99 27z"/>
<path style="fill:#978b8a; stroke:none;" d="M110 27L111 28L110 27M112 27L113 28L112 27z"/>
<path style="fill:#7a7474; stroke:none;" d="M114 27L115 28L114 27M123 27L124 28L123 27M129 27L130 28L129 27M132 27L133 28L132 27M135 27L136 28L135 27M141 27L142 28L141 27M148 27L149 28L148 27z"/>
<path style="fill:#9b3c2e; stroke:none;" d="M167 27L168 28L167 27z"/>
<path style="fill:#7a7474; stroke:none;" d="M169 27L170 28L169 27z"/>
<path style="fill:#978b8a; stroke:none;" d="M95 28L96 29L95 28z"/>
<path style="fill:#9b3c2e; stroke:none;" d="M102 28L103 29L102 28M113 28L114 29L113 28z"/>
<path style="fill:#7a7474; stroke:none;" d="M125 28L126 29L125 28M133 28L134 29L133 28M143 28L144 29L143 28M93 29L94 30L93 29z"/>
<path style="fill:#9b3c2e; stroke:none;" d="M90 36L97 38L97 37L94 36L101 30C96.2877 28.6104 91.4314 31.4255 90 36z"/>
<path style="fill:#7a7474; stroke:none;" d="M101 29L102 30L101 29M107 29L108 30L107 29z"/>
<path style="fill:#9b3c2e; stroke:none;" d="M108 29L109 30L108 29z"/>
<path style="fill:#7a7474; stroke:none;" d="M113 29L114 30L113 29z"/>
<path style="fill:#9b3c2e; stroke:none;" d="M132 29L133 30L132 29z"/>
<path style="fill:#7a7474; stroke:none;" d="M144 29L145 30L144 29M147 29L148 30L147 29M169 29L170 30L169 29M91 30L92 31L91 30M98 30L99 31L98 30z"/>
<path style="fill:#9b3c2e; stroke:none;" d="M110 30L111 31L110 30z"/>
<path style="fill:#978b8a; stroke:none;" d="M169 30L170 31L169 30z"/>
<path style="fill:#7a7474; stroke:none;" d="M96 31L97 32L96 31M111 31L112 32L111 31M128 31L129 32L128 31M132 31L133 32L132 31M145 31L144 33L145 31M130 32L129 35L129 36L132 35L132 32L130 32z"/>
<path style="fill:#978b8a; stroke:none;" d="M168 32L169 33L168 32z"/>
<path style="fill:#9b3c2e; stroke:none;" d="M129 33L130 34L129 33z"/>
<path style="fill:#7a7474; stroke:none;" d="M167 33L168 34L167 33z"/>
<path style="fill:#978b8a; stroke:none;" d="M87 34L88 35L87 34z"/>
<path style="fill:#201d1d; stroke:none;" d="M129.667 34.3333L130.333 34.6667L129.667 34.3333z"/>
<path style="fill:#7a7474; stroke:none;" d="M160 34L161 35L160 34M166 34L167 35L166 34z"/>
<path style="fill:#9b3c2e; stroke:none;" d="M159 35L160 36L159 35z"/>
<path style="fill:#978b8a; stroke:none;" d="M86 36L87 37L86 36z"/>
<path style="fill:#7a7474; stroke:none;" d="M96 36L97 37L96 36M157 36L158 37L157 36z"/>
<path style="fill:#9b3c2e; stroke:none;" d="M158 36L159 37L158 36z"/>
<path style="fill:#978b8a; stroke:none;" d="M82 37L83 38L82 37z"/>
<path style="fill:#7a7474; stroke:none;" d="M99.6667 37.3333L100.333 37.6667L99.6667 37.3333z"/>
<path style="fill:#9b3c2e; stroke:none;" d="M101 37L101 38L107 38L101 37z"/>
<path style="fill:#7a7474; stroke:none;" d="M107.667 37.3333L108.333 37.6667L107.667 37.3333z"/>
<path style="fill:#9b3c2e; stroke:none;" d="M156 37L157 38L156 37M160 37L158 40L160 37z"/>
<path style="fill:#7a7474; stroke:none;" d="M163 37L164 38L163 37z"/>
<path style="fill:#978b8a; stroke:none;" d="M79 38L80 39L79 38z"/>
<path style="fill:#7a7474; stroke:none;" d="M80 38L81 39L80 38z"/>
<path style="fill:#9b3c2e; stroke:none;" d="M76 52L92 38C82.7632 38.0775 73.4499 41.1275 76 52M112 38L113 39L112 38z"/>
<path style="fill:#7a7474; stroke:none;" d="M113 38L114 39L113 38z"/>
<path style="fill:#9b3c2e; stroke:none;" d="M155 38L156 39L155 38z"/>
<path style="fill:#7a7474; stroke:none;" d="M162 38L163 39L162 38M78 39L79 40L78 39z"/>
<path style="fill:#9b3c2e; stroke:none;" d="M115 39L116 40L115 39z"/>
<path style="fill:#7a7474; stroke:none;" d="M116 39L117 40L116 39z"/>
<path style="fill:#faf9f9; stroke:none;" d="M149 39L150 40L149 39z"/>
<path style="fill:#7a7474; stroke:none;" d="M153 39L154 40L153 39z"/>
<path style="fill:#9b3c2e; stroke:none;" d="M154 39L155 40L154 39z"/>
<path style="fill:#978b8a; stroke:none;" d="M161 39L162 40L161 39M76 40L77 41L76 40z"/>
<path style="fill:#7a7474; stroke:none;" d="M118 40L119 41L118 40z"/>
<path style="fill:#9b3c2e; stroke:none;" d="M152 40L153 41L152 40M156 40L154 43L156 40z"/>
<path style="fill:#978b8a; stroke:none;" d="M160 40L161 41L160 40M75 41L76 42L75 41z"/>
<path style="fill:#9b3c2e; stroke:none;" d="M112 48L132 59C130.577 46.221 115.217 40.7904 104 41.0154C100.74 41.0808 92.5964 41.3493 91.3457 45.2747C88.1724 55.234 108.07 53.9944 112 48z"/>
<path style="fill:#7a7474; stroke:none;" d="M120 41L121 42L120 41z"/>
<path style="fill:#9b3c2e; stroke:none;" d="M151 41L152 42L151 41M149.667 42.3333L150.333 42.6667L149.667 42.3333z"/>
<path style="fill:#7a7474; stroke:none;" d="M157 42L158 43L157 42M123 43L124 44L123 43z"/>
<path style="fill:#faf9f9; stroke:none;" d="M143 43L143 44L146 44L143 43z"/>
<path style="fill:#9b3c2e; stroke:none;" d="M148 43L149 44L148 43M152 43L153 44L152 43z"/>
<path style="fill:#978b8a; stroke:none;" d="M156 43L157 44L156 43M73 44L74 45L73 44z"/>
<path style="fill:#9b3c2e; stroke:none;" d="M125 44L126 45L125 44M147 44L148 45L147 44z"/>
<path style="fill:#7a7474; stroke:none;" d="M154 44L155 45L154 44M73 45L73 48L74 48L73 45M145 45L146 46L145 45z"/>
<path style="fill:#9b3c2e; stroke:none;" d="M146 45L147 46L146 45z"/>
<path style="fill:#978b8a; stroke:none;" d="M153 45L154 46L153 45z"/>
<path style="fill:#7a7474; stroke:none;" d="M127 46L128 47L127 46z"/>
<path style="fill:#faf9f9; stroke:none;" d="M141 46L142 47L141 46z"/>
<path style="fill:#9b3c2e; stroke:none;" d="M144 46L145 47L144 46M128 47L129 48L128 47z"/>
<path style="fill:#7a7474; stroke:none;" d="M142 47L143 48L142 47z"/>
<path style="fill:#978b8a; stroke:none;" d="M150 47L151 48L150 47M112 48L113 49L112 48z"/>
<path style="fill:#7a7474; stroke:none;" d="M129 48L130 49L129 48z"/>
<path style="fill:#9b3c2e; stroke:none;" d="M141 48L142 49L141 48z"/>
<path style="fill:#7a7474; stroke:none;" d="M148 48L149 49L148 48M130 49L131 50L130 49z"/>
<path style="fill:#978b8a; stroke:none;" d="M147 49L148 50L147 49z"/>
<path style="fill:#9b3c2e; stroke:none;" d="M138 50L139 51L138 50z"/>
<path style="fill:#978b8a; stroke:none;" d="M144 51L145 52L144 51M74 52L75 53L74 52z"/>
<path style="fill:#9b3c2e; stroke:none;" d="M135 52L136 53L135 52z"/>
<path style="fill:#7a7474; stroke:none;" d="M142 52L143 53L142 52M133 53L134 54L133 53z"/>
<path style="fill:#978b8a; stroke:none;" d="M141 53L142 54L141 53M74 54L75 55L74 54z"/>
<path style="fill:#9b3c2e; stroke:none;" d="M68 70L77 67L80 54C72.8743 56.424 68.7531 62.6472 68 70M113 54L113 55L118 56L113 54z"/>
<path style="fill:#7a7474; stroke:none;" d="M139 54L140 55L139 54z"/>
<path style="fill:#978b8a; stroke:none;" d="M73 55L74 56L73 55M138 55L139 56L138 55M72 56L73 57L72 56z"/>
<path style="fill:#7a7474; stroke:none;" d="M136 56L137 57L136 56z"/>
<path style="fill:#978b8a; stroke:none;" d="M136 57L137 58L136 57M106 62C103.622 61.5904 89.7267 63.7778 93 66C89.401 70.0311 88.153 75.7076 89 81L87 81L84.591 109L85 138L87 137L87 138L86 142L94 141L96 147L100 146C100.208 150.77 100.615 155.447 105 158L105 154L108 158L112 157C112.721 164.191 116.297 170.429 124 171L123 166L131 169C133.786 167.954 134.563 168.452 136 171L138 169L139 169L141 171L145 168L147 171L143 166L144 163L152 166L138 154L134 156L130 148L127 148L123 106L117 105C119.148 113.178 120.274 117.505 111.999 123.145C109.981 124.521 105.226 128.251 102.987 125.638C99.1616 121.174 109.265 114.679 104 110L105 107L96 108C94.504 102.832 93.6532 94.4624 97 90L93 87L95 88L95 87L93 80C95.1537 79.5693 105.419 76.3255 104 82L107 80C120.507 82.9853 123.156 82.7862 126 69L119 69L122 65C119.189 58.5577 110.441 54.9406 106 62z"/>
<path style="fill:#7a7474; stroke:none;" d="M112 58L113 59L112 58M116.667 58.3333L117.333 58.6667L116.667 58.3333z"/>
<path style="fill:#9b3c2e; stroke:none;" d="M135 58L134 61L135 58z"/>
<path style="fill:#978b8a; stroke:none;" d="M137 58L138 59L137 58z"/>
<path style="fill:#7a7474; stroke:none;" d="M70 59L71 60L70 59M81 59L79 79L81 79L88 63L81 59M107 59L108 60L107 59M137 59L138 60L137 59z"/>
<path style="fill:#978b8a; stroke:none;" d="M69 60L70 61L69 60z"/>
<path style="fill:#7a7474; stroke:none;" d="M105.333 60.6667L105.667 61.3333L105.333 60.6667M109 63L110 63L112 61L109 63M115 60L116 61L115 60M117 60L118 61L117 60M119 60L120 61L119 60z"/>
<path style="fill:#978b8a; stroke:none;" d="M137 60L138 61L137 60z"/>
<path style="fill:#7a7474; stroke:none;" d="M102.667 61.3333L103.333 61.6667L102.667 61.3333M120 61L121 62L120 61M136 61L137 62L136 61M68 62L69 63L68 62M99 62L100 63L99 62M106 62L107 63L106 62z"/>
<path style="fill:#201d1d; stroke:none;" d="M107 64L107 65L119 66C116.039 61.3077 111.564 61.8072 107 64z"/>
<path style="fill:#7a7474; stroke:none;" d="M116 62L117 63L116 62M121 62L122 63L121 62M92.6667 63.3333L93.3333 63.6667L92.6667 63.3333M95 63L96 64L95 63M101 63L102 64L101 63M107 63L108 64L107 63M117.667 63.3333L118.333 63.6667L117.667 63.3333M122 63L124 66L122 63z"/>
<path style="fill:#978b8a; stroke:none;" d="M135 63L136 64L135 63z"/>
<path style="fill:#7a7474; stroke:none;" d="M67 64L68 65L67 64M83 105L80 104C80 109.58 77.967 119.444 83 123L81 133L73 133L73 134L76 136L70 136L72 139C68.3965 139.427 63.5311 139.968 63 144L59 144C55.3018 150.572 53 151.689 53 160L54 160L56 157L56 160L63 150L62 147L65 148L75 141L75 144L80 144L79 146L89 150L89 155L90 155L89 152L92 153L93.8264 170L90 187L85 194L89 193C92.702 197.236 104.627 195 110 195L170 195L170 194C161.353 194 151.018 192.664 143 194C138.9 194.683 132.314 194.744 133 192L124 194L124 193L127 193L126 189L125 189L121 194L122 191C116.276 193.714 111.492 194 105 194C102.984 194 95.4998 193.396 100 191L100 190L95 190L96 193L92 189L95 186L94 186L94 188L93 188L94 180L97 176L100 176L101 170L101 162L105 167L106 167L107 163L110 170L113 172L129 173L140 175L139 169L136 171C135.212 168.555 134.147 166.728 132 169L135 169L131 170L125 170L117 171L118 168L113 167L114 163L113 163L113 165L112 165L113 161C108.546 161 108.324 156.236 103 161L102 155L101 157L100 157L100 146L96 147L94 141L86 142L87 137L85 138L85 137L84.8966 108.996L87 81L89 81L93 66L92 64C83.2413 68.7141 78.4703 96.5121 83 105M98.6667 64.3333L99.3333 64.6667L98.6667 64.3333M107.333 65.6667L107.667 66.3333L107.333 65.6667M111.667 65.3333L112.333 65.6667L111.667 65.3333M120.667 65.3333L121.333 65.6667L120.667 65.3333z"/>
<path style="fill:#978b8a; stroke:none;" d="M124 65L125 66L124 65z"/>
<path style="fill:#7a7474; stroke:none;" d="M104 66L105 67L104 66M109 66L104 70L105 73L106 73L114 68L109 66M115 66L115 67L119 67L115 66M125 66L125 67L126 70L127 70L125 66M131 66L131 67L134 67L131 66z"/>
<path style="fill:#978b8a; stroke:none;" d="M66.3333 67.6667L66.6667 68.3333L66.3333 67.6667z"/>
<path style="fill:#7a7474; stroke:none;" d="M119 68L119 69L125 69L119 68z"/>
<path style="fill:#978b8a; stroke:none;" d="M126 67L127 68L126 67M130 67L131 68L130 67z"/>
<path style="fill:#7a7474; stroke:none;" d="M92 68L93 69L92 68M94 68L95 69L94 68M98 68L99 69L98 68M102 68L101 70L102 68z"/>
<path style="fill:#201d1d; stroke:none;" d="M106 73L104 71L102 77L103 77L103 74L104 74L104 78C106.555 77.9503 109.535 78.9436 111.999 78.1574C122.966 74.6582 111.763 61.5731 106 73z"/>
<path style="fill:#7a7474; stroke:none;" d="M110 69L109 71L111 71L110 69z"/>
<path style="fill:#978b8a; stroke:none;" d="M111 69L111 70L114 70L111 69z"/>
<path style="fill:#7a7474; stroke:none;" d="M114 69L115 70L114 69M116 69L117 70L116 69M67 70L68 71L67 70M91 70L92 71L91 70M93 70L94 71L93 70M96 70L97 71L96 70M117 70L118 71L117 70M121 70L121 71L124 72L121 70M124 70L125 71L124 70z"/>
<path style="fill:#978b8a; stroke:none;" d="M128 70L129 71L128 70z"/>
<path style="fill:#7a7474; stroke:none;" d="M85 71L86 72L85 71M101 71L102 72L101 71z"/>
<path style="fill:#201d1d; stroke:none;" d="M124 72C114.457 70.5779 120.194 86.016 124 72z"/>
<path style="fill:#7a7474; stroke:none;" d="M125.333 71.6667L125.667 72.3333L125.333 71.6667M127 71L128 72L127 71M102 72L101 77L102 77L104 72L102 72M111 72L112 73L111 72z"/>
<path style="fill:#978b8a; stroke:none;" d="M112.667 72.3333L113.333 72.6667L112.667 72.3333z"/>
<path style="fill:#7a7474; stroke:none;" d="M114 72L115 73L114 72z"/>
<path style="fill:#978b8a; stroke:none;" d="M127 72L128 73L127 72z"/>
<path style="fill:#7a7474; stroke:none;" d="M70 73L71 74L70 73z"/>
<path style="fill:#978b8a; stroke:none;" d="M110 73L111 74L110 73z"/>
<path style="fill:#faf9f9; stroke:none;" d="M108 77L115 73L108 77z"/>
<path style="fill:#7a7474; stroke:none;" d="M117 73L116 78L117 78L119 73L117 73M120 73L121 74L120 73z"/>
<path style="fill:#978b8a; stroke:none;" d="M121 73L122 74L121 73z"/>
<path style="fill:#7a7474; stroke:none;" d="M123.333 73.6667L123.667 74.3333L123.333 73.6667z"/>
<path style="fill:#978b8a; stroke:none;" d="M71 74L72 75L71 74z"/>
<path style="fill:#7a7474; stroke:none;" d="M72 74L73 75L72 74z"/>
<path style="fill:#978b8a; stroke:none;" d="M87 74L88 75L87 74z"/>
<path style="fill:#7a7474; stroke:none;" d="M103 74L102 78L103 74M108 74L109 75L108 74z"/>
<path style="fill:#978b8a; stroke:none;" d="M114 74L115 75L114 74z"/>
<path style="fill:#7a7474; stroke:none;" d="M77 75L78 76L77 75M84.3333 75.6667L84.6667 76.3333L84.3333 75.6667M92 75L93 76L92 75M99 75L98 77L99 75M105.333 75.6667L105.667 76.3333L105.333 75.6667M114 75L115 76L114 75M119.667 75.3333L120.333 75.6667L119.667 75.3333M124 75L124 78L125 78L124 75M126 75L127 76L126 75z"/>
<path style="fill:#978b8a; stroke:none;" d="M77 76L78 77L77 76z"/>
<path style="fill:#7a7474; stroke:none;" d="M94 76L95 77L94 76M107 76L108 77L107 76z"/>
<path style="fill:#978b8a; stroke:none;" d="M112 76L113 77L112 76z"/>
<path style="fill:#7a7474; stroke:none;" d="M113 76L114 77L113 76z"/>
<path style="fill:#978b8a; stroke:none;" d="M116 76L117 77L116 76z"/>
<path style="fill:#faf9f9; stroke:none;" d="M119.333 76.6667L119.667 77.3333L119.333 76.6667z"/>
<path style="fill:#978b8a; stroke:none;" d="M120.333 76.6667L120.667 77.3333L120.333 76.6667M126.333 76.6667L126.667 77.3333L126.333 76.6667z"/>
<path style="fill:#7a7474; stroke:none;" d="M106 77L104 78L104 79L106 77M109 77L109 78L112 78L109 77M114 77L115 78L114 77z"/>
<path style="fill:#978b8a; stroke:none;" d="M86 78L87 79L86 78z"/>
<path style="fill:#7a7474; stroke:none;" d="M95 78L96 79L95 78M98 78L99 79L98 78z"/>
<path style="fill:#201d1d; stroke:none;" d="M99 78C95.5536 81.0333 94.3224 83.4042 95 88L96 88L99 78z"/>
<path style="fill:#7a7474; stroke:none;" d="M100.667 78.3333L101.333 78.6667L100.667 78.3333M108 78L109 79L108 78M112.667 78.3333L113.333 78.6667L112.667 78.3333M117 78L118 79L117 78M119 78L120 79L119 78M122 78L123 79L122 78M78 79L79 80L78 79M93 81L96 81L95 79L93 81M96 79L97 80L96 79z"/>
<path style="fill:#9b3c2e; stroke:none;" d="M100 79L101 80L100 79z"/>
<path style="fill:#7a7474; stroke:none;" d="M102 79L103 80L102 79M109 79L110 80L109 79M118 79L119 80L118 79M121 79L122 80L121 79z"/>
<path style="fill:#978b8a; stroke:none;" d="M78 80L79 81L78 80z"/>
<path style="fill:#7a7474; stroke:none;" d="M83 80L84 81L83 80z"/>
<path style="fill:#978b8a; stroke:none;" d="M99 88L98 105C111.043 102.896 121.183 104.355 134 107L134 106L132 103L112 100L112 99L118 100L118 99C113.354 96.9561 106.546 93.2689 111 88L110 85L116 84L116 83L102 85L102 80C97.4981 80.764 94.3625 84.9469 99 88z"/>
<path style="fill:#7a7474; stroke:none;" d="M103.667 80.3333L104.333 80.6667L103.667 80.3333M107 80L111 82L111 81L107 80M112 80L113 81L112 80M120 80L121 81L120 80z"/>
<path style="fill:#978b8a; stroke:none;" d="M79 81L80 82L79 81z"/>
<path style="fill:#7a7474; stroke:none;" d="M97 81L98 82L97 81z"/>
<path style="fill:#faf9f9; stroke:none;" d="M100 81L101 82L100 81z"/>
<path style="fill:#7a7474; stroke:none;" d="M113 81L113 82L116 82L113 81M125.333 81.6667L125.667 82.3333L125.333 81.6667M89 82L90 83L89 82M94.3333 82.6667L94.6667 83.3333L94.3333 82.6667M96 82L97 83L96 82M104 82L105 83L104 82M118.667 82.3333L119.333 82.6667L118.667 82.3333M122 82L122 84L124 84L124 82L122 82z"/>
<path style="fill:#978b8a; stroke:none;" d="M80.3333 83.6667L80.6667 84.3333L80.3333 83.6667M85 83L86 84L85 83z"/>
<path style="fill:#7a7474; stroke:none;" d="M92 83L93 84L92 83z"/>
<path style="fill:#201d1d; stroke:none;" d="M99 83L100 84L99 83z"/>
<path style="fill:#9b3c2e; stroke:none;" d="M100 83L101 84L100 83z"/>
<path style="fill:#7a7474; stroke:none;" d="M105 83L106 84L105 83M116 83L117 84L116 83z"/>
<path style="fill:#9b3c2e; stroke:none;" d="M117 83L118 84L117 83z"/>
<path style="fill:#978b8a; stroke:none;" d="M125.333 83.6667L125.667 84.3333L125.333 83.6667z"/>
<path style="fill:#7a7474; stroke:none;" d="M98 84L98 86L100 86L98 84z"/>
<path style="fill:#9b3c2e; stroke:none;" d="M99 84L100 85L99 84M102 84L103 85L102 84z"/>
<path style="fill:#faf9f9; stroke:none;" d="M110 85L111 88C106.444 91.3405 110.045 95.3199 114.005 97.6335C124.384 103.697 135.527 106.08 146 113C143.892 104.126 136.492 89.6711 126 90L121 85L122 90L118 89L120 85L110 85z"/>
<path style="fill:#978b8a; stroke:none;" d="M119 84L121 87L118 87L122 90L119 84z"/>
<path style="fill:#7a7474; stroke:none;" d="M120 84L121 85L120 84M80 85L81 86L80 85M88 85L89 86L88 85M90 85L91 86L90 85z"/>
<path style="fill:#978b8a; stroke:none;" d="M122 85L123 86L122 85M126 85L127 86L126 85z"/>
<path style="fill:#7a7474; stroke:none;" d="M94 86L95 87L94 86z"/>
<path style="fill:#9b3c2e; stroke:none;" d="M99 86L100 87L99 86z"/>
<path style="fill:#7a7474; stroke:none;" d="M105.667 86.3333L106.333 86.6667L105.667 86.3333M119 86L119 88L121 86L119 86z"/>
<path style="fill:#978b8a; stroke:none;" d="M124 86L125 87L124 86z"/>
<path style="fill:#9b3c2e; stroke:none;" d="M125 86L126 87L125 86z"/>
<path style="fill:#978b8a; stroke:none;" d="M85 87L86 88L85 87z"/>
<path style="fill:#7a7474; stroke:none;" d="M89 87L90 88L89 87M91 87L92 88L91 87M93 87L99 91L97 87L93 87M103 87L104 88L103 87z"/>
<path style="fill:#201d1d; stroke:none;" d="M101 93L102 93L108 88C104.018 86.7389 102.235 89.485 101 93z"/>
<path style="fill:#9b3c2e; stroke:none;" d="M108 87L109 88L108 87z"/>
<path style="fill:#978b8a; stroke:none;" d="M126 87L129 90L126 87z"/>
<path style="fill:#7a7474; stroke:none;" d="M129 87L130 88L129 87z"/>
<path style="fill:#201d1d; stroke:none;" d="M97 88L99 90L99 88L97 88z"/>
<path style="fill:#9b3c2e; stroke:none;" d="M120 88L121 89L120 88z"/>
<path style="fill:#7a7474; stroke:none;" d="M128 88L129 89L128 88z"/>
<path style="fill:#978b8a; stroke:none;" d="M131 88L132 89L131 88z"/>
<path style="fill:#7a7474; stroke:none;" d="M103 89L103 90L106 91L103 89z"/>
<path style="fill:#9b3c2e; stroke:none;" d="M105 89L106 90L105 89z"/>
<path style="fill:#978b8a; stroke:none;" d="M132 89L133 90L132 89M79.3333 90.6667L79.6667 91.3333L79.3333 90.6667z"/>
<path style="fill:#7a7474; stroke:none;" d="M88 90L89 91L88 90M90 90L91 91L90 90z"/>
<path style="fill:#201d1d; stroke:none;" d="M97 90L96 107C97.5748 106.82 99.4156 106.377 101.005 106.603C112.838 108.287 98.4619 122.128 103.644 126.168C105.7 127.771 108.778 125.229 110.557 124.259C119.042 119.636 119.942 113.303 117 105C124.638 105.861 123.541 110.711 124.285 117C125.575 127.891 125.901 155.752 141 153L139 155L139 156L152 165C148.928 160.98 143.937 158.47 145 153L145 152C139.068 149.686 135.735 151.368 132 145C151.516 146.594 164.644 160.842 180 171C169.746 156.454 147.946 143.782 130 143C128.784 133.587 120.848 114.121 127 106L127 105L105 104.089L97.2685 102.667L97 90z"/>
<path style="fill:#7a7474; stroke:none;" d="M101 90L102 91L101 90z"/>
<path style="fill:#201d1d; stroke:none;" d="M104 90L105 91L104 90z"/>
<path style="fill:#7a7474; stroke:none;" d="M131 90L132 91L131 90M133 90L134 91L133 90M93 91L94 92L93 91M95 91L97 93L97 91L95 91z"/>
<path style="fill:#9b3c2e; stroke:none;" d="M104.667 91.3333L105.333 91.6667L104.667 91.3333z"/>
<path style="fill:#7a7474; stroke:none;" d="M132 91L133 92L132 91M79 92L79 95L80 95L79 92z"/>
<path style="fill:#201d1d; stroke:none;" d="M105 92L107 97L108 97L105 92z"/>
<path style="fill:#978b8a; stroke:none;" d="M133 92L134 93L133 92z"/>
<path style="fill:#7a7474; stroke:none;" d="M87 93L88 94L87 93M90 93L91 94L90 93z"/>
<path style="fill:#9b3c2e; stroke:none;" d="M97 93L98 94L97 93z"/>
<path style="fill:#978b8a; stroke:none;" d="M134 93L135 94L134 93z"/>
<path style="fill:#7a7474; stroke:none;" d="M95.3333 94.6667L95.6667 95.3333L95.3333 94.6667M97 94L98 95L97 94M105 94L106 95L105 94z"/>
<path style="fill:#978b8a; stroke:none;" d="M135 94L136 95L135 94z"/>
<path style="fill:#7a7474; stroke:none;" d="M90 95L91 96L90 95M107 95L108 96L107 95z"/>
<path style="fill:#978b8a; stroke:none;" d="M136 95L137 96L136 95z"/>
<path style="fill:#7a7474; stroke:none;" d="M138 95L139 96L138 95M108 96L109 97L108 96z"/>
<path style="fill:#978b8a; stroke:none;" d="M137 96L138 97L137 96z"/>
<path style="fill:#7a7474; stroke:none;" d="M139 96L140 97L139 96M88 97L89 98L88 97M93 97L94 98L93 97z"/>
<path style="fill:#9b3c2e; stroke:none;" d="M108 97L109 98L108 97z"/>
<path style="fill:#201d1d; stroke:none;" d="M109 97L110 98L109 97z"/>
<path style="fill:#7a7474; stroke:none;" d="M138 97L139 98L138 97z"/>
<path style="fill:#978b8a; stroke:none;" d="M140 97L141 98L140 97z"/>
<path style="fill:#201d1d; stroke:none;" d="M110.667 98.3333L111.333 98.6667L110.667 98.3333z"/>
<path style="fill:#7a7474; stroke:none;" d="M139 98L140 99L139 98M86 99L87 100L86 99M94 99L95 100L94 99z"/>
<path style="fill:#9b3c2e; stroke:none;" d="M96 99L96 102L97 102L96 99z"/>
<path style="fill:#201d1d; stroke:none;" d="M112.667 99.3333L113.333 99.6667L112.667 99.3333z"/>
<path style="fill:#7a7474; stroke:none;" d="M114.333 99.6667L114.667 100.333L114.333 99.6667M141 99L142 100L141 99z"/>
<path style="fill:#978b8a; stroke:none;" d="M78 100L78 103L79 103L78 100z"/>
<path style="fill:#7a7474; stroke:none;" d="M89 100L90 101L89 100z"/>
<path style="fill:#201d1d; stroke:none;" d="M115 100L115 101L118 101L115 100z"/>
<path style="fill:#9b3c2e; stroke:none;" d="M118.333 100.667L118.667 101.333L118.333 100.667z"/>
<path style="fill:#7a7474; stroke:none;" d="M119 100L120 101L119 100z"/>
<path style="fill:#978b8a; stroke:none;" d="M120.667 100.333L121.333 100.667L120.667 100.333M140 100L141 101L140 100M142 100L143 101L142 100z"/>
<path style="fill:#7a7474; stroke:none;" d="M117 101L118 102L117 101z"/>
<path style="fill:#201d1d; stroke:none;" d="M119 101L119 102L124 102L119 101z"/>
<path style="fill:#7a7474; stroke:none;" d="M124.333 101.667L124.667 102.333L124.333 101.667z"/>
<path style="fill:#978b8a; stroke:none;" d="M125.667 101.333L126.333 101.667L125.667 101.333z"/>
<path style="fill:#7a7474; stroke:none;" d="M141 101L142 102L141 101M88 102L89 103L88 102M96 102L97 103L96 102z"/>
<path style="fill:#201d1d; stroke:none;" d="M125 102L125 103L128 103L125 102z"/>
<path style="fill:#7a7474; stroke:none;" d="M128 102L129 103L128 102z"/>
<path style="fill:#978b8a; stroke:none;" d="M129 102L130 103L129 102z"/>
<path style="fill:#7a7474; stroke:none;" d="M143 102L144 103L143 102M78.3333 103.667L78.6667 104.333L78.3333 103.667z"/>
<path style="fill:#978b8a; stroke:none;" d="M81 103L81 105L83 105L81 103z"/>
<path style="fill:#9b3c2e; stroke:none;" d="M97 103L98 104L97 103z"/>
<path style="fill:#7a7474; stroke:none;" d="M108 103L108 104L117 104L108 103z"/>
<path style="fill:#9b3c2e; stroke:none;" d="M128 103L129 104L128 103z"/>
<path style="fill:#201d1d; stroke:none;" d="M129.667 103.333L130.333 103.667L129.667 103.333z"/>
<path style="fill:#978b8a; stroke:none;" d="M142 103L143 104L142 103z"/>
<path style="fill:#7a7474; stroke:none;" d="M90 104L91 105L90 104M95 104L95 107L96 107L95 104M97 104L98 105L97 104M99 104L100 105L99 104M101 104L102 105L101 104M123 104L124 105L123 104z"/>
<path style="fill:#9b3c2e; stroke:none;" d="M131 104L132 105L131 104z"/>
<path style="fill:#201d1d; stroke:none;" d="M132 104L132 105L136 107L136 108L128 106L128 107L148 119L148 115L147 115L146 117C142.92 111.064 138.002 106.856 132 104z"/>
<path style="fill:#7a7474; stroke:none;" d="M133 104L134 105L133 104M144 104L145 105L144 104M87 105L88 106L87 105z"/>
<path style="fill:#9b3c2e; stroke:none;" d="M105 105L108 114L109 114L115 107L105 105z"/>
<path style="fill:#7a7474; stroke:none;" d="M114 105L115 106L114 105M120.667 105.333L121.333 105.667L120.667 105.333z"/>
<path style="fill:#9b3c2e; stroke:none;" d="M127 105L128 106L127 105z"/>
<path style="fill:#978b8a; stroke:none;" d="M135 105L136 106L135 105M143 105L144 106L143 105z"/>
<path style="fill:#7a7474; stroke:none;" d="M89 106L90 107L89 106M92 106L93 107L92 106M99.6667 106.333L100.333 106.667L99.6667 106.333M103 106L104 107L103 106M113 106L111 109L113 106M123 106L123 113L124 113L123 106z"/>
<path style="fill:#978b8a; stroke:none;" d="M126 106L127 107L126 106z"/>
<path style="fill:#7a7474; stroke:none;" d="M127 106L128 107L127 106M131 106L132 107L131 106M134.333 106.667L134.667 107.333L134.333 106.667z"/>
<path style="fill:#9b3c2e; stroke:none;" d="M136 106L137 107L136 106z"/>
<path style="fill:#978b8a; stroke:none;" d="M137 106L138 107L137 106M145 106L146 107L145 106z"/>
<path style="fill:#7a7474; stroke:none;" d="M86 107L87 108L86 107M96.6667 107.333L97.3333 107.667L96.6667 107.333M101 107L103 110L101 107z"/>
<path style="fill:#978b8a; stroke:none;" d="M113 107L107 120L112 122L116 118C117.62 112.752 117.989 110.122 113 107z"/>
<path style="fill:#7a7474; stroke:none;" d="M130 107L131 108L130 107z"/>
<path style="fill:#978b8a; stroke:none;" d="M135 107L136 108L135 107M138 107L139 108L138 107z"/>
<path style="fill:#7a7474; stroke:none;" d="M144 107L145 108L144 107M98 108L99 109L98 108M105 108L104 110L106 110L105 108z"/>
<path style="fill:#9b3c2e; stroke:none;" d="M115 108L116 109L115 108z"/>
<path style="fill:#978b8a; stroke:none;" d="M132 108L133 109L132 108z"/>
<path style="fill:#7a7474; stroke:none;" d="M133 108L134 109L133 108M139 108L140 109L139 108M88 109L89 110L88 109M91 109L92 110L91 109M135 109L136 110L135 109M140 109L141 110L140 109z"/>
<path style="fill:#978b8a; stroke:none;" d="M141 109L147 116L141 109z"/>
<path style="fill:#7a7474; stroke:none;" d="M146 109L147 110L146 109M93 110L89 111L89 112L93 110M109.333 110.667L109.667 111.333L109.333 110.667M119 110L120 111L119 110z"/>
<path style="fill:#978b8a; stroke:none;" d="M125 110L125 114L126 114L125 110z"/>
<path style="fill:#7a7474; stroke:none;" d="M137 110L138 111L137 110z"/>
<path style="fill:#9b3c2e; stroke:none;" d="M141 110L142 111L141 110z"/>
<path style="fill:#978b8a; stroke:none;" d="M145 110L146 111L145 110z"/>
<path style="fill:#7a7474; stroke:none;" d="M87 111L88 112L87 111M96 111L97 112L96 111M99 111L100 112L99 111M103 111L104 112L103 111M120 111L121 112L120 111M142 111L143 112L142 111z"/>
<path style="fill:#978b8a; stroke:none;" d="M82.6667 112.333L83.3333 112.667L82.6667 112.333M140 112L141 113L140 112z"/>
<path style="fill:#7a7474; stroke:none;" d="M143 112L144 113L143 112z"/>
<path style="fill:#978b8a; stroke:none;" d="M147 112L148 113L147 112z"/>
<path style="fill:#9b3c2e; stroke:none;" d="M146 113L147 114L146 113z"/>
<path style="fill:#7a7474; stroke:none;" d="M147 113L146 115L148 115L147 113M89 114L89 116L91 114L89 114M96 114L97 115L96 114M99 114L100 115L99 114M103 114L104 115L103 114M108 114L109 115L108 114z"/>
<path style="fill:#9b3c2e; stroke:none;" d="M117 114L118 115L117 114z"/>
<path style="fill:#7a7474; stroke:none;" d="M119 114L120 115L119 114M125.333 114.667L125.667 115.333L125.333 114.667M92 115L91 117L92 115M105 115L106 116L105 115M116.333 115.667L116.667 116.333L116.333 115.667z"/>
<path style="fill:#9b3c2e; stroke:none;" d="M145 115L146 116L145 115z"/>
<path style="fill:#7a7474; stroke:none;" d="M94 116L95 117L94 116z"/>
<path style="fill:#9b3c2e; stroke:none;" d="M107.333 116.667L107.667 117.333L107.333 116.667z"/>
<path style="fill:#7a7474; stroke:none;" d="M118 116L119 117L118 116M146 116L147 117L146 116M104 117L105 118L104 117z"/>
<path style="fill:#978b8a; stroke:none;" d="M145 117L146 118L145 117z"/>
<path style="fill:#7a7474; stroke:none;" d="M87.6667 118.333L88.3333 118.667L87.6667 118.333M107 118L108 119L107 118M117 118L118 119L117 118M120 118L121 119L120 118M124 118L124 123L125 123L124 118M146 118L147 119L146 118M90 119L91 120L90 119M96 119L97 120L96 119M103 119L104 120L103 119z"/>
<path style="fill:#9b3c2e; stroke:none;" d="M106 119L104 126L110 119L107 121L106 119z"/>
<path style="fill:#7a7474; stroke:none;" d="M110 119L111 120L110 119M113 119L114 120L113 119M115.667 119.333L116.333 119.667L115.667 119.333M147 119L148 120L147 119M101 120L102 121L101 120M107 120L108 121L107 120z"/>
<path style="fill:#9b3c2e; stroke:none;" d="M112 121L113 122L112 121z"/>
<path style="fill:#978b8a; stroke:none;" d="M126 121L127 122L126 121z"/>
<path style="fill:#7a7474; stroke:none;" d="M94 122L93 124L94 122M102 122L103 123L102 122M126.333 122.667L126.667 123.333L126.333 122.667z"/>
<path style="fill:#978b8a; stroke:none;" d="M82 123L83 124L82 123z"/>
<path style="fill:#7a7474; stroke:none;" d="M101 123L102 124L101 123M110 123L111 124L110 123z"/>
<path style="fill:#978b8a; stroke:none;" d="M84 124L85 125L84 124z"/>
<path style="fill:#7a7474; stroke:none;" d="M87 124L88 125L87 124M98 124L99 125L98 124M95 125L96 126L95 125M100 125L99 127L100 125M108 125L109 126L108 125M111.333 125.667L111.667 126.333L111.333 125.667M78 126L78 130L79 130L78 126z"/>
<path style="fill:#978b8a; stroke:none;" d="M82 126L83 127L82 126z"/>
<path style="fill:#7a7474; stroke:none;" d="M102 126L103 127L102 126M109 126L110 127L109 126M123 126L124 127L123 126M125 126L125 131L126 131L125 126M97 127L94 129L94 130L97 131L97 130L95 129L98 128L97 127M103 127L104 128L103 127M105 127L106 128L105 127z"/>
<path style="fill:#978b8a; stroke:none;" d="M127.333 127.667L127.667 128.333L127.333 127.667M48.6667 128.333L49.3333 128.667L48.6667 128.333z"/>
<path style="fill:#7a7474; stroke:none;" d="M91 128L92 129L91 128M101 128L101 130L103 130L103 128L101 128M108 128L109 129L108 128z"/>
<path style="fill:#978b8a; stroke:none;" d="M44 129L45 130L44 129z"/>
<path style="fill:#201d1d; stroke:none;" d="M37 143L30 144L30 145L38 143L27 147L27 146L29 146L29 145C17.2486 147.791 9.14855 152.215 15 164L16 164L21 163L22 163C21.1135 158.863 7.96001 159.154 15 153L14 157L15 157C20.8195 149.585 31.3087 147.466 40 145L45 148L45 149L26 155L26 156L50 147L50 146L47 147L48 145L47 145L42 147L38 141C39.4851 133.641 44.7706 130.175 52 130C42.838 126.193 37.1898 134.928 37 143z"/>
<path style="fill:#9b3c2e; stroke:none;" d="M52 129L53 130L52 129z"/>
<path style="fill:#978b8a; stroke:none;" d="M53 129L53 132L54 132L53 129z"/>
<path style="fill:#7a7474; stroke:none;" d="M88 129L89 130L88 129M127 129L128 130L127 129M42 130L43 131L42 130M45 130L47 132L45 130z"/>
<path style="fill:#978b8a; stroke:none;" d="M46 130L46 131L52 134L51 130L46 130z"/>
<path style="fill:#faf9f9; stroke:none;" d="M47.6667 130.333L48.3333 130.667L47.6667 130.333M51.6667 130.333L52.3333 130.667L51.6667 130.333z"/>
<path style="fill:#7a7474; stroke:none;" d="M54 130L55 131L54 130z"/>
<path style="fill:#978b8a; stroke:none;" d="M55 130L56 131L55 130z"/>
<path style="fill:#7a7474; stroke:none;" d="M86 130L87 131L86 130M92 130L93 131L92 130M99 130L100 131L99 130M104 130L105 131L104 130M109 130L110 131L109 130M119 130L120 131L119 130M43 131L41 136L43 131z"/>
<path style="fill:#faf9f9; stroke:none;" d="M44 131L45 132L44 131z"/>
<path style="fill:#978b8a; stroke:none;" d="M45.3333 131.667L45.6667 132.333L45.3333 131.667z"/>
<path style="fill:#7a7474; stroke:none;" d="M50 131L51 133L52 133L53 131L50 131M56 131L57 132L56 131M90 131L92 133L90 131M112 131L113 132L112 131z"/>
<path style="fill:#978b8a; stroke:none;" d="M42.6667 132.333L43.3333 132.667L42.6667 132.333M54 132L55 133L54 132M57 132L58 133L57 132M69 132L70 133L69 132z"/>
<path style="fill:#7a7474; stroke:none;" d="M88.3333 132.667L88.6667 133.333L88.3333 132.667M93 134L96 133L93 134M103 132L104 133L103 132M105 132L106 133L105 132M121.333 132.667L121.667 133.333L121.333 132.667M126 132L126 136L127 136L126 132z"/>
<path style="fill:#faf9f9; stroke:none;" d="M41 133L42 134L41 133z"/>
<path style="fill:#978b8a; stroke:none;" d="M56 133L55 137C57.9499 136.017 58.6217 135.513 58 138L61 135L56 133z"/>
<path style="fill:#7a7474; stroke:none;" d="M58 133L59 134L58 133z"/>
<path style="fill:#978b8a; stroke:none;" d="M70 133L71 134L70 133z"/>
<path style="fill:#7a7474; stroke:none;" d="M98 133L99 134L98 133M100 133L101 134L100 133M108 133L109 134L108 133z"/>
<path style="fill:#978b8a; stroke:none;" d="M128 133L129 134L128 133z"/>
<path style="fill:#7a7474; stroke:none;" d="M38 134L39 135L38 134z"/>
<path style="fill:#978b8a; stroke:none;" d="M40 134L40 136L42 134L40 134z"/>
<path style="fill:#7a7474; stroke:none;" d="M56 134L57 135L56 134M59 134L60 135L59 134z"/>
<path style="fill:#978b8a; stroke:none;" d="M68 134L69 135L68 134z"/>
<path style="fill:#7a7474; stroke:none;" d="M69 134L70 135L69 134z"/>
<path style="fill:#978b8a; stroke:none;" d="M81 134L82 135L81 134z"/>
<path style="fill:#7a7474; stroke:none;" d="M110 134L111 135L110 134M115 134L116 135L115 134M128 134L129 135L128 134M39 135L40 136L39 135z"/>
<path style="fill:#9b3c2e; stroke:none;" d="M59 135L60 136L59 135z"/>
<path style="fill:#978b8a; stroke:none;" d="M67 135L68 136L67 135z"/>
<path style="fill:#7a7474; stroke:none;" d="M90 135L91 136L90 135M123.333 135.667L123.667 136.333L123.333 135.667M37 136L38 137L37 136z"/>
<path style="fill:#faf9f9; stroke:none;" d="M39 136L40 137L39 136z"/>
<path style="fill:#9b3c2e; stroke:none;" d="M40 136L41 137L40 136z"/>
<path style="fill:#7a7474; stroke:none;" d="M58 136L59 137L58 136M60 136L61 137L60 136M67 136L68 137L67 136M87 136L88 137L87 136M99 136L100 137L99 136M115 136L116 137L115 136M120 136L121 137L120 136M38 137L38 138L38 139L41 138L41 137L38 137z"/>
<path style="fill:#978b8a; stroke:none;" d="M39 137L40 138L39 137M50 137L49 142L50 137M67 137L68 138L67 137z"/>
<path style="fill:#7a7474; stroke:none;" d="M92 137L93 138L92 137M111 137L112 138L111 137M117 137L119 139L117 137M125 137L126 138L125 137M127 137L127 148L130 150L131 150L127 137z"/>
<path style="fill:#978b8a; stroke:none;" d="M40 138L43 144L40 138z"/>
<path style="fill:#7a7474; stroke:none;" d="M59 138L59 141L60 141L59 138z"/>
<path style="fill:#978b8a; stroke:none;" d="M65 138L66 139L65 138M71 138L72 139L71 138M75 138L74 140L75 138M79 138L80 139L79 138z"/>
<path style="fill:#7a7474; stroke:none;" d="M102 138L103 139L102 138z"/>
<path style="fill:#978b8a; stroke:none;" d="M129 138L130 139L129 138M38.3333 139.667L38.6667 140.333L38.3333 139.667z"/>
<path style="fill:#9b3c2e; stroke:none;" d="M39 139L40 140L39 139z"/>
<path style="fill:#7a7474; stroke:none;" d="M63 139L64 140L63 139z"/>
<path style="fill:#978b8a; stroke:none;" d="M69 139L70 140L69 139z"/>
<path style="fill:#7a7474; stroke:none;" d="M129 139L130 140L129 139z"/>
<path style="fill:#978b8a; stroke:none;" d="M46 140L48 142L48 140L46 140M56 140L57 141L56 140M61 140L62 141L61 140M68 140L69 141L68 140M76 142L79 141L76 142z"/>
<path style="fill:#7a7474; stroke:none;" d="M89 140L89 141L92 142L89 140M113 140L114 141L113 140M123 140L124 141L123 140M125 140L126 141L125 140M48 141L49 142L48 141z"/>
<path style="fill:#201d1d; stroke:none;" d="M50.6667 141.333L51.3333 141.667L50.6667 141.333z"/>
<path style="fill:#7a7474; stroke:none;" d="M52 141L53 142L52 141z"/>
<path style="fill:#978b8a; stroke:none;" d="M53 141L54 144L55 144L53 141z"/>
<path style="fill:#7a7474; stroke:none;" d="M54.6667 141.333L55.3333 141.667L54.6667 141.333z"/>
<path style="fill:#978b8a; stroke:none;" d="M71.6667 141.333L72.3333 141.667L71.6667 141.333M74 141L65 148L62 147L63 150L57 160C71.0821 161.789 83.3667 167.178 83 183C93.1849 174.755 95.8458 148.786 79 146L80 144L75 144L74 141z"/>
<path style="fill:#7a7474; stroke:none;" d="M96.3333 141.667L96.6667 142.333L96.3333 141.667M102 141L104 143L102 141z"/>
<path style="fill:#978b8a; stroke:none;" d="M35 142L36 143L35 142z"/>
<path style="fill:#7a7474; stroke:none;" d="M36 142L37 143L36 142M40 142L41 143L40 142M50 142L51 143L50 142z"/>
<path style="fill:#978b8a; stroke:none;" d="M51 142L52 143L51 142z"/>
<path style="fill:#faf9f9; stroke:none;" d="M52 142L53 143L52 142z"/>
<path style="fill:#978b8a; stroke:none;" d="M64.3333 142.667L64.6667 143.333L64.3333 142.667z"/>
<path style="fill:#7a7474; stroke:none;" d="M122 142L125 144L125 143L122 142M130 142L131 143L130 142z"/>
<path style="fill:#978b8a; stroke:none;" d="M131 142L132 143L131 142M5 143L5 179L6 179C6 168.613 9.01138 152.56 5 143M31.6667 143.333L32.3333 143.667L31.6667 143.333z"/>
<path style="fill:#7a7474; stroke:none;" d="M37 143L38 144L37 143z"/>
<path style="fill:#978b8a; stroke:none;" d="M58 143L59 144L58 143M61.6667 143.333L62.3333 143.667L61.6667 143.333z"/>
<path style="fill:#201d1d; stroke:none;" d="M80 143L81 144L80 143z"/>
<path style="fill:#7a7474; stroke:none;" d="M135 143L136 144L135 143z"/>
<path style="fill:#978b8a; stroke:none;" d="M136 143L137 144L136 143M28 144L29 145L28 144z"/>
<path style="fill:#7a7474; stroke:none;" d="M29.3333 144.667L29.6667 145.333L29.3333 144.667M33.3333 144.667L33.6667 145.333L33.3333 144.667z"/>
<path style="fill:#978b8a; stroke:none;" d="M34 144L35 145L34 144z"/>
<path style="fill:#faf9f9; stroke:none;" d="M35 144L36 145L35 144z"/>
<path style="fill:#978b8a; stroke:none;" d="M36.6667 144.333L37.3333 144.667L36.6667 144.333M47 144L48 145L47 144z"/>
<path style="fill:#7a7474; stroke:none;" d="M48 144L48 147L50 146L50 145L48 144M51.6667 144.333L52.3333 144.667L51.6667 144.333z"/>
<path style="fill:#978b8a; stroke:none;" d="M83 144L85 146L83 144M92 144L93 145L92 144z"/>
<path style="fill:#7a7474; stroke:none;" d="M139 144L140 145L139 144z"/>
<path style="fill:#978b8a; stroke:none;" d="M140 144L141 145L140 144M25 145L26 146L25 145z"/>
<path style="fill:#7a7474; stroke:none;" d="M26 145L27 146L26 145z"/>
<path style="fill:#978b8a; stroke:none;" d="M30 145L31 146L30 145z"/>
<path style="fill:#faf9f9; stroke:none;" d="M31 145L32 146L31 145z"/>
<path style="fill:#978b8a; stroke:none;" d="M32 145L33 146L32 145z"/>
<path style="fill:#7a7474; stroke:none;" d="M38.6667 145.333L39.3333 145.667L38.6667 145.333M41 145L42 146L41 145z"/>
<path style="fill:#978b8a; stroke:none;" d="M45 145L46 146L45 145z"/>
<path style="fill:#faf9f9; stroke:none;" d="M51 145L37 153L37 154C44.1043 153.813 48.6892 150.636 53 145L51 145z"/>
<path style="fill:#7a7474; stroke:none;" d="M76 145L75 148L76 145z"/>
<path style="fill:#978b8a; stroke:none;" d="M81 145L82 146L81 145z"/>
<path style="fill:#7a7474; stroke:none;" d="M123 145L122 146L126 147L126 146L123 145z"/>
<path style="fill:#978b8a; stroke:none;" d="M132 145L135 151L145 151C142.148 164.286 163.375 165.086 167 176L170 179L172 178L172 183L176 182C175.616 186.374 176.397 189.203 181 190L181 191L179 194L188 192L188 191L186 191L186 190L191 190L188 187C188.253 181.085 183.972 176.36 179.999 172.285C171.207 163.27 153.721 146.307 140 148L132 145z"/>
<path style="fill:#7a7474; stroke:none;" d="M135.667 145.333L136.333 145.667L135.667 145.333z"/>
<path style="fill:#978b8a; stroke:none;" d="M143 145L144 146L143 145M23 146L24 147L23 146M27 146L27 147L30 147L27 146z"/>
<path style="fill:#7a7474; stroke:none;" d="M34 146L35 147L34 146z"/>
<path style="fill:#978b8a; stroke:none;" d="M35 146L36 147L35 146z"/>
<path style="fill:#faf9f9; stroke:none;" d="M16 156L44 149C36.2845 143.521 21.6756 149.38 16 156z"/>
<path style="fill:#978b8a; stroke:none;" d="M42.6667 146.333L43.3333 146.667L42.6667 146.333M47 146L48 147L47 146M50 146L51 147L50 146M52 146L53 147L52 146M55 146L56 147L55 146M61 146L60 148L61 146M88 146L89 147L88 146z"/>
<path style="fill:#7a7474; stroke:none;" d="M106 146L107 147L106 146M132 146L133 147L132 146M140.333 146.667L140.667 147.333L140.333 146.667M145 146L146 147L145 146M21 147L22 148L21 147M24.3333 147.667L24.6667 148.333L24.3333 147.667z"/>
<path style="fill:#978b8a; stroke:none;" d="M25.6667 147.333L26.3333 147.667L25.6667 147.333z"/>
<path style="fill:#7a7474; stroke:none;" d="M31 147L32 148L31 147z"/>
<path style="fill:#978b8a; stroke:none;" d="M32 147L33 148L32 147M45.6667 147.333L46.3333 147.667L45.6667 147.333z"/>
<path style="fill:#7a7474; stroke:none;" d="M51 147L52 148L51 147M54 147L55 148L54 147M67 148L67 149L72 150L71 147L67 148M78 147L77 149L78 147z"/>
<path style="fill:#201d1d; stroke:none;" d="M85 147L87 149L85 147z"/>
<path style="fill:#978b8a; stroke:none;" d="M93 147L89 149L89 150L94 150L93 147z"/>
<path style="fill:#7a7474; stroke:none;" d="M108 147L109 148L108 147M116 147L117 148L116 147M136 147L135 149L136 147M138 147L139 148L138 147M143 147L144 148L143 147z"/>
<path style="fill:#978b8a; stroke:none;" d="M148 147L149 148L148 147z"/>
<path style="fill:#7a7474; stroke:none;" d="M19 148L20 149L19 148z"/>
<path style="fill:#978b8a; stroke:none;" d="M22.6667 148.333L23.3333 148.667L22.6667 148.333z"/>
<path style="fill:#7a7474; stroke:none;" d="M28 148L29 149L28 148z"/>
<path style="fill:#978b8a; stroke:none;" d="M29 148L30 149L29 148M44 148L45 149L44 148M47 148L48 149L47 148z"/>
<path style="fill:#7a7474; stroke:none;" d="M81.3333 148.667L81.6667 149.333L81.3333 148.667M145 148L146 149L145 148z"/>
<path style="fill:#978b8a; stroke:none;" d="M150 148L151 149L150 148z"/>
<path style="fill:#7a7474; stroke:none;" d="M17 149L18 150L17 149z"/>
<path style="fill:#978b8a; stroke:none;" d="M20.6667 149.333L21.3333 149.667L20.6667 149.333z"/>
<path style="fill:#7a7474; stroke:none;" d="M25 149L26 150L25 149z"/>
<path style="fill:#978b8a; stroke:none;" d="M26 149L27 150L26 149M42 149L43 150L42 149z"/>
<path style="fill:#7a7474; stroke:none;" d="M45 149L46 150L45 149z"/>
<path style="fill:#978b8a; stroke:none;" d="M48 149L49 150L48 149z"/>
<path style="fill:#7a7474; stroke:none;" d="M65 149L67 151L65 149z"/>
<path style="fill:#201d1d; stroke:none;" d="M87 149L89 152L87 149z"/>
<path style="fill:#978b8a; stroke:none;" d="M96 149L97 150L96 149z"/>
<path style="fill:#7a7474; stroke:none;" d="M104 149L105 150L104 149M114 149L117 151L117 150L114 149M134 149L135 150L134 149M137 149L138 150L137 149M148 149L149 150L148 149z"/>
<path style="fill:#978b8a; stroke:none;" d="M152 149L153 150L152 149M15 150L16 151L15 150M18.6667 150.333L19.3333 150.667L18.6667 150.333z"/>
<path style="fill:#7a7474; stroke:none;" d="M23 150L24 151L23 150z"/>
<path style="fill:#978b8a; stroke:none;" d="M40 150L41 151L40 150z"/>
<path style="fill:#7a7474; stroke:none;" d="M43 150L44 151L43 150z"/>
<path style="fill:#978b8a; stroke:none;" d="M44 150L45 151L44 150M47 150L48 151L47 150z"/>
<path style="fill:#7a7474; stroke:none;" d="M51 150L46 156L33 154L27 158L27 159L37 160L43 155L41 159L51 161L51 160L50 156L51 159L52 159L51 150z"/>
<path style="fill:#978b8a; stroke:none;" d="M55 150L56 151L55 150z"/>
<path style="fill:#7a7474; stroke:none;" d="M74 150L71 156L72 156L76 154L75 151L78 152L74 150M108 150L108 151L112 152L112 151L108 150M124 150L124 151L127 152L124 150M129 150L130 151L129 150M131.333 150.667L131.667 151.333L131.333 150.667M136 150L139 152L139 151L136 150M139 150L139 151L142 151L139 150M143 150L144 151L143 150M145 150L146 151L145 150M150 150L151 151L150 150z"/>
<path style="fill:#978b8a; stroke:none;" d="M154 150L155 151L154 150M16.6667 151.333L17.3333 151.667L16.6667 151.333M21 151L22 152L21 151M37 151L38 152L37 151z"/>
<path style="fill:#7a7474; stroke:none;" d="M38 151L39 152L38 151M41 151L42 152L41 151z"/>
<path style="fill:#978b8a; stroke:none;" d="M46 151L47 152L46 151z"/>
<path style="fill:#7a7474; stroke:none;" d="M62 151L63 152L62 151z"/>
<path style="fill:#978b8a; stroke:none;" d="M90 151L91 152L90 151z"/>
<path style="fill:#7a7474; stroke:none;" d="M113 151L112 155L113 160L115 162L123 164L126 160C129.202 160.465 131.732 160.178 133 157L132 157L131 159L131 157L127 160L128 157L125 157L122 161L119 158L119 155L121 156L123 154L123 153L115 158L113 151M144 151L145 152L144 151M152 151L153 152L152 151z"/>
<path style="fill:#978b8a; stroke:none;" d="M15 152L16 153L15 152M19 152L20 153L19 152z"/>
<path style="fill:#7a7474; stroke:none;" d="M35 152L36 153L35 152z"/>
<path style="fill:#978b8a; stroke:none;" d="M39 152L40 153L39 152M45 152L46 153L45 152M54 152L58 157L54 152z"/>
<path style="fill:#7a7474; stroke:none;" d="M64.6667 152.333L65.3333 152.667L64.6667 152.333z"/>
<path style="fill:#201d1d; stroke:none;" d="M98 152L97 154L99 154L98 152z"/>
<path style="fill:#7a7474; stroke:none;" d="M124 152L125 153L124 152M130 152L131 153L130 152M146.667 152.333L147.333 152.667L146.667 152.333M154 152L155 153L154 152M157 152L158 153L157 152M206 152L206 195L207 195C207 182.781 210.71 163.226 206 152M13 153L14 154L13 153z"/>
<path style="fill:#978b8a; stroke:none;" d="M14 153L15 154L14 153M17 153L18 154L17 153M31 153L32 154L31 153z"/>
<path style="fill:#7a7474; stroke:none;" d="M32 153L33 154L32 153M36 153L37 154L36 153z"/>
<path style="fill:#978b8a; stroke:none;" d="M42 153L43 154L42 153M44 153L45 154L44 153M58 153L59 154L58 153z"/>
<path style="fill:#7a7474; stroke:none;" d="M61 153L62 154L61 153M68 153L67 158L68 158L68 153z"/>
<path style="fill:#978b8a; stroke:none;" d="M91 153L92 154L91 153z"/>
<path style="fill:#201d1d; stroke:none;" d="M100 153L100 157L101 157L100 153z"/>
<path style="fill:#7a7474; stroke:none;" d="M104 153L103 155L104 153M108 153L109 154L108 153M110 153L111 154L110 153M117 153L118 154L117 153M138 156L141 153L138 156M153 153L152 155L153 153M155.667 153.333L156.333 153.667L155.667 153.333z"/>
<path style="fill:#978b8a; stroke:none;" d="M159 153L160 154L159 153M11 154L12 155L11 154M13.3333 154.667L13.6667 155.333L13.3333 154.667M16 154L17 155L16 154M27.6667 154.333L28.3333 154.667L27.6667 154.333z"/>
<path style="fill:#7a7474; stroke:none;" d="M29 154L30 155L29 154z"/>
<path style="fill:#978b8a; stroke:none;" d="M34 154L35 155L34 154z"/>
<path style="fill:#faf9f9; stroke:none;" d="M35 154L36 155L35 154z"/>
<path style="fill:#978b8a; stroke:none;" d="M36.6667 154.333L37.3333 154.667L36.6667 154.333z"/>
<path style="fill:#9b3c2e; stroke:none;" d="M45 154L46 155L45 154z"/>
<path style="fill:#7a7474; stroke:none;" d="M65 154L64 156L65 154M77 154L74 157L78 155L77 154M81 154L80 155L80 156L81 157L82 157L83 156L83 155L81 154z"/>
<path style="fill:#978b8a; stroke:none;" d="M92 154L93 155L92 154z"/>
<path style="fill:#7a7474; stroke:none;" d="M105 154L106 155L105 154M126 154L123 158L124 158L127 155L126 154M128 154L128 155L132 156L132 155L128 154M133 154L134 156L135 156L136 154L133 154M143.333 154.667L143.667 155.333L143.333 154.667z"/>
<path style="fill:#978b8a; stroke:none;" d="M15 155L16 156L15 155M23 155L24 156L23 155z"/>
<path style="fill:#7a7474; stroke:none;" d="M24 155L27 157L24 155z"/>
<path style="fill:#978b8a; stroke:none;" d="M30 157L34 156L30 157M38 159L43 155L38 159M45 155L46 156L45 155z"/>
<path style="fill:#9b3c2e; stroke:none;" d="M47 155L46 159L47 155z"/>
<path style="fill:#978b8a; stroke:none;" d="M81 155L82 156L81 155z"/>
<path style="fill:#201d1d; stroke:none;" d="M105 155L103 160L108 158L105 155z"/>
<path style="fill:#7a7474; stroke:none;" d="M107.333 155.667L107.667 156.333L107.333 155.667M136 155L138 157L136 155M150 155L151 156L150 155M157 155L158 156L157 155M159 155L160 156L159 155z"/>
<path style="fill:#978b8a; stroke:none;" d="M162 155L163 156L162 155M10.3333 156.667L10.6667 157.333L10.3333 156.667z"/>
<path style="fill:#7a7474; stroke:none;" d="M12 156L13 157L12 156z"/>
<path style="fill:#faf9f9; stroke:none;" d="M13 156C16.7474 162.414 24.3746 159.097 30 157L30 156C24.0991 157.144 18.5561 159.089 13 156z"/>
<path style="fill:#7a7474; stroke:none;" d="M15 158L21 158C18.6637 156.414 16.9919 155.803 15 158z"/>
<path style="fill:#201d1d; stroke:none;" d="M19 156L19 157L25 157L19 156z"/>
<path style="fill:#978b8a; stroke:none;" d="M27 156L28 157L27 156z"/>
<path style="fill:#9b3c2e; stroke:none;" d="M36 156L37 157L36 156z"/>
<path style="fill:#201d1d; stroke:none;" d="M44 156L45 157L44 156z"/>
<path style="fill:#978b8a; stroke:none;" d="M50 156C49.1456 158.697 49.1492 159.386 52 160L50 156z"/>
<path style="fill:#7a7474; stroke:none;" d="M69 156L69 158L71 158L69 156M88 156L89 157L88 156z"/>
<path style="fill:#978b8a; stroke:none;" d="M94 156L95 157L94 156z"/>
<path style="fill:#7a7474; stroke:none;" d="M104 156L105 157L104 156M153 156L154 157L153 156z"/>
<path style="fill:#978b8a; stroke:none;" d="M14 157L15 158L14 157z"/>
<path style="fill:#201d1d; stroke:none;" d="M17 157L18 158L17 157z"/>
<path style="fill:#978b8a; stroke:none;" d="M21.6667 157.333L22.3333 157.667L21.6667 157.333M28 157L29 158L28 157z"/>
<path style="fill:#201d1d; stroke:none;" d="M34 157L35 158L34 157M36 157L37 158L36 157z"/>
<path style="fill:#978b8a; stroke:none;" d="M45 157L46 158L45 157M54 157L54 160L56 160L56 157L54 157z"/>
<path style="fill:#7a7474; stroke:none;" d="M60 157L61 158L60 157M78 157L79 158L78 157M83.3333 157.667L83.6667 158.333L83.3333 157.667M90 157L91 158L90 157z"/>
<path style="fill:#201d1d; stroke:none;" d="M101 157L103 159L101 157z"/>
<path style="fill:#7a7474; stroke:none;" d="M110.667 157.333L111.333 157.667L110.667 157.333M134 157L135 158L134 157M144 157L145 158L144 157M151 157L152 158L151 157M156 157L157 158L156 157M160 157L161 158L160 157M162 157L163 158L162 157z"/>
<path style="fill:#978b8a; stroke:none;" d="M165 157L166 158L165 157M13 158L14 159L13 158M26 158L27 159L26 158M44 158L45 159L44 158z"/>
<path style="fill:#7a7474; stroke:none;" d="M74 158L75 159L74 158M88 158L89 159L88 158z"/>
<path style="fill:#978b8a; stroke:none;" d="M94 160L97 159L94 160z"/>
<path style="fill:#201d1d; stroke:none;" d="M108 158L108 159L111 162L112 162L112 158L108 158z"/>
<path style="fill:#7a7474; stroke:none;" d="M137 158L139 160L137 158M142 158L143 159L142 158M166 158L167 159L166 158z"/>
<path style="fill:#978b8a; stroke:none;" d="M14.6667 159.333L15.3333 159.667L14.6667 159.333M22.6667 159.333L23.3333 159.667L22.6667 159.333z"/>
<path style="fill:#7a7474; stroke:none;" d="M24 159L25 162L22 160L20 163L20 164L21 168L24 167C18.0443 174.649 7.1908 174.457 6 186L7 186C7.97317 180.161 18.0593 169.265 25 171C27.5856 171.646 32.6192 176.155 28 175L29 178L28 178L24 172C25.5962 176.144 26.3887 184.244 29.5887 187.258C34.5787 191.957 49.6705 189.289 52.2539 182.906C54.3077 177.831 51.1415 169.213 50 164L52 165L46 163C48.6506 177.458 26.1416 177.013 33 162L26 165L28 161L24 159z"/>
<path style="fill:#201d1d; stroke:none;" d="M25 159L25 160L31 160L25 159z"/>
<path style="fill:#978b8a; stroke:none;" d="M35 159L36 160L35 159z"/>
<path style="fill:#201d1d; stroke:none;" d="M37.0039 159.758C27.0865 163.286 31.2152 177.742 40.9846 173.975C50.0964 170.462 46.5488 156.362 37.0039 159.758z"/>
<path style="fill:#7a7474; stroke:none;" d="M64 159L65 160L64 159M80.6667 159.333L81.3333 159.667L80.6667 159.333M134.333 159.667L134.667 160.333L134.333 159.667M143 159L144 160L143 159M146 159L149 161L146 159M162 159L163 160L162 159M165 159L166 160L165 159z"/>
<path style="fill:#978b8a; stroke:none;" d="M168 159L169 160L168 159z"/>
<path style="fill:#201d1d; stroke:none;" d="M23 160L25 162L25 160L23 160z"/>
<path style="fill:#978b8a; stroke:none;" d="M26 165L33 161C29.0224 160.081 27.5464 161.309 26 165z"/>
<path style="fill:#9b3c2e; stroke:none;" d="M34 160L35 161L34 160M48 160L45 162C47.0485 162.242 48.8684 162.316 48 160z"/>
<path style="fill:#7a7474; stroke:none;" d="M58 160L58 161L61 161L58 160M74 160L75 161L74 160M78 160L77 162L78 160z"/>
<path style="fill:#978b8a; stroke:none;" d="M103 160L104 161L103 160M105 160L105 163L106 163L105 160z"/>
<path style="fill:#7a7474; stroke:none;" d="M156 160L155 163L156 160M158 160L158 161L161 161L161 160L158 160M166 160L167 161L166 160z"/>
<path style="fill:#978b8a; stroke:none;" d="M169 160L170 161L169 160z"/>
<path style="fill:#7a7474; stroke:none;" d="M14 161L15 162L14 161z"/>
<path style="fill:#978b8a; stroke:none;" d="M18 161L19 162L18 161z"/>
<path style="fill:#faf9f9; stroke:none;" d="M19 161C16.8432 164.21 17.2119 166.67 21 168L19 161z"/>
<path style="fill:#7a7474; stroke:none;" d="M20 161L21 162L20 161z"/>
<path style="fill:#9b3c2e; stroke:none;" d="M33 161L34 162L33 161z"/>
<path style="fill:#7a7474; stroke:none;" d="M36 161L36 164L37 164L36 161z"/>
<path style="fill:#9b3c2e; stroke:none;" d="M38 165C40.6374 167.333 40.9856 168.623 40 172C49.0918 167.229 40.5038 157.534 38 165z"/>
<path style="fill:#7a7474; stroke:none;" d="M64 161L64 162L67 162L64 161M70 161L71 162L70 161M82.6667 161.333L83.3333 161.667L82.6667 161.333z"/>
<path style="fill:#978b8a; stroke:none;" d="M95 161L96 162L95 161M100 161L101 162L100 161z"/>
<path style="fill:#7a7474; stroke:none;" d="M129 161L130 162L129 161M132 161L133 162L132 161M138 161L139 162L138 161M142 161L143 162L142 161M146 161L147 162L146 161M170 161L171 162L170 161z"/>
<path style="fill:#978b8a; stroke:none;" d="M14 162L15 163L14 162z"/>
<path style="fill:#7a7474; stroke:none;" d="M16 162L17 163L16 162z"/>
<path style="fill:#978b8a; stroke:none;" d="M20 162L21 163L20 162M35 162L33 171L40 169L35 162z"/>
<path style="fill:#7a7474; stroke:none;" d="M68 162L69 163L68 162M90 162L91 170L92 170L90 162z"/>
<path style="fill:#978b8a; stroke:none;" d="M101 162L101 170L100 178L108 175L107 178L109 176L110 176L111 179L115 176L120 179L117 191L116 191C112.27 186.732 97.6085 189.001 92 189L96 193L95 190L100 190L100 191L97 191C100.893 197.005 116.804 194.614 122 191L121 194L125 189L126 189L127 193L124 193L124 194L133 192L141.981 193.958L170 194L167 187L160 173L153 170L153 173L140 173C137.038 175.231 131.806 175.565 129 173L113 172L110 170L107 163L106 167L101 162z"/>
<path style="fill:#201d1d; stroke:none;" d="M112 162L112 165L113 165L112 162z"/>
<path style="fill:#7a7474; stroke:none;" d="M150 162L151 163L150 162M169 162L170 163L169 162z"/>
<path style="fill:#978b8a; stroke:none;" d="M16 163L15 165L16 163M22 163L25 165L22 163z"/>
<path style="fill:#7a7474; stroke:none;" d="M54 163C53.7867 167.98 51.7624 172.958 58 174L58 177L62 177L62 178L59 178L59 179L67 179C63.3315 182.703 59.6296 181.3 55 180L60 186L60 187C48.2875 185.657 27.9878 202.202 20 186L15 186L15 185L19 185L19 184L14 184C16.1449 180.577 17.8551 180.577 20 184C24.9023 180.926 24.6278 178.189 23 173C14.4204 174.66 8.21119 181.263 8 190L7 190L7 188L6 188L6 194C26.1013 194 75.7237 202.896 76 172L77 172L74 186C91.1705 172.039 65.5131 163.032 54 163M71 163L72 164L71 163M78 163L77 165L78 163M81 163L82 164L81 163M115 163L116 164L115 163M126 165L129 164L126 165M130 163L131 164L130 163M138 163L139 164L138 163M140 163L141 167L142 167L143 164L140 163M144 163L146 167L144 163M151 163L152 167L153 167L154 165L155 168L148 168L149 173L141 173L141 174L141 175C145.619 174.631 151.428 175.225 153 170L165 174L165 179L164 179L162 175L161 175L167 180L169 185L167 184L167 187L170 185C171.969 191.191 172.09 194.021 179 194L181 191L181 190C176.923 188.718 175.821 186.156 176 182L172 183L172 178L170 179L167 176C165.917 170.464 156.448 163.896 151 163M163 163L164 164L163 163M170 163L170 165L172 165L170 163M16 164L17 165L16 164z"/>
<path style="fill:#978b8a; stroke:none;" d="M20 164L21 165L20 164z"/>
<path style="fill:#7a7474; stroke:none;" d="M33 164L34 165L33 164z"/>
<path style="fill:#978b8a; stroke:none;" d="M50.3333 164.667L50.6667 165.333L50.3333 164.667z"/>
<path style="fill:#7a7474; stroke:none;" d="M73 164L74 165L73 164M88 164L87 166L88 164z"/>
<path style="fill:#978b8a; stroke:none;" d="M97 164L98 165L97 164z"/>
<path style="fill:#7a7474; stroke:none;" d="M118 164L118 165L122 165L122 164L118 164M167 164L168 165L167 164z"/>
<path style="fill:#978b8a; stroke:none;" d="M174 164L175 165L174 164z"/>
<path style="fill:#201d1d; stroke:none;" d="M16 165L17 166L16 165z"/>
<path style="fill:#9b3c2e; stroke:none;" d="M25 165L26 166L25 165z"/>
<path style="fill:#201d1d; stroke:none;" d="M38.6667 165.333L39.3333 165.667L38.6667 165.333z"/>
<path style="fill:#978b8a; stroke:none;" d="M62.6667 165.333L63.3333 165.667L62.6667 165.333z"/>
<path style="fill:#7a7474; stroke:none;" d="M75.6667 165.333L76.3333 165.667L75.6667 165.333M103 165L104 166L103 165z"/>
<path style="fill:#201d1d; stroke:none;" d="M113.333 165.667L113.667 166.333L113.333 165.667z"/>
<path style="fill:#7a7474; stroke:none;" d="M115 165L116 166L115 165z"/>
<path style="fill:#201d1d; stroke:none;" d="M145 165L147 171L142 168L142 172L139 171L139 172L149 173L148 168L155 168L154 165L145 165z"/>
<path style="fill:#7a7474; stroke:none;" d="M147.667 165.333L148.333 165.667L147.667 165.333M162 165L161 168L163 169L164 169L162 165z"/>
<path style="fill:#978b8a; stroke:none;" d="M175 165L176 166L175 165z"/>
<path style="fill:#7a7474; stroke:none;" d="M16 166L17 167L16 166z"/>
<path style="fill:#978b8a; stroke:none;" d="M17 166L18 167L17 166M21 166L22 167L21 166z"/>
<path style="fill:#9b3c2e; stroke:none;" d="M24 166L25 167L24 166z"/>
<path style="fill:#7a7474; stroke:none;" d="M32 166L32 170L33 170L32 166M39 166L40 167L39 166z"/>
<path style="fill:#978b8a; stroke:none;" d="M97 166L98 167L97 166z"/>
<path style="fill:#7a7474; stroke:none;" d="M123 166L126 169L123 166M176 166L177 167L176 166z"/>
<path style="fill:#201d1d; stroke:none;" d="M17 167L18 168L17 167z"/>
<path style="fill:#9b3c2e; stroke:none;" d="M23.3333 167.667L23.6667 168.333L23.3333 167.667z"/>
<path style="fill:#978b8a; stroke:none;" d="M25.6667 167.333L26.3333 167.667L25.6667 167.333z"/>
<path style="fill:#201d1d; stroke:none;" d="M114 167L117 170L114 167z"/>
<path style="fill:#7a7474; stroke:none;" d="M120 167L121 168L120 167M130.333 167.667L130.667 168.333L130.333 167.667M139 167L140 168L139 167M172 167L173 168L172 167M175 167L176 168L175 167M177 167L178 168L177 167M17.3333 168.667L17.6667 169.333L17.3333 168.667z"/>
<path style="fill:#978b8a; stroke:none;" d="M18 168L19 169L18 168z"/>
<path style="fill:#7a7474; stroke:none;" d="M19 168L20 169L19 168M81 168L82 169L81 168M86 168L86 173L87 173L88 168L86 168M101 168L103 170L103 168L101 168M104 168L106 170L104 168z"/>
<path style="fill:#201d1d; stroke:none;" d="M124 168L119 171L119 172L125 170L131 170C133.137 172.275 134.081 170.516 134 168L128 170L127 170L124 168z"/>
<path style="fill:#7a7474; stroke:none;" d="M127.333 168.667L127.667 169.333L127.333 168.667M143.667 168.333L144.333 168.667L143.667 168.333M146 168L147 169L146 168M166 168L167 169L166 168M168 168L167 172L168 172L171 170L168 168M176 168L177 169L176 168M178 168L179 169L178 168z"/>
<path style="fill:#978b8a; stroke:none;" d="M27 169L29 171L29 169L27 169z"/>
<path style="fill:#9b3c2e; stroke:none;" d="M39 169L40 170L39 169z"/>
<path style="fill:#978b8a; stroke:none;" d="M113 169L114 170L113 169z"/>
<path style="fill:#7a7474; stroke:none;" d="M119 169L120 170L119 169M141.333 169.667L141.667 170.333L141.333 169.667z"/>
<path style="fill:#201d1d; stroke:none;" d="M154 169L155 170L154 169z"/>
<path style="fill:#7a7474; stroke:none;" d="M177 169L177 171L179 171L177 169M179 169L180 170L179 169z"/>
<path style="fill:#978b8a; stroke:none;" d="M15 170L16 171L15 170z"/>
<path style="fill:#7a7474; stroke:none;" d="M37 170L38 171L37 170z"/>
<path style="fill:#201d1d; stroke:none;" d="M58 170L58 174L59 174L59 171L63 171L58 170M66 170L67 175L68 175L66 170z"/>
<path style="fill:#7a7474; stroke:none;" d="M108 170L109 171L108 170z"/>
<path style="fill:#201d1d; stroke:none;" d="M117.667 170.333L118.333 170.667L117.667 170.333M138 170L139 171L138 170z"/>
<path style="fill:#978b8a; stroke:none;" d="M150 170L151 171L150 170z"/>
<path style="fill:#201d1d; stroke:none;" d="M156 170L164 179L165 179L165 174L156 170z"/>
<path style="fill:#978b8a; stroke:none;" d="M160 170L161 171L160 170z"/>
<path style="fill:#7a7474; stroke:none;" d="M180 170L181 171L180 170M14 171L15 172L14 171z"/>
<path style="fill:#978b8a; stroke:none;" d="M23 171L24 172L23 171z"/>
<path style="fill:#9b3c2e; stroke:none;" d="M24 171L24 172L27 173L24 171M34 171L35 172L34 171z"/>
<path style="fill:#978b8a; stroke:none;" d="M59 171L59 176L64 176L64 175L62 171L59 171M65 171L66 172L65 171z"/>
<path style="fill:#201d1d; stroke:none;" d="M75 171L76 172L75 171z"/>
<path style="fill:#7a7474; stroke:none;" d="M81 171L82 172L81 171M83 171L84 172L83 171M90 171L91 172L90 171z"/>
<path style="fill:#9b3c2e; stroke:none;" d="M141 171L142 172L141 171z"/>
<path style="fill:#7a7474; stroke:none;" d="M165 171L166 172L165 171M170.667 171.333L171.333 171.667L170.667 171.333M173.333 171.667L173.667 172.333L173.333 171.667M179 171L180 172L179 171M181 171L182 172L181 171z"/>
<path style="fill:#978b8a; stroke:none;" d="M12 172L13 173L12 172M7 190L8 190C8.45593 181.672 14.8396 176.407 22 173C13.4165 170.654 5.88575 182.577 7 190z"/>
<path style="fill:#201d1d; stroke:none;" d="M25 172L26 173L25 172z"/>
<path style="fill:#9b3c2e; stroke:none;" d="M32 172L33 173L32 172z"/>
<path style="fill:#201d1d; stroke:none;" d="M61.6667 172.333L62.3333 172.667L61.6667 172.333z"/>
<path style="fill:#7a7474; stroke:none;" d="M102 172L103 173L102 172M108 172L109 173L108 172z"/>
<path style="fill:#978b8a; stroke:none;" d="M117 172L118 173L117 172M125 172L126 173L125 172z"/>
<path style="fill:#7a7474; stroke:none;" d="M157 172L158 173L157 172z"/>
<path style="fill:#978b8a; stroke:none;" d="M182 172L183 173L182 172M11 173L12 174L11 173z"/>
<path style="fill:#9b3c2e; stroke:none;" d="M24 173L25 174L24 173z"/>
<path style="fill:#201d1d; stroke:none;" d="M26 173L28 178L29 178L28 174L29 174L29 176L26 173z"/>
<path style="fill:#9b3c2e; stroke:none;" d="M29 173L30 174L29 173M42 173L43 174L42 173z"/>
<path style="fill:#978b8a; stroke:none;" d="M48 173L49 174L48 173z"/>
<path style="fill:#7a7474; stroke:none;" d="M60 173L61 174L60 173z"/>
<path style="fill:#978b8a; stroke:none;" d="M63 173L64 174L63 173z"/>
<path style="fill:#7a7474; stroke:none;" d="M82 173L83 174L82 173M90 173L91 174L90 173M105.667 173.333L106.333 173.667L105.667 173.333M154.667 173.333L155.333 173.667L154.667 173.333M158 173L159 174L158 173M160 173L161 174L160 173M169 173L170 174L169 173M178 173L179 174L178 173z"/>
<path style="fill:#978b8a; stroke:none;" d="M183 173L184 174L183 173M9 174L10 175L9 174z"/>
<path style="fill:#9b3c2e; stroke:none;" d="M28 174L29 175L28 174M35 174L36 175L35 174z"/>
<path style="fill:#201d1d; stroke:none;" d="M65 174L64 178L65 178L65 174z"/>
<path style="fill:#7a7474; stroke:none;" d="M85 174L86 175L85 174z"/>
<path style="fill:#978b8a; stroke:none;" d="M95 174L96 175L95 174M184 174L185 175L184 174M8 175L9 176L8 175M55 175L56 176L55 175z"/>
<path style="fill:#7a7474; stroke:none;" d="M56 175L58 180L56 175z"/>
<path style="fill:#201d1d; stroke:none;" d="M68 175L69 176L68 175z"/>
<path style="fill:#7a7474; stroke:none;" d="M104 177L99 181L106 177C107.572 179.742 109.391 178.841 110 176L109 176L107 178L108 175L104 177M111 175L112 176L111 175z"/>
<path style="fill:#9b3c2e; stroke:none;" d="M28 176L29 177L28 176z"/>
<path style="fill:#978b8a; stroke:none;" d="M45 176L47 178L47 176L45 176z"/>
<path style="fill:#7a7474; stroke:none;" d="M87 176L88 177L87 176M89 176L82 182L84 184L84 185C79.3159 186.331 80.9532 190.946 81 195L82 195L82 191L84 192L89 176z"/>
<path style="fill:#201d1d; stroke:none;" d="M97 176L94 180L95 189L119 188L118 179L105 177L103 181L117 180L117 188L96 188L96 181L97 181C97.0642 183.993 96.9461 185.346 100 186L100 185L97 176M99 176L99 179L100 179L99 176M103 176L104 177L103 176M106 176L107 177L106 176z"/>
<path style="fill:#7a7474; stroke:none;" d="M114 176L111 178L111 179L116 179L114 176M136 176L137 177L136 176M147 176L145 179L147 176M157 179L160 176L157 179M183 176L184 177L183 176z"/>
<path style="fill:#201d1d; stroke:none;" d="M67.3333 177.667L67.6667 178.333L67.3333 177.667z"/>
<path style="fill:#7a7474; stroke:none;" d="M83 177L84 178L83 177z"/>
<path style="fill:#faf9f9; stroke:none;" d="M98 177L98 185L99 185L98 177z"/>
<path style="fill:#201d1d; stroke:none;" d="M102 177L100 180L102 177z"/>
<path style="fill:#978b8a; stroke:none;" d="M104 177L105 178L104 177z"/>
<path style="fill:#7a7474; stroke:none;" d="M132 177L131 179L132 177M181 177L182 178L181 177M184 177L185 178L184 177M186 177L187 178L186 177z"/>
<path style="fill:#978b8a; stroke:none;" d="M34 178L35 179L34 178M36.6667 178.333L37.3333 178.667L36.6667 178.333z"/>
<path style="fill:#9b3c2e; stroke:none;" d="M39 178L40 179L39 178z"/>
<path style="fill:#201d1d; stroke:none;" d="M30 187C35.252 180.794 41.019 179.066 49 179C42.6427 176.333 30.3624 179.029 30 187z"/>
<path style="fill:#978b8a; stroke:none;" d="M103 178L104 179L103 178z"/>
<path style="fill:#7a7474; stroke:none;" d="M122 178L123 179L122 178M124 178L125 179L124 178M127 178L128 179L127 178M136 178L137 179L136 178M140.667 178.333L141.333 178.667L140.667 178.333M149 178L150 179L149 178M173 178L174 179L173 178z"/>
<path style="fill:#978b8a; stroke:none;" d="M187 178L188 179L187 178z"/>
<path style="fill:#9b3c2e; stroke:none;" d="M36 179L37 180L36 179z"/>
<path style="fill:#978b8a; stroke:none;" d="M44 179L48 181L44 179z"/>
<path style="fill:#201d1d; stroke:none;" d="M49 179L51 182L49 179z"/>
<path style="fill:#9b3c2e; stroke:none;" d="M50 179L51 180L50 179z"/>
<path style="fill:#978b8a; stroke:none;" d="M56 179L57 180L56 179M60 179L61 180L60 179M64.6667 179.333L65.3333 179.667L64.6667 179.333M102 179L102 182L103 182L102 179z"/>
<path style="fill:#7a7474; stroke:none;" d="M118 179L118 183L119 183L120 179L118 179M132 181L135 180L132 181M143 179L144 180L143 179M159 179L161 183L162 183L159 179z"/>
<path style="fill:#201d1d; stroke:none;" d="M165 179L166 180L165 179z"/>
<path style="fill:#7a7474; stroke:none;" d="M176 179L177 180L176 179z"/>
<path style="fill:#9b3c2e; stroke:none;" d="M33 180L34 181L33 180z"/>
<path style="fill:#978b8a; stroke:none;" d="M38 180L38 184L41 183L38 180z"/>
<path style="fill:#faf9f9; stroke:none;" d="M101 180L102 181L101 180z"/>
<path style="fill:#9b3c2e; stroke:none;" d="M104 180L107 186L102 182L99 183L100 186L97 181L96 181L96 188L117 188L117 180L104 180z"/>
<path style="fill:#7a7474; stroke:none;" d="M130 180L131 181L130 180M137 180L138 181L137 180M150 180L151 181L150 180M152 180L153 181L152 180M163 180L165 182L163 180z"/>
<path style="fill:#201d1d; stroke:none;" d="M166 180L168 185L169 185L166 180z"/>
<path style="fill:#7a7474; stroke:none;" d="M179 180L178 182L179 180M181 180L182 181L181 180M186 180L187 181L186 180M16 181L18 183L16 181z"/>
<path style="fill:#9b3c2e; stroke:none;" d="M35 181L36 182L35 181z"/>
<path style="fill:#978b8a; stroke:none;" d="M100 181L99 183L100 181z"/>
<path style="fill:#201d1d; stroke:none;" d="M101 181L102 182L101 181z"/>
<path style="fill:#7a7474; stroke:none;" d="M103 181L104 182L103 181M125 181L124 184L127 182L125 181M141 181L141 184L144 183L144 182L141 181M148 181L149 182L148 181M158 181L156 184L160 183L158 181M184 181L185 182L184 181M187 181L188 182L187 181z"/>
<path style="fill:#978b8a; stroke:none;" d="M189 181L190 182L189 181M16 182L17 183L16 182z"/>
<path style="fill:#9b3c2e; stroke:none;" d="M33 182L34 183L33 182z"/>
<path style="fill:#201d1d; stroke:none;" d="M56 182L56 183L59 185C59.951 182.493 58.3479 182.294 56 182M100 182L101 183L100 182M102 182L103 183L102 182z"/>
<path style="fill:#faf9f9; stroke:none;" d="M103 182L104 183L103 182z"/>
<path style="fill:#201d1d; stroke:none;" d="M104 182L105 183L104 182M109 182L108 186L109 182M111 182L113 186L113 182L111 182M114.667 182.333L115.333 182.667L114.667 182.333z"/>
<path style="fill:#978b8a; stroke:none;" d="M125 182L126 183L125 182z"/>
<path style="fill:#7a7474; stroke:none;" d="M146 182L148 184L146 182M166 182L167 183L166 182z"/>
<path style="fill:#978b8a; stroke:none;" d="M36 183L37 184L36 183M94 183L93 188L94 188L94 183z"/>
<path style="fill:#7a7474; stroke:none;" d="M103 183L104 184L103 183z"/>
<path style="fill:#978b8a; stroke:none;" d="M104 183L104 185L106 185L104 183z"/>
<path style="fill:#7a7474; stroke:none;" d="M188.333 183.667L188.667 184.333L188.333 183.667M190 183L191 184L190 183z"/>
<path style="fill:#978b8a; stroke:none;" d="M37 184L38 185L37 184M56.6667 184.333L57.3333 184.667L56.6667 184.333M82.6667 184.333L83.3333 184.667L82.6667 184.333z"/>
<path style="fill:#7a7474; stroke:none;" d="M99 184L100 185L99 184z"/>
<path style="fill:#201d1d; stroke:none;" d="M103 184L104 185L103 184z"/>
<path style="fill:#7a7474; stroke:none;" d="M150.667 184.333L151.333 184.667L150.667 184.333M154 184L153 186L154 184z"/>
<path style="fill:#9b3c2e; stroke:none;" d="M54 185L55 186L54 185z"/>
<path style="fill:#201d1d; stroke:none;" d="M104 185L104 186L107 186L104 185M114.667 185.333L115.333 185.667L114.667 185.333z"/>
<path style="fill:#7a7474; stroke:none;" d="M118 185L119 186L118 185M120 185L121 186L120 185M122 185L123 188L124 188L122 185M125 186L128 189L128 185L125 186M129 186L129 187L130 188L131 188L133 185L129 186M136 185L137 186L136 185M146.333 185.667L146.667 186.333L146.333 185.667M163 185L162 187L163 185M185 185L186 186L185 185M189 185L188 187L190 187L189 185M191 185L192 186L191 185z"/>
<path style="fill:#9b3c2e; stroke:none;" d="M33 186L34 187L33 186z"/>
<path style="fill:#201d1d; stroke:none;" d="M34 186L35 187L34 186z"/>
<path style="fill:#9b3c2e; stroke:none;" d="M36 186L37 187L36 186z"/>
<path style="fill:#7a7474; stroke:none;" d="M73 186L74 187L73 186M119 186L120 187L119 186z"/>
<path style="fill:#978b8a; stroke:none;" d="M130 186L131 187L130 186z"/>
<path style="fill:#7a7474; stroke:none;" d="M134 186L135 187L134 186M140 186L140 189L144 190L140 186M149 186L150 187L149 186M151.333 186.667L151.667 187.333L151.333 186.667M156.333 186.667L156.667 187.333L156.333 186.667z"/>
<path style="fill:#201d1d; stroke:none;" d="M36 187L37 188L36 187z"/>
<path style="fill:#7a7474; stroke:none;" d="M72 187L73 188L72 187z"/>
<path style="fill:#978b8a; stroke:none;" d="M83 187L82 189L83 187z"/>
<path style="fill:#7a7474; stroke:none;" d="M121 187L122 188L121 187M137.667 187.333L138.333 187.667L137.667 187.333M154 187L153 189L154 187M166 187L167 188L166 187M190 187L191 188L190 187M192 187L193 188L192 187M71 188L72 189L71 188M118 188L119 189L118 188M130 190L130 191L134 190L134 193L135 193L136 189L130 190M147 188L148 189L147 188M149 188L150 189L149 188z"/>
<path style="fill:#201d1d; stroke:none;" d="M173 188L174 189L173 188z"/>
<path style="fill:#7a7474; stroke:none;" d="M184 188L185 189L184 188M70 189L71 190L70 189z"/>
<path style="fill:#201d1d; stroke:none;" d="M89 189L90 190L89 189z"/>
<path style="fill:#7a7474; stroke:none;" d="M102 189L103 190L102 189M107 189L108 190L107 189M116.333 189.667L116.667 190.333L116.333 189.667M165 189L166 190L165 189M169.333 189.667L169.667 190.333L169.333 189.667M186 190L186 191L188 191L188 192L179 195L192 195L192 190L186 190z"/>
<path style="fill:#978b8a; stroke:none;" d="M193 189L194 190L193 189M8.33333 190.667L8.66667 191.333L8.33333 190.667z"/>
<path style="fill:#7a7474; stroke:none;" d="M68 190L65 192L65 193L69 191L68 190z"/>
<path style="fill:#978b8a; stroke:none;" d="M83 190L84 191L83 190z"/>
<path style="fill:#7a7474; stroke:none;" d="M108 190L106 193L108 190M112 192L115 191L112 192M118.667 190.333L119.333 190.667L118.667 190.333M128 190L130 193L128 190M139.333 190.667L139.667 191.333L139.333 190.667M145 192L148 191L145 192M157 190L155 193L157 190M162 190L163 191L162 190M167 190L168 191L167 190z"/>
<path style="fill:#201d1d; stroke:none;" d="M175 190L176 191L175 190z"/>
<path style="fill:#7a7474; stroke:none;" d="M193 190L194 191L193 190M78 191L76 194L78 191z"/>
<path style="fill:#978b8a; stroke:none;" d="M82.3333 191.667L82.6667 192.333L82.3333 191.667z"/>
<path style="fill:#201d1d; stroke:none;" d="M90 191L89 193L90 191z"/>
<path style="fill:#7a7474; stroke:none;" d="M102 191L104 193L102 191z"/>
<path style="fill:#201d1d; stroke:none;" d="M173 191L174 192L173 191M87 192L88 193L87 192z"/>
<path style="fill:#7a7474; stroke:none;" d="M99 192L100 193L99 192M115 192L116 193L115 192M148 192L149 193L148 192M165 192L166 193L165 192z"/>
<path style="fill:#201d1d; stroke:none;" d="M175.667 192.333L176.333 192.667L175.667 192.333z"/>
<path style="fill:#978b8a; stroke:none;" d="M191 192L192 193L191 192z"/>
<path style="fill:#7a7474; stroke:none;" d="M63 193L64 194L63 193z"/>
<path style="fill:#978b8a; stroke:none;" d="M187 193L188 194L187 193M194 194L194 195L206 195L194 194z"/>
</svg>
