<?xml version="1.0" standalone="yes"?>
<svg xmlns="http://www.w3.org/2000/svg" width="210" height="199">
<path style="fill:#211e1e; stroke:none;" d="M0 0L0 199L210 199L210 0L0 0z"/>
<path style="fill:#7a7474; stroke:none;" d="M4 3L4 4L205 4L186 3L145 3L4 3z"/>
<path style="fill:#fcfbfb; stroke:none;" d="M4 4L5 179L6 179C8.44195 175.684 15.347 172.092 15.7623 167.91C16.2745 162.755 8.80756 159.222 11.8009 154.093C16.2939 146.394 27.0151 146.866 33.686 142.581C36.5289 140.755 36.6752 136.689 38.6528 134.105C43.4827 127.793 50.4169 128.564 57 131L57 132L51 134C45.8141 130.445 37.0122 137.463 42 142L41 145L48 144L47 141L50 135L51 135L51 141L56 141L56 142L54 147C60.5894 143.082 56.752 135.271 56 137L55 137C56.956 130.544 60.2347 136.07 61 140L70 134L68 131L78 131L77 75C59.7683 74.0565 71.0135 62.4209 73.3218 54C75.0664 47.6354 71.7843 43.3432 79.0039 39.0887C84.5611 35.8138 90.0305 30.3949 96 28.1296C111.024 22.4283 129.376 25.9327 145 25.5046C150.665 25.3495 166.905 17.1035 168.723 28.044C169.411 32.1873 164.735 36.1823 161.985 38.561C153.935 45.526 144.419 50.5283 136 57L136 58C138.412 66.82 122.07 72.1405 125.773 83.7909C127.097 87.9571 133.892 90.8972 136.826 94.0394C143.54 101.229 147.226 110.273 148 120C140.831 113.805 134.98 107.877 125 107C125.022 115.11 124.78 135.315 130.738 141.4C134.773 145.521 146.499 146.85 152 149.602C169.385 158.3 189.433 174.267 194 194L206 194L205 4L4 4z"/>
<path style="fill:#988d8c; stroke:none;" d="M156 22L156 23L162 23L156 22M152 23L153 24L152 23z"/>
<path style="fill:#7a7474; stroke:none;" d="M153 23L155 25L153 23z"/>
<path style="fill:#211e1e; stroke:none;" d="M154 23L154 24L165 24L154 23z"/>
<path style="fill:#988d8c; stroke:none;" d="M163 24L163 25L166 28L167 28L168 24L165 25L166 23L163 24M116 24L117 25L116 24z"/>
<path style="fill:#7a7474; stroke:none;" d="M117 24L117 25L121 25L117 24z"/>
<path style="fill:#988d8c; stroke:none;" d="M121.667 24.3333L122.333 24.6667L121.667 24.3333M149 24L150 25L149 24z"/>
<path style="fill:#211e1e; stroke:none;" d="M78 131L69 131L71 134L68 138L60 139L59 139L56 147L70 136L75 136L73 134L73 133L81 133C80.0167 130.05 79.5131 129.378 82 130L80.0895 100L82 83C86.5037 79.3617 85.2949 71.7491 88.7029 67.0586C95.9311 57.1107 114.836 57.5277 123 64L121 68L125 69L123 65L127 66L123 84L102 79L101 79L102 84C120.984 80.4756 139.583 92.1945 145 111L146 111C144.702 103.717 140.322 97.1246 134.985 92.0934C132.099 89.3726 126.303 87.0403 125.357 82.8958C122.652 71.0365 137.837 66.7046 136 56C146.003 51.3243 171.609 38.2974 168 25L167 25C165.541 36.6653 141.48 48.7418 132 54C126.155 36.8192 103.435 38.1223 89 36C95.7039 26.9977 103.796 28.7315 113 32C116.274 20.7144 125.35 30.9465 132 32C135.55 24.9623 141.045 27.8861 147 30L153 25C146.628 23.2768 137.711 26.8795 131 27.0154C119.074 27.257 105.84 23.8952 94.0039 29.1088C90.2832 30.7477 88.1965 33.9666 84.9105 36.1582C81.3667 38.5217 77.1031 39.1978 74.6181 43.044C72.1665 46.8383 74.9764 51.0697 73.1227 55C71.285 58.8963 67.7555 61.4425 67.233 66C66.2419 74.6455 77.7306 74.8856 79.6798 83C81.1284 89.0305 78.752 96.8818 78.1698 103C77.2942 112.2 78 121.76 78 131z"/>
<path style="fill:#9b3b2d; stroke:none;" d="M153 24L154 25L153 24z"/>
<path style="fill:#988d8c; stroke:none;" d="M132 33C125.491 29.6821 115.068 20.6808 113 33C106.892 28.7065 96.6717 27.0015 94 36L112 38.49L126 43L132 53C142.328 50.573 157.768 38.4611 164 30L149 40L160 24C154.325 24.2474 150.896 27.509 145.83 28.5216C140.102 29.6668 133.499 23.8149 132 33z"/>
<path style="fill:#fcfbfb; stroke:none;" d="M149 40C152.246 38.2722 167.339 31.2393 164.824 26.3989C160.762 18.5795 150.172 36.9095 149 40z"/>
<path style="fill:#9b3b2d; stroke:none;" d="M165 24L166 25L165 24z"/>
<path style="fill:#211e1e; stroke:none;" d="M166 24L167 25L166 24z"/>
<path style="fill:#7a7474; stroke:none;" d="M114 25L115 26L114 25z"/>
<path style="fill:#988d8c; stroke:none;" d="M125 25L126 26L125 25M136 25L137 26L136 25z"/>
<path style="fill:#7a7474; stroke:none;" d="M137.667 25.3333L138.333 25.6667L137.667 25.3333M141.667 25.3333L142.333 25.6667L141.667 25.3333z"/>
<path style="fill:#988d8c; stroke:none;" d="M143 25L144 26L143 25M147 25L148 26L147 25z"/>
<path style="fill:#9b3b2d; stroke:none;" d="M150 25L151 26L150 25z"/>
<path style="fill:#988d8c; stroke:none;" d="M102 26L102 27L107 27L102 26z"/>
<path style="fill:#7a7474; stroke:none;" d="M115 26L116 27L115 26M120 26L121 27L120 26M127 26L128 27L127 26z"/>
<path style="fill:#988d8c; stroke:none;" d="M133 26L134 27L133 26M145 26L146 27L145 26z"/>
<path style="fill:#7a7474; stroke:none;" d="M146 26L147 27L146 26z"/>
<path style="fill:#9b3b2d; stroke:none;" d="M167 26L168 27L167 26z"/>
<path style="fill:#988d8c; stroke:none;" d="M97 27L98 28L97 27z"/>
<path style="fill:#7a7474; stroke:none;" d="M98 27L99 28L98 27M109 27L110 28L109 27z"/>
<path style="fill:#988d8c; stroke:none;" d="M110 27L111 28L110 27z"/>
<path style="fill:#9b3b2d; stroke:none;" d="M123 27L124 28L123 27z"/>
<path style="fill:#988d8c; stroke:none;" d="M129 27L130 28L129 27M131 27L132 28L131 27z"/>
<path style="fill:#9b3b2d; stroke:none;" d="M134 27L135 28L134 27z"/>
<path style="fill:#7a7474; stroke:none;" d="M141 27L142 28L141 27z"/>
<path style="fill:#988d8c; stroke:none;" d="M169 27L169 30L170 30L169 27M94 28L95 29L94 28z"/>
<path style="fill:#7a7474; stroke:none;" d="M95 28L96 29L95 28z"/>
<path style="fill:#9b3b2d; stroke:none;" d="M102 28L103 29L102 28z"/>
<path style="fill:#7a7474; stroke:none;" d="M113 28L114 29L113 28z"/>
<path style="fill:#9b3b2d; stroke:none;" d="M143 28L144 29L143 28M147 28L148 29L147 28M166 28L167 29L166 28z"/>
<path style="fill:#988d8c; stroke:none;" d="M92 29L93 30L92 29z"/>
<path style="fill:#9b3b2d; stroke:none;" d="M89 36L97 38L97 37L93 36L101 30C95.911 28.1955 91.2202 31.4965 89 36z"/>
<path style="fill:#7a7474; stroke:none;" d="M101 29L102 30L101 29M107 29L108 30L107 29M126 29L127 30L126 29z"/>
<path style="fill:#9b3b2d; stroke:none;" d="M144 29L145 30L144 29z"/>
<path style="fill:#7a7474; stroke:none;" d="M165 29L166 30L165 29M109 30L110 31L109 30M113.333 30.6667L113.667 31.3333L113.333 30.6667M127 30L128 31L127 30M164 30L165 31L164 30z"/>
<path style="fill:#988d8c; stroke:none;" d="M89 31L90 32L89 31z"/>
<path style="fill:#7a7474; stroke:none;" d="M144.333 31.6667L144.667 32.3333L144.333 31.6667M163 31L164 32L163 31M168 31L169 32L168 31z"/>
<path style="fill:#988d8c; stroke:none;" d="M88 32L89 33L88 32z"/>
<path style="fill:#7a7474; stroke:none;" d="M112 32L113 33L112 32z"/>
<path style="fill:#9b3b2d; stroke:none;" d="M130 32L131 33L130 32z"/>
<path style="fill:#7a7474; stroke:none;" d="M131 32L132 33L131 32M162 32L163 33L162 32M128 33L129 34L128 33z"/>
<path style="fill:#9b3b2d; stroke:none;" d="M129 33L128 35L129 33z"/>
<path style="fill:#7a7474; stroke:none;" d="M161 33L162 34L161 33M87 34L88 35L87 34M93.3333 34.6667L93.6667 35.3333L93.3333 34.6667z"/>
<path style="fill:#211e1e; stroke:none;" d="M129.667 34.3333L130.333 34.6667L129.667 34.3333z"/>
<path style="fill:#9b3b2d; stroke:none;" d="M160 34L161 35L160 34z"/>
<path style="fill:#988d8c; stroke:none;" d="M166 34L167 35L166 34M86 35L87 36L86 35z"/>
<path style="fill:#7a7474; stroke:none;" d="M129.667 35.3333L130.333 35.6667L129.667 35.3333M158 35L159 36L158 35z"/>
<path style="fill:#988d8c; stroke:none;" d="M165 35L166 36L165 35z"/>
<path style="fill:#9b3b2d; stroke:none;" d="M157 36L158 37L157 36z"/>
<path style="fill:#988d8c; stroke:none;" d="M164 36L165 37L164 36z"/>
<path style="fill:#7a7474; stroke:none;" d="M82 37L83 38L82 37M99.6667 37.3333L100.333 37.6667L99.6667 37.3333z"/>
<path style="fill:#9b3b2d; stroke:none;" d="M101 37L101 38L106 38L101 37z"/>
<path style="fill:#7a7474; stroke:none;" d="M106.667 37.3333L107.333 37.6667L106.667 37.3333M128 37L129 38L128 37z"/>
<path style="fill:#9b3b2d; stroke:none;" d="M156 37L157 38L156 37M160 37L155 42L161 38L160 37z"/>
<path style="fill:#988d8c; stroke:none;" d="M163 37L164 38L163 37M79 38L80 39L79 38z"/>
<path style="fill:#9b3b2d; stroke:none;" d="M79 52L91 38C86.2142 38.0402 81.1283 38.3648 77.3981 41.8001C73.6275 45.2728 74.19 50.4178 79 52z"/>
<path style="fill:#7a7474; stroke:none;" d="M112 38L113 39L112 38M154 38L155 39L154 38z"/>
<path style="fill:#9b3b2d; stroke:none;" d="M155 38L156 39L155 38z"/>
<path style="fill:#988d8c; stroke:none;" d="M162 38L163 39L162 38M77 39L78 40L77 39z"/>
<path style="fill:#7a7474; stroke:none;" d="M90 39L91 40L90 39z"/>
<path style="fill:#9b3b2d; stroke:none;" d="M115 39L116 40L115 39M153 39L154 40L153 39z"/>
<path style="fill:#7a7474; stroke:none;" d="M76 40L77 41L76 40z"/>
<path style="fill:#9b3b2d; stroke:none;" d="M117 40L118 41L117 40z"/>
<path style="fill:#7a7474; stroke:none;" d="M151 40L152 41L151 40z"/>
<path style="fill:#9b3b2d; stroke:none;" d="M152 40L153 41L152 40z"/>
<path style="fill:#988d8c; stroke:none;" d="M4 41L4 84L5 84C5 71.7812 8.71046 52.2256 4 41z"/>
<path style="fill:#7a7474; stroke:none;" d="M75 41L76 42L75 41z"/>
<path style="fill:#9b3b2d; stroke:none;" d="M89 45C93.7186 51.6794 103.831 58.0056 110 49L117.741 49.0154L132 59C131.084 54.2664 128.993 49.8934 124 49C117.696 37.8922 98.4283 39.6927 89 45M119 41L120 42L119 41M150.667 41.3333L151.333 41.6667L150.667 41.3333z"/>
<path style="fill:#7a7474; stroke:none;" d="M158 41L159 42L158 41M74 42L75 43L74 42M121 42L122 43L121 42z"/>
<path style="fill:#9b3b2d; stroke:none;" d="M149 42L150 43L149 42M153 42L152 44L153 42z"/>
<path style="fill:#988d8c; stroke:none;" d="M157 42L158 43L157 42M73 43L74 44L73 43z"/>
<path style="fill:#7a7474; stroke:none;" d="M125.333 43.6667L125.667 44.3333L125.333 43.6667z"/>
<path style="fill:#fcfbfb; stroke:none;" d="M143.667 43.3333L144.333 43.6667L143.667 43.3333z"/>
<path style="fill:#9b3b2d; stroke:none;" d="M148 43L149 44L148 43z"/>
<path style="fill:#7a7474; stroke:none;" d="M155 43L156 44L155 43z"/>
<path style="fill:#9b3b2d; stroke:none;" d="M124 44L125 45L124 44z"/>
<path style="fill:#7a7474; stroke:none;" d="M146 44L147 45L146 44z"/>
<path style="fill:#9b3b2d; stroke:none;" d="M147 44L148 45L147 44z"/>
<path style="fill:#988d8c; stroke:none;" d="M154 44L155 45L154 44z"/>
<path style="fill:#9b3b2d; stroke:none;" d="M145 45L146 46L145 45z"/>
<path style="fill:#fcfbfb; stroke:none;" d="M140 46L141 47L140 46z"/>
<path style="fill:#7a7474; stroke:none;" d="M143 46L144 47L143 46z"/>
<path style="fill:#9b3b2d; stroke:none;" d="M144 46L145 47L144 46z"/>
<path style="fill:#7a7474; stroke:none;" d="M151 46L152 47L151 46z"/>
<path style="fill:#9b3b2d; stroke:none;" d="M142 47L143 48L142 47z"/>
<path style="fill:#7a7474; stroke:none;" d="M73 48L74 49L73 48M111 48L112 49L111 48M124 48L125 49L124 48z"/>
<path style="fill:#9b3b2d; stroke:none;" d="M141 48L142 49L141 48z"/>
<path style="fill:#988d8c; stroke:none;" d="M148 48L149 49L148 48M73.3333 49.6667L73.6667 50.3333L73.3333 49.6667z"/>
<path style="fill:#7a7474; stroke:none;" d="M110 49L111 50L110 49z"/>
<path style="fill:#9b3b2d; stroke:none;" d="M139 49L140 50L139 49z"/>
<path style="fill:#988d8c; stroke:none;" d="M145 50L146 51L145 50z"/>
<path style="fill:#7a7474; stroke:none;" d="M205 50L205 93L206 93C206 80.7811 209.71 61.2256 205 50M131 51L132 52L131 51M136 51L137 52L136 51z"/>
<path style="fill:#988d8c; stroke:none;" d="M142 52L143 53L142 52z"/>
<path style="fill:#7a7474; stroke:none;" d="M74.3333 53.6667L74.6667 54.3333L74.3333 53.6667M132 53L133 54L132 53z"/>
<path style="fill:#9b3b2d; stroke:none;" d="M133 53L134 54L133 53M140 53L141 54L140 53M68 70L77 67L75 65L80 55L79 54C72.1693 56.7024 68.3756 62.7755 68 70M113 54L113 55L117 56L113 54z"/>
<path style="fill:#988d8c; stroke:none;" d="M139 54L140 55L139 54z"/>
<path style="fill:#7a7474; stroke:none;" d="M73 55L74 56L73 55M137 55L138 56L137 55M72 56L73 57L72 56z"/>
<path style="fill:#988d8c; stroke:none;" d="M136 56L137 57L136 56z"/>
<path style="fill:#7a7474; stroke:none;" d="M71 57L72 58L71 57z"/>
<path style="fill:#988d8c; stroke:none;" d="M70 58L71 59L70 58z"/>
<path style="fill:#7a7474; stroke:none;" d="M108 58L107 60L108 58z"/>
<path style="fill:#988d8c; stroke:none;" d="M109 58L91 65L90 67L92 71L89 70L91 74L91 75L85.8603 91.1304L85 141L92 143L92 140L93 144L96 144L95 146L96 147L98 146L100 150L97 150L97 151L97 152L100 151L101 155L104 154L102 158L105 154L108 155L108 158L111 157L115 164L114 166L117 167L117 170L118 170L117 168L118 168L123 171L123 167L126 169L127 169L129 166L137 169L135 172L141 171L145 168L145 171L146 171L143 163L151 166L138 154L134 156L130 148L124 133L123 106L117 105C117.636 107.824 119.589 111.073 118.922 114C117.087 122.049 105.373 130.91 100 122C107.059 118.929 105.096 110.645 102 106L97 110L96 110L93 92L93 91L96 91C90.7191 74.0338 111.498 80.9635 122 83L124 75L123 75C121.053 78.7361 118.187 79.6541 117 75C114.637 76.5269 100.282 82.5586 101.314 74.4599C101.817 70.5092 107.362 70.1682 108 66C112.806 67.4113 116.186 68.6824 117 74L118 74L123 70L123 74L124 74L126 69L120 69L123 65L123 64L119 63C120.585 58.2452 111.733 56.3362 111 60L109 58z"/>
<path style="fill:#7a7474; stroke:none;" d="M110.333 58.6667L110.667 59.3333L110.333 58.6667M112 58L113 59L112 58M115 58L115 59L118 59L115 58z"/>
<path style="fill:#9b3b2d; stroke:none;" d="M134 58L134 61L136 58L134 58z"/>
<path style="fill:#7a7474; stroke:none;" d="M81 59L79 80L80 80L87 63L81 59M118 59L119 60L118 59z"/>
<path style="fill:#988d8c; stroke:none;" d="M137 59L138 60L137 59z"/>
<path style="fill:#7a7474; stroke:none;" d="M104 60L104 62L106 60L104 60M109 60L110 61L109 60M111 60L112 61L111 60M117 60L118 67L119 67L117 60M119 60L120 61L119 60z"/>
<path style="fill:#988d8c; stroke:none;" d="M68 61L69 62L68 61z"/>
<path style="fill:#7a7474; stroke:none;" d="M102 61L103 62L102 61M113 61L114 62L113 61z"/>
<path style="fill:#988d8c; stroke:none;" d="M136 61L137 62L136 61z"/>
<path style="fill:#7a7474; stroke:none;" d="M98.6667 62.3333L99.3333 62.6667L98.6667 62.3333M103 62L104 63L103 62M108 62L109 63L108 62z"/>
<path style="fill:#211e1e; stroke:none;" d="M107 65L118 67C117.011 61.3047 110.218 60.445 107 65z"/>
<path style="fill:#988d8c; stroke:none;" d="M116 62L117 63L116 62z"/>
<path style="fill:#7a7474; stroke:none;" d="M119.667 62.3333L120.333 62.6667L119.667 62.3333M135 62L136 63L135 62z"/>
<path style="fill:#988d8c; stroke:none;" d="M67 63L68 64L67 63z"/>
<path style="fill:#7a7474; stroke:none;" d="M82 83L82 130C79.7062 129.969 80.284 130.832 81 133L73 133L73 134L75 136L70 136L53 149L53 160L59 157L58 154L61 152L63 146L64 146L67 147L67 146L65 147L65 146L75 141L76 144L81 143L80 148L81 148L83 145L83 148L87 152C98.4771 154.662 91.1144 173.906 92 181L89 188L87 188L85 195L169 195L169 194L141 192L134 190L134 191L139 194L136 192L135 192L131 194L131 193L133 193L133 192L129 194L128 193L131 191L131 190L126 192L127 187L127 186L123 186L125 192L128 193L128 194L122 194L124 191C120.241 192.88 106.88 196.48 108 192C105.152 193.424 98.9792 196.083 100 192L97 194L96 191L100 190L100 189L93 192L92 188C94.08 186.695 94.9406 185.819 93 184L96 176L97 176L97 185L98 185L100 172L99 168L100 168L101 172L102 172L105 169L105 168L100 162L104 163L102 166L105 165L106 168L107 168L107 164L108 164L113 170L112 175L113 175L115 172L114 175L115 175L116 173C118.507 174.897 120.794 175.513 123 173L139 174L138 176L153 175L161 172L160 176L161 176L161 173L165 174L165 180L162 178L164 182L166 180L166 183L168 182L166 184L166 185L171 185L172 187C171.284 189.168 170.706 190.031 173 190L172 195L173 195L192 195L190 186L186 187C187.316 194.144 178.968 191.58 180 191L180 190L170 176L165 174L166 170L165 170L159 170L159 169L161 168L156 166L159 165L159 164L156 163C156.684 166.421 154.488 165.048 155 163L150 162L149 163L154 168L148 168L149 172L140 174L141 171L137 170L126 171L123 167L123 171L124 171L125 168C124.513 171.543 122.291 171.774 119 172L117 168L118 171L117 171L117 167L115 164L113 166L112 166L113 161L112 161L112 163L111 163L109 157L109 158L111 158L111 159L108 157L103 161L105 156L104 156L102 158L104 154L101 153L98 155L99 152L97 150L100 150L96 147L95 146L96 144L93 144L93 143L92 140L92 143L85 141C87.3056 126.454 84.5087 110.106 85.6597 95.1698C86.1667 88.5909 86.5101 80.0941 91 75L91 74L89 70L92 71L90 67L91 65L95 64C85.7517 61.0972 85.9026 78.2378 82 83M100.667 63.3333L101.333 63.6667L100.667 63.3333M97.6667 64.3333L98.3333 64.6667L97.6667 64.3333M106 64L107 65L106 64M121 64L122 65L121 64M134.333 64.6667L134.667 65.3333L134.333 64.6667z"/>
<path style="fill:#988d8c; stroke:none;" d="M66 65L67 66L66 65z"/>
<path style="fill:#7a7474; stroke:none;" d="M100 65L102 67L100 65M110.667 65.3333L111.333 65.6667L110.667 65.3333M123 65L127 69L127 66L123 65M66 66L66 69L67 69L66 66M106 66L106 69L107 69L106 66M108 66L108 67L112 68L112 67L108 66M115.667 66.3333L116.333 66.6667L115.667 66.3333M120 66L124 69L124 68L120 66M131.667 66.3333L132.333 66.6667L131.667 66.3333z"/>
<path style="fill:#988d8c; stroke:none;" d="M133 66L134 67L133 66z"/>
<path style="fill:#211e1e; stroke:none;" d="M106 72L104 71L103 76L102 76L102 73L101 73L101 77L104 76C107.317 80.7045 117.087 78.7086 116.625 72.0185C116.144 65.0591 108.116 68.129 106 72z"/>
<path style="fill:#7a7474; stroke:none;" d="M113 67L114 68L113 67z"/>
<path style="fill:#988d8c; stroke:none;" d="M126 67L127 68L126 67z"/>
<path style="fill:#7a7474; stroke:none;" d="M97 68L99 70L97 68M102 68L103 69L102 68M115 68L116 69L115 68M118 68L120 70L118 68z"/>
<path style="fill:#988d8c; stroke:none;" d="M129 68L130 69L129 68M66 69L67 70L66 69z"/>
<path style="fill:#7a7474; stroke:none;" d="M85 69L86 70L85 69M105 69L104 70L104 71L105 72L106 72L107 71L107 70L105 69M110 69L109 71L110 69z"/>
<path style="fill:#988d8c; stroke:none;" d="M111 69L111 70L114 70L111 69z"/>
<path style="fill:#7a7474; stroke:none;" d="M128 69L129 70L128 69M93.6667 70.3333L94.3333 70.6667L93.6667 70.3333M96 70L97 78L98 78C99.0924 74.2454 98.9576 72.6193 96 70M101 70L100 72L101 70M119 71L119 72L123 71L119 71M125.333 70.6667L125.667 71.3333L125.333 70.6667z"/>
<path style="fill:#988d8c; stroke:none;" d="M67 71L68 72L67 71M87 71L88 72L87 71z"/>
<path style="fill:#7a7474; stroke:none;" d="M103 71L104 72L103 71M117.333 71.6667L117.667 72.3333L117.333 71.6667z"/>
<path style="fill:#211e1e; stroke:none;" d="M123 71C112.851 74.0138 121.844 85.0045 123 71z"/>
<path style="fill:#988d8c; stroke:none;" d="M127 71L128 72L127 71M68 72L69 73L68 72z"/>
<path style="fill:#7a7474; stroke:none;" d="M101 72L102 76L103 76L101 72z"/>
<path style="fill:#988d8c; stroke:none;" d="M111 74L114 73L111 74M69 73L70 74L69 73z"/>
<path style="fill:#7a7474; stroke:none;" d="M84 73L85 74L84 73M109 73L110 74L109 73z"/>
<path style="fill:#fcfbfb; stroke:none;" d="M108 77L114 73L108 77z"/>
<path style="fill:#7a7474; stroke:none;" d="M114.333 73.6667L114.667 74.3333L114.333 73.6667z"/>
<path style="fill:#988d8c; stroke:none;" d="M120 73L121 74L120 73z"/>
<path style="fill:#7a7474; stroke:none;" d="M121 73L122 74L121 73M124 73L123 75L125 75L124 73M126 73L127 74L126 73z"/>
<path style="fill:#988d8c; stroke:none;" d="M71 74L72 75L71 74M87 74L88 75L87 74z"/>
<path style="fill:#7a7474; stroke:none;" d="M100 74L101 75L100 74M104 74L105 75L104 74z"/>
<path style="fill:#988d8c; stroke:none;" d="M108 74L109 75L108 74z"/>
<path style="fill:#7a7474; stroke:none;" d="M116.667 74.3333L117.333 74.6667L116.667 74.3333z"/>
<path style="fill:#988d8c; stroke:none;" d="M126 74L127 75L126 74z"/>
<path style="fill:#7a7474; stroke:none;" d="M94 75L95 76L94 75M107 75L108 76L107 75z"/>
<path style="fill:#988d8c; stroke:none;" d="M113 75L112 77L113 75z"/>
<path style="fill:#7a7474; stroke:none;" d="M119 75L118 77L119 75M122 75L122 78L123 78L122 75z"/>
<path style="fill:#988d8c; stroke:none;" d="M87 76L86 78L87 76z"/>
<path style="fill:#7a7474; stroke:none;" d="M91 76L92 77L91 76M103 76L101 77L101 78L103 76M105 76L106 77L105 76z"/>
<path style="fill:#988d8c; stroke:none;" d="M107 76L108 77L107 76z"/>
<path style="fill:#9b3b2d; stroke:none;" d="M113 76L114 77L113 76z"/>
<path style="fill:#7a7474; stroke:none;" d="M116.333 76.6667L116.667 77.3333L116.333 76.6667z"/>
<path style="fill:#988d8c; stroke:none;" d="M118 78L121 77L118 78z"/>
<path style="fill:#7a7474; stroke:none;" d="M77 77L78 78L77 77M94 77L95 78L94 77M106 77L107 78L106 77M109.667 77.3333L110.333 77.6667L109.667 77.3333z"/>
<path style="fill:#fcfbfb; stroke:none;" d="M119 77L120 78L119 77z"/>
<path style="fill:#7a7474; stroke:none;" d="M120 77L121 78L120 77z"/>
<path style="fill:#988d8c; stroke:none;" d="M77 78L78 79L77 78z"/>
<path style="fill:#7a7474; stroke:none;" d="M83 78L84 79L83 78z"/>
<path style="fill:#211e1e; stroke:none;" d="M116 105C127.282 105.861 125.659 132.818 128.297 142C130.275 148.883 131.767 154.868 140 153C139.915 158.672 145.136 161.216 150 163L150 162C144.666 158.58 144.132 155.852 143 150L135 152L131 145C153.475 146.027 167.239 164.194 184 176C177.833 162.777 159.805 153.079 147 147.312C142.467 145.27 133.079 144.798 130.14 140.686C126.365 135.406 121.448 110.043 127 106L127 105C120.229 104.466 103.761 107.024 98.3179 103.883C92.7354 100.661 97.5883 81.9528 100 78C94.4991 80.6513 91.5652 100.067 96.0278 105.358C98.5447 108.342 103.418 105.336 105.218 110.11C106.888 114.542 99.4624 123.065 102.847 126.11C104.892 127.949 108.601 124.843 110.41 123.856C118.748 119.309 119.514 112.99 116 105z"/>
<path style="fill:#7a7474; stroke:none;" d="M100 78L101 79L100 78M104.667 78.3333L105.333 78.6667L104.667 78.3333M112 78L113 79L112 78M119 78L120 79L119 78M123 78L123 82L124 82L123 78M125.333 78.6667L125.667 79.3333L125.333 78.6667M96 79L97 80L96 79z"/>
<path style="fill:#9b3b2d; stroke:none;" d="M100 79L101 80L100 79z"/>
<path style="fill:#7a7474; stroke:none;" d="M110 79L111 80L110 79M78 80L79 81L78 80M91 80L92 81L91 80M93 80L94 81L93 80M95 80L96 81L95 80M97 80L98 81L97 80z"/>
<path style="fill:#988d8c; stroke:none;" d="M99 88L96 103L97 105L100 103L112 103.079L135 108L135 107L114 101L114 100L118 100L118 99C110.764 95.8167 104.17 85.88 116 84L116 83L102 85C101.241 74.6019 91.4406 86.3801 99 88z"/>
<path style="fill:#7a7474; stroke:none;" d="M101 80L102 81L101 80M104 80L105 81L104 80M106 81L106 82L115 82L106 81M117 80L118 81L117 80z"/>
<path style="fill:#988d8c; stroke:none;" d="M125.333 80.6667L125.667 81.3333L125.333 80.6667z"/>
<path style="fill:#7a7474; stroke:none;" d="M79 81L80 82L79 81M94 81L95 82L94 81M103 81L104 82L103 81M80.3333 82.6667L80.6667 83.3333L80.3333 82.6667M89 82L88 84L89 82M118.667 82.3333L119.333 82.6667L118.667 82.3333M122 82L121 84L123 84L122 82z"/>
<path style="fill:#9b3b2d; stroke:none;" d="M95 83L96 84L95 83M99.6667 83.3333L100.333 83.6667L99.6667 83.3333M104 83L105 84L104 83z"/>
<path style="fill:#7a7474; stroke:none;" d="M105 83L106 84L105 83M116 83L117 84L116 83M4 84L4 127L5 127C5 114.781 8.71046 95.2256 4 84M95.3333 84.6667L95.6667 85.3333L95.3333 84.6667z"/>
<path style="fill:#211e1e; stroke:none;" d="M98.3333 84.6667L98.6667 85.3333L98.3333 84.6667z"/>
<path style="fill:#7a7474; stroke:none;" d="M100 84L101 85L100 84M102 84L103 85L102 84z"/>
<path style="fill:#fcfbfb; stroke:none;" d="M145 112C143.446 103.281 135.909 89.9967 126 90L121 85L122 90L118 89L119 85C112.006 82.9558 104.287 89.2049 111.149 95.6096C116.188 100.313 123.835 100.675 130 103.069C135.507 105.207 139.918 109.105 145 112z"/>
<path style="fill:#988d8c; stroke:none;" d="M118 84L121 89L119 87L118 87L122 90L118 84z"/>
<path style="fill:#9b3b2d; stroke:none;" d="M120 84L121 85L120 84z"/>
<path style="fill:#7a7474; stroke:none;" d="M88 85L89 86L88 85M90 85L91 86L90 85M105 85L105 87L107 87L105 85M122 85L123 86L122 85M125 85L126 86L125 85z"/>
<path style="fill:#9b3b2d; stroke:none;" d="M95 86L96 87L95 86z"/>
<path style="fill:#7a7474; stroke:none;" d="M98 86L99 87L98 86M103 86L102 91L103 91L103 86z"/>
<path style="fill:#211e1e; stroke:none;" d="M119 86L120 87L119 86z"/>
<path style="fill:#988d8c; stroke:none;" d="M124 86L125 87L124 86z"/>
<path style="fill:#7a7474; stroke:none;" d="M127 86L128 87L127 86z"/>
<path style="fill:#988d8c; stroke:none;" d="M79.3333 87.6667L79.6667 88.3333L79.3333 87.6667z"/>
<path style="fill:#7a7474; stroke:none;" d="M87 87L88 88L87 87M91 87L92 88L91 87M94 87L95 88L94 87z"/>
<path style="fill:#211e1e; stroke:none;" d="M103 88L104 92L105 92L108 88L103 88z"/>
<path style="fill:#7a7474; stroke:none;" d="M108 87L109 88L108 87z"/>
<path style="fill:#9b3b2d; stroke:none;" d="M119 87L120 88L119 87z"/>
<path style="fill:#7a7474; stroke:none;" d="M126 87L127 88L126 87z"/>
<path style="fill:#988d8c; stroke:none;" d="M129 87L130 88L129 87z"/>
<path style="fill:#7a7474; stroke:none;" d="M93 88L95 90L93 88M95 88L96 89L95 88M98.3333 88.6667L98.6667 89.3333L98.3333 88.6667M105 88L106 89L105 88M119.667 88.3333L120.333 88.6667L119.667 88.3333z"/>
<path style="fill:#988d8c; stroke:none;" d="M126 88L128 90L128 88L126 88z"/>
<path style="fill:#7a7474; stroke:none;" d="M130 88L131 89L130 88M79.3333 89.6667L79.6667 90.3333L79.3333 89.6667M91 89L92 90L91 89M96 89L93 91L93 92L96 89z"/>
<path style="fill:#211e1e; stroke:none;" d="M102 89L103 90L102 89z"/>
<path style="fill:#7a7474; stroke:none;" d="M126 89L127 90L126 89z"/>
<path style="fill:#988d8c; stroke:none;" d="M129 89L130 90L129 89z"/>
<path style="fill:#211e1e; stroke:none;" d="M101 90L101 93L102 93L101 90z"/>
<path style="fill:#988d8c; stroke:none;" d="M130 90L131 91L130 90M133 90L134 91L133 90z"/>
<path style="fill:#7a7474; stroke:none;" d="M91 91L93 93L91 91z"/>
<path style="fill:#9b3b2d; stroke:none;" d="M96 91L97 92L96 91z"/>
<path style="fill:#988d8c; stroke:none;" d="M134 91L135 92L134 91z"/>
<path style="fill:#7a7474; stroke:none;" d="M88 92L87 95L88 95L89 95L88 92M97 92L98 93L97 92z"/>
<path style="fill:#9b3b2d; stroke:none;" d="M104 92L105 93L104 92z"/>
<path style="fill:#7a7474; stroke:none;" d="M105 92L106 93L105 92M133 92L134 93L133 92M135 92L136 93L135 92M90 93L92 95L90 93M95 93L96 94L95 93M101 93L102 94L101 93z"/>
<path style="fill:#211e1e; stroke:none;" d="M105 93L107 96L105 93z"/>
<path style="fill:#7a7474; stroke:none;" d="M134 93L135 94L134 93z"/>
<path style="fill:#988d8c; stroke:none;" d="M136 93L137 94L136 93M205 93L205 136L206 136C206 123.781 209.71 104.226 205 93z"/>
<path style="fill:#7a7474; stroke:none;" d="M106 94L107 95L106 94M135 94L136 95L135 94z"/>
<path style="fill:#988d8c; stroke:none;" d="M137 94L138 95L137 94M78 95L78 98L79 98L78 95z"/>
<path style="fill:#7a7474; stroke:none;" d="M136 95L137 96L136 95z"/>
<path style="fill:#988d8c; stroke:none;" d="M138 95L139 96L138 95z"/>
<path style="fill:#7a7474; stroke:none;" d="M87 96L90 101L91 101L90 96L87 96M96.3333 96.6667L96.6667 97.3333L96.3333 96.6667z"/>
<path style="fill:#211e1e; stroke:none;" d="M107 96L108 97L107 96z"/>
<path style="fill:#7a7474; stroke:none;" d="M94 97L94 103L95 103L94 97z"/>
<path style="fill:#211e1e; stroke:none;" d="M108 97L109 98L108 97z"/>
<path style="fill:#7a7474; stroke:none;" d="M109.333 97.6667L109.667 98.3333L109.333 97.6667M78 98L78 101L79 101L78 98z"/>
<path style="fill:#211e1e; stroke:none;" d="M110 98L111 99L110 98z"/>
<path style="fill:#7a7474; stroke:none;" d="M111 98L112 99L111 98M140 98L141 99L140 98M86.6667 99.3333L87.3333 99.6667L86.6667 99.3333M92 99L93 100L92 99z"/>
<path style="fill:#9b3b2d; stroke:none;" d="M111 99L112 100L111 99z"/>
<path style="fill:#211e1e; stroke:none;" d="M112 99L113 100L112 99z"/>
<path style="fill:#9b3b2d; stroke:none;" d="M113 99L114 100L113 99z"/>
<path style="fill:#988d8c; stroke:none;" d="M139 99L140 100L139 99M141 99L142 100L141 99z"/>
<path style="fill:#7a7474; stroke:none;" d="M96 100L97 101L96 100z"/>
<path style="fill:#9b3b2d; stroke:none;" d="M114 100L115 101L114 100z"/>
<path style="fill:#211e1e; stroke:none;" d="M115 100L115 101L118 101L115 100z"/>
<path style="fill:#7a7474; stroke:none;" d="M117 102L120 101L117 102z"/>
<path style="fill:#988d8c; stroke:none;" d="M120.667 100.333L121.333 100.667L120.667 100.333z"/>
<path style="fill:#7a7474; stroke:none;" d="M140 100L141 101L140 100M88 101L89 102L88 101z"/>
<path style="fill:#9b3b2d; stroke:none;" d="M118 101L119 102L118 101z"/>
<path style="fill:#211e1e; stroke:none;" d="M119 101L119 102L123 102L119 101z"/>
<path style="fill:#9b3b2d; stroke:none;" d="M123 101L125 103L123 101z"/>
<path style="fill:#7a7474; stroke:none;" d="M124 101L125 102L124 101z"/>
<path style="fill:#988d8c; stroke:none;" d="M125 101L126 102L125 101z"/>
<path style="fill:#7a7474; stroke:none;" d="M142 101L143 102L142 101M91 102L92 103L91 102M123 102L124 103L123 102z"/>
<path style="fill:#211e1e; stroke:none;" d="M125.667 102.333L126.333 102.667L125.667 102.333z"/>
<path style="fill:#9b3b2d; stroke:none;" d="M127 102L129 104L127 102z"/>
<path style="fill:#988d8c; stroke:none;" d="M128 102L129 103L128 102M141 102L142 103L141 102z"/>
<path style="fill:#7a7474; stroke:none;" d="M89 103L90 104L89 103M96.6667 103.333L97.3333 103.667L96.6667 103.333M99.3333 103.667L99.6667 104.333L99.3333 103.667M102 103L103 104L102 103M108 103L108 104L117 104L108 103M127 103L128 104L127 103z"/>
<path style="fill:#211e1e; stroke:none;" d="M129 103L130 104L129 103z"/>
<path style="fill:#7a7474; stroke:none;" d="M130.333 103.667L130.667 104.333L130.333 103.667z"/>
<path style="fill:#988d8c; stroke:none;" d="M131 103L132 104L131 103z"/>
<path style="fill:#7a7474; stroke:none;" d="M143 103L144 104L143 103z"/>
<path style="fill:#988d8c; stroke:none;" d="M82 104L83 105L82 104z"/>
<path style="fill:#9b3b2d; stroke:none;" d="M101 104L102 105L101 104M122 104L123 105L122 104z"/>
<path style="fill:#7a7474; stroke:none;" d="M123 104L124 105L123 104z"/>
<path style="fill:#211e1e; stroke:none;" d="M131 104L132 105L131 104z"/>
<path style="fill:#9b3b2d; stroke:none;" d="M132 104L133 105L132 104z"/>
<path style="fill:#988d8c; stroke:none;" d="M133 104L134 105L133 104M142 104L143 105L142 104z"/>
<path style="fill:#7a7474; stroke:none;" d="M90 105L91 106L90 105z"/>
<path style="fill:#9b3b2d; stroke:none;" d="M105 105L108 113L115 106L105 105z"/>
<path style="fill:#7a7474; stroke:none;" d="M116 105L117 106L116 105M120.667 105.333L121.333 105.667L120.667 105.333M127.333 105.667L127.667 106.333L127.333 105.667M132 105L133 106L132 105z"/>
<path style="fill:#211e1e; stroke:none;" d="M133 105L134 106L133 105z"/>
<path style="fill:#9b3b2d; stroke:none;" d="M134.333 105.667L134.667 106.333L134.333 105.667z"/>
<path style="fill:#988d8c; stroke:none;" d="M135 105L136 106L135 105z"/>
<path style="fill:#7a7474; stroke:none;" d="M144 105L145 106L144 105z"/>
<path style="fill:#988d8c; stroke:none;" d="M77 106L77 114L78 114L77 106z"/>
<path style="fill:#7a7474; stroke:none;" d="M85 106L85 110L86 110L85 106M88.3333 106.667L88.6667 107.333L88.3333 106.667M92 106L93 107L92 106M94 106L96 110L97 110L94 106M99.6667 106.333L100.333 106.667L99.6667 106.333M102.333 106.667L102.667 107.333L102.333 106.667M113 106L115 109L113 106M124 106L124 109L125 109L124 106z"/>
<path style="fill:#988d8c; stroke:none;" d="M125.667 106.333L126.333 106.667L125.667 106.333z"/>
<path style="fill:#211e1e; stroke:none;" d="M128.667 106.333L129.333 106.667L128.667 106.333z"/>
<path style="fill:#9b3b2d; stroke:none;" d="M130 106L131 107L130 106z"/>
<path style="fill:#211e1e; stroke:none;" d="M135 106L131 107L131 108L146 119L147 119L147 112L146 112L146 116L145 116L135 106z"/>
<path style="fill:#7a7474; stroke:none;" d="M136 106L137 107L136 106z"/>
<path style="fill:#988d8c; stroke:none;" d="M143 106L144 107L143 106z"/>
<path style="fill:#7a7474; stroke:none;" d="M104 107L105 108L104 107z"/>
<path style="fill:#988d8c; stroke:none;" d="M112 107L107 120L110 119L112 122L113 117C119.29 114.737 116.301 109.64 112 107z"/>
<path style="fill:#7a7474; stroke:none;" d="M116 107L117 108L116 107z"/>
<path style="fill:#988d8c; stroke:none;" d="M129 107L130 108L129 107z"/>
<path style="fill:#7a7474; stroke:none;" d="M130 107L131 108L130 107z"/>
<path style="fill:#9b3b2d; stroke:none;" d="M133 107L134 108L133 107z"/>
<path style="fill:#7a7474; stroke:none;" d="M135 107L136 108L135 107z"/>
<path style="fill:#988d8c; stroke:none;" d="M138 107L139 108L138 107M145 107L146 108L145 107z"/>
<path style="fill:#7a7474; stroke:none;" d="M99 108L100 109L99 108M117 108L118 109L117 108z"/>
<path style="fill:#988d8c; stroke:none;" d="M132 108L133 109L132 108M139 108L140 109L139 108z"/>
<path style="fill:#7a7474; stroke:none;" d="M144 108L145 109L144 108M89 109L90 110L89 109M91 109L92 110L91 109M105 109L105 115L106 115L105 109M116 109L117 110L116 109M118 109L119 110L118 109z"/>
<path style="fill:#988d8c; stroke:none;" d="M134 109L135 110L134 109M140 109L141 110L140 109z"/>
<path style="fill:#7a7474; stroke:none;" d="M94 110L91 112L91 113L96 112L94 110z"/>
<path style="fill:#9b3b2d; stroke:none;" d="M117 110L118 111L117 110z"/>
<path style="fill:#988d8c; stroke:none;" d="M136 110L137 111L136 110M141 110L145 116L146 116L141 110M146 110L147 111L146 110z"/>
<path style="fill:#7a7474; stroke:none;" d="M87 111L88 112L87 111M98 111L99 112L98 111M101 111L102 112L101 111z"/>
<path style="fill:#fcfbfb; stroke:none;" d="M115 111L116 112L115 111z"/>
<path style="fill:#7a7474; stroke:none;" d="M117 111L118 112L117 111M119 111L119 115L120 115L119 111z"/>
<path style="fill:#988d8c; stroke:none;" d="M138 111L139 112L138 111z"/>
<path style="fill:#7a7474; stroke:none;" d="M145.667 111.333L146.333 111.667L145.667 111.333z"/>
<path style="fill:#988d8c; stroke:none;" d="M82 112L83 113L82 112z"/>
<path style="fill:#7a7474; stroke:none;" d="M123 112L123 117L124 117L123 112M140 112L141 113L140 112M94 113L95 114L94 113M100 113L101 114L100 113M108 113L109 114L108 113M117 113L118 114L117 113M141 113L142 114L141 113M77 114L77 119L78 119L77 114M92 114L93 115L92 114M98 114L97 116L98 114z"/>
<path style="fill:#9b3b2d; stroke:none;" d="M107.333 114.667L107.667 115.333L107.333 114.667z"/>
<path style="fill:#7a7474; stroke:none;" d="M116 114L117 115L116 114z"/>
<path style="fill:#988d8c; stroke:none;" d="M142 114L143 115L142 114z"/>
<path style="fill:#7a7474; stroke:none;" d="M144 114L145 115L144 114M88 116L88 117L91 117L88 116M118 115L119 116L118 115z"/>
<path style="fill:#988d8c; stroke:none;" d="M125.333 115.667L125.667 116.333L125.333 115.667M143 115L144 116L143 115M147 115L147 120L148 120L147 115z"/>
<path style="fill:#7a7474; stroke:none;" d="M86 116L87 117L86 116M93 116L94 117L93 116M95.3333 116.667L95.6667 117.333L95.3333 116.667M99.3333 116.667L99.6667 117.333L99.3333 116.667M104.333 116.667L104.667 117.333L104.333 116.667M107 116L108 117L107 116M119 116L120 117L119 116M121 116L122 117L121 116z"/>
<path style="fill:#988d8c; stroke:none;" d="M144 116L145 117L144 116z"/>
<path style="fill:#7a7474; stroke:none;" d="M102 117L103 118L102 117M113 117L113 118L116 118L113 117M117 117L118 118L117 117M125 117L125 120L126 120L125 117M145 117L146 118L145 117M87.6667 118.333L88.3333 118.667L87.6667 118.333M103.333 118.667L103.667 119.333L103.333 118.667z"/>
<path style="fill:#9b3b2d; stroke:none;" d="M106 118L107 119L106 118M113 118L114 119L113 118z"/>
<path style="fill:#7a7474; stroke:none;" d="M120 118L121 119L120 118z"/>
<path style="fill:#988d8c; stroke:none;" d="M77 119L77 126L78 126L77 119z"/>
<path style="fill:#7a7474; stroke:none;" d="M90.6667 119.333L91.3333 119.667L90.6667 119.333M96.3333 119.667L96.6667 120.333L96.3333 119.667M98 119L99 120L98 119M106.333 119.667L106.667 120.333L106.333 119.667z"/>
<path style="fill:#9b3b2d; stroke:none;" d="M105 120L103 126L110 119L105 120z"/>
<path style="fill:#7a7474; stroke:none;" d="M115 119L116 120L115 119M122 119L123 120L122 119M146 119L147 120L146 119M94 120L95 121L94 120z"/>
<path style="fill:#9b3b2d; stroke:none;" d="M110 120L111 121L110 120z"/>
<path style="fill:#7a7474; stroke:none;" d="M117 120L118 121L117 120M102 121L103 122L102 121M114 121L115 122L114 121M89 122L90 123L89 122M93 122L92 124L94 124L93 122M95 122L96 123L95 122M100 122L102 124L102 122L100 122M113 122L112 124L114 124L113 122M124 122L124 126L125 126L124 122M97 123L98 124L97 123M99 123L100 124L99 123M109 123L110 124L109 123z"/>
<path style="fill:#988d8c; stroke:none;" d="M126.333 123.667L126.667 124.333L126.333 123.667z"/>
<path style="fill:#7a7474; stroke:none;" d="M108 124L109 125L108 124M114 124L115 125L114 124M87 125L88 126L87 125M99.3333 125.667L99.6667 126.333L99.3333 125.667M101 125L102 126L101 125M107 125L108 126L107 125M111 125L110 127L111 125M120 125L121 126L120 125M126.333 125.667L126.667 126.333L126.333 125.667M85 126L86 127L85 126M90 126L91 127L90 126M92 126L92 131L96 132L96 131L93 130L95 126L92 126M106 126L107 127L106 126M115 126L116 127L115 126M96 127L95 129L97 129L96 127M103 127L104 128L103 127M105 127L106 128L105 127M120 127L121 128L120 127z"/>
<path style="fill:#988d8c; stroke:none;" d="M48.6667 128.333L49.3333 128.667L48.6667 128.333z"/>
<path style="fill:#7a7474; stroke:none;" d="M89.6667 128.333L90.3333 128.667L89.6667 128.333M107 128L108 129L107 128M111 128L112 129L111 128M117 128L118 129L117 128M124 128L125 131L126 131L126 128L124 128M44 129L45 130L44 129z"/>
<path style="fill:#211e1e; stroke:none;" d="M48 146L48 147L19 156L19 157L43 150.677L54 146L54 142L50 143L50 142L52 142L52 141L48 142L49 146C42.9202 145.034 40.2295 145.061 40 138L39 138L39 142L38 142C38.46 133.599 44.043 130.187 52 130C36.63 123.613 31.1535 151.941 48 146z"/>
<path style="fill:#7a7474; stroke:none;" d="M52 129L53 130L52 129z"/>
<path style="fill:#988d8c; stroke:none;" d="M53 129L50 134L53 129z"/>
<path style="fill:#7a7474; stroke:none;" d="M85 129L88 131L88 130L85 129M101 129L103 131L101 129M42 130L43 131L42 130z"/>
<path style="fill:#988d8c; stroke:none;" d="M43 131L43 132L50 130L43 131z"/>
<path style="fill:#fcfbfb; stroke:none;" d="M47 130L48 131L47 130M50.6667 130.333L51.3333 130.667L50.6667 130.333z"/>
<path style="fill:#7a7474; stroke:none;" d="M54 130L55 131L54 130z"/>
<path style="fill:#988d8c; stroke:none;" d="M55 130L55 132L57 132L55 130z"/>
<path style="fill:#7a7474; stroke:none;" d="M90 130L86 134L89 134L90 130M98 130L98 134L99 134L100 132L103 134L103 133L98 130M108 130L109 131L108 130M112 130L113 131L112 130z"/>
<path style="fill:#988d8c; stroke:none;" d="M127 130L128 131L127 130M40 131L41 132L40 131z"/>
<path style="fill:#7a7474; stroke:none;" d="M46 131L47 132L46 131z"/>
<path style="fill:#211e1e; stroke:none;" d="M50.3333 131.667L50.6667 132.333L50.3333 131.667z"/>
<path style="fill:#7a7474; stroke:none;" d="M68 131L69 132L68 131M127 131L128 132L127 131z"/>
<path style="fill:#988d8c; stroke:none;" d="M39 132L40 133L39 132z"/>
<path style="fill:#7a7474; stroke:none;" d="M40 137L38 136L38 137L40 138L40 134L45 133C41.5041 131.786 40.0818 133.586 40 137z"/>
<path style="fill:#fcfbfb; stroke:none;" d="M42 132L43 133L42 132z"/>
<path style="fill:#988d8c; stroke:none;" d="M53.6667 132.333L54.3333 132.667L53.6667 132.333z"/>
<path style="fill:#7a7474; stroke:none;" d="M57 132L58 135L55 135L55 136L59 135L59 133L57 132M104 132L105 133L104 132M111 132L112 133L111 132M120.667 132.333L121.333 132.667L120.667 132.333M125 132L124 134L126 134L125 132z"/>
<path style="fill:#988d8c; stroke:none;" d="M38 133L39 134L38 133M41 133L42 136L43 136L41 133M43 133L44 134L43 133M55 135L58 135L56 133L55 135z"/>
<path style="fill:#7a7474; stroke:none;" d="M70 133L71 134L70 133M93.3333 133.667L93.6667 134.333L93.3333 133.667M114 133L115 134L114 133z"/>
<path style="fill:#fcfbfb; stroke:none;" d="M40 134L41 135L40 134z"/>
<path style="fill:#211e1e; stroke:none;" d="M41 134L42 135L41 134z"/>
<path style="fill:#988d8c; stroke:none;" d="M59 134L58 137L59 137L59 134M68 134L69 135L68 134z"/>
<path style="fill:#7a7474; stroke:none;" d="M69 134L70 135L69 134M96.3333 134.667L96.6667 135.333L96.3333 134.667M123 134L124 135L123 134M126 134L126 139L127 139L126 134M37 135L38 136L37 135z"/>
<path style="fill:#988d8c; stroke:none;" d="M39.3333 135.667L39.6667 136.333L39.3333 135.667M50 135L47 143C50.167 140.836 51.5182 138.724 50 135z"/>
<path style="fill:#211e1e; stroke:none;" d="M59 135L60 136L59 135z"/>
<path style="fill:#7a7474; stroke:none;" d="M67 135L68 136L67 135M88 135L87 137L88 135M90 135L90 137L92 135L90 135M106 135L107 136L106 135z"/>
<path style="fill:#988d8c; stroke:none;" d="M128 135L129 136L128 135M55 136L56 137L55 136z"/>
<path style="fill:#7a7474; stroke:none;" d="M59 136L58 137L62 141L59 136z"/>
<path style="fill:#988d8c; stroke:none;" d="M60 136L61 137L60 136z"/>
<path style="fill:#7a7474; stroke:none;" d="M103 136L104 137L103 136M115 136L116 137L115 136M123 136L124 137L123 136M128 136L129 137L128 136z"/>
<path style="fill:#988d8c; stroke:none;" d="M36.3333 137.667L36.6667 138.333L36.3333 137.667M38 137L39 138L38 137M40 137L41 138L40 137z"/>
<path style="fill:#7a7474; stroke:none;" d="M67 137L68 138L67 137M92 137L93 138L92 137M94 137L95 138L94 137M118.333 137.667L118.667 138.333L118.333 137.667z"/>
<path style="fill:#fcfbfb; stroke:none;" d="M38 138L39 139L38 138z"/>
<path style="fill:#988d8c; stroke:none;" d="M58 138L59 139L58 138z"/>
<path style="fill:#7a7474; stroke:none;" d="M65 138L66 139L65 138M88 138L89 139L88 138M121 138L122 139L121 138M36 139L37 140L36 139z"/>
<path style="fill:#988d8c; stroke:none;" d="M38.3333 139.667L38.6667 140.333L38.3333 139.667M45 139L46 140L45 139z"/>
<path style="fill:#7a7474; stroke:none;" d="M63 139L64 140L63 139z"/>
<path style="fill:#988d8c; stroke:none;" d="M76 139L78 141L78 139L76 139z"/>
<path style="fill:#7a7474; stroke:none;" d="M91 139L89 140L89 141L91 139M101.333 139.667L101.667 140.333L101.333 139.667M127 139L130 148L127 139z"/>
<path style="fill:#988d8c; stroke:none;" d="M36 140L35 143L36 140z"/>
<path style="fill:#7a7474; stroke:none;" d="M46 140L47 141L46 140M122 140L123 141L122 140M124 140L125 141L124 140z"/>
<path style="fill:#988d8c; stroke:none;" d="M129 140L130 141L129 140z"/>
<path style="fill:#7a7474; stroke:none;" d="M38 141L39 142L38 141M47 141L48 142L47 141M49 141L50 142L49 141M52 141L53 142L52 141z"/>
<path style="fill:#988d8c; stroke:none;" d="M53 141L54 142L53 141z"/>
<path style="fill:#7a7474; stroke:none;" d="M54 141L55 142L54 141z"/>
<path style="fill:#988d8c; stroke:none;" d="M55 141L56 142L55 141M74 141L65 147L67 146L67 147L65 148L64 146L63 146L61 152L58 154L59 157L54 159L54 160C60.1686 160.266 68.1405 160.936 73 165L77 164C78.2226 171.53 84.53 174.493 82 183L83 183L86 177C88.761 176.661 90.2837 174.114 88 172L88 171C93.5459 169.812 91.2488 156.1 87 154C87.2853 151.295 83.3124 143.838 81 148L80 148L79 143L76 144L74 141z"/>
<path style="fill:#7a7474; stroke:none;" d="M94 141L95 142L94 141M118 141L120 143L118 141M36 142L37 146L38 146L36 142z"/>
<path style="fill:#988d8c; stroke:none;" d="M40 142L42 144L42 142L40 142M50 142L50 143L53 143L50 142M58 142L59 143L58 142z"/>
<path style="fill:#7a7474; stroke:none;" d="M96 142L97 143L96 142M112 142L113 143L112 142z"/>
<path style="fill:#988d8c; stroke:none;" d="M130 142L131 143L130 142M31 143L32 144L31 143z"/>
<path style="fill:#7a7474; stroke:none;" d="M32 143L33 144L32 143z"/>
<path style="fill:#211e1e; stroke:none;" d="M30 144L30 145L36 144L30 144z"/>
<path style="fill:#7a7474; stroke:none;" d="M40.3333 143.667L40.6667 144.333L40.3333 143.667M48.3333 143.667L48.6667 144.333L48.3333 143.667z"/>
<path style="fill:#988d8c; stroke:none;" d="M64 143L65 144L64 143z"/>
<path style="fill:#211e1e; stroke:none;" d="M79.6667 143.333L80.3333 143.667L79.6667 143.333z"/>
<path style="fill:#988d8c; stroke:none;" d="M85 143L86 144L85 143z"/>
<path style="fill:#7a7474; stroke:none;" d="M107 143L108 144L107 143M117 143L118 144L117 143M123.667 143.333L124.333 143.667L123.667 143.333M135 143L136 144L135 143z"/>
<path style="fill:#988d8c; stroke:none;" d="M136 143L137 144L136 143M28 144L29 145L28 144z"/>
<path style="fill:#7a7474; stroke:none;" d="M29 144L32 148L32 147L29 144z"/>
<path style="fill:#988d8c; stroke:none;" d="M32 146L35 145L32 146z"/>
<path style="fill:#fcfbfb; stroke:none;" d="M35 144L36 145L35 144z"/>
<path style="fill:#988d8c; stroke:none;" d="M36 144L37 145L36 144M46.6667 144.333L47.3333 144.667L46.6667 144.333M51 144L52 145L51 144z"/>
<path style="fill:#7a7474; stroke:none;" d="M53 144L54 145L53 144z"/>
<path style="fill:#988d8c; stroke:none;" d="M57 144L58 145L57 144M83 144L84 145L83 144z"/>
<path style="fill:#7a7474; stroke:none;" d="M139 144L140 145L139 144z"/>
<path style="fill:#988d8c; stroke:none;" d="M140 144L141 145L140 144M25 145L26 146L25 145z"/>
<path style="fill:#211e1e; stroke:none;" d="M15 165L16 165C18.1626 161.252 20.9686 161.635 25 162L31 160L31 159C26.7391 159.088 5.40514 161.167 16 152L14 157L30 148L30 147L24 148L24 147L29 146C23.7865 144.554 12.0948 150.011 11.4653 156.015C11.1408 159.109 13.8217 162.284 15 165z"/>
<path style="fill:#988d8c; stroke:none;" d="M30 145L31 146L30 145z"/>
<path style="fill:#fcfbfb; stroke:none;" d="M31 145L32 146L31 145z"/>
<path style="fill:#7a7474; stroke:none;" d="M33 145L35 147L33 145z"/>
<path style="fill:#211e1e; stroke:none;" d="M34 145L34 146L37 146L34 145z"/>
<path style="fill:#988d8c; stroke:none;" d="M38 145L40 147L38 145M41 145L42 146L41 145z"/>
<path style="fill:#7a7474; stroke:none;" d="M45 145L46 146L45 145z"/>
<path style="fill:#988d8c; stroke:none;" d="M48 145L49 146L48 145z"/>
<path style="fill:#fcfbfb; stroke:none;" d="M51 145L37 153L37 154C42.055 153.758 51.1505 151.317 51 145z"/>
<path style="fill:#7a7474; stroke:none;" d="M52 145L53 146L52 145z"/>
<path style="fill:#988d8c; stroke:none;" d="M56 145L57 146L56 145z"/>
<path style="fill:#211e1e; stroke:none;" d="M82 145L83 146L82 145z"/>
<path style="fill:#7a7474; stroke:none;" d="M106 145L105 148L109 147L109 146L106 145M119 145L120 146L119 145M122 146L122 147L125 148L125 145L122 146M131.667 145.333L132.333 145.667L131.667 145.333z"/>
<path style="fill:#988d8c; stroke:none;" d="M132 146C135.865 151.787 138.699 150.545 145 150C142.538 157.231 147.289 163.008 155 163C154.916 165.034 156.084 165.034 156 163L159 164L159 165L156 166L161 168L159 169L159 170L165 170L166 170L165 174L170 176C170.493 180.506 175.63 188.485 180 190L180 191L178 192C182.501 193.168 186.823 192.48 186 187C191.41 186.213 184.727 178.152 182.866 176C176.643 168.805 163.206 153.446 153 154L152 151L132 146z"/>
<path style="fill:#7a7474; stroke:none;" d="M135.667 145.333L136.333 145.667L135.667 145.333M142 145L143 146L142 145M23 146L24 147L23 146M26.3333 146.667L26.6667 147.333L26.3333 146.667z"/>
<path style="fill:#988d8c; stroke:none;" d="M27.6667 146.333L28.3333 146.667L27.6667 146.333z"/>
<path style="fill:#211e1e; stroke:none;" d="M30 146L30 147L34 147L30 146z"/>
<path style="fill:#988d8c; stroke:none;" d="M35 146L36 147L35 146z"/>
<path style="fill:#fcfbfb; stroke:none;" d="M15 155L15 156L44 149C34.8674 143.597 23.0287 149.754 15 155z"/>
<path style="fill:#988d8c; stroke:none;" d="M42 146L43 147L42 146z"/>
<path style="fill:#7a7474; stroke:none;" d="M43 146L44 147L43 146M46.3333 146.667L46.6667 147.333L46.3333 146.667z"/>
<path style="fill:#988d8c; stroke:none;" d="M47 146L48 147L47 146z"/>
<path style="fill:#7a7474; stroke:none;" d="M49 146L50 147L49 146M53.3333 146.667L53.6667 147.333L53.3333 146.667M55 146L56 147L55 146M78 146L79 147L78 146z"/>
<path style="fill:#211e1e; stroke:none;" d="M83 146L84 147L83 146z"/>
<path style="fill:#988d8c; stroke:none;" d="M88 146L89 147L88 146z"/>
<path style="fill:#7a7474; stroke:none;" d="M115 146L116 147L115 146M139 146L140 147L139 146z"/>
<path style="fill:#988d8c; stroke:none;" d="M145 146L146 147L145 146M20 147L21 148L20 147M24.6667 147.333L25.3333 147.667L24.6667 147.333z"/>
<path style="fill:#7a7474; stroke:none;" d="M40 147L41 148L40 147M44.3333 147.667L44.6667 148.333L44.3333 147.667z"/>
<path style="fill:#988d8c; stroke:none;" d="M45 147L46 148L45 147z"/>
<path style="fill:#7a7474; stroke:none;" d="M48 147L49 148L48 147z"/>
<path style="fill:#988d8c; stroke:none;" d="M60 147L61 148L60 147z"/>
<path style="fill:#7a7474; stroke:none;" d="M74 147L75 148L74 147z"/>
<path style="fill:#988d8c; stroke:none;" d="M89 149L89 150L94 150L94 147L89 149z"/>
<path style="fill:#7a7474; stroke:none;" d="M110 147L111 148L110 147M132 147L134 149L134 147L132 147M137 147L138 148L137 147M140 147L141 148L140 147M142 147L143 148L142 147M147 147L148 148L147 147z"/>
<path style="fill:#988d8c; stroke:none;" d="M18 148L19 149L18 148z"/>
<path style="fill:#7a7474; stroke:none;" d="M21.3333 148.667L21.6667 149.333L21.3333 148.667z"/>
<path style="fill:#988d8c; stroke:none;" d="M22.6667 148.333L23.3333 148.667L22.6667 148.333M28 148L29 149L28 148M49 148L50 149L49 148z"/>
<path style="fill:#7a7474; stroke:none;" d="M68.6667 148.333L69.3333 148.667L68.6667 148.333M77 148L78 149L77 148z"/>
<path style="fill:#211e1e; stroke:none;" d="M85 148L86 149L85 148z"/>
<path style="fill:#988d8c; stroke:none;" d="M87 148L88 149L87 148z"/>
<path style="fill:#7a7474; stroke:none;" d="M102 148L103 149L102 148M121 148L120 150L121 148M126 148L127 149L126 148M130 148L131 151L130 148M135 148L136 149L135 148M145 148L146 149L145 148M149 148L150 149L149 148z"/>
<path style="fill:#988d8c; stroke:none;" d="M16 149L17 150L16 149z"/>
<path style="fill:#7a7474; stroke:none;" d="M19.3333 149.667L19.6667 150.333L19.3333 149.667z"/>
<path style="fill:#988d8c; stroke:none;" d="M20 149L21 150L20 149z"/>
<path style="fill:#7a7474; stroke:none;" d="M25 149L26 150L25 149z"/>
<path style="fill:#988d8c; stroke:none;" d="M42 149L43 150L42 149M45 149L46 150L45 149M48 149L49 150L48 149M58 149L59 150L58 149z"/>
<path style="fill:#7a7474; stroke:none;" d="M64 149L65 150L64 149M71 149L72 150L71 149z"/>
<path style="fill:#211e1e; stroke:none;" d="M86 149L87 150L86 149z"/>
<path style="fill:#7a7474; stroke:none;" d="M104 149L105 150L104 149M113 149L113 153L108 151L110 152L106 150L111 154L116 160L114 163L120 158L119 157L115 158L113 154L115 151L113 149M146.667 149.333L147.333 149.667L146.667 149.333M151 149L152 150L151 149z"/>
<path style="fill:#988d8c; stroke:none;" d="M152 149L153 150L152 149z"/>
<path style="fill:#7a7474; stroke:none;" d="M15 150L16 151L15 150M17.3333 150.667L17.6667 151.333L17.3333 150.667z"/>
<path style="fill:#988d8c; stroke:none;" d="M18 150L19 151L18 150z"/>
<path style="fill:#7a7474; stroke:none;" d="M22 150L23 151L22 150z"/>
<path style="fill:#988d8c; stroke:none;" d="M23 150L24 151L23 150M39 150L40 151L39 150z"/>
<path style="fill:#7a7474; stroke:none;" d="M40 150L41 151L40 150M43 150L44 151L43 150M47 150L48 151L47 150M50 150L45 159L45 154L26 158L26 159L34 161L36 160L37 159L36 157L42 155L40 159C58.9108 167.591 27.3304 184.014 31 164L26 165L28 160L25 162L21 161C20.3181 164.574 21.0705 165.882 24 168C20.0654 170.296 15.6862 172.091 12.0154 174.789C7.91181 177.806 0.845686 188.201 6.74228 192.972C10.4956 196.009 21.3628 194 26 194C40.8861 194 81.0076 197.218 75 171L76 171C77.8418 178.83 74.2296 182.788 70 189C77.642 185.359 82.8479 174.367 74.7863 168.109C69.2538 163.814 60.7542 163.056 54 163L53 175L58 173L65 176L66 173C66.6982 174.396 66.3018 174.396 67 173L68 173L68 178L67 178L66 176L65 177C66.4968 181.053 63.6022 181.727 60 182L60 181L64 181C63.301 177.659 62.4062 176.562 59 176L59 177L62 177L62 178L60 181L55 181L55 182L60 182C58.4992 187.449 55.459 185.863 50.9961 187.722C43.7396 190.745 35.081 194.728 27 192.427C22.9623 191.278 20.0651 188.127 16 187L17 184L14 185C15.0138 181.734 16.2211 180.66 19 183L25 181L22 173C13.3805 175.554 7.03428 181.652 8 191L7 191C5.30944 180.574 14.0648 174.316 23 171C24.5344 175.289 25.8561 183.201 28.7415 186.566C33.6224 192.259 48.5913 189.109 51.8063 182.906C54.8193 177.093 47.4777 169.191 52 164L52 163C48.262 163 46.6348 160.159 50 161C49.0167 158.05 48.5131 157.378 51 158L50 150z"/>
<path style="fill:#988d8c; stroke:none;" d="M53 150L54 151L53 150M55 150L56 151L55 150z"/>
<path style="fill:#7a7474; stroke:none;" d="M69 150L67 153L69 150M73 150L73 151L76 153L77 150L73 150M82 150L83 151L82 150z"/>
<path style="fill:#211e1e; stroke:none;" d="M87 150L88 151L87 150z"/>
<path style="fill:#7a7474; stroke:none;" d="M122 150L123 151L122 150M124 150L124 153L125 153L126 150L124 150M140.667 150.333L141.333 150.667L140.667 150.333M143 150L145 152L145 150L143 150M149 150L150 151L149 150M153 150L154 151L153 150z"/>
<path style="fill:#988d8c; stroke:none;" d="M13 151L14 152L13 151M16 151L17 152L16 151z"/>
<path style="fill:#7a7474; stroke:none;" d="M20 151L21 152L20 151z"/>
<path style="fill:#988d8c; stroke:none;" d="M37 151L38 152L37 151M41 151L42 152L41 151z"/>
<path style="fill:#7a7474; stroke:none;" d="M46 151L47 152L46 151M65 151L63 154L65 151z"/>
<path style="fill:#211e1e; stroke:none;" d="M99 151L99 155L100 155L99 151z"/>
<path style="fill:#7a7474; stroke:none;" d="M127 151L128 152L127 151M131 151L132 152L131 151M135 151L136 152L135 151M137 151L138 152L137 151M150 151L151 152L150 151M152 151L153 152L152 151M155 151L156 152L155 151z"/>
<path style="fill:#988d8c; stroke:none;" d="M12 152L13 153L12 152M13 154L16 153L13 154z"/>
<path style="fill:#7a7474; stroke:none;" d="M18 152L19 153L18 152z"/>
<path style="fill:#988d8c; stroke:none;" d="M34 152L35 153L34 152z"/>
<path style="fill:#7a7474; stroke:none;" d="M35 152L36 153L35 152M38 152L39 153L38 152z"/>
<path style="fill:#988d8c; stroke:none;" d="M39 152L40 153L39 152z"/>
<path style="fill:#7a7474; stroke:none;" d="M45 152L46 153L45 152M80.6667 152.333L81.3333 152.667L80.6667 152.333z"/>
<path style="fill:#211e1e; stroke:none;" d="M97 152L98 153L97 152z"/>
<path style="fill:#7a7474; stroke:none;" d="M130 152L131 153L130 152M153.333 152.667L153.667 153.333L153.333 152.667z"/>
<path style="fill:#988d8c; stroke:none;" d="M157 152L158 153L157 152M11 153L12 154L11 153z"/>
<path style="fill:#7a7474; stroke:none;" d="M14 153L15 154L14 153z"/>
<path style="fill:#988d8c; stroke:none;" d="M17 153L18 154L17 153M31 153L32 154L31 153z"/>
<path style="fill:#7a7474; stroke:none;" d="M32 153L33 154L32 153z"/>
<path style="fill:#988d8c; stroke:none;" d="M36 153L35 155L37 155L36 153M41.6667 153.333L42.3333 153.667L41.6667 153.333M53 153L54 154L53 153z"/>
<path style="fill:#7a7474; stroke:none;" d="M71 153L68 155L68 156L72 154L71 153M77 153L78 154L77 153M84 153L85 154L84 153M87.6667 153.333L88.3333 153.667L87.6667 153.333z"/>
<path style="fill:#211e1e; stroke:none;" d="M96 153L97 154L96 153z"/>
<path style="fill:#7a7474; stroke:none;" d="M104 153L105 154L104 153M120 153L119 155L120 153M126 153L127 154L126 153M132 153L133 154L132 153M138 153L138 156L139 156L140 153L138 153M143 153L144 154L143 153M155 153L156 154L155 153z"/>
<path style="fill:#988d8c; stroke:none;" d="M159 153L160 154L159 153z"/>
<path style="fill:#7a7474; stroke:none;" d="M12.6667 154.333L13.3333 154.667L12.6667 154.333M15 154L16 155L15 154z"/>
<path style="fill:#988d8c; stroke:none;" d="M27 154L28 155L27 154z"/>
<path style="fill:#7a7474; stroke:none;" d="M28 154L29 155L28 154z"/>
<path style="fill:#988d8c; stroke:none;" d="M33 154L34 155L33 154z"/>
<path style="fill:#fcfbfb; stroke:none;" d="M34 154L35 155L34 154z"/>
<path style="fill:#9b3b2d; stroke:none;" d="M43 154L44 155L43 154z"/>
<path style="fill:#988d8c; stroke:none;" d="M55.3333 154.667L55.6667 155.333L55.3333 154.667z"/>
<path style="fill:#7a7474; stroke:none;" d="M66 154L63 155L63 156L65 157L66 154M86 154L87 155L86 154z"/>
<path style="fill:#988d8c; stroke:none;" d="M98 154L99 155L98 154z"/>
<path style="fill:#7a7474; stroke:none;" d="M105 154L106 155L105 154z"/>
<path style="fill:#988d8c; stroke:none;" d="M112 154L113 155L112 154z"/>
<path style="fill:#7a7474; stroke:none;" d="M128 154L128 155L131 155L131 154L128 154M133 154L135 156L135 154L133 154M157 154L158 155L157 154M160 154L161 155L160 154z"/>
<path style="fill:#988d8c; stroke:none;" d="M10 155L11 156L10 155M12 155L12 158L13 158L12 155M22.6667 155.333L23.3333 155.667L22.6667 155.333z"/>
<path style="fill:#7a7474; stroke:none;" d="M24 155L25 156L24 155M29 155L30 156L29 155z"/>
<path style="fill:#988d8c; stroke:none;" d="M30 155L29 157L31 157L30 155z"/>
<path style="fill:#fcfbfb; stroke:none;" d="M31 155L32 156L31 155z"/>
<path style="fill:#988d8c; stroke:none;" d="M32 155L33 156L32 155M37 159L42 155L37 159M45 155L45 158L46 158L45 155z"/>
<path style="fill:#9b3b2d; stroke:none;" d="M46 155L47 158L48 158L48 155L46 155z"/>
<path style="fill:#7a7474; stroke:none;" d="M74 155L73 157L73 158L77 158L74 155M89 155L90 156L89 155z"/>
<path style="fill:#988d8c; stroke:none;" d="M94 155L93 158L94 155z"/>
<path style="fill:#211e1e; stroke:none;" d="M100 155L101 159L102 159L100 155M105 155L103 160L107 155L105 155z"/>
<path style="fill:#7a7474; stroke:none;" d="M107 155L108 156L107 155M117 155L118 156L117 155M123 155L123 158L125 157L125 158L120 161L122 163L119 166L122 167L127 162L123 155M147 155L148 156L147 155M150 155L151 156L150 155M156 155L157 156L156 155M10.3333 156.667L10.6667 157.333L10.3333 156.667M13 156L14 157L13 156M15 158L20 158L15 158M25 156L26 157L25 156z"/>
<path style="fill:#988d8c; stroke:none;" d="M26 156L28 158L26 156z"/>
<path style="fill:#fcfbfb; stroke:none;" d="M27.6667 156.333L28.3333 156.667L27.6667 156.333z"/>
<path style="fill:#211e1e; stroke:none;" d="M44 156L45 157L44 156z"/>
<path style="fill:#7a7474; stroke:none;" d="M46 156L47 157L46 156z"/>
<path style="fill:#988d8c; stroke:none;" d="M50 156L51 157L50 156z"/>
<path style="fill:#7a7474; stroke:none;" d="M71 156L72 157L71 156M82 156L84 158L82 156z"/>
<path style="fill:#988d8c; stroke:none;" d="M98.3333 156.667L98.6667 157.333L98.3333 156.667z"/>
<path style="fill:#7a7474; stroke:none;" d="M120.667 156.333L121.333 156.667L120.667 156.333M139 156L140 157L139 156M143 156L144 157L143 156M153 156L154 157L153 156M160 156L161 157L160 156M163 156L164 157L163 156z"/>
<path style="fill:#fcfbfb; stroke:none;" d="M13 157C16.1416 161.409 22.5204 159.492 27 158L27 157L13 157z"/>
<path style="fill:#988d8c; stroke:none;" d="M14 157L15 158L14 157z"/>
<path style="fill:#211e1e; stroke:none;" d="M16.6667 157.333L17.3333 157.667L16.6667 157.333z"/>
<path style="fill:#988d8c; stroke:none;" d="M20 157L20 158L23 158L20 157z"/>
<path style="fill:#211e1e; stroke:none;" d="M34 157L35 158L34 157M36 157L37 158L36 157z"/>
<path style="fill:#9b3b2d; stroke:none;" d="M43 157L44 158L43 157z"/>
<path style="fill:#211e1e; stroke:none;" d="M46 157L47 158L46 157z"/>
<path style="fill:#988d8c; stroke:none;" d="M49 157L51 160L49 157M53.3333 157.667L53.6667 158.333L53.3333 157.667z"/>
<path style="fill:#7a7474; stroke:none;" d="M61 157L62 158L61 157M66.3333 157.667L66.6667 158.333L66.3333 157.667M68.6667 157.333L69.3333 157.667L68.6667 157.333M85 157L87 159L85 157M132 157L133 158L132 157M140 157L141 158L140 157M148 157L149 158L148 157M150 157L151 158L150 157M162 157L163 158L162 157z"/>
<path style="fill:#988d8c; stroke:none;" d="M10 158L11 159L10 158z"/>
<path style="fill:#9b3b2d; stroke:none;" d="M45 158L46 159L45 158z"/>
<path style="fill:#211e1e; stroke:none;" d="M107 158L107 159L111 159L107 158z"/>
<path style="fill:#7a7474; stroke:none;" d="M130 158L128 161L132 159L130 158M141 158L142 159L141 158M144 158L145 159L144 158M153 158L154 159L153 158M163 158L164 159L163 158z"/>
<path style="fill:#988d8c; stroke:none;" d="M166 158L167 159L166 158M11 159L12 160L11 159M14 159L15 160L14 159M18.6667 159.333L19.3333 159.667L18.6667 159.333M21 159L21 160L24 160L21 159z"/>
<path style="fill:#7a7474; stroke:none;" d="M24 159L25 160L24 159z"/>
<path style="fill:#988d8c; stroke:none;" d="M34 159L35 160L34 159z"/>
<path style="fill:#211e1e; stroke:none;" d="M36.0154 159.746C27.0183 163.165 30.6071 177.603 39.9954 174.242C49.423 170.868 46.2786 155.846 36.0154 159.746z"/>
<path style="fill:#9b3b2d; stroke:none;" d="M44 159L45 160L44 159z"/>
<path style="fill:#7a7474; stroke:none;" d="M51 159L52 160L51 159M64 159L65 160L64 159M68 159L69 160L68 159M72 159L73 160L72 159M80.6667 159.333L81.3333 159.667L80.6667 159.333M90.3333 159.667L90.6667 160.333L90.3333 159.667M142 159L143 160L142 159M146 159L147 160L146 159M160 159L161 160L160 159M162 159L163 160L162 159M164.667 159.333L165.333 159.667L164.667 159.333M167 159L168 160L167 159z"/>
<path style="fill:#988d8c; stroke:none;" d="M12 160L13 161L12 160M26 165L33 161C29.0653 160.057 27.1135 161.061 26 165z"/>
<path style="fill:#9b3b2d; stroke:none;" d="M48 160L49 161L48 160M50 160L51 161L50 160z"/>
<path style="fill:#7a7474; stroke:none;" d="M58.6667 160.333L59.3333 160.667L58.6667 160.333z"/>
<path style="fill:#988d8c; stroke:none;" d="M103 160L104 161L103 160z"/>
<path style="fill:#211e1e; stroke:none;" d="M111 160L111 163L112 163L111 160z"/>
<path style="fill:#7a7474; stroke:none;" d="M138 161L138 162L142 161L138 161M143.667 160.333L144.333 160.667L143.667 160.333M147 160L148 161L147 160M156.333 160.667L156.667 161.333L156.333 160.667M158.333 160.667L158.667 161.333L158.333 160.667M166 160L167 161L166 160M17 161L18 162L17 161z"/>
<path style="fill:#988d8c; stroke:none;" d="M18.6667 161.333L19.3333 161.667L18.6667 161.333M36 161C30.8968 167.399 34.9627 174.745 40 167L36 161z"/>
<path style="fill:#9b3b2d; stroke:none;" d="M39 172C41.9493 170.545 46.1182 167.284 43.7778 163.438C42.8148 161.856 39.5872 160.726 38.8758 163.164C38.0736 165.912 40.0267 168.777 39 172M45 161L46 162L45 161z"/>
<path style="fill:#7a7474; stroke:none;" d="M64 161L65 162L64 161M66 161L67 162L66 161M69 161L70 162L69 161M71 161L72 162L71 161M76.6667 161.333L77.3333 161.667L76.6667 161.333M82 161L83 162L82 161M89 161L90 162L89 161z"/>
<path style="fill:#988d8c; stroke:none;" d="M116 161L117 162L116 161z"/>
<path style="fill:#7a7474; stroke:none;" d="M131 161L132 162L131 161M146 161L147 162L146 161M148 161L149 162L148 161M161 161L162 162L161 161M164 161L165 162L164 161M167 161L168 162L167 161z"/>
<path style="fill:#988d8c; stroke:none;" d="M170 161L171 162L170 161z"/>
<path style="fill:#7a7474; stroke:none;" d="M14 162L15 163L14 162z"/>
<path style="fill:#988d8c; stroke:none;" d="M16 162L17 163L16 162z"/>
<path style="fill:#fcfbfb; stroke:none;" d="M16 163C17.1018 166.012 17.7662 167.07 21 167L20 162L16 163z"/>
<path style="fill:#9b3b2d; stroke:none;" d="M21 162L22 163L21 162z"/>
<path style="fill:#988d8c; stroke:none;" d="M22.3333 162.667L22.6667 163.333L22.3333 162.667z"/>
<path style="fill:#7a7474; stroke:none;" d="M34 162L35 163L34 162z"/>
<path style="fill:#9b3b2d; stroke:none;" d="M48 162L49 163L48 162z"/>
<path style="fill:#7a7474; stroke:none;" d="M68 162L69 163L68 162M79 162L80 163L79 162z"/>
<path style="fill:#988d8c; stroke:none;" d="M100 162C100.304 165.829 101.205 167.173 105 168L105 169L102 172L101 172L100 168L99 168L100 172L100 178L103 173L104 173L107 174L107 178L114 179L119 179L119 189L113 191L113 190L115 190L115 189L96 191L97 194L100 192C100.62 195.723 105.694 193.333 108 192C108.806 196.849 121.303 193.068 124 191L122 194L128 194L128 193L125 192L123 186L127 186L127 187L125 188L126 192L131 190L131 191L128 193L129 194L133 192L133 193L131 193L131 194L135 192L136 192L139 194L134 191L134 190L141 192L148 194L170 194L168 185L166 181L164 182C162.553 177.853 157.307 168.57 153 175L138 176L139 174L138 174L123 173L115 175L114 175L115 172L113 175L112 175L113 170L108 164L107 164L107 168L106 168L105 165L102 166L104 163L100 162M104 162L105 163L104 162z"/>
<path style="fill:#7a7474; stroke:none;" d="M129 162L130 163L129 162M147 162L148 163L147 162M171 162L172 163L171 162z"/>
<path style="fill:#988d8c; stroke:none;" d="M14 163L15 164L14 163M19 163L20 164L19 163z"/>
<path style="fill:#7a7474; stroke:none;" d="M33 163L34 164L33 163M71.6667 163.333L72.3333 163.667L71.6667 163.333z"/>
<path style="fill:#211e1e; stroke:none;" d="M112 163L112 166L113 166L112 163z"/>
<path style="fill:#7a7474; stroke:none;" d="M131 163L132 164L131 163M143 163L146 165L143 163M146 163L147 164L146 163z"/>
<path style="fill:#211e1e; stroke:none;" d="M150 163L152 165L150 163z"/>
<path style="fill:#7a7474; stroke:none;" d="M160 163L162 165L160 163M170 163L170 165L172 165L170 163M172 163L173 164L172 163z"/>
<path style="fill:#988d8c; stroke:none;" d="M23 164L24 165L23 164z"/>
<path style="fill:#7a7474; stroke:none;" d="M36 164L37 165L36 164z"/>
<path style="fill:#988d8c; stroke:none;" d="M50 164L51 165L50 164z"/>
<path style="fill:#7a7474; stroke:none;" d="M75 164L75 166L77 164L75 164M78 164L77 166L78 164M88 164L86 165L86 166L88 164M91 164L92 165L91 164z"/>
<path style="fill:#988d8c; stroke:none;" d="M105 164L106 165L105 164z"/>
<path style="fill:#7a7474; stroke:none;" d="M116.333 164.667L116.667 165.333L116.333 164.667M124 164L124 165L127 166L124 164M137 164L138 165L137 164M142 164L143 165L142 164M163 164L163 165L166 166L166 165L166 164L163 164z"/>
<path style="fill:#988d8c; stroke:none;" d="M15 165L16 166L15 165z"/>
<path style="fill:#7a7474; stroke:none;" d="M16 165L17 166L16 165z"/>
<path style="fill:#988d8c; stroke:none;" d="M20 165L21 166L20 165z"/>
<path style="fill:#9b3b2d; stroke:none;" d="M25 165L24 167L25 165z"/>
<path style="fill:#7a7474; stroke:none;" d="M32 165L33 166L32 165M37 165L38 166L37 165z"/>
<path style="fill:#211e1e; stroke:none;" d="M38 165L40 167L40 165L38 165z"/>
<path style="fill:#9b3b2d; stroke:none;" d="M46 165L46 168L47 168L46 165z"/>
<path style="fill:#988d8c; stroke:none;" d="M60 165L61 166L60 165z"/>
<path style="fill:#7a7474; stroke:none;" d="M82 165L83 166L82 165M131 165L132 166L131 165z"/>
<path style="fill:#211e1e; stroke:none;" d="M144 165L147 171L142 168L140 173L149 172L148 168L154 168L153 165L144 165z"/>
<path style="fill:#7a7474; stroke:none;" d="M147 165L148 166L147 165M172 165L172 167L174 167L172 165z"/>
<path style="fill:#211e1e; stroke:none;" d="M16 166L17 167L16 166z"/>
<path style="fill:#7a7474; stroke:none;" d="M76 166L77 167L76 166M90 166L91 167L90 166z"/>
<path style="fill:#988d8c; stroke:none;" d="M109 166L110 167L109 166z"/>
<path style="fill:#211e1e; stroke:none;" d="M113 166L115 168L113 166z"/>
<path style="fill:#7a7474; stroke:none;" d="M129 166L128 167L133 168L133 167L129 166M139 166L140 167L139 166M170 166L171 167L170 166M16.6667 167.333L17.3333 167.667L16.6667 167.333z"/>
<path style="fill:#988d8c; stroke:none;" d="M20 167L21 168L20 167z"/>
<path style="fill:#9b3b2d; stroke:none;" d="M23.3333 167.667L23.6667 168.333L23.3333 167.667z"/>
<path style="fill:#988d8c; stroke:none;" d="M25.3333 167.667L25.6667 168.333L25.3333 167.667z"/>
<path style="fill:#7a7474; stroke:none;" d="M77 167L78 168L77 167M82 167L83 168L82 167M87 167L86 169L88 169L87 167M119 167L122 170L119 167M136 167L137 168L136 167M145 167L146 168L145 167M164 167L163 170L164 167M174 167L175 168L174 167z"/>
<path style="fill:#988d8c; stroke:none;" d="M177 167L178 168L177 167M18 168L19 169L18 168z"/>
<path style="fill:#7a7474; stroke:none;" d="M19 168L20 169L19 168M39 168L40 169L39 168M84 168L85 169L84 168z"/>
<path style="fill:#211e1e; stroke:none;" d="M124 168L119 171L119 172C122.024 171.9 125.966 171.727 124 168M126 171L135 171L134 168L126 171z"/>
<path style="fill:#7a7474; stroke:none;" d="M134 170L137 170L136 168L134 170M141 168L142 169L141 168M143 168L143 170L145 168L143 168M166 168L166 169L170 169L170 168L166 168z"/>
<path style="fill:#988d8c; stroke:none;" d="M178 168L179 169L178 168M16 169L17 170L16 169M27 169L27 171L29 171L29 169L27 169z"/>
<path style="fill:#9b3b2d; stroke:none;" d="M30 169L31 170L30 169z"/>
<path style="fill:#7a7474; stroke:none;" d="M79 169L80 170L79 169M81 169L82 170L81 169M108 169L105 170L109 173L108 169M146.333 169.667L146.667 170.333L146.333 169.667z"/>
<path style="fill:#211e1e; stroke:none;" d="M154 169L156 171L154 169z"/>
<path style="fill:#988d8c; stroke:none;" d="M179 169L180 170L179 169z"/>
<path style="fill:#7a7474; stroke:none;" d="M15 170L16 171L15 170M32 170L33 171L32 170M37 170L38 171L37 170z"/>
<path style="fill:#211e1e; stroke:none;" d="M57 171L57 172L62 171L57 171M66 170L66 173L67 173L66 170M74 170L75 171L74 170z"/>
<path style="fill:#7a7474; stroke:none;" d="M80 170L81 171L80 170z"/>
<path style="fill:#211e1e; stroke:none;" d="M117 170L118 171L117 170M138 170L138 172L140 172L138 170z"/>
<path style="fill:#7a7474; stroke:none;" d="M144 170L145 171L144 170z"/>
<path style="fill:#988d8c; stroke:none;" d="M152 170L152 173L154 170L152 170M180 170L181 171L180 170M13 171L14 172L13 171z"/>
<path style="fill:#211e1e; stroke:none;" d="M21 171L22 172L21 171z"/>
<path style="fill:#988d8c; stroke:none;" d="M22 171L23 172L22 171z"/>
<path style="fill:#211e1e; stroke:none;" d="M24 171L27 178L28 178L30 176L29 173L24 171z"/>
<path style="fill:#9b3b2d; stroke:none;" d="M31 171L32 172L31 171M44 171L45 172L44 171z"/>
<path style="fill:#988d8c; stroke:none;" d="M59 173L62 172L59 173z"/>
<path style="fill:#211e1e; stroke:none;" d="M75.3333 171.667L75.6667 172.333L75.3333 171.667z"/>
<path style="fill:#7a7474; stroke:none;" d="M83 171L84 172L83 171M88 171L88 172L91 173L88 171z"/>
<path style="fill:#211e1e; stroke:none;" d="M156 171L156 172L161 173L161 172L156 171z"/>
<path style="fill:#7a7474; stroke:none;" d="M174 171L175 172L174 171M178 171L179 172L178 171M12 172L13 173L12 172z"/>
<path style="fill:#988d8c; stroke:none;" d="M7 191L8 191C7.55899 181.776 14.0142 176.49 22 173C12.5866 169.945 5.21231 183.198 7 191z"/>
<path style="fill:#9b3b2d; stroke:none;" d="M26 172L27 173L26 172M43 172L44 173L43 172z"/>
<path style="fill:#211e1e; stroke:none;" d="M61.6667 172.333L62.3333 172.667L61.6667 172.333z"/>
<path style="fill:#9b3b2d; stroke:none;" d="M76 172L77 173L76 172z"/>
<path style="fill:#7a7474; stroke:none;" d="M81 172L82 173L81 172M104 172L106 174L104 172M157 172L158 173L157 172M167 172L168 173L167 172M179 172L180 173L179 172z"/>
<path style="fill:#988d8c; stroke:none;" d="M61 173L62 174L61 173M63 173L64 174L63 173z"/>
<path style="fill:#211e1e; stroke:none;" d="M65 173L64 179L65 173M67 173L67 178L68 178L67 173z"/>
<path style="fill:#7a7474; stroke:none;" d="M82.3333 173.667L82.6667 174.333L82.3333 173.667M89 173L89 176L90 176L89 173M103 173L99 182L99 183L103 183L104 178C107.45 179.02 111.442 179.927 114 177L105 178L107 174L103 173z"/>
<path style="fill:#988d8c; stroke:none;" d="M140 173L141 174L140 173M150 173L151 174L150 173z"/>
<path style="fill:#211e1e; stroke:none;" d="M161 173L163 176L165 180L165 174L161 173z"/>
<path style="fill:#7a7474; stroke:none;" d="M176 173L177 174L176 173M180 173L181 174L180 173M9 174L10 175L9 174z"/>
<path style="fill:#988d8c; stroke:none;" d="M58 177L64 176C61.3722 174.603 59.8192 174.585 58 177M66.3333 174.667L66.6667 175.333L66.3333 174.667z"/>
<path style="fill:#7a7474; stroke:none;" d="M101 174L102 175L101 174M181 174L182 175L181 174M8 175L9 176L8 175z"/>
<path style="fill:#9b3b2d; stroke:none;" d="M28 175L29 176L28 175z"/>
<path style="fill:#7a7474; stroke:none;" d="M54 175L55 180L58 180L57 175L54 175M127 175L128 176L127 175M182 175L183 176L182 175M184 175L185 176L184 175M7 176L8 177L7 176z"/>
<path style="fill:#988d8c; stroke:none;" d="M45.3333 176.667L45.6667 177.333L45.3333 176.667z"/>
<path style="fill:#7a7474; stroke:none;" d="M84 176L85 177L84 176z"/>
<path style="fill:#211e1e; stroke:none;" d="M96 176L95 186L96 186L96 176M99 176L99 181L104 176L99 176M105 176L105 178L107 176L105 176z"/>
<path style="fill:#7a7474; stroke:none;" d="M133 176L134 177L133 176M136 176L135 178L136 176M162 176L163 177L162 176M174 176L173 179L174 176M183 176L184 177L183 176z"/>
<path style="fill:#988d8c; stroke:none;" d="M185 176L186 177L185 176M6 177L7 178L6 177z"/>
<path style="fill:#7a7474; stroke:none;" d="M86 177L80 195C85.1461 191.626 87.6221 182.801 89 177L86 177z"/>
<path style="fill:#988d8c; stroke:none;" d="M98.3333 177.667L98.6667 178.333L98.3333 177.667M103 177L104 178L103 177z"/>
<path style="fill:#7a7474; stroke:none;" d="M125 177L124 179L125 177M130 177L131 178L130 177M146 177L148 179L146 177M156 177L156 178L159 178L159 177L156 177z"/>
<path style="fill:#988d8c; stroke:none;" d="M186 177L187 178L186 177M33.6667 178.333L34.3333 178.667L33.6667 178.333M36 178L37 179L36 178z"/>
<path style="fill:#211e1e; stroke:none;" d="M30 187C36.1191 179.77 42.5494 177.944 51 182C46.9163 174.594 29.096 177.811 30 187z"/>
<path style="fill:#988d8c; stroke:none;" d="M59 178L60 179L59 178M65 178L63 179L63 180L65 178z"/>
<path style="fill:#211e1e; stroke:none;" d="M66 178L60 181L60 182C63.0606 181.9 66.8669 181.86 66 178z"/>
<path style="fill:#7a7474; stroke:none;" d="M82 178L82 182L83 182L84 178L82 178z"/>
<path style="fill:#988d8c; stroke:none;" d="M102 178L103 179L102 178z"/>
<path style="fill:#211e1e; stroke:none;" d="M103 179L103 180L117 180L116 188L94 187C97.9894 191.565 112.132 189 118 189L118 179L103 179z"/>
<path style="fill:#7a7474; stroke:none;" d="M116 178L117 179L116 178M119 178L120 179L119 178M138 178L139 179L138 178M140 178L141 179L140 178M143 178L142 180L143 178M152 178L153 179L152 178z"/>
<path style="fill:#988d8c; stroke:none;" d="M167 178L168 179L167 178z"/>
<path style="fill:#7a7474; stroke:none;" d="M180 178L180 182L181 182L180 178z"/>
<path style="fill:#988d8c; stroke:none;" d="M43 179C44.8191 181.39 46.1506 181.296 48 179L43 179z"/>
<path style="fill:#7a7474; stroke:none;" d="M45.6667 179.333L46.3333 179.667L45.6667 179.333z"/>
<path style="fill:#988d8c; stroke:none;" d="M56 179L57 180L56 179z"/>
<path style="fill:#7a7474; stroke:none;" d="M65 179L66 180L65 179z"/>
<path style="fill:#fcfbfb; stroke:none;" d="M98 179L98 183L99 183L98 179z"/>
<path style="fill:#988d8c; stroke:none;" d="M101 179L100 181L101 179z"/>
<path style="fill:#7a7474; stroke:none;" d="M118 179L119 180L118 179M126 179L127 180L126 179M130 179L131 180L130 179M133 181L136 180L133 181M150 179L151 180L150 179M159 179L160 180L159 179M175 179L178 182L175 179M185 179L186 180L185 179M187 179L188 180L187 179M37 180L38 181L37 180z"/>
<path style="fill:#988d8c; stroke:none;" d="M38 180L39 184L38 180M91 180L92 181L91 180z"/>
<path style="fill:#fcfbfb; stroke:none;" d="M101 180L102 181L101 180z"/>
<path style="fill:#9b3b2d; stroke:none;" d="M103 180L107 185L107 186L100 182L100 186L97 183L96 183L95 187L116 188L117 180L103 180z"/>
<path style="fill:#7a7474; stroke:none;" d="M137 180L138 181L137 180M146 180L145 182L146 180M148 180L149 181L148 180M153.333 180.667L153.667 181.333L153.333 180.667z"/>
<path style="fill:#211e1e; stroke:none;" d="M165 180L166 181L165 180z"/>
<path style="fill:#988d8c; stroke:none;" d="M188 180L189 181L188 180z"/>
<path style="fill:#7a7474; stroke:none;" d="M16 181L17 182L16 181z"/>
<path style="fill:#9b3b2d; stroke:none;" d="M31 181L32 182L31 181z"/>
<path style="fill:#988d8c; stroke:none;" d="M102 181L103 184L104 184L102 181z"/>
<path style="fill:#211e1e; stroke:none;" d="M103 181L104 182L103 181z"/>
<path style="fill:#7a7474; stroke:none;" d="M131 181L132 182L131 181M141 181L140 185L141 185L143 183L141 181M155 181L155 184L159 183L159 182L155 181z"/>
<path style="fill:#211e1e; stroke:none;" d="M166 181L167 182L166 181z"/>
<path style="fill:#988d8c; stroke:none;" d="M15.6667 182.333L16.3333 182.667L15.6667 182.333z"/>
<path style="fill:#9b3b2d; stroke:none;" d="M59 182L60 183L59 182z"/>
<path style="fill:#211e1e; stroke:none;" d="M104 182L105 183L104 182M108 182L108 186C109.813 184.444 109.813 183.556 108 182M111 182L111 186C112.813 184.444 112.813 183.556 111 182M114 182L116 184L116 182L114 182z"/>
<path style="fill:#7a7474; stroke:none;" d="M118 182L118 185L119 185L118 182M123 182L124 183L123 182M126 182L127 183L126 182M150.333 182.667L150.667 183.333L150.333 182.667z"/>
<path style="fill:#211e1e; stroke:none;" d="M167.333 182.667L167.667 183.333L167.333 182.667z"/>
<path style="fill:#7a7474; stroke:none;" d="M175 182L176 183L175 182M183 182L184 183L183 182M187 182L188 183L187 182M189 182L190 183L189 182z"/>
<path style="fill:#9b3b2d; stroke:none;" d="M29 183L30 184L29 183z"/>
<path style="fill:#7a7474; stroke:none;" d="M55 184L55 185L58 185L58 184L55 184z"/>
<path style="fill:#988d8c; stroke:none;" d="M93 183L94 184L93 183M98.3333 183.667L98.6667 184.333L98.3333 183.667z"/>
<path style="fill:#211e1e; stroke:none;" d="M99 183L97 185L97 186C99.2508 185.527 100.118 185.14 99 183M102 183L103 184L102 183z"/>
<path style="fill:#7a7474; stroke:none;" d="M104 183L105 184L104 183M144 183L145 184L144 183M147 183L148 184L147 183M162.667 183.333L163.333 183.667L162.667 183.333z"/>
<path style="fill:#988d8c; stroke:none;" d="M190 183L191 184L190 183z"/>
<path style="fill:#7a7474; stroke:none;" d="M18 184L19 185L18 184z"/>
<path style="fill:#988d8c; stroke:none;" d="M36 184L37 185L36 184M56 184L57 185L56 184z"/>
<path style="fill:#211e1e; stroke:none;" d="M103 184L103 185L107 186L107 185L103 184z"/>
<path style="fill:#fcfbfb; stroke:none;" d="M104 184L105 185L104 184z"/>
<path style="fill:#7a7474; stroke:none;" d="M134 184L135 185L134 184M153 184L152 186L153 184M159 184L160 185L159 184M186 184L185 186L186 184M188 184L189 185L188 184z"/>
<path style="fill:#211e1e; stroke:none;" d="M15 185L16 186L15 185z"/>
<path style="fill:#7a7474; stroke:none;" d="M58 185L59 186L58 185z"/>
<path style="fill:#988d8c; stroke:none;" d="M93.3333 185.667L93.6667 186.333L93.3333 185.667z"/>
<path style="fill:#211e1e; stroke:none;" d="M114 185L115 186L114 185z"/>
<path style="fill:#7a7474; stroke:none;" d="M130 185L130 189L131 189L130 185M136 185L137 186L136 185M179 185L178 187L179 185z"/>
<path style="fill:#988d8c; stroke:none;" d="M191 185L192 186L191 185z"/>
<path style="fill:#211e1e; stroke:none;" d="M33.3333 186.667L33.6667 187.333L33.3333 186.667M35.3333 186.667L35.6667 187.333L35.3333 186.667z"/>
<path style="fill:#7a7474; stroke:none;" d="M118 186L118 189L119 189L118 186M134.333 186.667L134.667 187.333L134.333 186.667M139.333 186.667L139.667 187.333L139.333 186.667M145 186L146 187L145 186M147 186L148 187L147 186M155 186L155 187L158 188L155 186M168 186L169 189L168 186M183 186L184 187L183 186M191 186L192 187L191 186z"/>
<path style="fill:#211e1e; stroke:none;" d="M90 187L91 188L90 187z"/>
<path style="fill:#7a7474; stroke:none;" d="M121 187L122 188L121 187M137 187L138 188L137 187M149 187L152 189L152 188L149 187M153 187L154 188L153 187z"/>
<path style="fill:#988d8c; stroke:none;" d="M82 188L81 190L82 188M92 188L93 192L99 190L92 188z"/>
<path style="fill:#7a7474; stroke:none;" d="M128 188L129 189L128 188M132.333 188.667L132.667 189.333L132.333 188.667M165 188L166 189L165 188M179 188L180 189L179 188M181.333 188.667L181.667 189.333L181.333 188.667M192 188L193 189L192 188M69 189L70 190L69 189M104 189L105 190L104 189M109 189L110 190L109 189M113 190L113 191L117 190L113 190M123 189L124 190L123 189M148 189L149 190L148 189z"/>
<path style="fill:#211e1e; stroke:none;" d="M173 189L174 190L173 189z"/>
<path style="fill:#988d8c; stroke:none;" d="M188.333 189.667L188.667 190.333L188.333 189.667z"/>
<path style="fill:#7a7474; stroke:none;" d="M67.6667 190.333L68.3333 190.667L67.6667 190.333M101 190L103 193L101 190M105 190L106 191L105 190M108 190L109 193L110 193L108 190M111 190L112 191L111 190M117 190L115 193L117 191L118 191L120 193L117 190M140 190L141 191L140 190M144 190L142 193L146 193L144 190M146 190L147 191L146 190M150 190L151 191L150 190M163 190L164 191L163 190M169 190L169 193L170 193L169 190z"/>
<path style="fill:#988d8c; stroke:none;" d="M8 191L9 192L8 191z"/>
<path style="fill:#7a7474; stroke:none;" d="M66 191L67 192L66 191M77 191L76 194L77 191z"/>
<path style="fill:#211e1e; stroke:none;" d="M88 191L88 194L89 194L88 191z"/>
<path style="fill:#988d8c; stroke:none;" d="M193 191L194 192L193 191z"/>
<path style="fill:#7a7474; stroke:none;" d="M64.6667 192.333L65.3333 192.667L64.6667 192.333M104 192L105 193L104 192M148 192L149 193L148 192M164 192L165 193L164 192z"/>
<path style="fill:#211e1e; stroke:none;" d="M174 192L174 193L177 193L174 192z"/>
<path style="fill:#7a7474; stroke:none;" d="M193.333 192.667L193.667 193.333L193.333 192.667M63 193L64 194L63 193z"/>
<path style="fill:#988d8c; stroke:none;" d="M194 194L194 195L206 195L194 194z"/>
</svg>
