<svg width="492.000000pt" height="908.000000pt" viewBox="0 0 492.000000 908.000000" xmlns="http://www.w3.org/2000/svg">
  <g transform="translate(0.000000,908.000000) scale(0.100000,-0.100000)" fill="#929292" stroke="none">
    <path d="M0 4540 l0 -4540 280 0 280 0 0 4540 0 4540 -280 0 -280 0 0 -4540z" />
    <path d="M870 4540 l0 -4540 285 0 285 0 0 4540 0 4540 -285 0 -285 0 0 -4540z" />
    <path d="M1740 4540 l0 -4540 280 0 280 0 0 4540 0 4540 -280 0 -280 0 0
-4540z" />
    <path d="M2610 4540 l0 -4540 285 0 285 0 0 4540 0 4540 -285 0 -285 0 0
-4540z" />
    <path d="M3480 4540 l0 -4540 285 0 285 0 0 4540 0 4540 -285 0 -285 0 0
-4540z" />
    <path d="M4360 4540 l0 -4540 280 0 280 0 0 4540 0 4540 -280 0 -280 0 0
-4540z" />
  </g>
  <g transform="translate(0.000000,908.000000) scale(0.100000,-0.100000)" fill="#ffffff" stroke="none">
    <path d="M550 4540 l0 -4540 165 0 165 0 0 4540 0 4540 -165 0 -165 0 0 -4540z" />
    <path d="M1430 4540 l0 -4540 160 0 160 0 0 4540 0 4540 -160 0 -160 0 0
-4540z" />
    <path d="M2290 4540 l0 -4540 165 0 165 0 0 4540 0 4540 -165 0 -165 0 0
-4540z" />
    <path d="M3170 4540 l0 -4540 160 0 160 0 0 4540 0 4540 -160 0 -160 0 0
-4540z" />
    <path d="M4040 4540 l0 -4540 165 0 165 0 0 4540 0 4540 -165 0 -165 0 0
-4540z" />
  </g>
  <g transform="translate(0.000000,908.000000) scale(0.100000,-0.100000)" fill="#d5d5d5" stroke="none">
    <path d="M1745 4540 c0 -2500 1 -3522 2 -2273 2 1250 2 3296 0 4545 -1 1250
-2 228 -2 -2272z" />
    <path d="M2295 4540 c0 -2500 1 -3522 2 -2273 2 1250 2 3296 0 4545 -1 1250
-2 228 -2 -2272z" />
    <path d="M3175 4540 c0 -2500 1 -3522 2 -2273 2 1250 2 3296 0 4545 -1 1250
-2 228 -2 -2272z" />
  </g>
  <g transform="translate(0.000000,908.000000) scale(0.100000,-0.100000)" fill="#e2e2e2" stroke="none">
    <path d="M1435 4540 c0 -2500 1 -3522 2 -2273 2 1250 2 3296 0 4545 -1 1250
-2 228 -2 -2272z" />
    <path d="M3485 4540 c0 -2500 1 -3522 2 -2273 2 1250 2 3296 0 4545 -1 1250
-2 228 -2 -2272z" />
    <path d="M4365 4540 c0 -2500 1 -3522 2 -2273 2 1250 2 3296 0 4545 -1 1250
-2 228 -2 -2272z" />
  </g>
  <g transform="translate(0.000000,908.000000) scale(0.100000,-0.100000)" fill="#000000" stroke="none" />
  <g transform="translate(0.000000,908.000000) scale(0.100000,-0.100000)" fill="#000000" stroke="none" />
  <g transform="translate(0.000000,908.000000) scale(0.100000,-0.100000)" fill="#000000" stroke="none" />
  <g transform="translate(0.000000,908.000000) scale(0.100000,-0.100000)" fill="#000000" stroke="none" />
  <g transform="translate(0.000000,908.000000) scale(0.100000,-0.100000)" fill="#000000" stroke="none" />
  <g transform="translate(0.000000,908.000000) scale(0.100000,-0.100000)" fill="#000000" stroke="none" />
  <g transform="translate(0.000000,908.000000) scale(0.100000,-0.100000)" fill="#000000" stroke="none" />
  <g transform="translate(0.000000,908.000000) scale(0.100000,-0.100000)" fill="#ffffff" stroke="none" />
  <g transform="translate(0.000000,908.000000) scale(0.100000,-0.100000)" fill="#00ffff" stroke="none" />
  <g transform="translate(0.000000,908.000000) scale(0.100000,-0.100000)" fill="#0000ff" stroke="none" />
  <g transform="translate(0.000000,908.000000) scale(0.100000,-0.100000)" fill="#000000" stroke="none" />
  <g transform="translate(0.000000,908.000000) scale(0.100000,-0.100000)" fill="#ffff00" stroke="none" />
  <g transform="translate(0.000000,908.000000) scale(0.100000,-0.100000)" fill="#00ff00" stroke="none" />
  <g transform="translate(0.000000,908.000000) scale(0.100000,-0.100000)" fill="#ff0000" stroke="none" />
  <g transform="translate(0.000000,908.000000) scale(0.100000,-0.100000)" fill="#c0c0c0" stroke="none" />
  <g transform="translate(0.000000,908.000000) scale(0.100000,-0.100000)" fill="#808080" stroke="none" />
  <g transform="translate(0.000000,908.000000) scale(0.100000,-0.100000)" fill="#008080" stroke="none" />
  <g transform="translate(0.000000,908.000000) scale(0.100000,-0.100000)" fill="#800080" stroke="none" />
  <g transform="translate(0.000000,908.000000) scale(0.100000,-0.100000)" fill="#000080" stroke="none" />
  <g transform="translate(0.000000,908.000000) scale(0.100000,-0.100000)" fill="#ff00ff" stroke="none" />
  <g transform="translate(0.000000,908.000000) scale(0.100000,-0.100000)" fill="#000000" stroke="none" />
</svg>